<svg width="345" height="493" viewBox="0 0 345 493" fill="none" xmlns="http://www.w3.org/2000/svg">
<mask id="mask0_1298_4604" style="mask-type:alpha" maskUnits="userSpaceOnUse" x="0" y="0" width="345" height="493">
<rect width="345" height="493" fill="#C4C4C4"/>
</mask>
<g mask="url(#mask0_1298_4604)">
<path opacity="0.1" fill-rule="evenodd" clip-rule="evenodd" d="M209.559 40.0658L180.309 48.61L189.525 81.0296C211.006 76.3811 233.12 75.2827 255.006 77.8069C281.556 80.8691 307.251 89.2024 330.623 102.331C353.996 115.46 374.589 133.127 391.227 154.323C407.864 175.519 420.221 199.83 427.59 225.867C438.077 262.293 438.352 300.96 428.386 337.536L497.946 420.224L396.148 405.003C369.621 441.885 331.739 468.769 288.475 481.414L288.25 481.48C236.335 496.645 180.603 490.283 133.315 463.793C86.0269 437.303 51.0564 392.855 36.0964 340.228C21.1364 287.601 27.4124 231.104 53.5437 183.168C77.2483 139.683 115.53 106.473 161.189 89.3593L151.96 56.8913L122.71 65.4355L116.097 42.1711L159.521 29.4863L175.211 84.6815L175.212 84.6814L159.522 29.486L159.746 29.4205L159.746 29.4205L202.945 16.8013L209.559 40.0658ZM274.042 431.532L274.051 431.529C312.527 420.314 345.106 394.205 364.75 358.842C368.258 352.403 371.327 345.73 373.936 338.867C386.054 307.545 387.638 273.045 378.445 240.717L378.251 240.033C367.003 200.689 340.826 167.47 305.458 147.658C270.09 127.846 228.416 123.056 189.571 134.338L189.346 134.403C170.119 140.052 152.178 149.485 136.548 162.162C120.917 174.839 107.903 190.514 98.2479 208.29C88.5929 226.066 82.4863 245.595 80.2768 265.764C78.0674 285.931 79.7981 306.342 85.3699 325.832L85.3706 325.834C96.619 365.178 122.796 398.397 158.164 418.209C193.529 438.02 235.198 442.811 274.042 431.532ZM293.875 177.235L306.712 222.396L249.563 239.09L259.742 274.899L288.789 377.079L260.89 385.229L260.889 385.229L232.991 393.379L203.945 291.198L203.945 291.198L193.766 255.389L136.842 272.017L124.004 226.857L208.826 202.079L293.875 177.235Z" fill="#31A4A1"/>
</g>
</svg>
