<svg width="315" height="198" viewBox="0 0 315 198" fill="none" xmlns="http://www.w3.org/2000/svg">
<path d="M210.708 190.85C210.527 190.148 210.184 189.497 209.706 188.952C209.228 188.406 208.628 187.98 207.955 187.707C207.254 187.491 206.499 187.54 205.831 187.844C205.164 188.148 204.632 188.687 204.337 189.357C203.079 188.257 201.112 189.122 200.09 190.457C199.067 191.793 199.775 195.957 200.011 196.193C200.355 196.356 200.732 196.437 201.112 196.429H213.461C214.584 196.362 215.695 196.151 216.764 195.8C218.888 195.014 220.303 191.4 218.966 189.514C218.445 188.959 217.774 188.567 217.034 188.386C216.294 188.204 215.517 188.242 214.798 188.493C213.286 189.025 211.895 189.853 210.708 190.929" fill="#6CDD6C"/>
<path d="M200.955 196.821C200.54 196.83 200.131 196.721 199.775 196.507C199.303 196.114 198.045 192.421 199.775 190.143C200.496 189.238 201.539 188.647 202.685 188.493C203.196 188.411 203.719 188.493 204.18 188.728C204.478 188.223 204.915 187.814 205.438 187.55C206.246 187.159 207.169 187.075 208.034 187.314C208.682 187.554 209.27 187.931 209.759 188.419C210.248 188.907 210.625 189.495 210.865 190.143C211.997 189.23 213.273 188.513 214.64 188.021C215.444 187.739 216.313 187.701 217.139 187.911C217.964 188.12 218.709 188.569 219.281 189.2C219.608 189.707 219.813 190.283 219.882 190.882C219.95 191.482 219.879 192.089 219.674 192.657C219.52 193.409 219.191 194.114 218.713 194.715C218.234 195.316 217.62 195.795 216.921 196.114C215.825 196.467 214.689 196.678 213.539 196.743H200.955V196.821ZM203 189.278H202.764C202.309 189.35 201.872 189.513 201.481 189.756C201.089 189.998 200.75 190.317 200.483 190.693C198.989 192.5 200.09 195.564 200.326 195.878C200.571 195.994 200.849 196.022 201.112 195.957H213.461C214.527 195.891 215.582 195.707 216.607 195.407C217.192 195.141 217.706 194.738 218.102 194.232C218.499 193.726 218.769 193.132 218.888 192.5C219.054 192.066 219.119 191.6 219.078 191.137C219.037 190.674 218.891 190.227 218.652 189.828C218.19 189.311 217.583 188.945 216.909 188.777C216.236 188.608 215.528 188.646 214.876 188.885C213.437 189.433 212.105 190.231 210.944 191.243H210.629C210.472 191.243 210.393 191.085 210.315 191.007C210.16 190.356 209.85 189.752 209.412 189.246C208.974 188.74 208.42 188.347 207.798 188.1C207.458 188.002 207.103 187.973 206.752 188.013C206.401 188.054 206.061 188.163 205.753 188.335C205.28 188.552 204.912 188.948 204.73 189.435C204.73 189.593 204.573 189.671 204.494 189.75H204.101C203.96 189.6 203.789 189.48 203.6 189.399C203.41 189.318 203.206 189.277 203 189.278Z" fill="#50AA50"/>
<path d="M197.73 190.379C197.343 191.043 197.177 191.814 197.258 192.579C197.337 192.972 197.966 192.972 197.888 192.579C197.828 191.925 197.965 191.269 198.281 190.693C198.438 190.379 197.888 190.064 197.73 190.379Z" fill="#50AA50"/>
<path d="M195.921 190.85C195.739 191.543 195.712 192.267 195.843 192.971C195.921 193.364 196.551 193.207 196.472 192.814C196.341 192.215 196.368 191.592 196.551 191.007C196.629 190.693 196 190.457 195.921 190.85Z" fill="#50AA50"/>
<path d="M199.382 189.672C199.465 189.672 199.545 189.638 199.604 189.579C199.663 189.521 199.697 189.441 199.697 189.357C199.697 189.274 199.663 189.194 199.604 189.135C199.545 189.076 199.465 189.043 199.382 189.043C199.299 189.043 199.219 189.076 199.16 189.135C199.101 189.194 199.067 189.274 199.067 189.357C199.067 189.441 199.101 189.521 199.16 189.579C199.219 189.638 199.299 189.672 199.382 189.672Z" fill="#50AA50"/>
<path d="M201.112 192.578V193.128C201.112 193.212 201.146 193.292 201.205 193.351C201.264 193.41 201.344 193.443 201.427 193.443C201.51 193.443 201.59 193.41 201.649 193.351C201.708 193.292 201.742 193.212 201.742 193.128V192.578C201.742 192.495 201.708 192.415 201.649 192.356C201.59 192.297 201.51 192.264 201.427 192.264C201.344 192.264 201.264 192.297 201.205 192.356C201.146 192.415 201.112 192.495 201.112 192.578Z" fill="#50AA50"/>
<path d="M211.416 193.521V193.836C211.416 193.919 211.449 193.999 211.508 194.058C211.567 194.117 211.647 194.15 211.73 194.15C211.814 194.15 211.894 194.117 211.953 194.058C212.012 193.999 212.045 193.919 212.045 193.836V193.521C212.045 193.438 212.012 193.358 211.953 193.299C211.894 193.24 211.814 193.207 211.73 193.207C211.647 193.207 211.567 193.24 211.508 193.299C211.449 193.358 211.416 193.438 211.416 193.521Z" fill="#50AA50"/>
<path d="M210.315 192.814V192.971C210.377 193.034 210.462 193.069 210.551 193.069C210.639 193.069 210.724 193.034 210.787 192.971C210.849 192.909 210.884 192.824 210.884 192.736C210.884 192.647 210.849 192.563 210.787 192.5L210.629 192.343C210.393 192.107 209.921 192.5 210.236 192.814H210.315Z" fill="#50AA50"/>
<path d="M36.4944 179.3H15.7303C15.5217 179.3 15.3217 179.217 15.1742 179.07C15.0267 178.922 14.9438 178.723 14.9438 178.514C14.9438 178.306 15.0267 178.106 15.1742 177.959C15.3217 177.811 15.5217 177.729 15.7303 177.729H36.4944C36.703 177.729 36.903 177.811 37.0505 177.959C37.198 178.106 37.2809 178.306 37.2809 178.514C37.2809 178.723 37.198 178.922 37.0505 179.07C36.903 179.217 36.703 179.3 36.4944 179.3Z" fill="#201E1F"/>
<path d="M218.809 107.564H218.18C218.18 107.335 218.089 107.115 217.926 106.953C217.764 106.791 217.544 106.7 217.315 106.7C217.085 106.7 216.865 106.791 216.703 106.953C216.541 107.115 216.449 107.335 216.449 107.564H215.82C215.839 107.174 216.003 106.806 216.279 106.53C216.555 106.254 216.924 106.09 217.315 106.071C217.711 106.071 218.091 106.229 218.371 106.509C218.652 106.789 218.809 107.168 218.809 107.564Z" fill="#80DFDD"/>
<path d="M220.933 73.1501H220.303C220.303 72.9209 220.212 72.701 220.05 72.5389C219.888 72.3769 219.668 72.2858 219.438 72.2858C219.209 72.2858 218.989 72.3769 218.826 72.5389C218.664 72.701 218.573 72.9209 218.573 73.1501H217.944C217.944 72.7542 218.101 72.3744 218.382 72.0945C218.662 71.8145 219.042 71.6572 219.438 71.6572C219.835 71.6572 220.215 71.8145 220.495 72.0945C220.775 72.3744 220.933 72.7542 220.933 73.1501Z" fill="#80DFDD"/>
<path d="M92.4157 104.107C92.4157 82.7359 92.4944 65.4501 92.809 64.6644C93.1236 63.8787 95.9551 60.5001 97.7641 60.4216C101.697 60.4216 106.966 60.1859 113.101 60.0287C131.663 59.4787 156.989 58.6144 170.989 59.7144C172.22 59.775 173.38 60.3066 174.23 61.1989C175.079 62.0913 175.552 63.2759 175.551 64.5073L175.393 187.629C175.354 188.887 174.836 190.084 173.944 190.974C173.053 191.865 171.855 192.382 170.596 192.422L158.011 192.736C140.315 193.286 121.91 193.914 104.528 191.95L102.326 191.793C98.6292 191.636 94.0674 191.4 93.2023 186.764C92.7303 184.407 92.4157 138.914 92.4157 104.107ZM174.213 64.5073C174.197 63.6144 173.851 62.759 173.241 62.1061C172.631 61.4532 171.801 61.0491 170.91 60.9716C156.989 59.9501 131.663 60.7359 113.18 61.3644L97.8427 61.7573C96.6629 61.7573 94.5393 63.643 94.0674 65.1359C93.5955 66.6287 93.9101 183.464 94.4607 186.45C95.0112 189.436 98.8652 190.3 102.326 190.457L104.685 190.614C121.91 192.579 140.315 192.029 158.011 191.479L170.517 191.086C171.442 191.086 172.331 190.724 172.992 190.078C173.654 189.432 174.036 188.553 174.056 187.629L174.213 64.5858V64.5073Z" fill="#201E1F"/>
<path fill-rule="evenodd" clip-rule="evenodd" d="M167.764 64.2713C162.494 63.8785 155.337 63.7213 147.551 63.7999C147.43 63.7994 147.311 63.8241 147.2 63.8724C147.09 63.9206 146.991 63.9914 146.909 64.0802C146.828 64.169 146.766 64.2737 146.727 64.3879C146.689 64.502 146.674 64.6228 146.685 64.7428V65.6856C146.685 66.1024 146.52 66.5021 146.225 66.7968C145.93 67.0915 145.53 67.2571 145.112 67.2571H122.933C122.515 67.2571 122.115 67.0915 121.82 66.7968C121.525 66.5021 121.36 66.1024 121.36 65.6856V65.3713C121.36 65.1213 121.26 64.8815 121.083 64.7046C120.906 64.5278 120.666 64.4285 120.416 64.4285L102.247 64.9785C100.91 65.0571 98.8652 67.0999 98.3933 68.5928C97.9214 70.0856 98.236 180.557 98.7079 183.228C99.6517 188.1 104.921 187.236 108.382 187.628C127.652 189.907 148.573 188.571 167.371 188.1C168.38 188.041 169.329 187.603 170.029 186.875C170.729 186.146 171.128 185.181 171.146 184.171L171.303 68.2785C171.328 67.2877 170.977 66.3243 170.321 65.5811C169.664 64.838 168.751 64.3701 167.764 64.2713Z" fill="#80DFDD"/>
<path d="M75.427 175.293C77.6292 175.293 77.6292 171.915 75.427 171.915C73.2247 171.915 73.3034 175.293 75.427 175.293Z" fill="#201E1F"/>
<path d="M82.2697 175.293C84.3933 175.293 84.3933 171.915 82.2697 171.915C80.1461 171.915 80.0674 175.293 82.2697 175.293Z" fill="#201E1F"/>
<path d="M89.0337 175.293C91.2359 175.293 91.2359 171.915 89.0337 171.915C86.8315 171.915 86.8315 175.293 89.0337 175.293Z" fill="#201E1F"/>
<path d="M133.236 100.257C133.445 100.257 133.645 100.174 133.792 100.027C133.94 99.8795 134.022 99.6796 134.022 99.4713C134.022 99.2629 133.94 99.063 133.792 98.9157C133.645 98.7683 133.445 98.6855 133.236 98.6855C133.027 98.6855 132.827 98.7683 132.68 98.9157C132.532 99.063 132.449 99.2629 132.449 99.4713C132.449 99.6796 132.532 99.8795 132.68 100.027C132.827 100.174 133.027 100.257 133.236 100.257Z" fill="#201E1F"/>
<path d="M269.461 193.993H252.787L259.157 173.014H263.011L269.461 193.993Z" fill="#80DFDD"/>
<path d="M270.798 193.993H251.371V196.389H270.798V193.993Z" fill="#80DFDD"/>
<path d="M254.36 188.729L252.787 193.993H269.461L267.809 188.729H254.36Z" fill="#201E1F"/>
<path d="M256.011 183.464H266.236L264.584 178.278H257.584L256.011 183.464Z" fill="#201E1F"/>
<path d="M276.225 196.271H279.921V181.971H298.876V196.271H302.573V181.971H306.506V170.579H303.36V169.479H298.011V170.579H281.18V169.479H275.831V170.579H272.371V181.971H276.225V196.271ZM305.326 171.757L303.045 180.714H298.955L301.236 171.679L305.326 171.757ZM294.708 180.793H290.618L292.899 171.757H296.989L294.708 180.793ZM286.371 180.793H282.281L284.64 171.757H288.652L286.371 180.793ZM276.303 171.757H280.315L278.034 180.793H274.022L276.303 171.757Z" fill="#80DFDD"/>
<path d="M56 56.6498L57.1011 55.5498C57.2118 55.4331 57.2734 55.2784 57.2734 55.1177C57.2734 54.9569 57.2118 54.8023 57.1011 54.6855L56.1573 53.7427C56.0374 53.6374 55.9566 53.4948 55.928 53.3379C55.8995 53.181 55.9248 53.0191 56 52.8784L56.7865 50.9141C56.8344 50.7613 56.9278 50.6267 57.0543 50.5284C57.1808 50.4301 57.3343 50.3728 57.4944 50.3641H58.9101C59.0561 50.3641 59.1962 50.3061 59.2994 50.203C59.4027 50.0999 59.4607 49.96 59.4607 49.8141V48.2427C59.4607 48.1704 59.4464 48.0989 59.4188 48.0322C59.3911 47.9655 59.3505 47.9048 59.2994 47.8538C59.2483 47.8027 59.1876 47.7622 59.1208 47.7345C59.054 47.7069 58.9824 47.6927 58.9101 47.6927H57.4944C57.3343 47.684 57.1808 47.6266 57.0543 47.5283C56.9278 47.43 56.8344 47.2955 56.7865 47.1427L56 45.2569C55.9305 45.1018 55.9083 44.9295 55.9363 44.7618C55.9643 44.5941 56.0412 44.4384 56.1573 44.3141L57.1011 43.3712C57.2118 43.2545 57.2734 43.0998 57.2734 42.9391C57.2734 42.7783 57.2118 42.6237 57.1011 42.5069L56 41.4069C55.8831 41.2964 55.7283 41.2348 55.5674 41.2348C55.4065 41.2348 55.2517 41.2964 55.1348 41.4069L54.191 42.4284C54.0665 42.5165 53.921 42.5702 53.769 42.584C53.6171 42.5978 53.4642 42.5712 53.3258 42.5069L51.3596 41.7212C51.2066 41.6734 51.0719 41.5801 50.9735 41.4537C50.8751 41.3273 50.8177 41.174 50.809 41.0141V39.6784C50.8102 39.5244 50.7548 39.3754 50.6533 39.2595C50.5518 39.1437 50.4113 39.069 50.2584 39.0498H48.6854C48.5325 39.069 48.392 39.1437 48.2905 39.2595C48.189 39.3754 48.1336 39.5244 48.1348 39.6784V41.0141C48.1261 41.174 48.0687 41.3273 47.9703 41.4537C47.8719 41.5801 47.7372 41.6734 47.5843 41.7212L45.6966 42.5069C45.5446 42.5709 45.3794 42.5971 45.2151 42.5834C45.0507 42.5697 44.8921 42.5165 44.7528 42.4284L43.809 41.4069C43.6921 41.2964 43.5373 41.2348 43.3764 41.2348C43.2155 41.2348 43.0607 41.2964 42.9438 41.4069L41.8427 42.5069C41.7668 42.6383 41.7268 42.7874 41.7268 42.9391C41.7268 43.0908 41.7668 43.2398 41.8427 43.3712L42.8652 44.3141C42.9534 44.4533 43.0067 44.6117 43.0204 44.7759C43.0341 44.9401 43.0078 45.1051 42.9438 45.2569L42.1573 47.1427C42.1095 47.2955 42.016 47.43 41.8895 47.5283C41.763 47.6266 41.6095 47.684 41.4494 47.6927H40.1124C39.9583 47.6915 39.8091 47.7468 39.6931 47.8482C39.5771 47.9495 39.5024 48.0899 39.4832 48.2427V49.8141C39.5024 49.9668 39.5771 50.1072 39.6931 50.2086C39.8091 50.31 39.9583 50.3653 40.1124 50.3641H41.4494C41.6095 50.3728 41.763 50.4301 41.8895 50.5284C42.016 50.6267 42.1095 50.7613 42.1573 50.9141L42.9438 52.8784C43.0082 53.0166 43.0348 53.1693 43.021 53.3211C43.0072 53.4729 42.9534 53.6183 42.8652 53.7427L41.8427 54.6855C41.7668 54.8169 41.7268 54.9659 41.7268 55.1177C41.7268 55.2694 41.7668 55.4184 41.8427 55.5498L42.9438 56.6498C43.0607 56.7603 43.2155 56.8219 43.3764 56.8219C43.5373 56.8219 43.6921 56.7603 43.809 56.6498L44.7528 55.6284C44.8921 55.5402 45.0507 55.487 45.2151 55.4733C45.3794 55.4597 45.5446 55.4859 45.6966 55.5498L47.5843 56.3355C47.7372 56.3833 47.8719 56.4767 47.9703 56.603C48.0687 56.7294 48.1261 56.8828 48.1348 57.0427V58.4569C48.1348 58.6028 48.1928 58.7427 48.2961 58.8459C48.3993 58.949 48.5394 59.0069 48.6854 59.0069H50.2584C50.4044 59.0069 50.5445 58.949 50.6477 58.8459C50.751 58.7427 50.809 58.6028 50.809 58.4569V57.0427C50.8177 56.8828 50.8751 56.7294 50.9735 56.603C51.0719 56.4767 51.2066 56.3833 51.3596 56.3355L53.3258 55.5498C53.4642 55.4855 53.6171 55.459 53.769 55.4727C53.921 55.4865 54.0665 55.5402 54.191 55.6284L55.1348 56.6498C55.2517 56.7603 55.4065 56.8219 55.5674 56.8219C55.7283 56.8219 55.8831 56.7603 56 56.6498ZM49.4719 53.5855C48.5697 53.5855 47.6877 53.3182 46.9375 52.8175C46.1873 52.3168 45.6026 51.605 45.2574 50.7723C44.9121 49.9396 44.8218 49.0233 44.9978 48.1393C45.1738 47.2553 45.6083 46.4433 46.2462 45.806C46.8842 45.1687 47.697 44.7346 48.5819 44.5588C49.4669 44.383 50.3841 44.4732 51.2176 44.8181C52.0512 45.163 52.7637 45.7471 53.2649 46.4966C53.7662 47.246 54.0337 48.1271 54.0337 49.0284C54.0337 49.6268 53.9157 50.2194 53.6865 50.7723C53.4572 51.3252 53.1212 51.8276 52.6976 52.2508C52.274 52.6739 51.7711 53.0096 51.2176 53.2386C50.6642 53.4676 50.071 53.5855 49.4719 53.5855Z" fill="#80DFDD"/>
<path d="M66.5393 60.9714L66.3034 60.0286C66.2247 59.8714 65.9888 59.7143 65.8315 59.7928L65.0449 60.0286C64.9939 60.0539 64.938 60.0678 64.8811 60.0694C64.8241 60.071 64.7675 60.0602 64.7151 60.0378C64.6628 60.0154 64.6159 59.9819 64.5778 59.9396C64.5397 59.8973 64.5112 59.8472 64.4944 59.7928L63.7079 58.85C63.6665 58.819 63.6317 58.7803 63.6054 58.7359C63.5791 58.6915 63.5618 58.6423 63.5545 58.5913C63.5472 58.5402 63.55 58.4882 63.5629 58.4382C63.5757 58.3882 63.5982 58.3413 63.6292 58.3L64.0225 57.5143C64.0547 57.4296 64.0566 57.3365 64.0279 57.2506C63.9992 57.1647 63.9418 57.0913 63.8652 57.0428L63 56.5714C62.9153 56.5393 62.822 56.5373 62.736 56.566C62.65 56.5946 62.5766 56.652 62.5281 56.7286L62.1348 57.5143C62.0699 57.5962 61.9856 57.6606 61.8894 57.7018C61.7933 57.7429 61.6884 57.7595 61.5843 57.75L60.3258 57.5929C60.228 57.581 60.1344 57.5464 60.0524 57.4918C59.9705 57.4372 59.9025 57.3642 59.8539 57.2786L59.618 56.4929C59.6121 56.4408 59.5933 56.3911 59.5633 56.3481C59.5332 56.3052 59.4929 56.2705 59.4461 56.2471C59.3992 56.2236 59.3472 56.2123 59.2948 56.214C59.2424 56.2158 59.1913 56.2306 59.1461 56.2571L58.2809 56.4929C58.2288 56.4987 58.179 56.5175 58.136 56.5475C58.0931 56.5775 58.0583 56.6178 58.0348 56.6646C58.0114 56.7114 58 56.7634 58.0018 56.8157C58.0036 56.8681 58.0184 56.9191 58.0449 56.9643L58.2809 57.75C58.2703 57.9555 58.1866 58.1506 58.0449 58.3L57.1011 59.0857C57.0295 59.1554 56.9376 59.2005 56.8387 59.2146C56.7397 59.2287 56.6388 59.2111 56.5506 59.1643L55.764 58.7714C55.6793 58.7393 55.586 58.7373 55.5001 58.766C55.4141 58.7946 55.3406 58.8521 55.2921 58.9286L54.8202 59.7928C54.788 59.8775 54.7861 59.9707 54.8148 60.0566C54.8434 60.1425 54.9009 60.2158 54.9775 60.2643L55.6854 60.6571C55.7398 60.674 55.7899 60.7024 55.8323 60.7405C55.8746 60.7786 55.9081 60.8254 55.9306 60.8777C55.953 60.93 55.9638 60.9865 55.9622 61.0434C55.9606 61.1003 55.9467 61.1562 55.9213 61.2071V62.4643C55.9095 62.562 55.8749 62.6555 55.8202 62.7374C55.7656 62.8193 55.6925 62.8872 55.6067 62.9357L54.7416 63.1714C54.5843 63.1714 54.5056 63.4071 54.5056 63.5643L54.8202 64.5071C54.8989 64.7428 55.0562 64.8214 55.2135 64.7428L56.0786 64.5071C56.236 64.4286 56.4719 64.5857 56.6292 64.7428L57.4157 65.6857C57.4855 65.7572 57.5306 65.8491 57.5448 65.9479C57.5589 66.0467 57.5413 66.1475 57.4944 66.2357L57.1011 67.0214C57.0689 67.1061 57.067 67.1992 57.0957 67.2851C57.1243 67.371 57.1818 67.4444 57.2584 67.4928L58.1236 67.9643C58.2083 67.9964 58.3016 67.9983 58.3876 67.9697C58.4736 67.9411 58.547 67.8836 58.5955 67.8071L58.9888 67.0214C59.0414 66.9458 59.1122 66.8846 59.1946 66.8434C59.2771 66.8022 59.3685 66.7824 59.4607 66.7857L60.7978 66.9428C60.9551 66.9428 61.191 67.1 61.191 67.2571L61.427 68.1214C61.4796 68.197 61.5504 68.2582 61.6328 68.2994C61.7153 68.3406 61.8067 68.3604 61.8989 68.3571L62.8427 68.0428C62.9335 68.0075 63.008 67.9396 63.0516 67.8525C63.0952 67.7654 63.1048 67.6652 63.0786 67.5714L62.8427 66.7857C62.8159 66.6884 62.8164 66.5857 62.8441 66.4887C62.8719 66.3917 62.9258 66.3042 63 66.2357L64.0225 65.45C64.0941 65.3803 64.186 65.3352 64.2849 65.3211C64.3839 65.307 64.4848 65.3246 64.573 65.3714L65.3595 65.7643C65.5168 65.8428 65.6742 65.7643 65.8315 65.6071L66.2247 64.7428C66.254 64.7081 66.2753 64.6674 66.2873 64.6235C66.2993 64.5797 66.3016 64.5338 66.2942 64.489C66.2867 64.4442 66.2696 64.4016 66.244 64.364C66.2184 64.3264 66.185 64.2948 66.1461 64.2714L65.3595 63.8786C65.2776 63.8137 65.213 63.7294 65.1719 63.6334C65.1307 63.5374 65.1141 63.4326 65.1236 63.3286L65.2809 62.0714C65.2927 61.9737 65.3274 61.8802 65.382 61.7983C65.4367 61.7164 65.5098 61.6485 65.5955 61.6L66.382 61.3643C66.426 61.3609 66.4681 61.3453 66.5037 61.3193C66.5392 61.2932 66.5668 61.2577 66.5831 61.2168C66.5995 61.1759 66.6041 61.1312 66.5964 61.0878C66.5886 61.0445 66.5688 61.0041 66.5393 60.9714ZM63 63.6428C62.7348 64.1338 62.3302 64.5354 61.8371 64.7972C61.3439 65.059 60.7843 65.1693 60.2286 65.1142C59.6729 65.0591 59.146 64.8411 58.714 64.4876C58.282 64.1341 57.9643 63.6608 57.8008 63.1274C57.6374 62.594 57.6354 62.0242 57.7953 61.4897C57.9552 60.9552 58.2697 60.4798 58.6993 60.1234C59.1289 59.767 59.6544 59.5455 60.2097 59.4866C60.765 59.4278 61.3254 59.5344 61.8202 59.7928C62.1525 59.9664 62.447 60.2042 62.6865 60.4923C62.9261 60.7805 63.1059 61.1133 63.2157 61.4715C63.3255 61.8297 63.3629 62.206 63.3259 62.5788C63.2889 62.9515 63.1781 63.3132 63 63.6428Z" fill="#80DFDD"/>
<path d="M151.483 78.8859H125.843C125.627 78.8662 125.427 78.7666 125.281 78.6066C125.136 78.4465 125.055 78.2378 125.056 78.0216C125.056 77.8132 125.139 77.6134 125.287 77.466C125.434 77.3187 125.634 77.2359 125.843 77.2359H151.483C151.593 77.2249 151.704 77.237 151.808 77.2715C151.913 77.3061 152.009 77.3622 152.091 77.4363C152.172 77.5104 152.238 77.6007 152.282 77.7016C152.326 77.8024 152.349 77.9115 152.348 78.0216C152.348 78.2508 152.257 78.4706 152.095 78.6327C151.933 78.7948 151.713 78.8859 151.483 78.8859Z" fill="#201E1F"/>
<path d="M99.3371 90.5143H57.8876C57.7774 90.5148 57.6682 90.4922 57.5673 90.4479C57.4664 90.4036 57.3759 90.3386 57.3017 90.2571C57.2275 90.1756 57.1714 90.0794 57.1368 89.9748C57.1022 89.8702 57.0901 89.7596 57.1011 89.65C57.1011 89.4416 57.184 89.2417 57.3315 89.0944C57.479 88.947 57.679 88.8643 57.8876 88.8643H99.3371C99.5397 88.882 99.7296 88.9704 99.8735 89.1141C100.017 89.2578 100.106 89.4475 100.124 89.65C100.124 89.8662 100.044 90.0749 99.8986 90.2349C99.753 90.3949 99.5526 90.4946 99.3371 90.5143Z" fill="#201E1F"/>
<path d="M297.854 112.514H256.483C256.267 112.515 256.058 112.435 255.898 112.289C255.737 112.144 255.638 111.944 255.618 111.729C255.618 111.499 255.709 111.279 255.871 111.117C256.034 110.955 256.254 110.864 256.483 110.864H297.854C298.083 110.864 298.303 110.955 298.466 111.117C298.628 111.279 298.719 111.499 298.719 111.729C298.699 111.944 298.6 112.144 298.439 112.289C298.279 112.435 298.07 112.515 297.854 112.514Z" fill="#201E1F"/>
<path d="M199.225 68.5927C198.07 68.603 196.938 68.9154 195.942 69.4988C194.946 70.0822 194.12 70.9163 193.547 71.918C192.974 72.9196 192.674 74.0537 192.677 75.2073C192.679 76.3609 192.984 77.4937 193.562 78.4927V78.7284L186.955 85.3284C186.825 85.4123 186.72 85.5295 186.651 85.6677C186.582 85.8059 186.551 85.96 186.562 86.1142C186.581 86.3125 186.639 86.5051 186.734 86.6805C186.828 86.8559 186.957 87.0107 187.112 87.1356C187.395 87.4538 187.789 87.6509 188.213 87.6856C188.506 87.6817 188.786 87.5697 189 87.3713L195.607 80.7713H195.843C196.828 81.4017 197.976 81.7296 199.146 81.7142C200.898 81.7142 202.579 81.0188 203.818 79.7811C205.057 78.5433 205.753 76.8646 205.753 75.1142C205.753 73.3637 205.057 71.685 203.818 70.4473C202.579 69.2095 200.898 68.5142 199.146 68.5142L199.225 68.5927ZM199.225 79.8284C198 79.8082 196.832 79.3133 195.966 78.4483C195.1 77.5833 194.605 76.4159 194.584 75.1927C194.584 73.9633 195.073 72.7842 195.943 71.9148C196.814 71.0454 197.994 70.557 199.225 70.557C200.455 70.557 201.636 71.0454 202.506 71.9148C203.376 72.7842 203.865 73.9633 203.865 75.1927C203.845 76.4159 203.35 77.5833 202.484 78.4483C201.618 79.3133 200.449 79.8082 199.225 79.8284Z" fill="#80DFDD"/>
<path d="M196.787 76.1356H201.584V74.957H196.787V76.1356Z" fill="#80DFDD"/>
<path d="M77.0787 196.507C76.8622 196.508 76.6533 196.428 76.4931 196.282C76.3329 196.137 76.2332 195.937 76.2135 195.721V132.943C76.2135 132.714 76.3046 132.494 76.4669 132.332C76.6291 132.17 76.8492 132.079 77.0787 132.079C77.1889 132.078 77.298 132.101 77.399 132.145C77.4999 132.189 77.5904 132.254 77.6646 132.336C77.7387 132.417 77.7949 132.513 77.8295 132.618C77.864 132.723 77.8762 132.833 77.8652 132.943V195.721C77.8652 195.93 77.7823 196.13 77.6348 196.277C77.4873 196.424 77.2872 196.507 77.0787 196.507Z" fill="#201E1F"/>
<path d="M91.6292 196.507C91.4266 196.489 91.2366 196.401 91.0928 196.257C90.949 196.114 90.8604 195.924 90.8427 195.721V132.943C90.8418 132.727 90.9221 132.518 91.0677 132.358C91.2133 132.198 91.4136 132.098 91.6292 132.079C91.8587 132.079 92.0787 132.17 92.241 132.332C92.4032 132.494 92.4944 132.714 92.4944 132.943V195.721C92.4747 195.937 92.3749 196.137 92.2148 196.282C92.0546 196.428 91.8457 196.508 91.6292 196.507Z" fill="#201E1F"/>
<path d="M91.6292 138.05H77.0787C76.8492 138.05 76.6291 137.959 76.4669 137.797C76.3046 137.635 76.2135 137.415 76.2135 137.186C76.2332 136.97 76.3329 136.77 76.4931 136.625C76.6533 136.479 76.8622 136.399 77.0787 136.4H91.6292C91.8457 136.399 92.0546 136.479 92.2148 136.625C92.3749 136.77 92.4747 136.97 92.4944 137.186C92.4944 137.415 92.4032 137.635 92.241 137.797C92.0787 137.959 91.8587 138.05 91.6292 138.05Z" fill="#201E1F"/>
<path d="M91.6292 145.2H77.0787C76.8622 145.201 76.6533 145.12 76.4931 144.975C76.3329 144.83 76.2332 144.629 76.2135 144.414C76.2135 144.185 76.3046 143.965 76.4669 143.803C76.6291 143.641 76.8492 143.55 77.0787 143.55H91.6292C91.8587 143.55 92.0787 143.641 92.241 143.803C92.4032 143.965 92.4944 144.185 92.4944 144.414C92.4747 144.629 92.3749 144.83 92.2148 144.975C92.0546 145.12 91.8457 145.201 91.6292 145.2Z" fill="#201E1F"/>
<path d="M91.6292 152.35H77.0786C76.87 152.35 76.67 152.267 76.5225 152.12C76.375 151.973 76.2921 151.773 76.2921 151.565C76.2921 151.356 76.375 151.156 76.5225 151.009C76.67 150.862 76.87 150.779 77.0786 150.779H91.6292C91.8378 150.779 92.0379 150.862 92.1854 151.009C92.3329 151.156 92.4157 151.356 92.4157 151.565C92.4157 151.773 92.3329 151.973 92.1854 152.12C92.0379 152.267 91.8378 152.35 91.6292 152.35Z" fill="#201E1F"/>
<path d="M91.6292 159.579H77.0786C76.8492 159.579 76.6291 159.488 76.4669 159.326C76.3046 159.164 76.2135 158.944 76.2135 158.714C76.2129 158.604 76.2356 158.495 76.2799 158.394C76.3243 158.294 76.3893 158.203 76.4709 158.129C76.5525 158.055 76.6488 157.999 76.7535 157.964C76.8582 157.93 76.9689 157.918 77.0786 157.929H91.6292C91.7389 157.918 91.8497 157.93 91.9544 157.964C92.0591 157.999 92.1554 158.055 92.2369 158.129C92.3185 158.203 92.3836 158.294 92.4279 158.394C92.4723 158.495 92.4949 158.604 92.4944 158.714C92.4944 158.944 92.4032 159.164 92.241 159.326C92.0787 159.488 91.8587 159.579 91.6292 159.579Z" fill="#201E1F"/>
<path d="M91.6292 166.729H77.0787C76.8492 166.729 76.6291 166.638 76.4669 166.475C76.3046 166.313 76.2135 166.094 76.2135 165.864C76.2332 165.649 76.3329 165.449 76.4931 165.303C76.6533 165.158 76.8622 165.078 77.0787 165.079H91.6292C91.8457 165.078 92.0546 165.158 92.2148 165.303C92.3749 165.449 92.4747 165.649 92.4944 165.864C92.4944 166.094 92.4032 166.313 92.241 166.475C92.0787 166.638 91.8587 166.729 91.6292 166.729Z" fill="#201E1F"/>
<path d="M91.6292 173.879H77.0787C76.8622 173.879 76.6533 173.799 76.4931 173.654C76.3329 173.508 76.2332 173.308 76.2135 173.093C76.2135 172.864 76.3046 172.644 76.4669 172.482C76.6291 172.32 76.8492 172.229 77.0787 172.229H91.6292C91.8587 172.229 92.0787 172.32 92.241 172.482C92.4032 172.644 92.4944 172.864 92.4944 173.093C92.4747 173.308 92.3749 173.508 92.2148 173.654C92.0546 173.799 91.8457 173.879 91.6292 173.879Z" fill="#201E1F"/>
<path d="M91.6292 181.028H77.0786C76.87 181.028 76.67 180.946 76.5225 180.798C76.375 180.651 76.2921 180.451 76.2921 180.243C76.2921 180.034 76.375 179.835 76.5225 179.687C76.67 179.54 76.87 179.457 77.0786 179.457H91.6292C91.8378 179.457 92.0379 179.54 92.1854 179.687C92.3329 179.835 92.4157 180.034 92.4157 180.243C92.4157 180.451 92.3329 180.651 92.1854 180.798C92.0379 180.946 91.8378 181.028 91.6292 181.028Z" fill="#201E1F"/>
<path d="M91.6292 188.178H77.0786C76.87 188.178 76.67 188.096 76.5225 187.948C76.375 187.801 76.2921 187.601 76.2921 187.393C76.2921 187.184 76.375 186.984 76.5225 186.837C76.67 186.69 76.87 186.607 77.0786 186.607H91.6292C91.8378 186.607 92.0379 186.69 92.1854 186.837C92.3329 186.984 92.4157 187.184 92.4157 187.393C92.4157 187.601 92.3329 187.801 92.1854 187.948C92.0379 188.096 91.8378 188.178 91.6292 188.178Z" fill="#201E1F"/>
<path d="M57.1798 136.007C57.0695 136.008 56.9604 135.985 56.8594 135.941C56.7585 135.897 56.668 135.832 56.5939 135.75C56.5197 135.669 56.4635 135.572 56.4289 135.468C56.3944 135.363 56.3822 135.253 56.3933 135.143V132C56.3933 131.792 56.4761 131.592 56.6236 131.444C56.7711 131.297 56.9712 131.214 57.1798 131.214C57.3884 131.214 57.5884 131.297 57.7359 131.444C57.8834 131.592 57.9663 131.792 57.9663 132V135.143C57.9773 135.253 57.9652 135.363 57.9306 135.468C57.896 135.572 57.8399 135.669 57.7657 135.75C57.6915 135.832 57.601 135.897 57.5001 135.941C57.3992 135.985 57.29 136.008 57.1798 136.007Z" fill="#201E1F"/>
<path d="M58.7528 134.357H55.6067C55.3981 134.357 55.1981 134.274 55.0506 134.127C54.9031 133.98 54.8202 133.78 54.8202 133.571C54.8202 133.363 54.9031 133.163 55.0506 133.016C55.1981 132.868 55.3981 132.786 55.6067 132.786H58.7528C58.9614 132.786 59.1615 132.868 59.309 133.016C59.4565 133.163 59.5393 133.363 59.5393 133.571C59.5393 133.78 59.4565 133.98 59.309 134.127C59.1615 134.274 58.9614 134.357 58.7528 134.357Z" fill="#201E1F"/>
<path d="M130.562 22.4716C130.452 22.4826 130.341 22.4704 130.237 22.4359C130.132 22.4014 130.036 22.3453 129.954 22.2712C129.872 22.1971 129.807 22.1067 129.763 22.0059C129.719 21.905 129.696 21.796 129.697 21.6859V18.4644C129.716 18.2491 129.816 18.0489 129.976 17.9035C130.136 17.758 130.345 17.6778 130.562 17.6787C130.764 17.6964 130.954 17.7849 131.098 17.9286C131.242 18.0723 131.331 18.262 131.348 18.4644V21.6859C131.348 21.8942 131.265 22.0941 131.118 22.2414C130.97 22.3888 130.77 22.4716 130.562 22.4716Z" fill="#201E1F"/>
<path d="M132.135 20.9H128.989C128.772 20.9009 128.563 20.8207 128.403 20.6753C128.243 20.5298 128.143 20.3296 128.124 20.1143C128.124 19.8851 128.215 19.6652 128.377 19.5032C128.539 19.3411 128.759 19.25 128.989 19.25H132.135C132.245 19.2495 132.354 19.2721 132.455 19.3164C132.556 19.3607 132.647 19.4257 132.721 19.5072C132.795 19.5887 132.851 19.6848 132.886 19.7894C132.92 19.894 132.932 20.0047 132.921 20.1143C132.921 20.3227 132.838 20.5225 132.691 20.6699C132.543 20.8172 132.343 20.9 132.135 20.9Z" fill="#201E1F"/>
<path d="M156.281 186.764H156.045L152.978 185.9C152.874 185.883 152.776 185.844 152.69 185.785C152.604 185.726 152.532 185.648 152.48 185.558C152.427 185.468 152.395 185.368 152.386 185.264C152.377 185.16 152.391 185.055 152.427 184.957C152.483 184.741 152.621 184.554 152.811 184.437C153.002 184.32 153.231 184.281 153.449 184.329L156.438 185.193C156.645 185.264 156.822 185.404 156.936 185.591C157.051 185.777 157.097 185.997 157.067 186.214C157.005 186.373 156.897 186.51 156.758 186.608C156.618 186.706 156.452 186.76 156.281 186.764Z" fill="#201E1F"/>
<path d="M154.315 187.864H154.079C153.965 187.851 153.857 187.811 153.763 187.747C153.668 187.683 153.591 187.597 153.537 187.497C153.483 187.397 153.454 187.285 153.452 187.171C153.451 187.057 153.477 186.944 153.528 186.843L154.393 183.857C154.406 183.744 154.447 183.635 154.511 183.541C154.575 183.447 154.66 183.369 154.761 183.315C154.861 183.261 154.973 183.232 155.087 183.231C155.201 183.23 155.314 183.256 155.416 183.307C155.612 183.362 155.779 183.491 155.882 183.667C155.984 183.843 156.015 184.052 155.966 184.25L155.101 187.314C155.039 187.473 154.931 187.61 154.791 187.708C154.651 187.806 154.485 187.86 154.315 187.864Z" fill="#201E1F"/>
<path d="M140.236 90.9072H140L136.933 90.043C136.827 90.0163 136.727 89.968 136.641 89.9009C136.555 89.8338 136.484 89.7496 136.432 89.6535C136.38 89.5574 136.349 89.4516 136.34 89.3428C136.332 89.2339 136.346 89.1246 136.382 89.0215C136.395 88.9084 136.435 88.8 136.499 88.7058C136.563 88.6115 136.649 88.534 136.75 88.48C136.85 88.426 136.962 88.397 137.076 88.3956C137.19 88.3941 137.303 88.4201 137.404 88.4715L140.472 89.3358C140.674 89.4075 140.842 89.5518 140.944 89.7405C141.046 89.9293 141.074 90.1491 141.022 90.3572C140.953 90.5108 140.843 90.6429 140.704 90.7396C140.566 90.8364 140.404 90.8942 140.236 90.9072Z" fill="#201E1F"/>
<path d="M138.27 92.0071H138.034C137.928 91.9805 137.829 91.9321 137.742 91.8651C137.656 91.798 137.585 91.7138 137.533 91.6177C137.481 91.5216 137.45 91.4157 137.441 91.3069C137.433 91.1981 137.447 91.0887 137.483 90.9857L138.348 87.9214C138.361 87.8083 138.402 87.6999 138.466 87.6057C138.53 87.5114 138.616 87.4339 138.716 87.3799C138.816 87.3259 138.928 87.297 139.042 87.2955C139.156 87.294 139.269 87.32 139.371 87.3714C139.573 87.4431 139.741 87.5874 139.843 87.7762C139.945 87.9649 139.973 88.1847 139.921 88.3929L139.056 91.3786C139.007 91.5523 138.905 91.7063 138.764 91.819C138.623 91.9317 138.45 91.9975 138.27 92.0071Z" fill="#201E1F"/>
<path d="M114.424 48.745C118.847 44.3265 118.847 37.1627 114.424 32.7442C110.001 28.3257 102.83 28.3257 98.4069 32.7442C93.9839 37.1627 93.9839 44.3265 98.4069 48.745C102.83 53.1635 110.001 53.1635 114.424 48.745Z" fill="#80DFDD"/>
<path d="M106.416 49.1858C111.107 49.1858 114.91 45.3866 114.91 40.7001C114.91 36.0135 111.107 32.2144 106.416 32.2144C101.724 32.2144 97.9214 36.0135 97.9214 40.7001C97.9214 45.3866 101.724 49.1858 106.416 49.1858Z" fill="#80DFDD"/>
<path d="M106.416 49.5786C104.655 49.5941 102.929 49.0867 101.457 48.1206C99.9849 47.1545 98.8335 45.7734 98.1488 44.1525C97.464 42.5316 97.2767 40.744 97.6107 39.0165C97.9447 37.2891 98.7849 35.6998 100.025 34.4502C101.264 33.2007 102.848 32.3472 104.574 31.9982C106.3 31.6492 108.091 31.8204 109.72 32.49C111.348 33.1597 112.741 34.2975 113.721 35.7593C114.701 37.221 115.225 38.9407 115.225 40.7C115.225 43.0412 114.299 45.2877 112.649 46.9505C111 48.6133 108.759 49.5579 106.416 49.5786ZM106.416 32.6071C104.795 32.6072 103.21 33.0885 101.863 33.9899C100.516 34.8913 99.4681 36.1722 98.8514 37.6699C98.2346 39.1676 98.0773 40.8147 98.3994 42.4019C98.7214 43.9891 99.5083 45.4449 100.66 46.5845C101.812 47.7241 103.277 48.4961 104.869 48.8025C106.461 49.1088 108.108 48.9357 109.601 48.3052C111.094 47.6747 112.366 46.6151 113.255 45.261C114.145 43.9069 114.611 42.3194 114.596 40.7C114.575 38.5465 113.704 36.4881 112.172 34.9727C110.64 33.4572 108.572 32.607 106.416 32.6071Z" fill="#201E1F"/>
<path d="M106.416 41.093C106.326 41.0747 106.245 41.0253 106.187 40.9535C106.13 40.8817 106.099 40.7921 106.101 40.7002V36.4573C106.099 36.3654 106.13 36.2758 106.187 36.204C106.245 36.1322 106.326 36.0828 106.416 36.0645C106.652 36.0645 106.73 36.2216 106.73 36.4573V40.7002C106.73 40.9359 106.652 41.093 106.416 41.093Z" fill="#201E1F"/>
<path d="M111.528 41.0929H106.416C106.326 41.0745 106.245 41.0251 106.187 40.9534C106.13 40.8816 106.099 40.7919 106.101 40.7C106.101 40.6167 106.134 40.5367 106.193 40.4778C106.252 40.4189 106.332 40.3857 106.416 40.3857H111.528C111.612 40.3857 111.692 40.4189 111.751 40.4778C111.81 40.5367 111.843 40.6167 111.843 40.7C111.845 40.7919 111.814 40.8816 111.757 40.9534C111.699 41.0251 111.618 41.0745 111.528 41.0929Z" fill="#201E1F"/>
<path d="M106.73 33.2356C106.73 33.2769 106.722 33.3178 106.706 33.3559C106.691 33.394 106.667 33.4287 106.638 33.4579C106.609 33.487 106.574 33.5102 106.536 33.526C106.498 33.5418 106.457 33.5499 106.416 33.5499C106.332 33.5499 106.252 33.5168 106.193 33.4579C106.134 33.3989 106.101 33.319 106.101 33.2356C106.099 33.1437 106.13 33.0541 106.187 32.9823C106.245 32.9105 106.326 32.8611 106.416 32.8428C106.652 32.8428 106.73 32.9999 106.73 33.2356Z" fill="#201E1F"/>
<path d="M111.764 35.7502C111.938 35.7502 112.079 35.6094 112.079 35.4359C112.079 35.2623 111.938 35.1216 111.764 35.1216C111.59 35.1216 111.449 35.2623 111.449 35.4359C111.449 35.6094 111.59 35.7502 111.764 35.7502Z" fill="#201E1F"/>
<path d="M113.966 41.0929C113.876 41.0745 113.795 41.0251 113.738 40.9534C113.68 40.8816 113.65 40.7919 113.652 40.7C113.652 40.6167 113.685 40.5367 113.744 40.4778C113.803 40.4189 113.883 40.3857 113.966 40.3857C114.05 40.3857 114.13 40.4189 114.189 40.4778C114.248 40.5367 114.281 40.6167 114.281 40.7C114.283 40.7919 114.252 40.8816 114.195 40.9534C114.137 41.0251 114.056 41.0745 113.966 41.0929Z" fill="#201E1F"/>
<path d="M111.764 46.3571C111.938 46.3571 112.079 46.2164 112.079 46.0428C112.079 45.8692 111.938 45.7285 111.764 45.7285C111.59 45.7285 111.449 45.8692 111.449 46.0428C111.449 46.2164 111.59 46.3571 111.764 46.3571Z" fill="#201E1F"/>
<path d="M106.101 48.243C106.101 48.1596 106.134 48.0797 106.193 48.0208C106.252 47.9618 106.332 47.9287 106.416 47.9287C106.499 47.9287 106.579 47.9618 106.638 48.0208C106.697 48.0797 106.73 48.1596 106.73 48.243C106.73 48.4787 106.652 48.5573 106.416 48.5573C106.332 48.5573 106.252 48.5242 106.193 48.4652C106.134 48.4063 106.101 48.3264 106.101 48.243Z" fill="#201E1F"/>
<path d="M100.91 45.8071H101.382C101.423 45.8788 101.445 45.9601 101.445 46.0428C101.445 46.1256 101.423 46.2069 101.382 46.2786C101.225 46.4357 100.989 46.4357 100.91 46.2786C100.831 46.1214 100.753 45.9643 100.91 45.8071Z" fill="#201E1F"/>
<path d="M98.8652 41.0143C99.0389 41.0143 99.1798 40.8736 99.1798 40.7C99.1798 40.5265 99.0389 40.3857 98.8652 40.3857C98.6914 40.3857 98.5506 40.5265 98.5506 40.7C98.5506 40.8736 98.6914 41.0143 98.8652 41.0143Z" fill="#201E1F"/>
<path d="M101.382 35.2001C101.445 35.2626 101.48 35.3474 101.48 35.4358C101.48 35.5242 101.445 35.609 101.382 35.6715C101.319 35.734 101.235 35.7692 101.146 35.7692C101.058 35.7692 100.973 35.734 100.91 35.6715C100.753 35.5144 100.753 35.2787 100.91 35.2001C101.067 35.1215 101.225 35.043 101.382 35.2001Z" fill="#201E1F"/>
<path d="M123.011 36.3786H118.213C118.13 36.3786 118.05 36.3455 117.991 36.2865C117.932 36.2276 117.899 36.1476 117.899 36.0643C117.899 35.9809 117.932 35.901 117.991 35.8421C118.05 35.7831 118.13 35.75 118.213 35.75H123.011C123.095 35.75 123.175 35.7831 123.234 35.8421C123.293 35.901 123.326 35.9809 123.326 36.0643C123.326 36.1476 123.293 36.2276 123.234 36.2865C123.175 36.3455 123.095 36.3786 123.011 36.3786Z" fill="#201E1F"/>
<path d="M123.011 45.7287H118.213C118.13 45.7287 118.05 45.6956 117.991 45.6366C117.932 45.5777 117.899 45.4977 117.899 45.4144C117.899 45.331 117.932 45.2511 117.991 45.1922C118.05 45.1332 118.13 45.1001 118.213 45.1001H123.011C123.095 45.1001 123.175 45.1332 123.234 45.1922C123.293 45.2511 123.326 45.331 123.326 45.4144C123.326 45.4977 123.293 45.5777 123.234 45.6366C123.175 45.6956 123.095 45.7287 123.011 45.7287Z" fill="#201E1F"/>
<path d="M128.91 41.0929H120.022C119.939 41.0929 119.859 41.0598 119.8 41.0008C119.741 40.9419 119.708 40.862 119.708 40.7786C119.706 40.6867 119.736 40.597 119.794 40.5253C119.851 40.4535 119.932 40.4041 120.022 40.3857H128.91C129 40.4041 129.081 40.4535 129.139 40.5253C129.196 40.597 129.227 40.6867 129.225 40.7786C129.225 40.862 129.192 40.9419 129.133 41.0008C129.074 41.0598 128.994 41.0929 128.91 41.0929Z" fill="#201E1F"/>
<path d="M176.101 183.464H170.831V188.713H176.101V183.464Z" fill="#80DFDD"/>
<path d="M176.494 189.121H170.438V183.071H176.494V189.121ZM171.225 188.336H175.629V183.936H171.225V188.336Z" fill="#201E1F"/>
<path d="M182.708 184.643H177.989C177.905 184.643 177.825 184.61 177.766 184.551C177.707 184.492 177.674 184.412 177.674 184.328C177.674 184.245 177.707 184.165 177.766 184.106C177.825 184.047 177.905 184.014 177.989 184.014H182.708C182.791 184.014 182.871 184.047 182.93 184.106C182.989 184.165 183.022 184.245 183.022 184.328C183.022 184.412 182.989 184.492 182.93 184.551C182.871 184.61 182.791 184.643 182.708 184.643Z" fill="#201E1F"/>
<path d="M184.517 188.257H178.067C177.831 188.257 177.596 188.1 177.596 187.943C177.614 187.832 177.672 187.731 177.759 187.659C177.845 187.587 177.955 187.548 178.067 187.55H184.517C184.63 187.548 184.739 187.587 184.826 187.659C184.912 187.731 184.97 187.832 184.989 187.943C184.989 188.1 184.753 188.257 184.517 188.257Z" fill="#201E1F"/>
<path d="M186.876 186.371H177.989C177.884 186.371 177.784 186.33 177.711 186.256C177.637 186.183 177.596 186.083 177.596 185.978C177.614 185.888 177.663 185.808 177.735 185.75C177.807 185.693 177.897 185.662 177.989 185.664H186.876C186.96 185.664 187.04 185.697 187.099 185.756C187.158 185.815 187.191 185.895 187.191 185.978C187.193 186.07 187.162 186.16 187.105 186.232C187.047 186.304 186.967 186.353 186.876 186.371Z" fill="#201E1F"/>
<path d="M55.3708 111.65H60.6404V106.401H55.3708V111.65Z" fill="#80DFDD"/>
<path d="M61.1124 112.121H54.9775V106.071H61.1124V112.121ZM55.8427 111.257H60.2472V106.857H55.8427V111.257Z" fill="#201E1F"/>
<path d="M48.764 107.643H53.4831C53.5874 107.643 53.6875 107.601 53.7612 107.528C53.835 107.454 53.8764 107.354 53.8764 107.25C53.858 107.16 53.8086 107.079 53.7367 107.022C53.6649 106.964 53.5751 106.934 53.4831 106.936H48.764C48.6806 106.936 48.6006 106.969 48.5416 107.028C48.4826 107.087 48.4494 107.167 48.4494 107.25C48.4476 107.342 48.478 107.431 48.5355 107.503C48.593 107.575 48.6739 107.624 48.764 107.643Z" fill="#201E1F"/>
<path d="M46.955 111.178H53.4045C53.6404 111.178 53.8764 111.021 53.8764 110.864C53.8764 110.707 53.6404 110.55 53.4045 110.55H46.955C46.8716 110.55 46.7916 110.583 46.7326 110.642C46.6736 110.701 46.6404 110.781 46.6404 110.864C46.6404 110.947 46.6736 111.027 46.7326 111.086C46.7916 111.145 46.8716 111.178 46.955 111.178Z" fill="#201E1F"/>
<path d="M44.5955 109.293H53.4832C53.5666 109.293 53.6466 109.26 53.7056 109.201C53.7646 109.142 53.7978 109.062 53.7978 108.978C53.7978 108.895 53.7646 108.815 53.7056 108.756C53.6466 108.697 53.5666 108.664 53.4832 108.664H44.5955C44.5121 108.664 44.432 108.697 44.373 108.756C44.314 108.815 44.2809 108.895 44.2809 108.978C44.2809 109.062 44.314 109.142 44.373 109.201C44.432 109.26 44.5121 109.293 44.5955 109.293Z" fill="#201E1F"/>
<path d="M217.315 126.186H215.663V196.263H217.315V126.186Z" fill="#201E1F"/>
<path d="M216.685 118.486H216.371C213.678 118.486 211.494 120.667 211.494 123.357V129.761C211.494 132.451 213.678 134.632 216.371 134.632H216.685C219.379 134.632 221.562 132.451 221.562 129.761V123.357C221.562 120.667 219.379 118.486 216.685 118.486Z" fill="#80DFDD"/>
<path d="M223.056 129.957L224.786 130.271C225.18 130.271 225.337 129.721 224.944 129.643L223.213 129.407C222.82 129.329 222.663 129.878 223.056 129.957Z" fill="#201E1F"/>
<path d="M223.056 126.264C223.493 126.157 223.946 126.13 224.393 126.186C224.787 126.186 224.787 125.636 224.393 125.557H222.82C222.506 125.636 222.663 126.186 223.056 126.186V126.264Z" fill="#201E1F"/>
<path d="M222.82 122.807L224.157 122.336C224.551 122.179 224.393 121.55 224 121.707L222.663 122.257C222.348 122.414 222.506 122.964 222.82 122.807Z" fill="#201E1F"/>
<path d="M207.798 130.507C208.259 130.487 208.713 130.38 209.135 130.193C209.528 130.114 209.371 129.486 208.978 129.643L207.64 129.957C207.247 130.036 207.483 130.586 207.798 130.507Z" fill="#201E1F"/>
<path d="M207.011 126.186C207.571 126.175 208.129 126.254 208.663 126.421C209.056 126.579 209.213 125.95 208.899 125.871L207.011 125.557C206.928 125.557 206.848 125.59 206.789 125.649C206.73 125.708 206.697 125.788 206.697 125.871C206.697 125.955 206.73 126.035 206.789 126.094C206.848 126.153 206.928 126.186 207.011 126.186Z" fill="#201E1F"/>
<path d="M207.562 121.157L208.899 121.55C209.292 121.707 209.449 121.079 209.056 121L207.719 120.607C207.326 120.45 207.169 121.079 207.562 121.157Z" fill="#201E1F"/>
<path d="M212.674 197.214L213.775 187.864H219.124L220.303 197.057L212.674 197.214Z" fill="#201E1F"/>
<path d="M63 152.35C62.764 150.857 61.7416 147.007 59.382 148.264C55.6067 150.229 60.1685 157.693 55.6067 159.029C55.3708 156.043 54.7416 154 53.4045 154.079C50.6517 154.314 51.3595 160.836 51.2809 162.25C51.2022 163.664 51.2022 165.157 51.1236 166.65C47.8989 167.279 48.5281 158.793 46.4831 157.614C44.4382 156.436 42.7865 159.814 42.8652 161.7C43.0225 164.922 43.8876 168.772 46.8764 170.5C48.1212 171.206 49.5353 171.559 50.9663 171.522C50.9483 174.046 51.1324 176.569 51.5168 179.064H51.5955L53.4045 179.222C53.4045 179.388 53.4708 179.548 53.5888 179.666C53.7068 179.784 53.8668 179.85 54.0337 179.85C54.2006 179.85 54.3606 179.784 54.4786 179.666C54.5966 179.548 54.6629 179.388 54.6629 179.222C54.6629 177.65 55.6067 170.107 55.764 163.664C57.3067 163.745 58.8313 163.302 60.0899 162.407C63.236 160.129 63.5506 155.886 63 152.35Z" fill="#6CDD6C"/>
<path d="M54.0337 180.164L53.4832 180.007C53.3127 179.888 53.177 179.725 53.0899 179.536H51.2809V179.143C50.8711 176.756 50.6868 174.336 50.7303 171.914C49.3438 171.842 47.995 171.438 46.7978 170.736C43.573 168.929 42.7079 164.843 42.6292 161.7C42.5506 160.443 42.7865 157.85 44.2022 157.064C45.618 156.279 45.7753 156.672 46.7978 157.3C47.8202 157.929 48.1348 159.579 48.5281 161.622C48.9214 163.664 49.6292 166.336 50.8876 166.336V165.707C50.9663 164.529 51.0449 163.35 51.0449 162.25V161.229C50.9663 158.714 50.809 154 53.4832 153.764C53.6785 153.737 53.8773 153.751 54.0669 153.805C54.2566 153.859 54.4328 153.953 54.5843 154.079C55.3184 154.707 55.7903 156.2 56 158.557C57.7303 157.772 57.6517 155.807 57.4944 153.607C57.3371 151.407 57.3371 148.972 59.3034 147.95C59.5742 147.787 59.8817 147.694 60.1978 147.68C60.5139 147.666 60.8284 147.732 61.1124 147.872C62.7641 148.657 63.3933 151.957 63.3933 152.272C63.8652 155.022 64.0225 159.972 60.4045 162.643C59.172 163.538 57.6808 164.007 56.1573 163.979C56.0787 168.222 55.6067 172.857 55.3708 175.922C55.2135 177.493 55.0562 178.75 55.0562 179.222C55.0697 179.385 55.0314 179.549 54.9468 179.69C54.8621 179.831 54.7353 179.942 54.5843 180.007C54.5158 180.081 54.4282 180.135 54.3311 180.163C54.234 180.191 54.1311 180.191 54.0337 180.164ZM51.8315 178.75H53.7191V179.143C53.7191 179.3 53.7978 179.3 53.8764 179.379H54.191C54.2195 179.347 54.2411 179.309 54.2546 179.269C54.2682 179.228 54.2733 179.186 54.2697 179.143C54.3483 178.593 54.427 177.414 54.5843 175.764C54.8989 172.622 55.2921 167.829 55.3708 163.507V163.114H55.7641C57.2245 163.222 58.6751 162.804 59.8539 161.936C63.236 159.5 63.0787 154.786 62.6854 152.272C62.4494 151.172 61.8202 148.893 60.7191 148.343C59.618 147.793 60.0112 148.186 59.5393 148.422C59.0674 148.657 58.045 151.25 58.1236 153.372C58.2023 155.493 58.3596 158.4 55.7641 159.186L55.2921 159.343V158.872C55.0562 155.886 54.5056 154.864 54.0337 154.472C53.953 154.391 53.8518 154.333 53.7409 154.306C53.6301 154.278 53.5138 154.281 53.4045 154.314C51.4382 154.472 51.5955 158.95 51.6742 161.072V162.093C51.5955 163.272 51.5955 164.372 51.5169 165.55V166.807H51.2809C49 167.2 48.3708 164.214 47.8202 161.543C47.2697 158.872 47.1124 158.086 46.4045 157.614C46.1445 157.432 45.8441 157.315 45.529 157.274C45.214 157.233 44.8937 157.269 44.5955 157.379C43.4944 158.007 43.2584 160.207 43.2584 161.464C43.4157 164.372 44.2022 168.3 47.1124 169.95C48.3188 170.609 49.6698 170.96 51.0449 170.972H51.4382V171.364C51.3337 173.833 51.4653 176.306 51.8315 178.75Z" fill="#50AA50"/>
<path d="M59.382 196.428H46.0899C45.9246 196.439 45.7588 196.417 45.602 196.364C45.4452 196.31 45.3006 196.226 45.1763 196.117C45.0521 196.007 44.9507 195.874 44.8781 195.725C44.8054 195.577 44.7628 195.415 44.7528 195.25L41.6854 179.771L42.9438 179.536L45.9326 195.014L46.0899 195.171H59.382C59.4607 195.171 59.5393 195.171 59.5393 195.014L62.5281 179.536L63.7865 179.771L60.7978 195.25C60.7581 195.59 60.5891 195.902 60.3256 196.122C60.0621 196.341 59.7243 196.451 59.382 196.428Z" fill="#201E1F"/>
<path d="M41.8427 174.821H63.8652C64.2584 174.821 64.573 175.214 64.573 175.764V179.064C64.573 179.614 64.2584 180.007 63.8652 180.007H41.8427C41.4494 180.007 41.1348 179.614 41.1348 179.064V175.764C41.1348 175.214 41.4494 174.821 41.8427 174.821Z" fill="#80DFDD"/>
<path d="M63.8652 180.322H41.8427C41.5437 180.282 41.2712 180.13 41.081 179.896C40.8908 179.662 40.7975 179.365 40.8202 179.064V175.764C40.7975 175.464 40.8908 175.166 41.081 174.933C41.2712 174.699 41.5437 174.547 41.8427 174.507H63.8652C64.1641 174.547 64.4367 174.699 64.6268 174.933C64.817 175.166 64.9103 175.464 64.8876 175.764V179.064C64.9103 179.365 64.817 179.662 64.6268 179.896C64.4367 180.13 64.1641 180.282 63.8652 180.322ZM41.8427 175.136C41.6854 175.136 41.5281 175.45 41.5281 175.764V179.064C41.5281 179.457 41.6854 179.693 41.8427 179.693H63.8652C64.0225 179.693 64.1798 179.457 64.1798 179.064V175.764C64.1798 175.45 64.0225 175.136 63.8652 175.136H41.8427Z" fill="#201E1F"/>
<path d="M63.8652 180.322H41.8427C41.2921 180.322 40.8989 179.772 40.8989 179.064V175.764C40.8989 175.057 41.2921 174.507 41.8427 174.507H63.8652C64.1641 174.547 64.4367 174.699 64.6269 174.933C64.817 175.166 64.9103 175.464 64.8876 175.764V179.064C64.9103 179.365 64.817 179.662 64.6269 179.896C64.4367 180.13 64.1641 180.282 63.8652 180.322ZM41.8427 175.136C41.6854 175.136 41.4494 175.372 41.4494 175.764V179.064C41.4494 179.457 41.6854 179.693 41.8427 179.693H63.8652C64.1011 179.693 64.2584 179.457 64.2584 179.064V175.764C64.2584 175.372 64.1011 175.136 63.8652 175.136H41.8427Z" fill="#80DFDD"/>
<path d="M63.8652 180.636H41.8427C41.4603 180.596 41.1079 180.41 40.8589 180.118C40.6098 179.825 40.4833 179.448 40.5056 179.064V175.764C40.4833 175.381 40.6098 175.004 40.8589 174.711C41.1079 174.418 41.4603 174.233 41.8427 174.193H63.8652C64.2476 174.233 64.6 174.418 64.849 174.711C65.098 175.004 65.2245 175.381 65.2022 175.764V179.064C65.2245 179.448 65.098 179.825 64.849 180.118C64.6 180.41 64.2476 180.596 63.8652 180.636ZM41.8427 175.45C41.8427 175.529 41.764 175.607 41.764 175.764V179.064C41.764 179.3 41.8427 179.379 41.9213 179.379H63.8652C63.9277 179.286 63.9556 179.175 63.9438 179.064V175.764C63.9556 175.654 63.9277 175.542 63.8652 175.45H41.8427Z" fill="#201E1F"/>
<path d="M44.2809 161.7H45.3034C45.6966 161.778 45.6966 161.15 45.3034 161.15L44.2809 160.993C43.8876 160.914 43.8876 161.543 44.2809 161.621V161.7Z" fill="#50AA50"/>
<path d="M45.8539 156.907V157.378C45.8539 157.462 45.8871 157.542 45.9461 157.601C46.0051 157.66 46.0851 157.693 46.1685 157.693C46.252 157.693 46.332 157.66 46.391 157.601C46.45 157.542 46.4831 157.462 46.4831 157.378V156.907C46.4831 156.824 46.45 156.744 46.391 156.685C46.332 156.626 46.252 156.593 46.1685 156.593C46.0851 156.593 46.0051 156.626 45.9461 156.685C45.8871 156.744 45.8539 156.824 45.8539 156.907Z" fill="#50AA50"/>
<path d="M47.9775 162.486L48.764 162.014C49.0786 161.857 48.764 161.307 48.4494 161.543L47.6629 161.936C47.2697 162.171 47.5843 162.643 47.9775 162.486Z" fill="#50AA50"/>
<path d="M44.8315 169.479L45.7753 168.85C46.0899 168.614 45.7753 168.064 45.4607 168.3L44.5168 169.007C44.2022 169.164 44.5169 169.714 44.8315 169.479Z" fill="#50AA50"/>
<path d="M42.5506 164.214L43.1798 164.529C43.573 164.686 43.7303 164.057 43.3371 163.9L42.7079 163.664C42.3146 163.507 42.1573 164.136 42.5506 164.214Z" fill="#50AA50"/>
<path d="M46.9551 167.121L47.2697 167.278C47.5056 167.593 47.9775 167.121 47.7416 166.807C47.6406 166.701 47.5181 166.619 47.3824 166.565C47.2468 166.51 47.101 166.486 46.9551 166.493C46.5618 166.414 46.5618 167.043 46.9551 167.121Z" fill="#50AA50"/>
<path d="M48.2921 169.95C48.2214 170.35 48.2764 170.762 48.4494 171.129C48.6067 171.522 49.1573 171.207 49 170.814C48.8961 170.594 48.8684 170.345 48.9213 170.107C48.9213 169.715 48.3708 169.557 48.2921 169.95Z" fill="#50AA50"/>
<path d="M51.5169 170.107H52.0674C52.4607 170.264 52.618 169.636 52.2247 169.557L51.6742 169.4C51.5907 169.379 51.5024 169.392 51.4287 169.436C51.3549 169.481 51.3018 169.552 51.2809 169.636C51.26 169.719 51.2732 169.807 51.3174 169.881C51.3617 169.954 51.4334 170.008 51.5169 170.028V170.107Z" fill="#50AA50"/>
<path d="M53.4831 164.057C53.4381 164.216 53.4442 164.385 53.5006 164.54C53.5571 164.695 53.6611 164.829 53.7978 164.922C54.1124 165.236 54.5843 164.764 54.2697 164.529C54.194 164.476 54.1327 164.405 54.0915 164.323C54.0502 164.241 54.0304 164.149 54.0337 164.057C54.1124 163.664 53.4831 163.664 53.4831 164.057Z" fill="#50AA50"/>
<path d="M52.6966 159.736C52.6155 159.832 52.5589 159.947 52.5315 160.07C52.5042 160.193 52.5068 160.321 52.5393 160.443C52.618 160.836 53.1685 160.679 53.0899 160.286C53.0882 160.176 53.1153 160.068 53.1685 159.972C53.4045 159.657 52.9326 159.422 52.6966 159.736Z" fill="#50AA50"/>
<path d="M56 161.464V162.014C56 162.098 56.0331 162.177 56.0921 162.236C56.1511 162.295 56.2312 162.328 56.3146 162.328C56.398 162.328 56.4781 162.295 56.5371 162.236C56.5961 162.177 56.6292 162.098 56.6292 162.014V161.464C56.6292 161.381 56.5961 161.301 56.5371 161.242C56.4781 161.183 56.398 161.15 56.3146 161.15C56.2312 161.15 56.1511 161.183 56.0921 161.242C56.0331 161.301 56 161.381 56 161.464Z" fill="#50AA50"/>
<path d="M50.3371 160.521C50.4991 160.58 50.6373 160.691 50.7303 160.836C50.8033 160.877 50.8899 160.888 50.9711 160.866C51.0112 160.855 51.0489 160.837 51.0818 160.811C51.1147 160.786 51.1423 160.754 51.1629 160.718C51.1836 160.682 51.1969 160.642 51.2022 160.601C51.2074 160.559 51.2045 160.517 51.1935 160.477C51.1826 160.437 51.1638 160.4 51.1383 160.367C51.1128 160.334 51.0811 160.306 51.0449 160.286L50.6517 159.971C50.5787 159.93 50.4921 159.919 50.411 159.941C50.3298 159.963 50.2608 160.016 50.2191 160.089C50.1774 160.162 50.1664 160.249 50.1885 160.33C50.2106 160.411 50.2641 160.48 50.3371 160.521Z" fill="#50AA50"/>
<path d="M51.3595 155.493C51.5168 155.572 51.5168 155.729 51.5955 155.886C51.6741 156.043 52.2247 156.279 52.1461 155.886C52.1543 155.728 52.1307 155.57 52.0766 155.422C52.0226 155.273 51.9392 155.137 51.8315 155.022C51.5168 154.707 51.1236 155.179 51.3595 155.493Z" fill="#50AA50"/>
<path d="M52.9326 153.607V154.393C52.9326 154.476 52.9657 154.556 53.0247 154.615C53.0837 154.674 53.1638 154.707 53.2472 154.707C53.3306 154.707 53.4107 154.674 53.4697 154.615C53.5287 154.556 53.5618 154.476 53.5618 154.393V153.607C53.5618 153.524 53.5287 153.444 53.4697 153.385C53.4107 153.326 53.3306 153.293 53.2472 153.293C53.1638 153.293 53.0837 153.326 53.0247 153.385C52.9657 153.444 52.9326 153.524 52.9326 153.607Z" fill="#50AA50"/>
<path d="M56.7079 157.222L56.9438 157.457C57.2584 157.772 57.6517 157.3 57.4157 157.064L57.1011 156.75C56.8652 156.514 56.3933 156.907 56.7079 157.222Z" fill="#50AA50"/>
<path d="M57.3371 153.528H58.1236C58.207 153.528 58.287 153.495 58.346 153.436C58.405 153.377 58.4382 153.298 58.4382 153.214C58.4382 153.131 58.405 153.051 58.346 152.992C58.287 152.933 58.207 152.9 58.1236 152.9H57.3371C56.9438 152.821 56.9438 153.45 57.3371 153.45V153.528Z" fill="#50AA50"/>
<path d="M58.2022 148.657L58.6741 149.207C58.9888 149.521 59.4607 149.05 59.1461 148.814L58.5955 148.264C58.3595 147.95 57.8876 148.421 58.2022 148.657Z" fill="#50AA50"/>
<path d="M60.5618 147.086V148.028C60.5353 148.076 60.5217 148.13 60.5225 148.185C60.5232 148.24 60.5383 148.293 60.5661 148.34C60.5939 148.387 60.6335 148.426 60.681 148.453C60.7285 148.481 60.7823 148.495 60.8371 148.495C60.8918 148.495 60.9456 148.481 60.9931 148.453C61.0407 148.426 61.0803 148.387 61.1081 148.34C61.1359 148.293 61.1509 148.24 61.1516 148.185C61.1524 148.13 61.1388 148.076 61.1123 148.028V147.086C61.1388 147.038 61.1524 146.984 61.1516 146.929C61.1509 146.874 61.1359 146.821 61.1081 146.774C61.0803 146.727 61.0407 146.688 60.9931 146.661C60.9456 146.633 60.8918 146.619 60.8371 146.619C60.7823 146.619 60.7285 146.633 60.681 146.661C60.6335 146.688 60.5939 146.727 60.5661 146.774C60.5383 146.821 60.5232 146.874 60.5225 146.929C60.5217 146.984 60.5353 147.038 60.5618 147.086Z" fill="#50AA50"/>
<path d="M61.6629 152.822L61.8989 152.429C62.1348 152.036 61.5843 151.8 61.3483 152.114L61.1124 152.507C60.8764 152.822 61.427 153.136 61.6629 152.822Z" fill="#50AA50"/>
<path d="M59.5393 158.793L60.2472 158.557C60.3306 158.536 60.4024 158.483 60.4466 158.41C60.4909 158.336 60.504 158.248 60.4831 158.164C60.4623 158.081 60.4091 158.009 60.3354 157.965C60.2616 157.921 60.1733 157.908 60.0899 157.929L59.382 158.243C59.0674 158.4 59.2247 158.95 59.5393 158.793Z" fill="#50AA50"/>
<path d="M62.2921 157.928H62.9213C63.3146 157.85 63.1573 157.221 62.764 157.3L62.1348 157.457C61.7416 157.535 61.8989 158.085 62.2921 158.007V157.928Z" fill="#50AA50"/>
<path d="M60.5618 160.836C60.5353 160.883 60.5217 160.937 60.5225 160.992C60.5232 161.047 60.5383 161.1 60.5661 161.147C60.5939 161.194 60.6335 161.233 60.681 161.261C60.7285 161.288 60.7823 161.302 60.8371 161.302C60.8918 161.302 60.9456 161.288 60.9931 161.261C61.0407 161.233 61.0803 161.194 61.1081 161.147C61.1359 161.1 61.1509 161.047 61.1516 160.992C61.1524 160.937 61.1388 160.883 61.1123 160.836C61.1388 160.788 61.1524 160.734 61.1516 160.679C61.1509 160.624 61.1359 160.571 61.1081 160.524C61.0803 160.477 61.0407 160.438 60.9931 160.411C60.9456 160.383 60.8918 160.369 60.8371 160.369C60.7823 160.369 60.7285 160.383 60.681 160.411C60.6335 160.438 60.5939 160.477 60.5661 160.524C60.5383 160.571 60.5232 160.624 60.5225 160.679C60.5217 160.734 60.5353 160.788 60.5618 160.836Z" fill="#50AA50"/>
<path d="M55.2921 170.186L55.6854 169.872C56 169.714 55.6854 169.164 55.3708 169.4L54.9775 169.636C54.6629 169.872 54.9775 170.422 55.2921 170.186Z" fill="#50AA50"/>
<path d="M54.8989 172.386C55.1449 172.177 55.4446 172.04 55.764 171.993C56.1573 171.914 56 171.286 55.6067 171.364C55.192 171.476 54.8129 171.693 54.5056 171.993C54.191 172.228 54.6629 172.7 54.8989 172.386Z" fill="#50AA50"/>
<path d="M52.382 172.778L52.5393 173.093C52.6966 173.407 53.2472 173.093 53.0899 172.778L52.9326 172.464C52.7753 172.15 52.2247 172.464 52.382 172.778Z" fill="#50AA50"/>
<path d="M50.1011 173.407C50.2484 173.509 50.417 173.577 50.5942 173.604C50.7714 173.631 50.9524 173.618 51.1236 173.564C51.5169 173.486 51.3596 172.936 50.9663 173.014H50.3371C50.0225 172.779 49.7079 173.329 50.1011 173.486V173.407Z" fill="#50AA50"/>
<path d="M55.1348 167.671L56.3146 167.514C56.7079 167.436 56.7079 166.807 56.3146 166.886L55.1348 167.043C54.7416 167.121 54.7416 167.671 55.1348 167.671Z" fill="#50AA50"/>
<path d="M109.876 140.878L129.697 123.043C130.64 122.178 129.225 120.686 128.202 121.55L108.461 139.464C107.517 140.328 108.933 141.743 109.876 140.878Z" fill="#9FF4EF"/>
<path d="M132.214 149.993L151.955 132.157C152.978 131.214 151.483 129.8 150.539 130.664L130.798 148.5C130.7 148.593 130.621 148.704 130.566 148.828C130.511 148.951 130.48 149.084 130.477 149.219C130.473 149.354 130.496 149.488 130.544 149.614C130.593 149.74 130.665 149.856 130.758 149.954C130.851 150.052 130.963 150.13 131.086 150.185C131.21 150.24 131.343 150.271 131.478 150.274C131.613 150.278 131.747 150.255 131.874 150.207C132 150.158 132.115 150.086 132.214 149.993Z" fill="#80DFDD"/>
<path d="M107.989 156.671L149.36 116.364C149.488 116.168 149.546 115.933 149.522 115.7C149.498 115.466 149.394 115.248 149.228 115.082C149.061 114.916 148.843 114.812 148.609 114.788C148.375 114.764 148.14 114.821 147.944 114.95L106.573 155.257C106.444 155.454 106.387 155.688 106.411 155.922C106.435 156.155 106.539 156.374 106.705 156.54C106.871 156.706 107.09 156.809 107.323 156.833C107.557 156.857 107.792 156.8 107.989 156.671Z" fill="#9FF4EF"/>
<path d="M171.225 31.2715H170.36V88.1886H171.225V31.2715Z" fill="#201E1F"/>
<path d="M174.449 88.2358C174.429 89.1881 174.042 90.0958 173.368 90.7693C172.693 91.4428 171.785 91.83 170.831 91.8501C169.872 91.8501 168.952 91.4693 168.273 90.7915C167.595 90.1137 167.213 89.1944 167.213 88.2358C167.203 87.7582 167.289 87.2834 167.467 86.8401C167.645 86.3967 167.911 85.994 168.249 85.6562C168.587 85.3184 168.991 85.0526 169.434 84.8747C169.878 84.6969 170.353 84.6108 170.831 84.6215C171.791 84.6215 172.711 85.0023 173.39 85.6801C174.068 86.3579 174.449 87.2772 174.449 88.2358Z" fill="#201E1F"/>
<path d="M170.831 100.336C170.067 100.305 169.34 99.9982 168.787 99.4714C168.484 99.1618 168.25 98.7917 168.101 98.3854C167.952 97.9791 167.891 97.5459 167.921 97.1143C167.906 97.0493 167.908 96.9815 167.926 96.9174C167.945 96.8533 167.979 96.7949 168.026 96.7477C168.074 96.7006 168.132 96.6662 168.196 96.6479C168.26 96.6295 168.328 96.6278 168.393 96.6428C168.518 96.6428 168.638 96.6925 168.727 96.7809C168.815 96.8693 168.865 96.9892 168.865 97.1143C168.84 97.4122 168.876 97.7122 168.97 97.9959C169.065 98.2796 169.217 98.541 169.416 98.7643C169.796 99.1382 170.299 99.3615 170.831 99.3928C171.478 99.3928 172.098 99.1362 172.556 98.6794C173.013 98.2226 173.27 97.6031 173.27 96.9571C173.27 96.3111 173.013 95.6916 172.556 95.2348C172.098 94.778 171.478 94.5214 170.831 94.5214C170.706 94.5214 170.586 94.4717 170.498 94.3833C170.409 94.2949 170.36 94.175 170.36 94.05V91.3786C170.36 91.2535 170.409 91.1336 170.498 91.0452C170.586 90.9568 170.706 90.9071 170.831 90.9071C170.896 90.8921 170.964 90.8938 171.028 90.9121C171.093 90.9305 171.151 90.9649 171.198 91.012C171.246 91.0592 171.28 91.1176 171.298 91.1817C171.317 91.2458 171.318 91.3136 171.303 91.3786V93.5785C172.124 93.6913 172.877 94.0942 173.425 94.7141C173.973 95.3341 174.281 96.1299 174.292 96.9571C174.272 97.8603 173.898 98.7196 173.251 99.351C172.604 99.9825 171.736 100.336 170.831 100.336Z" fill="#201E1F"/>
<path d="M151.876 102.536C151.792 102.499 151.721 102.438 151.67 102.362C151.62 102.285 151.593 102.195 151.593 102.103C151.593 102.012 151.62 101.922 151.67 101.845C151.721 101.768 151.792 101.708 151.876 101.671L171.461 98.8427C171.512 98.8126 171.57 98.7974 171.629 98.7989C171.689 98.8005 171.746 98.8188 171.796 98.8516C171.845 98.8845 171.884 98.9305 171.908 98.9846C171.932 99.0386 171.941 99.0984 171.933 99.157C171.958 99.2714 171.94 99.391 171.882 99.4927C171.823 99.5943 171.729 99.6708 171.618 99.707L152.034 102.536H151.876Z" fill="#201E1F"/>
<path d="M189.472 109.057H189.315L171.303 99.6288C171.244 99.6065 171.19 99.57 171.147 99.5225C171.105 99.475 171.075 99.4178 171.059 99.3559C171.044 99.294 171.043 99.2293 171.059 99.1673C171.074 99.1053 171.104 99.048 171.146 99.0002C171.208 98.9173 171.295 98.8571 171.395 98.8287C171.494 98.8003 171.6 98.8053 171.697 98.8431L189.708 108.272C189.762 108.288 189.812 108.317 189.855 108.355C189.897 108.393 189.931 108.44 189.953 108.492C189.976 108.544 189.986 108.601 189.985 108.658C189.983 108.715 189.969 108.771 189.944 108.822C189.787 108.979 189.629 109.136 189.472 109.057Z" fill="#201E1F"/>
<path d="M194.257 110.051L146.374 101.703C143.849 101.263 141.446 102.95 141.005 105.472L136.196 132.996C135.756 135.519 137.445 137.92 139.97 138.36L187.853 146.708C190.378 147.149 192.781 145.461 193.222 142.939L198.031 115.415C198.471 112.893 196.782 110.491 194.257 110.051Z" fill="white"/>
<path d="M188.607 147.243H187.742L140.079 138.993C139.382 138.88 138.717 138.627 138.122 138.249C137.527 137.871 137.015 137.375 136.618 136.793C136.199 136.223 135.9 135.574 135.738 134.885C135.576 134.197 135.554 133.483 135.674 132.786L140.472 105.522C140.722 104.12 141.514 102.873 142.676 102.05C143.839 101.227 145.279 100.893 146.685 101.122L194.27 109.293C195.692 109.535 196.963 110.325 197.809 111.493C198.601 112.698 198.91 114.157 198.674 115.579L193.955 142.764C193.733 144.02 193.075 145.157 192.097 145.976C191.119 146.795 189.883 147.244 188.607 147.243ZM145.742 102.222C144.762 102.226 143.815 102.575 143.067 103.207C142.319 103.839 141.818 104.714 141.652 105.679L136.933 132.864C136.811 133.408 136.811 133.972 136.934 134.515C137.056 135.059 137.297 135.568 137.64 136.007C138.268 136.914 139.229 137.536 140.315 137.736L187.899 145.986C188.441 146.088 188.999 146.081 189.539 145.966C190.079 145.85 190.59 145.629 191.044 145.315C191.498 145.001 191.884 144.599 192.182 144.135C192.479 143.67 192.681 143.151 192.775 142.607L197.494 115.343C197.657 114.244 197.405 113.124 196.787 112.2C196.475 111.759 196.077 111.386 195.618 111.103C195.158 110.819 194.646 110.631 194.112 110.55L146.449 102.222H145.742Z" fill="#201E1F"/>
<path d="M192.904 112.766L146.726 104.715C145.1 104.431 143.552 105.519 143.268 107.143L138.883 132.244C138.599 133.869 139.687 135.415 141.313 135.699L187.491 143.75C189.117 144.033 190.666 142.946 190.95 141.322L195.335 116.221C195.619 114.596 194.531 113.05 192.904 112.766Z" fill="#80DFDD"/>
<path d="M188.056 144.257H187.427L141.416 136.321C140.438 136.163 139.563 135.626 138.978 134.829C138.699 134.434 138.505 133.986 138.411 133.512C138.316 133.038 138.321 132.55 138.427 132.079L142.753 107.093C142.926 106.137 143.468 105.288 144.263 104.729C145.058 104.171 146.041 103.947 147 104.107L193.011 112.121C193.968 112.294 194.818 112.836 195.377 113.63C195.936 114.424 196.16 115.407 196 116.364L191.674 141.271C191.515 142.248 190.978 143.122 190.18 143.707C189.534 144.077 188.801 144.267 188.056 144.257ZM187.584 143C188.241 143.116 188.917 142.975 189.472 142.607C189.973 142.221 190.31 141.66 190.416 141.036L194.82 116.05C194.912 115.406 194.75 114.751 194.369 114.224C193.987 113.696 193.416 113.337 192.775 113.221L146.764 105.207C146.119 105.116 145.464 105.277 144.936 105.658C144.408 106.039 144.048 106.61 143.933 107.25L139.607 132.157C139.491 132.813 139.631 133.488 140 134.043C140.387 134.544 140.949 134.88 141.573 134.986L187.584 143Z" fill="#201E1F"/>
<path d="M165.719 139.778L177.674 128.857L184.281 143.078L165.719 139.778Z" fill="#80DFDD"/>
<path d="M184.989 143.55L164.775 140.093L177.753 128.15L184.989 143.55ZM166.584 139.543L183.573 142.528L177.517 129.564L166.584 139.543Z" fill="#201E1F"/>
<path d="M142.045 135.693L163.202 116.286L175 141.429L142.045 135.693Z" fill="#80DFDD"/>
<path d="M175.708 141.979L141.18 136.007L163.36 115.579L175.708 141.979ZM142.91 135.457L174.292 140.879L163.124 116.993L142.91 135.457Z" fill="#201E1F"/>
<path d="M188.449 119.978C188.314 120.745 187.885 121.428 187.254 121.883C186.622 122.338 185.838 122.528 185.067 122.414C184.479 122.327 183.931 122.067 183.491 121.666C183.052 121.266 182.742 120.744 182.602 120.167C182.461 119.59 182.496 118.984 182.702 118.427C182.908 117.869 183.276 117.386 183.758 117.039C184.24 116.692 184.815 116.496 185.41 116.477C186.004 116.458 186.59 116.616 187.094 116.931C187.598 117.247 187.996 117.706 188.237 118.248C188.479 118.791 188.553 119.394 188.449 119.978Z" fill="#80DFDD"/>
<path d="M185.539 122.807H184.989C184.549 122.731 184.129 122.569 183.752 122.33C183.375 122.091 183.05 121.78 182.794 121.415C182.538 121.05 182.357 120.638 182.261 120.202C182.165 119.767 182.157 119.317 182.236 118.878C182.302 118.442 182.456 118.024 182.687 117.648C182.918 117.272 183.222 116.947 183.582 116.69C183.941 116.434 184.348 116.252 184.779 116.156C185.21 116.059 185.655 116.05 186.09 116.128C186.53 116.204 186.95 116.366 187.327 116.605C187.703 116.844 188.029 117.155 188.285 117.52C188.541 117.885 188.722 118.298 188.818 118.733C188.913 119.168 188.922 119.618 188.843 120.057C188.682 120.929 188.206 121.712 187.506 122.257C186.918 122.629 186.235 122.821 185.539 122.807ZM185.539 116.914C185.004 116.914 184.483 117.078 184.045 117.386C183.504 117.78 183.136 118.368 183.018 119.027C182.901 119.686 183.043 120.365 183.416 120.921C183.825 121.465 184.407 121.853 185.067 122.021C185.759 122.111 186.459 121.943 187.034 121.55C187.312 121.363 187.546 121.119 187.723 120.835C187.899 120.55 188.013 120.232 188.056 119.9C188.172 119.234 188.023 118.55 187.641 117.992C187.259 117.434 186.674 117.048 186.011 116.914H185.539Z" fill="#201E1F"/>
<path d="M207.483 29.3857H163.045V34.2729H207.483V29.3857Z" fill="#80DFDD"/>
<path d="M246.101 130.429H231.393V0.0786133H246.101V130.429ZM232.809 128.936H244.685V1.4929H232.809V128.936Z" fill="#201E1F"/>
<path d="M245.944 14.3786H231.551V0H245.944V14.3786ZM233.045 12.8857H244.449V1.49286H233.045V12.8857Z" fill="#201E1F"/>
<path d="M232.767 0.171445L231.71 1.22705L244.618 14.1222L245.675 13.0665L232.767 0.171445Z" fill="#201E1F"/>
<path d="M244.613 0.227144L231.71 13.1167L232.756 14.1612L245.658 1.27164L244.613 0.227144Z" fill="#201E1F"/>
<path d="M245.944 27.2643H231.551V12.8857H245.944V27.2643ZM233.045 25.7715H244.449V14.3786H233.045V25.7715Z" fill="#201E1F"/>
<path d="M232.82 13.1099L231.763 14.1655L244.671 27.0606L245.728 26.005L232.82 13.1099Z" fill="#201E1F"/>
<path d="M244.61 13.11L231.707 25.9995L232.753 27.044L245.656 14.1545L244.61 13.11Z" fill="#201E1F"/>
<path d="M245.944 40.1501H231.551V25.7715H245.944V40.1501ZM233.045 38.6572H244.449V27.2643H233.045V38.6572Z" fill="#201E1F"/>
<path d="M232.817 25.9932L231.76 27.0488L244.668 39.9439L245.725 38.8883L232.817 25.9932Z" fill="#201E1F"/>
<path d="M244.607 25.9933L231.705 38.8828L232.75 39.9273L245.653 27.0378L244.607 25.9933Z" fill="#201E1F"/>
<path d="M245.944 53.0358H231.551V38.6572H245.944V53.0358ZM233.045 51.6215H244.449V40.1501H233.045V51.6215Z" fill="#201E1F"/>
<path d="M232.814 38.876L231.758 39.9316L244.666 52.8267L245.722 51.7711L232.814 38.876Z" fill="#201E1F"/>
<path d="M244.605 38.8761L231.702 51.7656L232.747 52.8101L245.65 39.9206L244.605 38.8761Z" fill="#201E1F"/>
<path d="M245.944 66.0002H231.551V51.6216H245.944V66.0002ZM233.045 64.5073H244.449V53.0359H233.045V64.5073Z" fill="#201E1F"/>
<path d="M232.811 51.7588L231.755 52.8145L244.663 65.7096L245.72 64.6539L232.811 51.7588Z" fill="#201E1F"/>
<path d="M244.658 51.8932L231.755 64.7827L232.8 65.8272L245.703 52.9377L244.658 51.8932Z" fill="#201E1F"/>
<path d="M245.944 78.8859H231.551V64.5073H245.944V78.8859ZM233.045 77.393H244.449V66.0002H233.045V77.393Z" fill="#201E1F"/>
<path d="M232.809 64.7208L231.752 65.7764L244.66 78.6715L245.717 77.6159L232.809 64.7208Z" fill="#201E1F"/>
<path d="M244.655 64.776L231.752 77.6655L232.798 78.71L245.7 65.8205L244.655 64.776Z" fill="#201E1F"/>
<path d="M245.944 91.7716H231.551V77.3931H245.944V91.7716ZM233.045 90.2788H244.449V78.8859H233.045V90.2788Z" fill="#201E1F"/>
<path d="M232.806 77.6036L231.749 78.6592L244.658 91.5543L245.714 90.4987L232.806 77.6036Z" fill="#201E1F"/>
<path d="M244.652 77.6593L231.749 90.5488L232.795 91.5933L245.698 78.7038L244.652 77.6593Z" fill="#201E1F"/>
<path d="M245.944 104.657H231.551V90.2783H245.944V104.657ZM233.045 103.164H244.449V91.7712H233.045V103.164Z" fill="#201E1F"/>
<path d="M232.803 90.4864L231.747 91.542L244.655 104.437L245.712 103.381L232.803 90.4864Z" fill="#201E1F"/>
<path d="M244.649 90.5421L231.747 103.432L232.792 104.476L245.695 91.5866L244.649 90.5421Z" fill="#201E1F"/>
<path d="M245.944 117.543H231.551V103.165H245.944V117.543ZM233.045 116.05H244.449V104.657H233.045V116.05Z" fill="#201E1F"/>
<path d="M232.856 103.425L231.8 104.481L244.708 117.376L245.765 116.32L232.856 103.425Z" fill="#201E1F"/>
<path d="M244.647 103.425L231.744 116.315L232.79 117.359L245.692 104.47L244.647 103.425Z" fill="#201E1F"/>
<path d="M245.944 130.428H231.551V116.05H245.944V130.428ZM233.045 128.936H244.449V117.543H233.045V128.936Z" fill="#201E1F"/>
<path d="M232.854 116.308L231.797 117.364L244.705 130.259L245.762 129.203L232.854 116.308Z" fill="#201E1F"/>
<path d="M244.644 116.23L231.741 129.119L232.787 130.164L245.69 117.274L244.644 116.23Z" fill="#201E1F"/>
<path d="M271.663 27.1071H257.27V12.7285H271.663V27.1071ZM258.685 25.6142H270.169V14.1428H258.685V25.6142Z" fill="#201E1F"/>
<path d="M270.393 12.9811L257.49 25.8706L258.536 26.9151L271.438 14.0256L270.393 12.9811Z" fill="#201E1F"/>
<path d="M258.547 12.8472L257.49 13.9028L270.398 26.7979L271.455 25.7423L258.547 12.8472Z" fill="#201E1F"/>
<path d="M258.685 27.1071H244.292V12.7285H258.685V27.1071ZM245.787 25.6142H257.27V14.1428H245.787V25.6142Z" fill="#201E1F"/>
<path d="M257.497 12.9786L244.594 25.8682L245.64 26.9127L258.542 14.0231L257.497 12.9786Z" fill="#201E1F"/>
<path d="M245.651 12.8443L244.594 13.8999L257.502 26.795L258.559 25.7394L245.651 12.8443Z" fill="#201E1F"/>
<path d="M245.787 27.1071H231.393V12.7285H245.787V27.1071ZM232.888 25.6142H244.292V14.1428H232.888V25.6142Z" fill="#201E1F"/>
<path d="M232.888 27.1071H218.494V12.7285H232.888V27.1071ZM219.989 25.6142H231.393V14.1428H219.989V25.6142Z" fill="#201E1F"/>
<path d="M231.704 12.8946L218.802 25.7842L219.847 26.8287L232.75 13.9391L231.704 12.8946Z" fill="#201E1F"/>
<path d="M219.724 12.8946L218.667 13.9502L231.576 26.8453L232.632 25.7897L219.724 12.8946Z" fill="#201E1F"/>
<path d="M219.989 27.1071H205.596V12.7285H219.989V27.1071ZM207.09 25.6142H218.494V14.1428H207.09V25.6142Z" fill="#201E1F"/>
<path d="M218.674 12.9474L205.771 25.8369L206.817 26.8814L219.719 13.9919L218.674 12.9474Z" fill="#201E1F"/>
<path d="M206.828 12.8917L205.771 13.9473L218.679 26.8424L219.736 25.7868L206.828 12.8917Z" fill="#201E1F"/>
<path d="M207.09 27.1071H192.697V12.7285H207.09V27.1071ZM194.191 25.6142H205.596V14.1428H194.191V25.6142Z" fill="#201E1F"/>
<path d="M193.404 27.1072H180.506C180.357 27.0962 180.214 27.047 180.09 26.9644C179.966 26.8818 179.865 26.7686 179.798 26.6357C179.759 26.5018 179.752 26.3604 179.78 26.2236C179.807 26.0867 179.867 25.9586 179.955 25.85L192.933 12.8857L193.955 13.9857L182.315 25.6143H193.09L205.831 12.8857L206.854 13.9857L193.955 26.8715C193.886 26.9486 193.801 27.0096 193.706 27.0504C193.611 27.0911 193.508 27.1105 193.404 27.1072Z" fill="#201E1F"/>
<path d="M193.932 12.8892L192.875 13.9448L205.783 26.8399L206.84 25.7843L193.932 12.8892Z" fill="#201E1F"/>
<path d="M246.18 144.807H231.393V130.429H246.18V144.807ZM232.888 143.314H244.607V131.922H232.888V143.314Z" fill="#201E1F"/>
<path d="M244.843 144.572L231.551 131.686L232.652 130.665L245.944 143.55L244.843 144.572Z" fill="#201E1F"/>
<path d="M232.652 144.572L231.551 143.55L244.843 130.665L245.944 131.686L232.652 144.572Z" fill="#201E1F"/>
<path d="M246.18 196.428H231.393V182.05H246.18V196.428ZM232.888 194.936H244.607V183.464H232.888V194.936Z" fill="#201E1F"/>
<path d="M244.843 196.193L231.551 183.307L232.652 182.207L245.944 195.093L244.843 196.193Z" fill="#201E1F"/>
<path d="M232.652 196.193L231.551 195.093L244.843 182.207L245.944 183.307L232.652 196.193Z" fill="#201E1F"/>
<path d="M246.18 156.514H231.393V142.136H246.18V156.514ZM232.888 155.021H244.607V143.55H232.888V155.021Z" fill="#201E1F"/>
<path d="M244.843 156.279L231.551 143.393L232.652 142.293L245.944 155.257L244.843 156.279Z" fill="#201E1F"/>
<path d="M232.652 156.279L231.551 155.257L244.843 142.293L245.944 143.393L232.652 156.279Z" fill="#201E1F"/>
<path d="M246.18 169.4H231.393V155.021H246.18V169.4ZM232.888 167.907H244.607V156.514H232.888V167.907Z" fill="#201E1F"/>
<path d="M244.843 169.164L231.551 156.279L232.652 155.257L245.944 168.143L244.843 169.164Z" fill="#201E1F"/>
<path d="M232.652 169.164L231.551 168.143L244.843 155.257L245.944 156.279L232.652 169.164Z" fill="#201E1F"/>
<path d="M246.18 182.286H231.393V167.907H246.18V182.286ZM232.888 180.793H244.607V169.4H232.888V180.793Z" fill="#201E1F"/>
<path d="M244.843 182.05L231.551 169.164L232.652 168.143L245.944 181.029L244.843 182.05Z" fill="#201E1F"/>
<path d="M232.652 182.05L231.551 181.029L244.843 168.143L245.944 169.164L232.652 182.05Z" fill="#201E1F"/>
<path d="M81.0899 78.257C82.6629 78.257 82.6629 75.7427 81.0899 75.7427C79.5169 75.7427 79.5169 78.257 81.0899 78.257Z" fill="#201E1F"/>
<path d="M213.775 52.7213C215.348 52.7213 215.348 50.207 213.775 50.207C212.202 50.207 212.202 52.7213 213.775 52.7213Z" fill="#201E1F"/>
<path d="M268.674 140.171H269.225C269.411 140.219 269.605 140.223 269.793 140.184C269.981 140.145 270.157 140.064 270.308 139.947C270.46 139.829 270.583 139.678 270.667 139.506C270.751 139.334 270.795 139.145 270.795 138.953C270.795 138.762 270.751 138.573 270.667 138.401C270.583 138.228 270.46 138.078 270.308 137.96C270.157 137.843 269.981 137.761 269.793 137.723C269.605 137.684 269.411 137.688 269.225 137.736H268.674C268.361 137.736 268.061 137.86 267.84 138.081C267.619 138.302 267.494 138.602 267.494 138.914C267.494 139.234 267.615 139.543 267.835 139.776C268.054 140.01 268.354 140.151 268.674 140.171Z" fill="#201E1F"/>
<path d="M32.7191 158.086C32.9898 158.016 33.2297 157.859 33.4011 157.639C33.5724 157.418 33.6654 157.147 33.6654 156.868C33.6654 156.589 33.5724 156.317 33.4011 156.097C33.2297 155.876 32.9898 155.719 32.7191 155.65C32.4484 155.719 32.2085 155.876 32.0371 156.097C31.8658 156.317 31.7728 156.589 31.7728 156.868C31.7728 157.147 31.8658 157.418 32.0371 157.639C32.2085 157.859 32.4484 158.016 32.7191 158.086Z" fill="#201E1F"/>
<path d="M149.595 40.6999C149.866 40.6306 150.106 40.4734 150.277 40.2529C150.449 40.0324 150.542 39.7612 150.542 39.482C150.542 39.2029 150.449 38.9317 150.277 38.7112C150.106 38.4907 149.866 38.3334 149.595 38.2642C149.325 38.3334 149.085 38.4907 148.914 38.7112C148.742 38.9317 148.649 39.2029 148.649 39.482C148.649 39.7612 148.742 40.0324 148.914 40.2529C149.085 40.4734 149.325 40.6306 149.595 40.6999Z" fill="#201E1F"/>
</svg>
