<svg width="329" height="147" viewBox="0 0 329 147" fill="none" xmlns="http://www.w3.org/2000/svg">
<path d="M9.11611 143.87C8.55145 143.87 8.12211 143.656 7.82811 143.226C7.53411 142.797 7.38711 142.172 7.38711 141.35C7.38711 140.524 7.53411 139.897 7.82811 139.467C8.12211 139.038 8.55145 138.823 9.11611 138.823C9.68078 138.823 10.1101 139.038 10.4041 139.467C10.6981 139.892 10.8451 140.517 10.8451 141.343C10.8451 142.169 10.6981 142.797 10.4041 143.226C10.1101 143.656 9.68078 143.87 9.11611 143.87ZM9.11611 143.387C9.50811 143.387 9.79745 143.222 9.98411 142.89C10.1708 142.559 10.2641 142.043 10.2641 141.343C10.2641 140.639 10.1708 140.125 9.98411 139.803C9.80211 139.477 9.51278 139.313 9.11611 139.313C8.72411 139.313 8.43478 139.477 8.24811 139.803C8.06145 140.13 7.96811 140.643 7.96811 141.343C7.96811 142.043 8.06145 142.559 8.24811 142.89C8.43478 143.222 8.72411 143.387 9.11611 143.387ZM11.7174 142.183V141.714H13.6774V142.183H11.7174ZM16.756 143.331H17.841V143.814H15.097V143.331H16.182V139.593L15.314 140.139L15.048 139.698L16.343 138.879H16.756V143.331ZM20.4843 143.87C19.9196 143.87 19.4903 143.656 19.1963 143.226C18.9023 142.797 18.7553 142.172 18.7553 141.35C18.7553 140.524 18.9023 139.897 19.1963 139.467C19.4903 139.038 19.9196 138.823 20.4843 138.823C21.0489 138.823 21.4783 139.038 21.7723 139.467C22.0663 139.892 22.2133 140.517 22.2133 141.343C22.2133 142.169 22.0663 142.797 21.7723 143.226C21.4783 143.656 21.0489 143.87 20.4843 143.87ZM20.4843 143.387C20.8763 143.387 21.1656 143.222 21.3523 142.89C21.5389 142.559 21.6323 142.043 21.6323 141.343C21.6323 140.639 21.5389 140.125 21.3523 139.803C21.1703 139.477 20.8809 139.313 20.4843 139.313C20.0923 139.313 19.8029 139.477 19.6163 139.803C19.4296 140.13 19.3363 140.643 19.3363 141.343C19.3363 142.043 19.4296 142.559 19.6163 142.89C19.8029 143.222 20.0923 143.387 20.4843 143.387ZM24.5835 143.989L24.1705 143.751L27.0895 138.704L27.5025 138.942L24.5835 143.989ZM24.1565 141.84C23.7832 141.84 23.4915 141.714 23.2815 141.462C23.0715 141.206 22.9665 140.828 22.9665 140.328C22.9665 139.834 23.0715 139.46 23.2815 139.208C23.4915 138.952 23.7832 138.823 24.1565 138.823C24.5299 138.823 24.8215 138.952 25.0315 139.208C25.2415 139.46 25.3465 139.834 25.3465 140.328C25.3465 140.828 25.2415 141.206 25.0315 141.462C24.8215 141.714 24.5299 141.84 24.1565 141.84ZM24.1565 141.434C24.3852 141.434 24.5532 141.346 24.6605 141.168C24.7725 140.991 24.8285 140.711 24.8285 140.328C24.8285 139.95 24.7725 139.673 24.6605 139.495C24.5532 139.318 24.3852 139.229 24.1565 139.229C23.9279 139.229 23.7575 139.318 23.6455 139.495C23.5335 139.673 23.4775 139.95 23.4775 140.328C23.4775 140.711 23.5335 140.991 23.6455 141.168C23.7575 141.346 23.9279 141.434 24.1565 141.434ZM27.5165 143.863C27.1432 143.863 26.8515 143.737 26.6415 143.485C26.4315 143.229 26.3265 142.851 26.3265 142.351C26.3265 141.857 26.4315 141.483 26.6415 141.231C26.8515 140.975 27.1432 140.846 27.5165 140.846C27.8945 140.846 28.1862 140.972 28.3915 141.224C28.6015 141.476 28.7065 141.852 28.7065 142.351C28.7065 142.851 28.6015 143.229 28.3915 143.485C28.1862 143.737 27.8945 143.863 27.5165 143.863ZM27.5165 143.457C27.7499 143.457 27.9202 143.371 28.0275 143.198C28.1395 143.021 28.1955 142.739 28.1955 142.351C28.1955 141.973 28.1395 141.696 28.0275 141.518C27.9155 141.341 27.7452 141.252 27.5165 141.252C27.2879 141.252 27.1175 141.341 27.0055 141.518C26.8982 141.696 26.8445 141.973 26.8445 142.351C26.8445 142.734 26.8982 143.014 27.0055 143.191C27.1175 143.369 27.2879 143.457 27.5165 143.457Z" fill="black"/>
<path d="M37.6496 143.331H38.7346V143.814H35.9906V143.331H37.0756V139.593L36.2076 140.139L35.9416 139.698L37.2366 138.879H37.6496V143.331ZM41.8468 143.331H42.9318V143.814H40.1878V143.331H41.2728V139.593L40.4048 140.139L40.1388 139.698L41.4338 138.879H41.8468V143.331ZM43.9791 142.183V141.714H45.9391V142.183H43.9791ZM50.2217 143.331V143.814H47.0437V143.38L48.7727 141.476C49.0061 141.215 49.1741 140.982 49.2767 140.776C49.3841 140.566 49.4377 140.356 49.4377 140.146C49.4377 139.876 49.3584 139.668 49.1997 139.523C49.0411 139.379 48.8171 139.306 48.5277 139.306C48.0517 139.306 47.5851 139.495 47.1277 139.873L46.9107 139.432C47.1067 139.246 47.3517 139.099 47.6457 138.991C47.9444 138.879 48.2431 138.823 48.5417 138.823C48.9944 138.823 49.3514 138.94 49.6127 139.173C49.8787 139.407 50.0117 139.722 50.0117 140.118C50.0117 140.403 49.9464 140.676 49.8157 140.937C49.6897 141.199 49.4797 141.49 49.1857 141.812L47.7857 143.331H50.2217ZM52.746 143.87C52.1813 143.87 51.752 143.656 51.458 143.226C51.164 142.797 51.017 142.172 51.017 141.35C51.017 140.524 51.164 139.897 51.458 139.467C51.752 139.038 52.1813 138.823 52.746 138.823C53.3107 138.823 53.74 139.038 54.034 139.467C54.328 139.892 54.475 140.517 54.475 141.343C54.475 142.169 54.328 142.797 54.034 143.226C53.74 143.656 53.3107 143.87 52.746 143.87ZM52.746 143.387C53.138 143.387 53.4273 143.222 53.614 142.89C53.8007 142.559 53.894 142.043 53.894 141.343C53.894 140.639 53.8007 140.125 53.614 139.803C53.432 139.477 53.1427 139.313 52.746 139.313C52.354 139.313 52.0647 139.477 51.878 139.803C51.6913 140.13 51.598 140.643 51.598 141.343C51.598 142.043 51.6913 142.559 51.878 142.89C52.0647 143.222 52.354 143.387 52.746 143.387ZM56.8453 143.989L56.4323 143.751L59.3513 138.704L59.7643 138.942L56.8453 143.989ZM56.4183 141.84C56.0449 141.84 55.7533 141.714 55.5433 141.462C55.3333 141.206 55.2283 140.828 55.2283 140.328C55.2283 139.834 55.3333 139.46 55.5433 139.208C55.7533 138.952 56.0449 138.823 56.4183 138.823C56.7916 138.823 57.0833 138.952 57.2933 139.208C57.5033 139.46 57.6083 139.834 57.6083 140.328C57.6083 140.828 57.5033 141.206 57.2933 141.462C57.0833 141.714 56.7916 141.84 56.4183 141.84ZM56.4183 141.434C56.6469 141.434 56.8149 141.346 56.9223 141.168C57.0343 140.991 57.0903 140.711 57.0903 140.328C57.0903 139.95 57.0343 139.673 56.9223 139.495C56.8149 139.318 56.6469 139.229 56.4183 139.229C56.1896 139.229 56.0193 139.318 55.9073 139.495C55.7953 139.673 55.7393 139.95 55.7393 140.328C55.7393 140.711 55.7953 140.991 55.9073 141.168C56.0193 141.346 56.1896 141.434 56.4183 141.434ZM59.7783 143.863C59.4049 143.863 59.1133 143.737 58.9033 143.485C58.6933 143.229 58.5883 142.851 58.5883 142.351C58.5883 141.857 58.6933 141.483 58.9033 141.231C59.1133 140.975 59.4049 140.846 59.7783 140.846C60.1563 140.846 60.4479 140.972 60.6533 141.224C60.8633 141.476 60.9683 141.852 60.9683 142.351C60.9683 142.851 60.8633 143.229 60.6533 143.485C60.4479 143.737 60.1563 143.863 59.7783 143.863ZM59.7783 143.457C60.0116 143.457 60.1819 143.371 60.2893 143.198C60.4013 143.021 60.4573 142.739 60.4573 142.351C60.4573 141.973 60.4013 141.696 60.2893 141.518C60.1773 141.341 60.0069 141.252 59.7783 141.252C59.5496 141.252 59.3793 141.341 59.2673 141.518C59.1599 141.696 59.1063 141.973 59.1063 142.351C59.1063 142.734 59.1599 143.014 59.2673 143.191C59.3793 143.369 59.5496 143.457 59.7783 143.457Z" fill="black"/>
<path d="M70.4263 143.331V143.814H67.2483V143.38L68.9773 141.476C69.2107 141.215 69.3787 140.982 69.4813 140.776C69.5887 140.566 69.6423 140.356 69.6423 140.146C69.6423 139.876 69.563 139.668 69.4043 139.523C69.2457 139.379 69.0217 139.306 68.7323 139.306C68.2563 139.306 67.7897 139.495 67.3323 139.873L67.1153 139.432C67.3113 139.246 67.5563 139.099 67.8503 138.991C68.149 138.879 68.4477 138.823 68.7463 138.823C69.199 138.823 69.556 138.94 69.8173 139.173C70.0833 139.407 70.2163 139.722 70.2163 140.118C70.2163 140.403 70.151 140.676 70.0203 140.937C69.8943 141.199 69.6843 141.49 69.3903 141.812L67.9903 143.331H70.4263ZM73.4196 143.331H74.5046V143.814H71.7606V143.331H72.8456V139.593L71.9776 140.139L71.7116 139.698L73.0066 138.879H73.4196V143.331ZM75.5519 142.183V141.714H77.5119V142.183H75.5519ZM80.8005 141.28C81.0898 141.364 81.3115 141.509 81.4655 141.714C81.6195 141.915 81.6965 142.169 81.6965 142.477C81.6965 142.907 81.5495 143.245 81.2555 143.492C80.9662 143.74 80.5718 143.863 80.0725 143.863C79.7552 143.863 79.4495 143.81 79.1555 143.702C78.8615 143.595 78.6142 143.446 78.4135 143.254L78.6305 142.813C79.0785 143.191 79.5545 143.38 80.0585 143.38C80.4085 143.38 80.6745 143.303 80.8565 143.149C81.0385 142.991 81.1295 142.76 81.1295 142.456C81.1295 141.854 80.7515 141.553 79.9955 141.553H79.4285V141.07H79.8835C80.2475 141.07 80.5275 140.991 80.7235 140.832C80.9195 140.669 81.0175 140.436 81.0175 140.132C81.0175 139.866 80.9382 139.663 80.7795 139.523C80.6208 139.379 80.3945 139.306 80.1005 139.306C79.6245 139.306 79.1578 139.495 78.7005 139.873L78.4835 139.432C78.6842 139.241 78.9292 139.092 79.2185 138.984C79.5078 138.877 79.8088 138.823 80.1215 138.823C80.5695 138.823 80.9242 138.938 81.1855 139.166C81.4515 139.39 81.5845 139.694 81.5845 140.076C81.5845 140.361 81.5145 140.611 81.3745 140.825C81.2392 141.035 81.0478 141.187 80.8005 141.28ZM84.3188 143.87C83.7541 143.87 83.3248 143.656 83.0308 143.226C82.7368 142.797 82.5898 142.172 82.5898 141.35C82.5898 140.524 82.7368 139.897 83.0308 139.467C83.3248 139.038 83.7541 138.823 84.3188 138.823C84.8834 138.823 85.3128 139.038 85.6068 139.467C85.9008 139.892 86.0478 140.517 86.0478 141.343C86.0478 142.169 85.9008 142.797 85.6068 143.226C85.3128 143.656 84.8834 143.87 84.3188 143.87ZM84.3188 143.387C84.7108 143.387 85.0001 143.222 85.1868 142.89C85.3734 142.559 85.4668 142.043 85.4668 141.343C85.4668 140.639 85.3734 140.125 85.1868 139.803C85.0048 139.477 84.7154 139.313 84.3188 139.313C83.9268 139.313 83.6374 139.477 83.4508 139.803C83.2641 140.13 83.1708 140.643 83.1708 141.343C83.1708 142.043 83.2641 142.559 83.4508 142.89C83.6374 143.222 83.9268 143.387 84.3188 143.387ZM88.418 143.989L88.005 143.751L90.924 138.704L91.337 138.942L88.418 143.989ZM87.991 141.84C87.6177 141.84 87.326 141.714 87.116 141.462C86.906 141.206 86.801 140.828 86.801 140.328C86.801 139.834 86.906 139.46 87.116 139.208C87.326 138.952 87.6177 138.823 87.991 138.823C88.3643 138.823 88.656 138.952 88.866 139.208C89.076 139.46 89.181 139.834 89.181 140.328C89.181 140.828 89.076 141.206 88.866 141.462C88.656 141.714 88.3643 141.84 87.991 141.84ZM87.991 141.434C88.2197 141.434 88.3877 141.346 88.495 141.168C88.607 140.991 88.663 140.711 88.663 140.328C88.663 139.95 88.607 139.673 88.495 139.495C88.3877 139.318 88.2197 139.229 87.991 139.229C87.7623 139.229 87.592 139.318 87.48 139.495C87.368 139.673 87.312 139.95 87.312 140.328C87.312 140.711 87.368 140.991 87.48 141.168C87.592 141.346 87.7623 141.434 87.991 141.434ZM91.351 143.863C90.9777 143.863 90.686 143.737 90.476 143.485C90.266 143.229 90.161 142.851 90.161 142.351C90.161 141.857 90.266 141.483 90.476 141.231C90.686 140.975 90.9777 140.846 91.351 140.846C91.729 140.846 92.0207 140.972 92.226 141.224C92.436 141.476 92.541 141.852 92.541 142.351C92.541 142.851 92.436 143.229 92.226 143.485C92.0207 143.737 91.729 143.863 91.351 143.863ZM91.351 143.457C91.5843 143.457 91.7547 143.371 91.862 143.198C91.974 143.021 92.03 142.739 92.03 142.351C92.03 141.973 91.974 141.696 91.862 141.518C91.75 141.341 91.5797 141.252 91.351 141.252C91.1223 141.252 90.952 141.341 90.84 141.518C90.7327 141.696 90.679 141.973 90.679 142.351C90.679 142.734 90.7327 143.014 90.84 143.191C90.952 143.369 91.1223 143.457 91.351 143.457Z" fill="black"/>
<path d="M101.005 141.28C101.294 141.364 101.516 141.509 101.67 141.714C101.824 141.915 101.901 142.169 101.901 142.477C101.901 142.907 101.754 143.245 101.46 143.492C101.17 143.74 100.776 143.863 100.277 143.863C99.9595 143.863 99.6538 143.81 99.3598 143.702C99.0658 143.595 98.8185 143.446 98.6178 143.254L98.8348 142.813C99.2828 143.191 99.7588 143.38 100.263 143.38C100.613 143.38 100.879 143.303 101.061 143.149C101.243 142.991 101.334 142.76 101.334 142.456C101.334 141.854 100.956 141.553 100.2 141.553H99.6328V141.07H100.088C100.452 141.07 100.732 140.991 100.928 140.832C101.124 140.669 101.222 140.436 101.222 140.132C101.222 139.866 101.142 139.663 100.984 139.523C100.825 139.379 100.599 139.306 100.305 139.306C99.8288 139.306 99.3622 139.495 98.9048 139.873L98.6878 139.432C98.8885 139.241 99.1335 139.092 99.4228 138.984C99.7122 138.877 100.013 138.823 100.326 138.823C100.774 138.823 101.128 138.938 101.39 139.166C101.656 139.39 101.789 139.694 101.789 140.076C101.789 140.361 101.719 140.611 101.579 140.825C101.443 141.035 101.252 141.187 101.005 141.28ZM104.992 143.331H106.077V143.814H103.333V143.331H104.418V139.593L103.55 140.139L103.284 139.698L104.579 138.879H104.992V143.331ZM107.124 142.183V141.714H109.084V142.183H107.124ZM113.542 142.267V142.743H112.8V143.814H112.233V142.743H109.951V142.309L112.331 138.879H112.8V142.267H113.542ZM110.546 142.267H112.233V139.838L110.546 142.267ZM115.891 143.87C115.327 143.87 114.897 143.656 114.603 143.226C114.309 142.797 114.162 142.172 114.162 141.35C114.162 140.524 114.309 139.897 114.603 139.467C114.897 139.038 115.327 138.823 115.891 138.823C116.456 138.823 116.885 139.038 117.179 139.467C117.473 139.892 117.62 140.517 117.62 141.343C117.62 142.169 117.473 142.797 117.179 143.226C116.885 143.656 116.456 143.87 115.891 143.87ZM115.891 143.387C116.283 143.387 116.573 143.222 116.759 142.89C116.946 142.559 117.039 142.043 117.039 141.343C117.039 140.639 116.946 140.125 116.759 139.803C116.577 139.477 116.288 139.313 115.891 139.313C115.499 139.313 115.21 139.477 115.023 139.803C114.837 140.13 114.743 140.643 114.743 141.343C114.743 142.043 114.837 142.559 115.023 142.89C115.21 143.222 115.499 143.387 115.891 143.387ZM119.991 143.989L119.578 143.751L122.497 138.704L122.91 138.942L119.991 143.989ZM119.564 141.84C119.19 141.84 118.899 141.714 118.689 141.462C118.479 141.206 118.374 140.828 118.374 140.328C118.374 139.834 118.479 139.46 118.689 139.208C118.899 138.952 119.19 138.823 119.564 138.823C119.937 138.823 120.229 138.952 120.439 139.208C120.649 139.46 120.754 139.834 120.754 140.328C120.754 140.828 120.649 141.206 120.439 141.462C120.229 141.714 119.937 141.84 119.564 141.84ZM119.564 141.434C119.792 141.434 119.96 141.346 120.068 141.168C120.18 140.991 120.236 140.711 120.236 140.328C120.236 139.95 120.18 139.673 120.068 139.495C119.96 139.318 119.792 139.229 119.564 139.229C119.335 139.229 119.165 139.318 119.053 139.495C118.941 139.673 118.885 139.95 118.885 140.328C118.885 140.711 118.941 140.991 119.053 141.168C119.165 141.346 119.335 141.434 119.564 141.434ZM122.924 143.863C122.55 143.863 122.259 143.737 122.049 143.485C121.839 143.229 121.734 142.851 121.734 142.351C121.734 141.857 121.839 141.483 122.049 141.231C122.259 140.975 122.55 140.846 122.924 140.846C123.302 140.846 123.593 140.972 123.799 141.224C124.009 141.476 124.114 141.852 124.114 142.351C124.114 142.851 124.009 143.229 123.799 143.485C123.593 143.737 123.302 143.863 122.924 143.863ZM122.924 143.457C123.157 143.457 123.327 143.371 123.435 143.198C123.547 143.021 123.603 142.739 123.603 142.351C123.603 141.973 123.547 141.696 123.435 141.518C123.323 141.341 123.152 141.252 122.924 141.252C122.695 141.252 122.525 141.341 122.413 141.518C122.305 141.696 122.252 141.973 122.252 142.351C122.252 142.734 122.305 143.014 122.413 143.191C122.525 143.369 122.695 143.457 122.924 143.457Z" fill="black"/>
<path d="M133.746 142.267V142.743H133.004V143.814H132.437V142.743H130.155V142.309L132.535 138.879H133.004V142.267H133.746ZM130.75 142.267H132.437V139.838L130.75 142.267ZM136.565 143.331H137.65V143.814H134.906V143.331H135.991V139.593L135.123 140.139L134.857 139.698L136.152 138.879H136.565V143.331ZM138.697 142.183V141.714H140.657V142.183H138.697ZM143.477 140.72C143.789 140.72 144.06 140.786 144.289 140.916C144.522 141.047 144.702 141.231 144.828 141.469C144.954 141.703 145.017 141.973 145.017 142.281C145.017 142.594 144.947 142.869 144.807 143.107C144.671 143.345 144.478 143.532 144.226 143.667C143.974 143.798 143.68 143.863 143.344 143.863C143.045 143.863 142.749 143.81 142.455 143.702C142.165 143.59 141.92 143.441 141.72 143.254L141.937 142.813C142.394 143.191 142.863 143.38 143.344 143.38C143.689 143.38 143.96 143.282 144.156 143.086C144.352 142.89 144.45 142.624 144.45 142.288C144.45 141.962 144.352 141.698 144.156 141.497C143.964 141.297 143.708 141.196 143.386 141.196C142.914 141.196 142.539 141.388 142.259 141.77H141.86V138.879H144.821V139.355H142.427V141.112C142.557 140.986 142.711 140.891 142.889 140.825C143.071 140.755 143.267 140.72 143.477 140.72ZM147.464 143.87C146.899 143.87 146.47 143.656 146.176 143.226C145.882 142.797 145.735 142.172 145.735 141.35C145.735 140.524 145.882 139.897 146.176 139.467C146.47 139.038 146.899 138.823 147.464 138.823C148.028 138.823 148.458 139.038 148.752 139.467C149.046 139.892 149.193 140.517 149.193 141.343C149.193 142.169 149.046 142.797 148.752 143.226C148.458 143.656 148.028 143.87 147.464 143.87ZM147.464 143.387C147.856 143.387 148.145 143.222 148.332 142.89C148.518 142.559 148.612 142.043 148.612 141.343C148.612 140.639 148.518 140.125 148.332 139.803C148.15 139.477 147.86 139.313 147.464 139.313C147.072 139.313 146.782 139.477 146.596 139.803C146.409 140.13 146.316 140.643 146.316 141.343C146.316 142.043 146.409 142.559 146.596 142.89C146.782 143.222 147.072 143.387 147.464 143.387ZM151.563 143.989L151.15 143.751L154.069 138.704L154.482 138.942L151.563 143.989ZM151.136 141.84C150.763 141.84 150.471 141.714 150.261 141.462C150.051 141.206 149.946 140.828 149.946 140.328C149.946 139.834 150.051 139.46 150.261 139.208C150.471 138.952 150.763 138.823 151.136 138.823C151.509 138.823 151.801 138.952 152.011 139.208C152.221 139.46 152.326 139.834 152.326 140.328C152.326 140.828 152.221 141.206 152.011 141.462C151.801 141.714 151.509 141.84 151.136 141.84ZM151.136 141.434C151.365 141.434 151.533 141.346 151.64 141.168C151.752 140.991 151.808 140.711 151.808 140.328C151.808 139.95 151.752 139.673 151.64 139.495C151.533 139.318 151.365 139.229 151.136 139.229C150.907 139.229 150.737 139.318 150.625 139.495C150.513 139.673 150.457 139.95 150.457 140.328C150.457 140.711 150.513 140.991 150.625 141.168C150.737 141.346 150.907 141.434 151.136 141.434ZM154.496 143.863C154.123 143.863 153.831 143.737 153.621 143.485C153.411 143.229 153.306 142.851 153.306 142.351C153.306 141.857 153.411 141.483 153.621 141.231C153.831 140.975 154.123 140.846 154.496 140.846C154.874 140.846 155.166 140.972 155.371 141.224C155.581 141.476 155.686 141.852 155.686 142.351C155.686 142.851 155.581 143.229 155.371 143.485C155.166 143.737 154.874 143.863 154.496 143.863ZM154.496 143.457C154.729 143.457 154.9 143.371 155.007 143.198C155.119 143.021 155.175 142.739 155.175 142.351C155.175 141.973 155.119 141.696 155.007 141.518C154.895 141.341 154.725 141.252 154.496 141.252C154.267 141.252 154.097 141.341 153.985 141.518C153.878 141.696 153.824 141.973 153.824 142.351C153.824 142.734 153.878 143.014 153.985 143.191C154.097 143.369 154.267 143.457 154.496 143.457Z" fill="black"/>
<path d="M163.681 140.72C163.994 140.72 164.264 140.786 164.493 140.916C164.726 141.047 164.906 141.231 165.032 141.469C165.158 141.703 165.221 141.973 165.221 142.281C165.221 142.594 165.151 142.869 165.011 143.107C164.876 143.345 164.682 143.532 164.43 143.667C164.178 143.798 163.884 143.863 163.548 143.863C163.249 143.863 162.953 143.81 162.659 143.702C162.37 143.59 162.125 143.441 161.924 143.254L162.141 142.813C162.598 143.191 163.067 143.38 163.548 143.38C163.893 143.38 164.164 143.282 164.36 143.086C164.556 142.89 164.654 142.624 164.654 142.288C164.654 141.962 164.556 141.698 164.36 141.497C164.169 141.297 163.912 141.196 163.59 141.196C163.119 141.196 162.743 141.388 162.463 141.77H162.064V138.879H165.025V139.355H162.631V141.112C162.762 140.986 162.916 140.891 163.093 140.825C163.275 140.755 163.471 140.72 163.681 140.72ZM168.137 143.331H169.222V143.814H166.478V143.331H167.563V139.593L166.695 140.139L166.429 139.698L167.724 138.879H168.137V143.331ZM170.269 142.183V141.714H172.229V142.183H170.269ZM175.049 140.713C175.348 140.713 175.614 140.779 175.847 140.909C176.08 141.04 176.262 141.224 176.393 141.462C176.524 141.7 176.589 141.973 176.589 142.281C176.589 142.585 176.521 142.858 176.386 143.1C176.251 143.343 176.062 143.532 175.819 143.667C175.576 143.803 175.303 143.87 175 143.87C174.403 143.87 173.941 143.663 173.614 143.247C173.292 142.832 173.131 142.239 173.131 141.469C173.131 140.914 173.206 140.438 173.355 140.041C173.509 139.645 173.728 139.344 174.013 139.138C174.298 138.928 174.638 138.823 175.035 138.823C175.32 138.823 175.597 138.877 175.868 138.984C176.139 139.087 176.377 139.236 176.582 139.432L176.365 139.873C176.132 139.677 175.908 139.535 175.693 139.446C175.483 139.353 175.268 139.306 175.049 139.306C174.624 139.306 174.293 139.495 174.055 139.873C173.822 140.247 173.705 140.776 173.705 141.462V141.567C173.812 141.306 173.985 141.098 174.223 140.944C174.461 140.79 174.736 140.713 175.049 140.713ZM174.972 143.387C175.289 143.387 175.544 143.287 175.735 143.086C175.926 142.886 176.022 142.62 176.022 142.288C176.022 141.962 175.924 141.698 175.728 141.497C175.537 141.297 175.282 141.196 174.965 141.196C174.643 141.196 174.379 141.299 174.174 141.504C173.973 141.705 173.873 141.966 173.873 142.288C173.873 142.615 173.973 142.881 174.174 143.086C174.379 143.287 174.645 143.387 174.972 143.387ZM179.029 143.87C178.465 143.87 178.035 143.656 177.741 143.226C177.447 142.797 177.3 142.172 177.3 141.35C177.3 140.524 177.447 139.897 177.741 139.467C178.035 139.038 178.465 138.823 179.029 138.823C179.594 138.823 180.023 139.038 180.317 139.467C180.611 139.892 180.758 140.517 180.758 141.343C180.758 142.169 180.611 142.797 180.317 143.226C180.023 143.656 179.594 143.87 179.029 143.87ZM179.029 143.387C179.421 143.387 179.711 143.222 179.897 142.89C180.084 142.559 180.177 142.043 180.177 141.343C180.177 140.639 180.084 140.125 179.897 139.803C179.715 139.477 179.426 139.313 179.029 139.313C178.637 139.313 178.348 139.477 178.161 139.803C177.975 140.13 177.881 140.643 177.881 141.343C177.881 142.043 177.975 142.559 178.161 142.89C178.348 143.222 178.637 143.387 179.029 143.387ZM183.129 143.989L182.716 143.751L185.635 138.704L186.048 138.942L183.129 143.989ZM182.702 141.84C182.328 141.84 182.037 141.714 181.827 141.462C181.617 141.206 181.512 140.828 181.512 140.328C181.512 139.834 181.617 139.46 181.827 139.208C182.037 138.952 182.328 138.823 182.702 138.823C183.075 138.823 183.367 138.952 183.577 139.208C183.787 139.46 183.892 139.834 183.892 140.328C183.892 140.828 183.787 141.206 183.577 141.462C183.367 141.714 183.075 141.84 182.702 141.84ZM182.702 141.434C182.93 141.434 183.098 141.346 183.206 141.168C183.318 140.991 183.374 140.711 183.374 140.328C183.374 139.95 183.318 139.673 183.206 139.495C183.098 139.318 182.93 139.229 182.702 139.229C182.473 139.229 182.303 139.318 182.191 139.495C182.079 139.673 182.023 139.95 182.023 140.328C182.023 140.711 182.079 140.991 182.191 141.168C182.303 141.346 182.473 141.434 182.702 141.434ZM186.062 143.863C185.688 143.863 185.397 143.737 185.187 143.485C184.977 143.229 184.872 142.851 184.872 142.351C184.872 141.857 184.977 141.483 185.187 141.231C185.397 140.975 185.688 140.846 186.062 140.846C186.44 140.846 186.731 140.972 186.937 141.224C187.147 141.476 187.252 141.852 187.252 142.351C187.252 142.851 187.147 143.229 186.937 143.485C186.731 143.737 186.44 143.863 186.062 143.863ZM186.062 143.457C186.295 143.457 186.465 143.371 186.573 143.198C186.685 143.021 186.741 142.739 186.741 142.351C186.741 141.973 186.685 141.696 186.573 141.518C186.461 141.341 186.29 141.252 186.062 141.252C185.833 141.252 185.663 141.341 185.551 141.518C185.443 141.696 185.39 141.973 185.39 142.351C185.39 142.734 185.443 143.014 185.551 143.191C185.663 143.369 185.833 143.457 186.062 143.457Z" fill="black"/>
<path d="M195.254 140.713C195.552 140.713 195.818 140.779 196.052 140.909C196.285 141.04 196.467 141.224 196.598 141.462C196.728 141.7 196.794 141.973 196.794 142.281C196.794 142.585 196.726 142.858 196.591 143.1C196.455 143.343 196.266 143.532 196.024 143.667C195.781 143.803 195.508 143.87 195.205 143.87C194.607 143.87 194.145 143.663 193.819 143.247C193.497 142.832 193.336 142.239 193.336 141.469C193.336 140.914 193.41 140.438 193.56 140.041C193.714 139.645 193.933 139.344 194.218 139.138C194.502 138.928 194.843 138.823 195.24 138.823C195.524 138.823 195.802 138.877 196.073 138.984C196.343 139.087 196.581 139.236 196.787 139.432L196.57 139.873C196.336 139.677 196.112 139.535 195.898 139.446C195.688 139.353 195.473 139.306 195.254 139.306C194.829 139.306 194.498 139.495 194.26 139.873C194.026 140.247 193.91 140.776 193.91 141.462V141.567C194.017 141.306 194.19 141.098 194.428 140.944C194.666 140.79 194.941 140.713 195.254 140.713ZM195.177 143.387C195.494 143.387 195.748 143.287 195.94 143.086C196.131 142.886 196.227 142.62 196.227 142.288C196.227 141.962 196.129 141.698 195.933 141.497C195.741 141.297 195.487 141.196 195.17 141.196C194.848 141.196 194.584 141.299 194.379 141.504C194.178 141.705 194.078 141.966 194.078 142.288C194.078 142.615 194.178 142.881 194.379 143.086C194.584 143.287 194.85 143.387 195.177 143.387ZM199.703 143.331H200.788V143.814H198.044V143.331H199.129V139.593L198.261 140.139L197.995 139.698L199.29 138.879H199.703V143.331ZM201.835 142.183V141.714H203.795V142.183H201.835ZM204.774 138.879H208.036V139.306L205.726 143.814H205.103L207.406 139.362H204.774V138.879ZM210.602 143.87C210.038 143.87 209.608 143.656 209.314 143.226C209.02 142.797 208.873 142.172 208.873 141.35C208.873 140.524 209.02 139.897 209.314 139.467C209.608 139.038 210.038 138.823 210.602 138.823C211.167 138.823 211.596 139.038 211.89 139.467C212.184 139.892 212.331 140.517 212.331 141.343C212.331 142.169 212.184 142.797 211.89 143.226C211.596 143.656 211.167 143.87 210.602 143.87ZM210.602 143.387C210.994 143.387 211.284 143.222 211.47 142.89C211.657 142.559 211.75 142.043 211.75 141.343C211.75 140.639 211.657 140.125 211.47 139.803C211.288 139.477 210.999 139.313 210.602 139.313C210.21 139.313 209.921 139.477 209.734 139.803C209.548 140.13 209.454 140.643 209.454 141.343C209.454 142.043 209.548 142.559 209.734 142.89C209.921 143.222 210.21 143.387 210.602 143.387ZM214.701 143.989L214.288 143.751L217.207 138.704L217.62 138.942L214.701 143.989ZM214.274 141.84C213.901 141.84 213.609 141.714 213.399 141.462C213.189 141.206 213.084 140.828 213.084 140.328C213.084 139.834 213.189 139.46 213.399 139.208C213.609 138.952 213.901 138.823 214.274 138.823C214.648 138.823 214.939 138.952 215.149 139.208C215.359 139.46 215.464 139.834 215.464 140.328C215.464 140.828 215.359 141.206 215.149 141.462C214.939 141.714 214.648 141.84 214.274 141.84ZM214.274 141.434C214.503 141.434 214.671 141.346 214.778 141.168C214.89 140.991 214.946 140.711 214.946 140.328C214.946 139.95 214.89 139.673 214.778 139.495C214.671 139.318 214.503 139.229 214.274 139.229C214.046 139.229 213.875 139.318 213.763 139.495C213.651 139.673 213.595 139.95 213.595 140.328C213.595 140.711 213.651 140.991 213.763 141.168C213.875 141.346 214.046 141.434 214.274 141.434ZM217.634 143.863C217.261 143.863 216.969 143.737 216.759 143.485C216.549 143.229 216.444 142.851 216.444 142.351C216.444 141.857 216.549 141.483 216.759 141.231C216.969 140.975 217.261 140.846 217.634 140.846C218.012 140.846 218.304 140.972 218.509 141.224C218.719 141.476 218.824 141.852 218.824 142.351C218.824 142.851 218.719 143.229 218.509 143.485C218.304 143.737 218.012 143.863 217.634 143.863ZM217.634 143.457C217.868 143.457 218.038 143.371 218.145 143.198C218.257 143.021 218.313 142.739 218.313 142.351C218.313 141.973 218.257 141.696 218.145 141.518C218.033 141.341 217.863 141.252 217.634 141.252C217.406 141.252 217.235 141.341 217.123 141.518C217.016 141.696 216.962 141.973 216.962 142.351C216.962 142.734 217.016 143.014 217.123 143.191C217.235 143.369 217.406 143.457 217.634 143.457Z" fill="black"/>
<path d="M224.985 138.879H228.247V139.306L225.937 143.814H225.314L227.617 139.362H224.985V138.879ZM231.282 143.331H232.367V143.814H229.623V143.331H230.708V139.593L229.84 140.139L229.574 139.698L230.869 138.879H231.282V143.331ZM233.415 142.183V141.714H235.375V142.183H233.415ZM238.838 141.28C239.128 141.369 239.352 141.521 239.51 141.735C239.674 141.95 239.755 142.207 239.755 142.505C239.755 142.93 239.601 143.264 239.293 143.506C238.985 143.744 238.549 143.863 237.984 143.863C237.42 143.863 236.983 143.744 236.675 143.506C236.367 143.264 236.213 142.93 236.213 142.505C236.213 142.202 236.295 141.943 236.458 141.728C236.622 141.514 236.848 141.364 237.137 141.28C236.89 141.187 236.694 141.04 236.549 140.839C236.405 140.639 236.332 140.403 236.332 140.132C236.332 139.731 236.477 139.414 236.766 139.18C237.06 138.942 237.466 138.823 237.984 138.823C238.502 138.823 238.906 138.942 239.195 139.18C239.489 139.414 239.636 139.731 239.636 140.132C239.636 140.403 239.564 140.641 239.419 140.846C239.275 141.047 239.081 141.192 238.838 141.28ZM236.899 140.174C236.899 140.464 236.99 140.685 237.172 140.839C237.359 140.993 237.63 141.07 237.984 141.07C238.339 141.07 238.607 140.993 238.789 140.839C238.976 140.685 239.069 140.464 239.069 140.174C239.069 139.899 238.976 139.684 238.789 139.53C238.607 139.376 238.339 139.299 237.984 139.299C237.63 139.299 237.359 139.376 237.172 139.53C236.99 139.684 236.899 139.899 236.899 140.174ZM237.984 143.387C238.787 143.387 239.188 143.082 239.188 142.47C239.188 141.859 238.787 141.553 237.984 141.553C237.182 141.553 236.78 141.859 236.78 142.47C236.78 143.082 237.182 143.387 237.984 143.387ZM242.182 143.87C241.617 143.87 241.188 143.656 240.894 143.226C240.6 142.797 240.453 142.172 240.453 141.35C240.453 140.524 240.6 139.897 240.894 139.467C241.188 139.038 241.617 138.823 242.182 138.823C242.746 138.823 243.176 139.038 243.47 139.467C243.764 139.892 243.911 140.517 243.911 141.343C243.911 142.169 243.764 142.797 243.47 143.226C243.176 143.656 242.746 143.87 242.182 143.87ZM242.182 143.387C242.574 143.387 242.863 143.222 243.05 142.89C243.236 142.559 243.33 142.043 243.33 141.343C243.33 140.639 243.236 140.125 243.05 139.803C242.868 139.477 242.578 139.313 242.182 139.313C241.79 139.313 241.5 139.477 241.314 139.803C241.127 140.13 241.034 140.643 241.034 141.343C241.034 142.043 241.127 142.559 241.314 142.89C241.5 143.222 241.79 143.387 242.182 143.387ZM246.281 143.989L245.868 143.751L248.787 138.704L249.2 138.942L246.281 143.989ZM245.854 141.84C245.48 141.84 245.189 141.714 244.979 141.462C244.769 141.206 244.664 140.828 244.664 140.328C244.664 139.834 244.769 139.46 244.979 139.208C245.189 138.952 245.48 138.823 245.854 138.823C246.227 138.823 246.519 138.952 246.729 139.208C246.939 139.46 247.044 139.834 247.044 140.328C247.044 140.828 246.939 141.206 246.729 141.462C246.519 141.714 246.227 141.84 245.854 141.84ZM245.854 141.434C246.082 141.434 246.25 141.346 246.358 141.168C246.47 140.991 246.526 140.711 246.526 140.328C246.526 139.95 246.47 139.673 246.358 139.495C246.25 139.318 246.082 139.229 245.854 139.229C245.625 139.229 245.455 139.318 245.343 139.495C245.231 139.673 245.175 139.95 245.175 140.328C245.175 140.711 245.231 140.991 245.343 141.168C245.455 141.346 245.625 141.434 245.854 141.434ZM249.214 143.863C248.84 143.863 248.549 143.737 248.339 143.485C248.129 143.229 248.024 142.851 248.024 142.351C248.024 141.857 248.129 141.483 248.339 141.231C248.549 140.975 248.84 140.846 249.214 140.846C249.592 140.846 249.883 140.972 250.089 141.224C250.299 141.476 250.404 141.852 250.404 142.351C250.404 142.851 250.299 143.229 250.089 143.485C249.883 143.737 249.592 143.863 249.214 143.863ZM249.214 143.457C249.447 143.457 249.617 143.371 249.725 143.198C249.837 143.021 249.893 142.739 249.893 142.351C249.893 141.973 249.837 141.696 249.725 141.518C249.613 141.341 249.442 141.252 249.214 141.252C248.985 141.252 248.815 141.341 248.703 141.518C248.595 141.696 248.542 141.973 248.542 142.351C248.542 142.734 248.595 143.014 248.703 143.191C248.815 143.369 248.985 143.457 249.214 143.457Z" fill="black"/>
<path d="M259.043 141.28C259.332 141.369 259.556 141.521 259.715 141.735C259.878 141.95 259.96 142.207 259.96 142.505C259.96 142.93 259.806 143.264 259.498 143.506C259.19 143.744 258.754 143.863 258.189 143.863C257.624 143.863 257.188 143.744 256.88 143.506C256.572 143.264 256.418 142.93 256.418 142.505C256.418 142.202 256.5 141.943 256.663 141.728C256.826 141.514 257.053 141.364 257.342 141.28C257.095 141.187 256.899 141.04 256.754 140.839C256.609 140.639 256.537 140.403 256.537 140.132C256.537 139.731 256.682 139.414 256.971 139.18C257.265 138.942 257.671 138.823 258.189 138.823C258.707 138.823 259.111 138.942 259.4 139.18C259.694 139.414 259.841 139.731 259.841 140.132C259.841 140.403 259.769 140.641 259.624 140.846C259.479 141.047 259.286 141.192 259.043 141.28ZM257.104 140.174C257.104 140.464 257.195 140.685 257.377 140.839C257.564 140.993 257.834 141.07 258.189 141.07C258.544 141.07 258.812 140.993 258.994 140.839C259.181 140.685 259.274 140.464 259.274 140.174C259.274 139.899 259.181 139.684 258.994 139.53C258.812 139.376 258.544 139.299 258.189 139.299C257.834 139.299 257.564 139.376 257.377 139.53C257.195 139.684 257.104 139.899 257.104 140.174ZM258.189 143.387C258.992 143.387 259.393 143.082 259.393 142.47C259.393 141.859 258.992 141.553 258.189 141.553C257.386 141.553 256.985 141.859 256.985 142.47C256.985 143.082 257.386 143.387 258.189 143.387ZM262.855 143.331H263.94V143.814H261.196V143.331H262.281V139.593L261.413 140.139L261.147 139.698L262.442 138.879H262.855V143.331ZM264.987 142.183V141.714H266.947V142.183H264.987ZM269.403 138.823C270 138.823 270.46 139.031 270.782 139.446C271.109 139.862 271.272 140.454 271.272 141.224C271.272 142.06 271.104 142.711 270.768 143.177C270.432 143.639 269.963 143.87 269.361 143.87C269.081 143.87 268.806 143.819 268.535 143.716C268.264 143.609 268.026 143.457 267.821 143.261L268.038 142.82C268.271 143.016 268.493 143.161 268.703 143.254C268.918 143.343 269.135 143.387 269.354 143.387C269.779 143.387 270.108 143.201 270.341 142.827C270.574 142.449 270.691 141.917 270.691 141.231V141.14C270.584 141.402 270.409 141.607 270.166 141.756C269.928 141.906 269.657 141.98 269.354 141.98C269.055 141.98 268.789 141.915 268.556 141.784C268.323 141.654 268.141 141.469 268.01 141.231C267.879 140.993 267.814 140.72 267.814 140.412C267.814 140.109 267.882 139.836 268.017 139.593C268.152 139.351 268.341 139.162 268.584 139.026C268.827 138.891 269.1 138.823 269.403 138.823ZM269.438 141.497C269.76 141.497 270.021 141.397 270.222 141.196C270.427 140.991 270.53 140.727 270.53 140.405C270.53 140.079 270.427 139.815 270.222 139.614C270.021 139.409 269.758 139.306 269.431 139.306C269.114 139.306 268.859 139.407 268.668 139.607C268.477 139.808 268.381 140.074 268.381 140.405C268.381 140.737 268.477 141.003 268.668 141.203C268.864 141.399 269.121 141.497 269.438 141.497ZM273.754 143.87C273.19 143.87 272.76 143.656 272.466 143.226C272.172 142.797 272.025 142.172 272.025 141.35C272.025 140.524 272.172 139.897 272.466 139.467C272.76 139.038 273.19 138.823 273.754 138.823C274.319 138.823 274.748 139.038 275.042 139.467C275.336 139.892 275.483 140.517 275.483 141.343C275.483 142.169 275.336 142.797 275.042 143.226C274.748 143.656 274.319 143.87 273.754 143.87ZM273.754 143.387C274.146 143.387 274.436 143.222 274.622 142.89C274.809 142.559 274.902 142.043 274.902 141.343C274.902 140.639 274.809 140.125 274.622 139.803C274.44 139.477 274.151 139.313 273.754 139.313C273.362 139.313 273.073 139.477 272.886 139.803C272.7 140.13 272.606 140.643 272.606 141.343C272.606 142.043 272.7 142.559 272.886 142.89C273.073 143.222 273.362 143.387 273.754 143.387ZM277.854 143.989L277.441 143.751L280.36 138.704L280.773 138.942L277.854 143.989ZM277.427 141.84C277.053 141.84 276.762 141.714 276.552 141.462C276.342 141.206 276.237 140.828 276.237 140.328C276.237 139.834 276.342 139.46 276.552 139.208C276.762 138.952 277.053 138.823 277.427 138.823C277.8 138.823 278.092 138.952 278.302 139.208C278.512 139.46 278.617 139.834 278.617 140.328C278.617 140.828 278.512 141.206 278.302 141.462C278.092 141.714 277.8 141.84 277.427 141.84ZM277.427 141.434C277.655 141.434 277.823 141.346 277.931 141.168C278.043 140.991 278.099 140.711 278.099 140.328C278.099 139.95 278.043 139.673 277.931 139.495C277.823 139.318 277.655 139.229 277.427 139.229C277.198 139.229 277.028 139.318 276.916 139.495C276.804 139.673 276.748 139.95 276.748 140.328C276.748 140.711 276.804 140.991 276.916 141.168C277.028 141.346 277.198 141.434 277.427 141.434ZM280.787 143.863C280.413 143.863 280.122 143.737 279.912 143.485C279.702 143.229 279.597 142.851 279.597 142.351C279.597 141.857 279.702 141.483 279.912 141.231C280.122 140.975 280.413 140.846 280.787 140.846C281.165 140.846 281.456 140.972 281.662 141.224C281.872 141.476 281.977 141.852 281.977 142.351C281.977 142.851 281.872 143.229 281.662 143.485C281.456 143.737 281.165 143.863 280.787 143.863ZM280.787 143.457C281.02 143.457 281.19 143.371 281.298 143.198C281.41 143.021 281.466 142.739 281.466 142.351C281.466 141.973 281.41 141.696 281.298 141.518C281.186 141.341 281.015 141.252 280.787 141.252C280.558 141.252 280.388 141.341 280.276 141.518C280.168 141.696 280.115 141.973 280.115 142.351C280.115 142.734 280.168 143.014 280.276 143.191C280.388 143.369 280.558 143.457 280.787 143.457Z" fill="black"/>
<path d="M289.607 138.823C290.204 138.823 290.664 139.031 290.986 139.446C291.313 139.862 291.476 140.454 291.476 141.224C291.476 142.06 291.308 142.711 290.972 143.177C290.636 143.639 290.167 143.87 289.565 143.87C289.285 143.87 289.01 143.819 288.739 143.716C288.468 143.609 288.23 143.457 288.025 143.261L288.242 142.82C288.475 143.016 288.697 143.161 288.907 143.254C289.122 143.343 289.339 143.387 289.558 143.387C289.983 143.387 290.312 143.201 290.545 142.827C290.778 142.449 290.895 141.917 290.895 141.231V141.14C290.788 141.402 290.613 141.607 290.37 141.756C290.132 141.906 289.861 141.98 289.558 141.98C289.259 141.98 288.993 141.915 288.76 141.784C288.527 141.654 288.345 141.469 288.214 141.231C288.083 140.993 288.018 140.72 288.018 140.412C288.018 140.109 288.086 139.836 288.221 139.593C288.356 139.351 288.545 139.162 288.788 139.026C289.031 138.891 289.304 138.823 289.607 138.823ZM289.642 141.497C289.964 141.497 290.225 141.397 290.426 141.196C290.631 140.991 290.734 140.727 290.734 140.405C290.734 140.079 290.631 139.815 290.426 139.614C290.225 139.409 289.962 139.306 289.635 139.306C289.318 139.306 289.063 139.407 288.872 139.607C288.681 139.808 288.585 140.074 288.585 140.405C288.585 140.737 288.681 141.003 288.872 141.203C289.068 141.399 289.325 141.497 289.642 141.497ZM294.427 143.331H295.512V143.814H292.768V143.331H293.853V139.593L292.985 140.139L292.719 139.698L294.014 138.879H294.427V143.331ZM296.56 142.183V141.714H298.52V142.183H296.56ZM301.598 143.331H302.683V143.814H299.939V143.331H301.024V139.593L300.156 140.139L299.89 139.698L301.185 138.879H301.598V143.331ZM305.327 143.87C304.762 143.87 304.333 143.656 304.039 143.226C303.745 142.797 303.598 142.172 303.598 141.35C303.598 140.524 303.745 139.897 304.039 139.467C304.333 139.038 304.762 138.823 305.327 138.823C305.891 138.823 306.321 139.038 306.615 139.467C306.909 139.892 307.056 140.517 307.056 141.343C307.056 142.169 306.909 142.797 306.615 143.226C306.321 143.656 305.891 143.87 305.327 143.87ZM305.327 143.387C305.719 143.387 306.008 143.222 306.195 142.89C306.381 142.559 306.475 142.043 306.475 141.343C306.475 140.639 306.381 140.125 306.195 139.803C306.013 139.477 305.723 139.313 305.327 139.313C304.935 139.313 304.645 139.477 304.459 139.803C304.272 140.13 304.179 140.643 304.179 141.343C304.179 142.043 304.272 142.559 304.459 142.89C304.645 143.222 304.935 143.387 305.327 143.387ZM309.524 143.87C308.959 143.87 308.53 143.656 308.236 143.226C307.942 142.797 307.795 142.172 307.795 141.35C307.795 140.524 307.942 139.897 308.236 139.467C308.53 139.038 308.959 138.823 309.524 138.823C310.088 138.823 310.518 139.038 310.812 139.467C311.106 139.892 311.253 140.517 311.253 141.343C311.253 142.169 311.106 142.797 310.812 143.226C310.518 143.656 310.088 143.87 309.524 143.87ZM309.524 143.387C309.916 143.387 310.205 143.222 310.392 142.89C310.578 142.559 310.672 142.043 310.672 141.343C310.672 140.639 310.578 140.125 310.392 139.803C310.21 139.477 309.92 139.313 309.524 139.313C309.132 139.313 308.842 139.477 308.656 139.803C308.469 140.13 308.376 140.643 308.376 141.343C308.376 142.043 308.469 142.559 308.656 142.89C308.842 143.222 309.132 143.387 309.524 143.387ZM313.623 143.989L313.21 143.751L316.129 138.704L316.542 138.942L313.623 143.989ZM313.196 141.84C312.823 141.84 312.531 141.714 312.321 141.462C312.111 141.206 312.006 140.828 312.006 140.328C312.006 139.834 312.111 139.46 312.321 139.208C312.531 138.952 312.823 138.823 313.196 138.823C313.569 138.823 313.861 138.952 314.071 139.208C314.281 139.46 314.386 139.834 314.386 140.328C314.386 140.828 314.281 141.206 314.071 141.462C313.861 141.714 313.569 141.84 313.196 141.84ZM313.196 141.434C313.425 141.434 313.593 141.346 313.7 141.168C313.812 140.991 313.868 140.711 313.868 140.328C313.868 139.95 313.812 139.673 313.7 139.495C313.593 139.318 313.425 139.229 313.196 139.229C312.967 139.229 312.797 139.318 312.685 139.495C312.573 139.673 312.517 139.95 312.517 140.328C312.517 140.711 312.573 140.991 312.685 141.168C312.797 141.346 312.967 141.434 313.196 141.434ZM316.556 143.863C316.183 143.863 315.891 143.737 315.681 143.485C315.471 143.229 315.366 142.851 315.366 142.351C315.366 141.857 315.471 141.483 315.681 141.231C315.891 140.975 316.183 140.846 316.556 140.846C316.934 140.846 317.226 140.972 317.431 141.224C317.641 141.476 317.746 141.852 317.746 142.351C317.746 142.851 317.641 143.229 317.431 143.485C317.226 143.737 316.934 143.863 316.556 143.863ZM316.556 143.457C316.789 143.457 316.96 143.371 317.067 143.198C317.179 143.021 317.235 142.739 317.235 142.351C317.235 141.973 317.179 141.696 317.067 141.518C316.955 141.341 316.785 141.252 316.556 141.252C316.327 141.252 316.157 141.341 316.045 141.518C315.938 141.696 315.884 141.973 315.884 142.351C315.884 142.734 315.938 143.014 316.045 143.191C316.157 143.369 316.327 143.457 316.556 143.457Z" fill="black"/>
<rect opacity="0.5" x="7.60083" y="123.952" width="17.5403" height="6.43145" fill="#31A4A1"/>
<rect opacity="0.5" x="37.4194" y="105.242" width="17.5403" height="25.1411" fill="#31A4A1"/>
<rect opacity="0.5" x="68.9919" y="90.0405" width="17.5403" height="40.3427" fill="#31A4A1"/>
<rect opacity="0.5" x="100.565" y="75.4233" width="17.5403" height="54.9597" fill="#31A4A1"/>
<rect opacity="0.5" x="134.476" y="18.125" width="17.5403" height="112.258" fill="#31A4A1"/>
<rect opacity="0.5" x="163.71" y="33.9111" width="17.5403" height="96.4718" fill="#31A4A1"/>
<rect x="195.282" y="56.7134" width="17.5403" height="73.6693" fill="#31A4A1"/>
<rect opacity="0.5" x="226.855" y="99.395" width="17.5403" height="30.9879" fill="#31A4A1"/>
<rect opacity="0.5" x="258.427" y="110.504" width="17.5403" height="19.879" fill="#31A4A1"/>
<rect opacity="0.5" x="291.754" y="116.351" width="17.5403" height="14.0323" fill="#31A4A1"/>
<line opacity="0.5" y1="129.883" x2="328.589" y2="129.883" stroke="black"/>
<path d="M221.008 16.8408C221.008 26.1418 205.465 52.0363 204.053 52.0363C202.96 52.0363 187.097 26.1418 187.097 16.8408C187.097 7.5399 194.688 0 204.053 0C213.417 0 221.008 7.5399 221.008 16.8408Z" fill="#31A4A1"/>
<circle cx="204.052" cy="16.9556" r="14.0323" fill="white"/>
<path d="M198.005 10.83L196.575 12.73V14.355H195.93V12.73L194.505 10.83H195.23L196.25 12.215L197.275 10.83H198.005ZM199.55 14.4C199.207 14.4 198.909 14.3266 198.655 14.18C198.405 14.0333 198.212 13.8233 198.075 13.55C197.939 13.2766 197.87 12.9566 197.87 12.59C197.87 12.2233 197.937 11.905 198.07 11.635C198.207 11.3616 198.402 11.1516 198.655 11.005C198.909 10.8583 199.207 10.785 199.55 10.785C199.894 10.785 200.19 10.8583 200.44 11.005C200.694 11.1516 200.887 11.3616 201.02 11.635C201.157 11.905 201.225 12.2233 201.225 12.59C201.225 12.9566 201.157 13.2766 201.02 13.55C200.884 13.8233 200.689 14.0333 200.435 14.18C200.185 14.3266 199.89 14.4 199.55 14.4ZM199.55 13.885C199.874 13.885 200.125 13.7733 200.305 13.55C200.489 13.3266 200.58 13.0066 200.58 12.59C200.58 12.1733 200.489 11.855 200.305 11.635C200.125 11.4116 199.874 11.3 199.55 11.3C199.224 11.3 198.969 11.4116 198.785 11.635C198.605 11.855 198.515 12.1733 198.515 12.59C198.515 13.0066 198.605 13.3266 198.785 13.55C198.969 13.7733 199.224 13.885 199.55 13.885ZM203.332 14.4C202.849 14.4 202.482 14.275 202.232 14.025C201.982 13.775 201.857 13.41 201.857 12.93V10.83H202.487V12.965C202.487 13.2683 202.559 13.4983 202.702 13.655C202.845 13.8083 203.055 13.885 203.332 13.885C203.605 13.885 203.814 13.8066 203.957 13.65C204.1 13.4933 204.172 13.265 204.172 12.965V10.83H204.802V12.93C204.802 13.4066 204.677 13.7716 204.427 14.025C204.177 14.275 203.812 14.4 203.332 14.4ZM206.134 10.83V11.285C206.134 11.4616 206.104 11.6216 206.044 11.765C205.984 11.905 205.882 12.045 205.739 12.185L205.484 11.985C205.564 11.8983 205.626 11.8183 205.669 11.745C205.712 11.6716 205.741 11.5966 205.754 11.52H205.434V10.83H206.134ZM209.739 14.355H209.039L208.434 13.23C208.378 13.1233 208.308 13.0483 208.224 13.005C208.141 12.9616 208.036 12.94 207.909 12.94H207.419V14.355H206.784V10.83H208.344C208.744 10.83 209.048 10.92 209.254 11.1C209.464 11.2766 209.569 11.5333 209.569 11.87C209.569 12.14 209.493 12.3633 209.339 12.54C209.189 12.7133 208.976 12.8266 208.699 12.88C208.886 12.93 209.036 13.0616 209.149 13.275L209.739 14.355ZM208.254 12.445C208.498 12.445 208.676 12.4 208.789 12.31C208.903 12.2166 208.959 12.075 208.959 11.885C208.959 11.6916 208.903 11.5516 208.789 11.465C208.676 11.375 208.498 11.33 208.254 11.33H207.414V12.445H208.254ZM210.261 14.355V10.83H212.621V11.34H210.891V12.31H212.521V12.815H210.891V13.845H212.621V14.355H210.261ZM199.983 17.83H200.613V21.355H199.983V19.825H198.178V21.355H197.543V17.83H198.178V19.305H199.983V17.83ZM201.372 21.355V17.83H203.732V18.34H202.002V19.31H203.632V19.815H202.002V20.845H203.732V21.355H201.372ZM207.271 21.355H206.571L205.966 20.23C205.909 20.1233 205.839 20.0483 205.756 20.005C205.673 19.9616 205.568 19.94 205.441 19.94H204.951V21.355H204.316V17.83H205.876C206.276 17.83 206.579 17.92 206.786 18.1C206.996 18.2766 207.101 18.5333 207.101 18.87C207.101 19.14 207.024 19.3633 206.871 19.54C206.721 19.7133 206.508 19.8266 206.231 19.88C206.418 19.93 206.568 20.0616 206.681 20.275L207.271 21.355ZM205.786 19.445C206.029 19.445 206.208 19.4 206.321 19.31C206.434 19.2166 206.491 19.075 206.491 18.885C206.491 18.6916 206.434 18.5516 206.321 18.465C206.208 18.375 206.029 18.33 205.786 18.33H204.946V19.445H205.786ZM207.792 21.355V17.83H210.152V18.34H208.422V19.31H210.052V19.815H208.422V20.845H210.152V21.355H207.792Z" fill="black"/>
</svg>
