<svg width="120" height="37" viewBox="0 0 120 37" fill="none" xmlns="http://www.w3.org/2000/svg">
<path d="M29.4537 28.5772C30.9797 26.0887 31.7827 23.2244 31.7728 20.3053C31.7752 18.2215 31.3671 16.1576 30.5719 14.2315C29.7766 12.3053 28.6098 10.5547 27.138 9.07952C25.6662 7.60433 23.9183 6.43348 21.994 5.63382C20.0697 4.83416 18.0067 4.42134 15.9229 4.41895H15.8864C11.6731 4.41895 7.63229 6.09268 4.65301 9.07196C1.67374 12.0512 0 16.092 0 20.3053C0 24.5187 1.67374 28.5594 4.65301 31.5387C7.63229 34.518 11.6731 36.1917 15.8864 36.1917H15.9046C19.416 36.1912 22.8274 35.0219 25.6008 32.8683L32.9049 36.1917L29.4537 28.5772ZM15.8864 32.1927C12.7351 32.1879 9.71433 30.9339 7.48606 28.7057C5.25778 26.4774 4.00382 23.4566 3.99899 20.3053C3.99659 18.7443 4.30169 17.198 4.89687 15.7548C5.49205 14.3117 6.36566 12.9999 7.46781 11.8943C8.56996 10.7888 9.87907 9.91114 11.3204 9.31153C12.7617 8.71192 14.307 8.40207 15.8681 8.39967H15.8864C19.0376 8.4045 22.0584 9.65847 24.2867 11.8867C26.515 14.115 27.7689 17.1358 27.7738 20.2871V20.3418C27.774 22.9301 26.9204 25.4461 25.3452 27.4998C25.0034 27.9508 24.6313 28.3779 24.2313 28.7781C22.006 30.968 19.0085 32.1945 15.8864 32.1927Z" fill="#49A19C"/>
<path d="M3.99899 20.3053C3.99418 18.7436 4.29764 17.1962 4.89197 15.752C5.48629 14.3077 6.35981 12.995 7.46244 11.889C8.56507 10.7829 9.87513 9.9054 11.3175 9.30664C12.76 8.70787 14.3064 8.39966 15.8681 8.39967H15.8864V4.41895C11.6745 4.42378 7.63658 6.09907 4.65835 9.0773C1.68012 12.0555 0.00483288 16.0935 0 20.3053H0C0.00964578 24.5157 1.68648 28.5509 4.66367 31.528C7.64085 34.5052 11.676 36.1821 15.8864 36.1917V32.1927C14.3246 32.1951 12.7778 31.8893 11.3344 31.2927C9.8911 30.6962 8.57969 29.8207 7.47536 28.7163C6.37103 27.612 5.49551 26.3006 4.89896 24.8573C4.30242 23.4139 3.99658 21.8671 3.99899 20.3053Z" fill="#2C736D"/>
<path d="M12.344 0V1.86254H14.7178V7.50495H15.8682V0H12.344Z" fill="#2C736D"/>
<path d="M17.0186 1.86254H19.3924V0H15.8865V7.50495H17.0186V1.86254Z" fill="#49A19C"/>
<path d="M22.7888 17.4385V13.823H15.8865V20.3054H18.1507V17.4385H22.7888Z" fill="#49A19C"/>
<path d="M15.8863 13.823H9.0022V17.4385H13.622V20.3054H15.8863V13.823Z" fill="#2C736D"/>
<path d="M13.6221 20.3053V28.4859H15.8863V20.3053H13.6221Z" fill="#322D23"/>
<path d="M15.8865 28.4859H18.1507V20.3053H15.8865V28.4859Z" fill="#515151"/>
<path d="M47.66 25V13.7H44.18V11.94H54.78V13.7H51.32V25H47.66ZM58.0766 25C57.3832 25 56.9032 24.84 56.6366 24.52C56.3699 24.1867 56.2366 23.6933 56.2366 23.04V18.32C56.2366 17.6667 56.3699 17.18 56.6366 16.86C56.9032 16.5267 57.3832 16.36 58.0766 16.36L62.0966 16.34V17.64H59.9566C59.7432 17.6533 59.5499 17.7 59.3766 17.78C59.2166 17.8467 59.1232 18 59.0966 18.24C59.0832 18.3333 59.0699 18.4333 59.0566 18.54C59.0566 18.6467 59.0566 18.7467 59.0566 18.84C59.0432 18.9733 59.0366 19.1067 59.0366 19.24C59.0499 19.36 59.0566 19.48 59.0566 19.6C59.0566 19.68 59.0566 19.76 59.0566 19.84C59.0566 19.9067 59.0566 19.9733 59.0566 20.04L61.7766 20.02V21.32H59.0566C59.0566 21.4 59.0566 21.4867 59.0566 21.58C59.0566 21.66 59.0499 21.74 59.0366 21.82C59.0366 21.9 59.0366 21.9867 59.0366 22.08C59.0366 22.16 59.0366 22.2467 59.0366 22.34C59.0366 22.5267 59.0432 22.7133 59.0566 22.9C59.0699 23.0733 59.1032 23.2333 59.1566 23.38C59.1966 23.4867 59.2632 23.5667 59.3566 23.62C59.4632 23.66 59.5699 23.6867 59.6766 23.7C59.7299 23.7133 59.7766 23.72 59.8166 23.72C59.8699 23.72 59.9166 23.72 59.9566 23.72L62.2366 23.7V25H58.0766ZM64.4602 25V16.34H68.2402C68.2802 16.3533 68.3135 16.36 68.3402 16.36C68.3802 16.36 68.4202 16.36 68.4602 16.36C69.3002 16.3867 70.0668 16.58 70.7602 16.94C71.4535 17.3 71.8002 17.9733 71.8002 18.96C71.8002 19.5333 71.6602 20 71.3802 20.36C71.1002 20.7067 70.7002 20.96 70.1802 21.12L72.7202 25H69.4202L67.4602 20.92V20.74C68.0468 20.66 68.4735 20.4467 68.7402 20.1C69.0202 19.7533 69.1002 19.2733 68.9802 18.66C68.8735 18.1667 68.6402 17.86 68.2802 17.74C67.9335 17.6067 67.5468 17.5533 67.1202 17.58V25H64.4602ZM75.3091 22.22H77.4691L76.4291 18.46L75.3091 22.22ZM73.0091 25L75.2691 17.94C75.4157 17.4733 75.6224 17.0533 75.8891 16.68C76.1557 16.2933 76.5691 16.0933 77.1291 16.08C77.6757 16.0667 78.0757 16.24 78.3291 16.6C78.5957 16.9467 78.7957 17.3533 78.9291 17.82L81.2691 25H78.3091L77.8291 23.42H74.9491L74.4891 25H73.0091ZM87.6377 26.76V25.12C86.9443 24.9733 86.291 24.7467 85.6777 24.44C85.0777 24.1333 84.531 23.7133 84.0377 23.18C83.411 22.4867 82.951 21.7 82.6577 20.82C82.3777 19.94 82.2577 19.04 82.2977 18.12C82.311 18.04 82.3177 17.9667 82.3177 17.9C82.3177 17.8333 82.3243 17.7667 82.3377 17.7C82.551 15.62 83.4777 14.0333 85.1177 12.94C86.771 11.8333 88.591 11.46 90.5777 11.82C92.271 12.1133 93.6243 12.88 94.6377 14.12C95.6643 15.3467 96.1777 16.82 96.1777 18.54C96.1777 20.2733 95.6977 21.7067 94.7377 22.84C93.7777 23.9733 92.4843 24.74 90.8577 25.14V26.76H87.6377ZM87.6377 22.24H90.8377V23.2C91.251 22.9867 91.551 22.6533 91.7377 22.2C91.9377 21.7333 92.071 21.2533 92.1377 20.76C92.1643 20.48 92.1843 20.2067 92.1977 19.94C92.211 19.66 92.2243 19.4 92.2377 19.16C92.251 18.8533 92.251 18.5333 92.2377 18.2C92.2377 17.8667 92.2243 17.5333 92.1977 17.2C92.1177 16.4267 91.931 15.6933 91.6377 15C91.3443 14.3067 90.831 13.8067 90.0977 13.5C90.0043 13.46 89.911 13.4333 89.8177 13.42C89.7377 13.3933 89.651 13.3733 89.5577 13.36C89.1177 13.2933 88.6843 13.36 88.2577 13.56C87.8443 13.76 87.4977 14.04 87.2177 14.4C86.8977 14.84 86.6643 15.3333 86.5177 15.88C86.3843 16.4133 86.2977 16.9533 86.2577 17.5C86.2443 17.78 86.2377 18.06 86.2377 18.34C86.2377 18.6067 86.2377 18.8733 86.2377 19.14C86.251 19.38 86.2643 19.64 86.2777 19.92C86.291 20.1867 86.311 20.4667 86.3377 20.76C86.4177 21.2533 86.551 21.7333 86.7377 22.2C86.9243 22.6533 87.2243 22.9933 87.6377 23.22V22.24ZM98.1111 16.34H100.931V21.62C100.931 21.7 100.931 21.7733 100.931 21.84C100.931 21.8933 100.931 21.9467 100.931 22C100.958 22.44 101.058 22.8467 101.231 23.22C101.418 23.58 101.778 23.76 102.311 23.76C102.898 23.7733 103.271 23.5933 103.431 23.22C103.604 22.8333 103.698 22.4133 103.711 21.96C103.711 21.9067 103.711 21.8533 103.711 21.8C103.711 21.7467 103.711 21.6933 103.711 21.64V16.34H105.111V21.94C105.111 23.0867 104.811 23.9333 104.211 24.48C103.611 25.0267 102.744 25.3 101.611 25.3C100.438 25.3 99.5578 25.0333 98.9711 24.5C98.3978 23.9533 98.1111 23.1067 98.1111 21.96V16.34ZM107.525 12.78C107.525 12.2867 107.678 11.92 107.985 11.68C108.305 11.44 108.645 11.3267 109.005 11.34C109.445 11.3533 109.831 11.52 110.165 11.84C110.498 12.16 110.585 12.6067 110.425 13.18C110.331 13.5533 110.145 13.8267 109.865 14C109.598 14.1733 109.311 14.2533 109.005 14.24C108.631 14.24 108.291 14.12 107.985 13.88C107.678 13.6267 107.525 13.2667 107.525 12.8V12.78ZM107.585 25V16.34H110.405V25H107.585ZM112.254 25V24.42L115.554 17.6H112.194V16.34H117.394C117.994 16.3533 118.381 16.5133 118.554 16.82C118.728 17.1133 118.681 17.5333 118.414 18.08L115.614 23.74H119.154V25H112.254Z" fill="black"/>
</svg>
