<svg width="562" height="248" viewBox="0 0 562 248" fill="none" xmlns="http://www.w3.org/2000/svg">
<path d="M15 244.08C14.1933 244.08 13.58 243.773 13.16 243.16C12.74 242.547 12.53 241.653 12.53 240.48C12.53 239.3 12.74 238.403 13.16 237.79C13.58 237.177 14.1933 236.87 15 236.87C15.8067 236.87 16.42 237.177 16.84 237.79C17.26 238.397 17.47 239.29 17.47 240.47C17.47 241.65 17.26 242.547 16.84 243.16C16.42 243.773 15.8067 244.08 15 244.08ZM15 243.39C15.56 243.39 15.9733 243.153 16.24 242.68C16.5067 242.207 16.64 241.47 16.64 240.47C16.64 239.463 16.5067 238.73 16.24 238.27C15.98 237.803 15.5667 237.57 15 237.57C14.44 237.57 14.0267 237.803 13.76 238.27C13.4933 238.737 13.36 239.47 13.36 240.47C13.36 241.47 13.4933 242.207 13.76 242.68C14.0267 243.153 14.44 243.39 15 243.39ZM18.7161 241.67V241H21.5161V241.67H18.7161ZM25.9141 243.31H27.4641V244H23.5441V243.31H25.0941V237.97L23.8541 238.75L23.4741 238.12L25.3241 236.95H25.9141V243.31ZM31.2402 244.08C30.4336 244.08 29.8202 243.773 29.4002 243.16C28.9802 242.547 28.7702 241.653 28.7702 240.48C28.7702 239.3 28.9802 238.403 29.4002 237.79C29.8202 237.177 30.4336 236.87 31.2402 236.87C32.0469 236.87 32.6602 237.177 33.0802 237.79C33.5002 238.397 33.7102 239.29 33.7102 240.47C33.7102 241.65 33.5002 242.547 33.0802 243.16C32.6602 243.773 32.0469 244.08 31.2402 244.08ZM31.2402 243.39C31.8002 243.39 32.2136 243.153 32.4802 242.68C32.7469 242.207 32.8802 241.47 32.8802 240.47C32.8802 239.463 32.7469 238.73 32.4802 238.27C32.2202 237.803 31.8069 237.57 31.2402 237.57C30.6802 237.57 30.2669 237.803 30.0002 238.27C29.7336 238.737 29.6002 239.47 29.6002 240.47C29.6002 241.47 29.7336 242.207 30.0002 242.68C30.2669 243.153 30.6802 243.39 31.2402 243.39ZM37.0963 244.25L36.5063 243.91L40.6763 236.7L41.2663 237.04L37.0963 244.25ZM36.4863 241.18C35.953 241.18 35.5363 241 35.2363 240.64C34.9363 240.273 34.7863 239.733 34.7863 239.02C34.7863 238.313 34.9363 237.78 35.2363 237.42C35.5363 237.053 35.953 236.87 36.4863 236.87C37.0197 236.87 37.4363 237.053 37.7363 237.42C38.0363 237.78 38.1863 238.313 38.1863 239.02C38.1863 239.733 38.0363 240.273 37.7363 240.64C37.4363 241 37.0197 241.18 36.4863 241.18ZM36.4863 240.6C36.813 240.6 37.053 240.473 37.2063 240.22C37.3663 239.967 37.4463 239.567 37.4463 239.02C37.4463 238.48 37.3663 238.083 37.2063 237.83C37.053 237.577 36.813 237.45 36.4863 237.45C36.1597 237.45 35.9163 237.577 35.7563 237.83C35.5963 238.083 35.5163 238.48 35.5163 239.02C35.5163 239.567 35.5963 239.967 35.7563 240.22C35.9163 240.473 36.1597 240.6 36.4863 240.6ZM41.2863 244.07C40.753 244.07 40.3363 243.89 40.0363 243.53C39.7363 243.163 39.5863 242.623 39.5863 241.91C39.5863 241.203 39.7363 240.67 40.0363 240.31C40.3363 239.943 40.753 239.76 41.2863 239.76C41.8263 239.76 42.243 239.94 42.5363 240.3C42.8363 240.66 42.9863 241.197 42.9863 241.91C42.9863 242.623 42.8363 243.163 42.5363 243.53C42.243 243.89 41.8263 244.07 41.2863 244.07ZM41.2863 243.49C41.6197 243.49 41.863 243.367 42.0163 243.12C42.1763 242.867 42.2563 242.463 42.2563 241.91C42.2563 241.37 42.1763 240.973 42.0163 240.72C41.8563 240.467 41.613 240.34 41.2863 240.34C40.9597 240.34 40.7163 240.467 40.5563 240.72C40.403 240.973 40.3263 241.37 40.3263 241.91C40.3263 242.457 40.403 242.857 40.5563 243.11C40.7163 243.363 40.9597 243.49 41.2863 243.49Z" fill="black"/>
<path d="M63.67 243.31H65.22V244H61.3V243.31H62.85V237.97L61.61 238.75L61.23 238.12L63.08 236.95H63.67V243.31ZM69.6661 243.31H71.2161V244H67.2961V243.31H68.8461V237.97L67.6061 238.75L67.2261 238.12L69.0761 236.95H69.6661V243.31ZM72.7122 241.67V241H75.5122V241.67H72.7122ZM81.6302 243.31V244H77.0902V243.38L79.5602 240.66C79.8936 240.287 80.1336 239.953 80.2802 239.66C80.4336 239.36 80.5102 239.06 80.5102 238.76C80.5102 238.373 80.3969 238.077 80.1702 237.87C79.9436 237.663 79.6236 237.56 79.2102 237.56C78.5302 237.56 77.8636 237.83 77.2102 238.37L76.9002 237.74C77.1802 237.473 77.5302 237.263 77.9502 237.11C78.3769 236.95 78.8036 236.87 79.2302 236.87C79.8769 236.87 80.3869 237.037 80.7602 237.37C81.1402 237.703 81.3302 238.153 81.3302 238.72C81.3302 239.127 81.2369 239.517 81.0502 239.89C80.8702 240.263 80.5702 240.68 80.1502 241.14L78.1502 243.31H81.6302ZM85.2363 244.08C84.4297 244.08 83.8163 243.773 83.3963 243.16C82.9763 242.547 82.7663 241.653 82.7663 240.48C82.7663 239.3 82.9763 238.403 83.3963 237.79C83.8163 237.177 84.4297 236.87 85.2363 236.87C86.043 236.87 86.6563 237.177 87.0763 237.79C87.4963 238.397 87.7063 239.29 87.7063 240.47C87.7063 241.65 87.4963 242.547 87.0763 243.16C86.6563 243.773 86.043 244.08 85.2363 244.08ZM85.2363 243.39C85.7963 243.39 86.2097 243.153 86.4763 242.68C86.743 242.207 86.8763 241.47 86.8763 240.47C86.8763 239.463 86.743 238.73 86.4763 238.27C86.2163 237.803 85.803 237.57 85.2363 237.57C84.6763 237.57 84.263 237.803 83.9963 238.27C83.7297 238.737 83.5963 239.47 83.5963 240.47C83.5963 241.47 83.7297 242.207 83.9963 242.68C84.263 243.153 84.6763 243.39 85.2363 243.39ZM91.0924 244.25L90.5024 243.91L94.6724 236.7L95.2624 237.04L91.0924 244.25ZM90.4824 241.18C89.9491 241.18 89.5324 241 89.2324 240.64C88.9324 240.273 88.7824 239.733 88.7824 239.02C88.7824 238.313 88.9324 237.78 89.2324 237.42C89.5324 237.053 89.9491 236.87 90.4824 236.87C91.0158 236.87 91.4324 237.053 91.7324 237.42C92.0324 237.78 92.1824 238.313 92.1824 239.02C92.1824 239.733 92.0324 240.273 91.7324 240.64C91.4324 241 91.0158 241.18 90.4824 241.18ZM90.4824 240.6C90.8091 240.6 91.0491 240.473 91.2024 240.22C91.3624 239.967 91.4424 239.567 91.4424 239.02C91.4424 238.48 91.3624 238.083 91.2024 237.83C91.0491 237.577 90.8091 237.45 90.4824 237.45C90.1558 237.45 89.9124 237.577 89.7524 237.83C89.5924 238.083 89.5124 238.48 89.5124 239.02C89.5124 239.567 89.5924 239.967 89.7524 240.22C89.9124 240.473 90.1558 240.6 90.4824 240.6ZM95.2824 244.07C94.7491 244.07 94.3324 243.89 94.0324 243.53C93.7324 243.163 93.5824 242.623 93.5824 241.91C93.5824 241.203 93.7324 240.67 94.0324 240.31C94.3324 239.943 94.7491 239.76 95.2824 239.76C95.8224 239.76 96.2391 239.94 96.5324 240.3C96.8324 240.66 96.9824 241.197 96.9824 241.91C96.9824 242.623 96.8324 243.163 96.5324 243.53C96.2391 243.89 95.8224 244.07 95.2824 244.07ZM95.2824 243.49C95.6158 243.49 95.8591 243.367 96.0124 243.12C96.1724 242.867 96.2524 242.463 96.2524 241.91C96.2524 241.37 96.1724 240.973 96.0124 240.72C95.8524 240.467 95.6091 240.34 95.2824 240.34C94.9558 240.34 94.7124 240.467 94.5524 240.72C94.3991 240.973 94.3224 241.37 94.3224 241.91C94.3224 242.457 94.3991 242.857 94.5524 243.11C94.7124 243.363 94.9558 243.49 95.2824 243.49Z" fill="black"/>
<path d="M119.39 243.31V244H114.85V243.38L117.32 240.66C117.653 240.287 117.893 239.953 118.04 239.66C118.193 239.36 118.27 239.06 118.27 238.76C118.27 238.373 118.157 238.077 117.93 237.87C117.703 237.663 117.383 237.56 116.97 237.56C116.29 237.56 115.623 237.83 114.97 238.37L114.66 237.74C114.94 237.473 115.29 237.263 115.71 237.11C116.137 236.95 116.563 236.87 116.99 236.87C117.637 236.87 118.147 237.037 118.52 237.37C118.9 237.703 119.09 238.153 119.09 238.72C119.09 239.127 118.997 239.517 118.81 239.89C118.63 240.263 118.33 240.68 117.91 241.14L115.91 243.31H119.39ZM123.666 243.31H125.216V244H121.296V243.31H122.846V237.97L121.606 238.75L121.226 238.12L123.076 236.95H123.666V243.31ZM126.712 241.67V241H129.512V241.67H126.712ZM134.21 240.38C134.624 240.5 134.94 240.707 135.16 241C135.38 241.287 135.49 241.65 135.49 242.09C135.49 242.703 135.28 243.187 134.86 243.54C134.447 243.893 133.884 244.07 133.17 244.07C132.717 244.07 132.28 243.993 131.86 243.84C131.44 243.687 131.087 243.473 130.8 243.2L131.11 242.57C131.75 243.11 132.43 243.38 133.15 243.38C133.65 243.38 134.03 243.27 134.29 243.05C134.55 242.823 134.68 242.493 134.68 242.06C134.68 241.2 134.14 240.77 133.06 240.77H132.25V240.08H132.9C133.42 240.08 133.82 239.967 134.1 239.74C134.38 239.507 134.52 239.173 134.52 238.74C134.52 238.36 134.407 238.07 134.18 237.87C133.954 237.663 133.63 237.56 133.21 237.56C132.53 237.56 131.864 237.83 131.21 238.37L130.9 237.74C131.187 237.467 131.537 237.253 131.95 237.1C132.364 236.947 132.794 236.87 133.24 236.87C133.88 236.87 134.387 237.033 134.76 237.36C135.14 237.68 135.33 238.113 135.33 238.66C135.33 239.067 135.23 239.423 135.03 239.73C134.837 240.03 134.564 240.247 134.21 240.38ZM139.236 244.08C138.43 244.08 137.816 243.773 137.396 243.16C136.976 242.547 136.766 241.653 136.766 240.48C136.766 239.3 136.976 238.403 137.396 237.79C137.816 237.177 138.43 236.87 139.236 236.87C140.043 236.87 140.656 237.177 141.076 237.79C141.496 238.397 141.706 239.29 141.706 240.47C141.706 241.65 141.496 242.547 141.076 243.16C140.656 243.773 140.043 244.08 139.236 244.08ZM139.236 243.39C139.796 243.39 140.21 243.153 140.476 242.68C140.743 242.207 140.876 241.47 140.876 240.47C140.876 239.463 140.743 238.73 140.476 238.27C140.216 237.803 139.803 237.57 139.236 237.57C138.676 237.57 138.263 237.803 137.996 238.27C137.73 238.737 137.596 239.47 137.596 240.47C137.596 241.47 137.73 242.207 137.996 242.68C138.263 243.153 138.676 243.39 139.236 243.39ZM145.092 244.25L144.502 243.91L148.672 236.7L149.262 237.04L145.092 244.25ZM144.482 241.18C143.949 241.18 143.532 241 143.232 240.64C142.932 240.273 142.782 239.733 142.782 239.02C142.782 238.313 142.932 237.78 143.232 237.42C143.532 237.053 143.949 236.87 144.482 236.87C145.016 236.87 145.432 237.053 145.732 237.42C146.032 237.78 146.182 238.313 146.182 239.02C146.182 239.733 146.032 240.273 145.732 240.64C145.432 241 145.016 241.18 144.482 241.18ZM144.482 240.6C144.809 240.6 145.049 240.473 145.202 240.22C145.362 239.967 145.442 239.567 145.442 239.02C145.442 238.48 145.362 238.083 145.202 237.83C145.049 237.577 144.809 237.45 144.482 237.45C144.156 237.45 143.912 237.577 143.752 237.83C143.592 238.083 143.512 238.48 143.512 239.02C143.512 239.567 143.592 239.967 143.752 240.22C143.912 240.473 144.156 240.6 144.482 240.6ZM149.282 244.07C148.749 244.07 148.332 243.89 148.032 243.53C147.732 243.163 147.582 242.623 147.582 241.91C147.582 241.203 147.732 240.67 148.032 240.31C148.332 239.943 148.749 239.76 149.282 239.76C149.822 239.76 150.239 239.94 150.532 240.3C150.832 240.66 150.982 241.197 150.982 241.91C150.982 242.623 150.832 243.163 150.532 243.53C150.239 243.89 149.822 244.07 149.282 244.07ZM149.282 243.49C149.616 243.49 149.859 243.367 150.012 243.12C150.172 242.867 150.252 242.463 150.252 241.91C150.252 241.37 150.172 240.973 150.012 240.72C149.852 240.467 149.609 240.34 149.282 240.34C148.956 240.34 148.712 240.467 148.552 240.72C148.399 240.973 148.322 241.37 148.322 241.91C148.322 242.457 148.399 242.857 148.552 243.11C148.712 243.363 148.956 243.49 149.282 243.49Z" fill="black"/>
<path d="M171.97 240.38C172.383 240.5 172.7 240.707 172.92 241C173.14 241.287 173.25 241.65 173.25 242.09C173.25 242.703 173.04 243.187 172.62 243.54C172.207 243.893 171.643 244.07 170.93 244.07C170.477 244.07 170.04 243.993 169.62 243.84C169.2 243.687 168.847 243.473 168.56 243.2L168.87 242.57C169.51 243.11 170.19 243.38 170.91 243.38C171.41 243.38 171.79 243.27 172.05 243.05C172.31 242.823 172.44 242.493 172.44 242.06C172.44 241.2 171.9 240.77 170.82 240.77H170.01V240.08H170.66C171.18 240.08 171.58 239.967 171.86 239.74C172.14 239.507 172.28 239.173 172.28 238.74C172.28 238.36 172.167 238.07 171.94 237.87C171.713 237.663 171.39 237.56 170.97 237.56C170.29 237.56 169.623 237.83 168.97 238.37L168.66 237.74C168.947 237.467 169.297 237.253 169.71 237.1C170.123 236.947 170.553 236.87 171 236.87C171.64 236.87 172.147 237.033 172.52 237.36C172.9 237.68 173.09 238.113 173.09 238.66C173.09 239.067 172.99 239.423 172.79 239.73C172.597 240.03 172.323 240.247 171.97 240.38ZM177.666 243.31H179.216V244H175.296V243.31H176.846V237.97L175.606 238.75L175.226 238.12L177.076 236.95H177.666V243.31ZM180.712 241.67V241H183.512V241.67H180.712ZM189.88 241.79V242.47H188.82V244H188.01V242.47H184.75V241.85L188.15 236.95H188.82V241.79H189.88ZM185.6 241.79H188.01V238.32L185.6 241.79ZM193.236 244.08C192.43 244.08 191.816 243.773 191.396 243.16C190.976 242.547 190.766 241.653 190.766 240.48C190.766 239.3 190.976 238.403 191.396 237.79C191.816 237.177 192.43 236.87 193.236 236.87C194.043 236.87 194.656 237.177 195.076 237.79C195.496 238.397 195.706 239.29 195.706 240.47C195.706 241.65 195.496 242.547 195.076 243.16C194.656 243.773 194.043 244.08 193.236 244.08ZM193.236 243.39C193.796 243.39 194.21 243.153 194.476 242.68C194.743 242.207 194.876 241.47 194.876 240.47C194.876 239.463 194.743 238.73 194.476 238.27C194.216 237.803 193.803 237.57 193.236 237.57C192.676 237.57 192.263 237.803 191.996 238.27C191.73 238.737 191.596 239.47 191.596 240.47C191.596 241.47 191.73 242.207 191.996 242.68C192.263 243.153 192.676 243.39 193.236 243.39ZM199.092 244.25L198.502 243.91L202.672 236.7L203.262 237.04L199.092 244.25ZM198.482 241.18C197.949 241.18 197.532 241 197.232 240.64C196.932 240.273 196.782 239.733 196.782 239.02C196.782 238.313 196.932 237.78 197.232 237.42C197.532 237.053 197.949 236.87 198.482 236.87C199.016 236.87 199.432 237.053 199.732 237.42C200.032 237.78 200.182 238.313 200.182 239.02C200.182 239.733 200.032 240.273 199.732 240.64C199.432 241 199.016 241.18 198.482 241.18ZM198.482 240.6C198.809 240.6 199.049 240.473 199.202 240.22C199.362 239.967 199.442 239.567 199.442 239.02C199.442 238.48 199.362 238.083 199.202 237.83C199.049 237.577 198.809 237.45 198.482 237.45C198.156 237.45 197.912 237.577 197.752 237.83C197.592 238.083 197.512 238.48 197.512 239.02C197.512 239.567 197.592 239.967 197.752 240.22C197.912 240.473 198.156 240.6 198.482 240.6ZM203.282 244.07C202.749 244.07 202.332 243.89 202.032 243.53C201.732 243.163 201.582 242.623 201.582 241.91C201.582 241.203 201.732 240.67 202.032 240.31C202.332 239.943 202.749 239.76 203.282 239.76C203.822 239.76 204.239 239.94 204.532 240.3C204.832 240.66 204.982 241.197 204.982 241.91C204.982 242.623 204.832 243.163 204.532 243.53C204.239 243.89 203.822 244.07 203.282 244.07ZM203.282 243.49C203.616 243.49 203.859 243.367 204.012 243.12C204.172 242.867 204.252 242.463 204.252 241.91C204.252 241.37 204.172 240.973 204.012 240.72C203.852 240.467 203.609 240.34 203.282 240.34C202.956 240.34 202.712 240.467 202.552 240.72C202.399 240.973 202.322 241.37 202.322 241.91C202.322 242.457 202.399 242.857 202.552 243.11C202.712 243.363 202.956 243.49 203.282 243.49Z" fill="black"/>
<path d="M227.64 241.79V242.47H226.58V244H225.77V242.47H222.51V241.85L225.91 236.95H226.58V241.79H227.64ZM223.36 241.79H225.77V238.32L223.36 241.79ZM231.666 243.31H233.216V244H229.296V243.31H230.846V237.97L229.606 238.75L229.226 238.12L231.076 236.95H231.666V243.31ZM234.712 241.67V241H237.512V241.67H234.712ZM241.54 239.58C241.987 239.58 242.374 239.673 242.7 239.86C243.034 240.047 243.29 240.31 243.47 240.65C243.65 240.983 243.74 241.37 243.74 241.81C243.74 242.257 243.64 242.65 243.44 242.99C243.247 243.33 242.97 243.597 242.61 243.79C242.25 243.977 241.83 244.07 241.35 244.07C240.924 244.07 240.5 243.993 240.08 243.84C239.667 243.68 239.317 243.467 239.03 243.2L239.34 242.57C239.994 243.11 240.664 243.38 241.35 243.38C241.844 243.38 242.23 243.24 242.51 242.96C242.79 242.68 242.93 242.3 242.93 241.82C242.93 241.353 242.79 240.977 242.51 240.69C242.237 240.403 241.87 240.26 241.41 240.26C240.737 240.26 240.2 240.533 239.8 241.08H239.23V236.95H243.46V237.63H240.04V240.14C240.227 239.96 240.447 239.823 240.7 239.73C240.96 239.63 241.24 239.58 241.54 239.58ZM247.236 244.08C246.43 244.08 245.816 243.773 245.396 243.16C244.976 242.547 244.766 241.653 244.766 240.48C244.766 239.3 244.976 238.403 245.396 237.79C245.816 237.177 246.43 236.87 247.236 236.87C248.043 236.87 248.656 237.177 249.076 237.79C249.496 238.397 249.706 239.29 249.706 240.47C249.706 241.65 249.496 242.547 249.076 243.16C248.656 243.773 248.043 244.08 247.236 244.08ZM247.236 243.39C247.796 243.39 248.21 243.153 248.476 242.68C248.743 242.207 248.876 241.47 248.876 240.47C248.876 239.463 248.743 238.73 248.476 238.27C248.216 237.803 247.803 237.57 247.236 237.57C246.676 237.57 246.263 237.803 245.996 238.27C245.73 238.737 245.596 239.47 245.596 240.47C245.596 241.47 245.73 242.207 245.996 242.68C246.263 243.153 246.676 243.39 247.236 243.39ZM253.092 244.25L252.502 243.91L256.672 236.7L257.262 237.04L253.092 244.25ZM252.482 241.18C251.949 241.18 251.532 241 251.232 240.64C250.932 240.273 250.782 239.733 250.782 239.02C250.782 238.313 250.932 237.78 251.232 237.42C251.532 237.053 251.949 236.87 252.482 236.87C253.016 236.87 253.432 237.053 253.732 237.42C254.032 237.78 254.182 238.313 254.182 239.02C254.182 239.733 254.032 240.273 253.732 240.64C253.432 241 253.016 241.18 252.482 241.18ZM252.482 240.6C252.809 240.6 253.049 240.473 253.202 240.22C253.362 239.967 253.442 239.567 253.442 239.02C253.442 238.48 253.362 238.083 253.202 237.83C253.049 237.577 252.809 237.45 252.482 237.45C252.156 237.45 251.912 237.577 251.752 237.83C251.592 238.083 251.512 238.48 251.512 239.02C251.512 239.567 251.592 239.967 251.752 240.22C251.912 240.473 252.156 240.6 252.482 240.6ZM257.282 244.07C256.749 244.07 256.332 243.89 256.032 243.53C255.732 243.163 255.582 242.623 255.582 241.91C255.582 241.203 255.732 240.67 256.032 240.31C256.332 239.943 256.749 239.76 257.282 239.76C257.822 239.76 258.239 239.94 258.532 240.3C258.832 240.66 258.982 241.197 258.982 241.91C258.982 242.623 258.832 243.163 258.532 243.53C258.239 243.89 257.822 244.07 257.282 244.07ZM257.282 243.49C257.616 243.49 257.859 243.367 258.012 243.12C258.172 242.867 258.252 242.463 258.252 241.91C258.252 241.37 258.172 240.973 258.012 240.72C257.852 240.467 257.609 240.34 257.282 240.34C256.956 240.34 256.712 240.467 256.552 240.72C256.399 240.973 256.322 241.37 256.322 241.91C256.322 242.457 256.399 242.857 256.552 243.11C256.712 243.363 256.956 243.49 257.282 243.49Z" fill="black"/>
<path d="M279.3 239.58C279.747 239.58 280.133 239.673 280.46 239.86C280.793 240.047 281.05 240.31 281.23 240.65C281.41 240.983 281.5 241.37 281.5 241.81C281.5 242.257 281.4 242.65 281.2 242.99C281.007 243.33 280.73 243.597 280.37 243.79C280.01 243.977 279.59 244.07 279.11 244.07C278.683 244.07 278.26 243.993 277.84 243.84C277.427 243.68 277.077 243.467 276.79 243.2L277.1 242.57C277.753 243.11 278.423 243.38 279.11 243.38C279.603 243.38 279.99 243.24 280.27 242.96C280.55 242.68 280.69 242.3 280.69 241.82C280.69 241.353 280.55 240.977 280.27 240.69C279.997 240.403 279.63 240.26 279.17 240.26C278.497 240.26 277.96 240.533 277.56 241.08H276.99V236.95H281.22V237.63H277.8V240.14C277.987 239.96 278.207 239.823 278.46 239.73C278.72 239.63 279 239.58 279.3 239.58ZM285.666 243.31H287.216V244H283.296V243.31H284.846V237.97L283.606 238.75L283.226 238.12L285.076 236.95H285.666V243.31ZM288.712 241.67V241H291.512V241.67H288.712ZM295.54 239.57C295.967 239.57 296.347 239.663 296.68 239.85C297.014 240.037 297.274 240.3 297.46 240.64C297.647 240.98 297.74 241.37 297.74 241.81C297.74 242.243 297.644 242.633 297.45 242.98C297.257 243.327 296.987 243.597 296.64 243.79C296.294 243.983 295.904 244.08 295.47 244.08C294.617 244.08 293.957 243.783 293.49 243.19C293.03 242.597 292.8 241.75 292.8 240.65C292.8 239.857 292.907 239.177 293.12 238.61C293.34 238.043 293.654 237.613 294.06 237.32C294.467 237.02 294.954 236.87 295.52 236.87C295.927 236.87 296.324 236.947 296.71 237.1C297.097 237.247 297.437 237.46 297.73 237.74L297.42 238.37C297.087 238.09 296.767 237.887 296.46 237.76C296.16 237.627 295.854 237.56 295.54 237.56C294.934 237.56 294.46 237.83 294.12 238.37C293.787 238.903 293.62 239.66 293.62 240.64V240.79C293.774 240.417 294.02 240.12 294.36 239.9C294.7 239.68 295.094 239.57 295.54 239.57ZM295.43 243.39C295.884 243.39 296.247 243.247 296.52 242.96C296.794 242.673 296.93 242.293 296.93 241.82C296.93 241.353 296.79 240.977 296.51 240.69C296.237 240.403 295.874 240.26 295.42 240.26C294.96 240.26 294.584 240.407 294.29 240.7C294.004 240.987 293.86 241.36 293.86 241.82C293.86 242.287 294.004 242.667 294.29 242.96C294.584 243.247 294.964 243.39 295.43 243.39ZM301.227 244.08C300.42 244.08 299.807 243.773 299.387 243.16C298.967 242.547 298.757 241.653 298.757 240.48C298.757 239.3 298.967 238.403 299.387 237.79C299.807 237.177 300.42 236.87 301.227 236.87C302.033 236.87 302.647 237.177 303.067 237.79C303.487 238.397 303.697 239.29 303.697 240.47C303.697 241.65 303.487 242.547 303.067 243.16C302.647 243.773 302.033 244.08 301.227 244.08ZM301.227 243.39C301.787 243.39 302.2 243.153 302.467 242.68C302.733 242.207 302.867 241.47 302.867 240.47C302.867 239.463 302.733 238.73 302.467 238.27C302.207 237.803 301.793 237.57 301.227 237.57C300.667 237.57 300.253 237.803 299.987 238.27C299.72 238.737 299.587 239.47 299.587 240.47C299.587 241.47 299.72 242.207 299.987 242.68C300.253 243.153 300.667 243.39 301.227 243.39ZM307.083 244.25L306.493 243.91L310.663 236.7L311.253 237.04L307.083 244.25ZM306.473 241.18C305.939 241.18 305.523 241 305.223 240.64C304.923 240.273 304.773 239.733 304.773 239.02C304.773 238.313 304.923 237.78 305.223 237.42C305.523 237.053 305.939 236.87 306.473 236.87C307.006 236.87 307.423 237.053 307.723 237.42C308.023 237.78 308.173 238.313 308.173 239.02C308.173 239.733 308.023 240.273 307.723 240.64C307.423 241 307.006 241.18 306.473 241.18ZM306.473 240.6C306.799 240.6 307.039 240.473 307.193 240.22C307.353 239.967 307.433 239.567 307.433 239.02C307.433 238.48 307.353 238.083 307.193 237.83C307.039 237.577 306.799 237.45 306.473 237.45C306.146 237.45 305.903 237.577 305.743 237.83C305.583 238.083 305.503 238.48 305.503 239.02C305.503 239.567 305.583 239.967 305.743 240.22C305.903 240.473 306.146 240.6 306.473 240.6ZM311.273 244.07C310.739 244.07 310.323 243.89 310.023 243.53C309.723 243.163 309.573 242.623 309.573 241.91C309.573 241.203 309.723 240.67 310.023 240.31C310.323 239.943 310.739 239.76 311.273 239.76C311.813 239.76 312.229 239.94 312.523 240.3C312.823 240.66 312.973 241.197 312.973 241.91C312.973 242.623 312.823 243.163 312.523 243.53C312.229 243.89 311.813 244.07 311.273 244.07ZM311.273 243.49C311.606 243.49 311.849 243.367 312.003 243.12C312.163 242.867 312.243 242.463 312.243 241.91C312.243 241.37 312.163 240.973 312.003 240.72C311.843 240.467 311.599 240.34 311.273 240.34C310.946 240.34 310.703 240.467 310.543 240.72C310.389 240.973 310.313 241.37 310.313 241.91C310.313 242.457 310.389 242.857 310.543 243.11C310.703 243.363 310.946 243.49 311.273 243.49Z" fill="black"/>
<path d="M333.3 239.57C333.727 239.57 334.107 239.663 334.44 239.85C334.773 240.037 335.033 240.3 335.22 240.64C335.407 240.98 335.5 241.37 335.5 241.81C335.5 242.243 335.403 242.633 335.21 242.98C335.017 243.327 334.747 243.597 334.4 243.79C334.053 243.983 333.663 244.08 333.23 244.08C332.377 244.08 331.717 243.783 331.25 243.19C330.79 242.597 330.56 241.75 330.56 240.65C330.56 239.857 330.667 239.177 330.88 238.61C331.1 238.043 331.413 237.613 331.82 237.32C332.227 237.02 332.713 236.87 333.28 236.87C333.687 236.87 334.083 236.947 334.47 237.1C334.857 237.247 335.197 237.46 335.49 237.74L335.18 238.37C334.847 238.09 334.527 237.887 334.22 237.76C333.92 237.627 333.613 237.56 333.3 237.56C332.693 237.56 332.22 237.83 331.88 238.37C331.547 238.903 331.38 239.66 331.38 240.64V240.79C331.533 240.417 331.78 240.12 332.12 239.9C332.46 239.68 332.853 239.57 333.3 239.57ZM333.19 243.39C333.643 243.39 334.007 243.247 334.28 242.96C334.553 242.673 334.69 242.293 334.69 241.82C334.69 241.353 334.55 240.977 334.27 240.69C333.997 240.403 333.633 240.26 333.18 240.26C332.72 240.26 332.343 240.407 332.05 240.7C331.763 240.987 331.62 241.36 331.62 241.82C331.62 242.287 331.763 242.667 332.05 242.96C332.343 243.247 332.723 243.39 333.19 243.39ZM339.656 243.31H341.206V244H337.286V243.31H338.836V237.97L337.596 238.75L337.216 238.12L339.066 236.95H339.656V243.31ZM342.702 241.67V241H345.502V241.67H342.702ZM346.9 236.95H351.56V237.56L348.26 244H347.37L350.66 237.64H346.9V236.95ZM355.227 244.08C354.42 244.08 353.807 243.773 353.387 243.16C352.967 242.547 352.757 241.653 352.757 240.48C352.757 239.3 352.967 238.403 353.387 237.79C353.807 237.177 354.42 236.87 355.227 236.87C356.033 236.87 356.647 237.177 357.067 237.79C357.487 238.397 357.697 239.29 357.697 240.47C357.697 241.65 357.487 242.547 357.067 243.16C356.647 243.773 356.033 244.08 355.227 244.08ZM355.227 243.39C355.787 243.39 356.2 243.153 356.467 242.68C356.733 242.207 356.867 241.47 356.867 240.47C356.867 239.463 356.733 238.73 356.467 238.27C356.207 237.803 355.793 237.57 355.227 237.57C354.667 237.57 354.253 237.803 353.987 238.27C353.72 238.737 353.587 239.47 353.587 240.47C353.587 241.47 353.72 242.207 353.987 242.68C354.253 243.153 354.667 243.39 355.227 243.39ZM361.083 244.25L360.493 243.91L364.663 236.7L365.253 237.04L361.083 244.25ZM360.473 241.18C359.939 241.18 359.523 241 359.223 240.64C358.923 240.273 358.773 239.733 358.773 239.02C358.773 238.313 358.923 237.78 359.223 237.42C359.523 237.053 359.939 236.87 360.473 236.87C361.006 236.87 361.423 237.053 361.723 237.42C362.023 237.78 362.173 238.313 362.173 239.02C362.173 239.733 362.023 240.273 361.723 240.64C361.423 241 361.006 241.18 360.473 241.18ZM360.473 240.6C360.799 240.6 361.039 240.473 361.193 240.22C361.353 239.967 361.433 239.567 361.433 239.02C361.433 238.48 361.353 238.083 361.193 237.83C361.039 237.577 360.799 237.45 360.473 237.45C360.146 237.45 359.903 237.577 359.743 237.83C359.583 238.083 359.503 238.48 359.503 239.02C359.503 239.567 359.583 239.967 359.743 240.22C359.903 240.473 360.146 240.6 360.473 240.6ZM365.273 244.07C364.739 244.07 364.323 243.89 364.023 243.53C363.723 243.163 363.573 242.623 363.573 241.91C363.573 241.203 363.723 240.67 364.023 240.31C364.323 239.943 364.739 239.76 365.273 239.76C365.813 239.76 366.229 239.94 366.523 240.3C366.823 240.66 366.973 241.197 366.973 241.91C366.973 242.623 366.823 243.163 366.523 243.53C366.229 243.89 365.813 244.07 365.273 244.07ZM365.273 243.49C365.606 243.49 365.849 243.367 366.003 243.12C366.163 242.867 366.243 242.463 366.243 241.91C366.243 241.37 366.163 240.973 366.003 240.72C365.843 240.467 365.599 240.34 365.273 240.34C364.946 240.34 364.703 240.467 364.543 240.72C364.389 240.973 364.313 241.37 364.313 241.91C364.313 242.457 364.389 242.857 364.543 243.11C364.703 243.363 364.946 243.49 365.273 243.49Z" fill="black"/>
<path d="M384.67 236.95H389.33V237.56L386.03 244H385.14L388.43 237.64H384.67V236.95ZM393.666 243.31H395.216V244H391.296V243.31H392.846V237.97L391.606 238.75L391.226 238.12L393.076 236.95H393.666V243.31ZM396.712 241.67V241H399.512V241.67H396.712ZM404.46 240.38C404.874 240.507 405.194 240.723 405.42 241.03C405.654 241.337 405.77 241.703 405.77 242.13C405.77 242.737 405.55 243.213 405.11 243.56C404.67 243.9 404.047 244.07 403.24 244.07C402.434 244.07 401.81 243.9 401.37 243.56C400.93 243.213 400.71 242.737 400.71 242.13C400.71 241.697 400.827 241.327 401.06 241.02C401.294 240.713 401.617 240.5 402.03 240.38C401.677 240.247 401.397 240.037 401.19 239.75C400.984 239.463 400.88 239.127 400.88 238.74C400.88 238.167 401.087 237.713 401.5 237.38C401.92 237.04 402.5 236.87 403.24 236.87C403.98 236.87 404.557 237.04 404.97 237.38C405.39 237.713 405.6 238.167 405.6 238.74C405.6 239.127 405.497 239.467 405.29 239.76C405.084 240.047 404.807 240.253 404.46 240.38ZM401.69 238.8C401.69 239.213 401.82 239.53 402.08 239.75C402.347 239.97 402.734 240.08 403.24 240.08C403.747 240.08 404.13 239.97 404.39 239.75C404.657 239.53 404.79 239.213 404.79 238.8C404.79 238.407 404.657 238.1 404.39 237.88C404.13 237.66 403.747 237.55 403.24 237.55C402.734 237.55 402.347 237.66 402.08 237.88C401.82 238.1 401.69 238.407 401.69 238.8ZM403.24 243.39C404.387 243.39 404.96 242.953 404.96 242.08C404.96 241.207 404.387 240.77 403.24 240.77C402.094 240.77 401.52 241.207 401.52 242.08C401.52 242.953 402.094 243.39 403.24 243.39ZM409.236 244.08C408.43 244.08 407.816 243.773 407.396 243.16C406.976 242.547 406.766 241.653 406.766 240.48C406.766 239.3 406.976 238.403 407.396 237.79C407.816 237.177 408.43 236.87 409.236 236.87C410.043 236.87 410.656 237.177 411.076 237.79C411.496 238.397 411.706 239.29 411.706 240.47C411.706 241.65 411.496 242.547 411.076 243.16C410.656 243.773 410.043 244.08 409.236 244.08ZM409.236 243.39C409.796 243.39 410.21 243.153 410.476 242.68C410.743 242.207 410.876 241.47 410.876 240.47C410.876 239.463 410.743 238.73 410.476 238.27C410.216 237.803 409.803 237.57 409.236 237.57C408.676 237.57 408.263 237.803 407.996 238.27C407.73 238.737 407.596 239.47 407.596 240.47C407.596 241.47 407.73 242.207 407.996 242.68C408.263 243.153 408.676 243.39 409.236 243.39ZM415.092 244.25L414.502 243.91L418.672 236.7L419.262 237.04L415.092 244.25ZM414.482 241.18C413.949 241.18 413.532 241 413.232 240.64C412.932 240.273 412.782 239.733 412.782 239.02C412.782 238.313 412.932 237.78 413.232 237.42C413.532 237.053 413.949 236.87 414.482 236.87C415.016 236.87 415.432 237.053 415.732 237.42C416.032 237.78 416.182 238.313 416.182 239.02C416.182 239.733 416.032 240.273 415.732 240.64C415.432 241 415.016 241.18 414.482 241.18ZM414.482 240.6C414.809 240.6 415.049 240.473 415.202 240.22C415.362 239.967 415.442 239.567 415.442 239.02C415.442 238.48 415.362 238.083 415.202 237.83C415.049 237.577 414.809 237.45 414.482 237.45C414.156 237.45 413.912 237.577 413.752 237.83C413.592 238.083 413.512 238.48 413.512 239.02C413.512 239.567 413.592 239.967 413.752 240.22C413.912 240.473 414.156 240.6 414.482 240.6ZM419.282 244.07C418.749 244.07 418.332 243.89 418.032 243.53C417.732 243.163 417.582 242.623 417.582 241.91C417.582 241.203 417.732 240.67 418.032 240.31C418.332 239.943 418.749 239.76 419.282 239.76C419.822 239.76 420.239 239.94 420.532 240.3C420.832 240.66 420.982 241.197 420.982 241.91C420.982 242.623 420.832 243.163 420.532 243.53C420.239 243.89 419.822 244.07 419.282 244.07ZM419.282 243.49C419.616 243.49 419.859 243.367 420.012 243.12C420.172 242.867 420.252 242.463 420.252 241.91C420.252 241.37 420.172 240.973 420.012 240.72C419.852 240.467 419.609 240.34 419.282 240.34C418.956 240.34 418.712 240.467 418.552 240.72C418.399 240.973 418.322 241.37 418.322 241.91C418.322 242.457 418.399 242.857 418.552 243.11C418.712 243.363 418.956 243.49 419.282 243.49Z" fill="black"/>
<path d="M442.22 240.38C442.633 240.507 442.953 240.723 443.18 241.03C443.413 241.337 443.53 241.703 443.53 242.13C443.53 242.737 443.31 243.213 442.87 243.56C442.43 243.9 441.807 244.07 441 244.07C440.193 244.07 439.57 243.9 439.13 243.56C438.69 243.213 438.47 242.737 438.47 242.13C438.47 241.697 438.587 241.327 438.82 241.02C439.053 240.713 439.377 240.5 439.79 240.38C439.437 240.247 439.157 240.037 438.95 239.75C438.743 239.463 438.64 239.127 438.64 238.74C438.64 238.167 438.847 237.713 439.26 237.38C439.68 237.04 440.26 236.87 441 236.87C441.74 236.87 442.317 237.04 442.73 237.38C443.15 237.713 443.36 238.167 443.36 238.74C443.36 239.127 443.257 239.467 443.05 239.76C442.843 240.047 442.567 240.253 442.22 240.38ZM439.45 238.8C439.45 239.213 439.58 239.53 439.84 239.75C440.107 239.97 440.493 240.08 441 240.08C441.507 240.08 441.89 239.97 442.15 239.75C442.417 239.53 442.55 239.213 442.55 238.8C442.55 238.407 442.417 238.1 442.15 237.88C441.89 237.66 441.507 237.55 441 237.55C440.493 237.55 440.107 237.66 439.84 237.88C439.58 238.1 439.45 238.407 439.45 238.8ZM441 243.39C442.147 243.39 442.72 242.953 442.72 242.08C442.72 241.207 442.147 240.77 441 240.77C439.853 240.77 439.28 241.207 439.28 242.08C439.28 242.953 439.853 243.39 441 243.39ZM447.666 243.31H449.216V244H445.296V243.31H446.846V237.97L445.606 238.75L445.226 238.12L447.076 236.95H447.666V243.31ZM450.712 241.67V241H453.512V241.67H450.712ZM457.02 236.87C457.874 236.87 458.53 237.167 458.99 237.76C459.457 238.353 459.69 239.2 459.69 240.3C459.69 241.493 459.45 242.423 458.97 243.09C458.49 243.75 457.82 244.08 456.96 244.08C456.56 244.08 456.167 244.007 455.78 243.86C455.394 243.707 455.054 243.49 454.76 243.21L455.07 242.58C455.404 242.86 455.72 243.067 456.02 243.2C456.327 243.327 456.637 243.39 456.95 243.39C457.557 243.39 458.027 243.123 458.36 242.59C458.694 242.05 458.86 241.29 458.86 240.31V240.18C458.707 240.553 458.457 240.847 458.11 241.06C457.77 241.273 457.384 241.38 456.95 241.38C456.524 241.38 456.144 241.287 455.81 241.1C455.477 240.913 455.217 240.65 455.03 240.31C454.844 239.97 454.75 239.58 454.75 239.14C454.75 238.707 454.847 238.317 455.04 237.97C455.234 237.623 455.504 237.353 455.85 237.16C456.197 236.967 456.587 236.87 457.02 236.87ZM457.07 240.69C457.53 240.69 457.904 240.547 458.19 240.26C458.484 239.967 458.63 239.59 458.63 239.13C458.63 238.663 458.484 238.287 458.19 238C457.904 237.707 457.527 237.56 457.06 237.56C456.607 237.56 456.244 237.703 455.97 237.99C455.697 238.277 455.56 238.657 455.56 239.13C455.56 239.603 455.697 239.983 455.97 240.27C456.25 240.55 456.617 240.69 457.07 240.69ZM463.236 244.08C462.43 244.08 461.816 243.773 461.396 243.16C460.976 242.547 460.766 241.653 460.766 240.48C460.766 239.3 460.976 238.403 461.396 237.79C461.816 237.177 462.43 236.87 463.236 236.87C464.043 236.87 464.656 237.177 465.076 237.79C465.496 238.397 465.706 239.29 465.706 240.47C465.706 241.65 465.496 242.547 465.076 243.16C464.656 243.773 464.043 244.08 463.236 244.08ZM463.236 243.39C463.796 243.39 464.21 243.153 464.476 242.68C464.743 242.207 464.876 241.47 464.876 240.47C464.876 239.463 464.743 238.73 464.476 238.27C464.216 237.803 463.803 237.57 463.236 237.57C462.676 237.57 462.263 237.803 461.996 238.27C461.73 238.737 461.596 239.47 461.596 240.47C461.596 241.47 461.73 242.207 461.996 242.68C462.263 243.153 462.676 243.39 463.236 243.39ZM469.092 244.25L468.502 243.91L472.672 236.7L473.262 237.04L469.092 244.25ZM468.482 241.18C467.949 241.18 467.532 241 467.232 240.64C466.932 240.273 466.782 239.733 466.782 239.02C466.782 238.313 466.932 237.78 467.232 237.42C467.532 237.053 467.949 236.87 468.482 236.87C469.016 236.87 469.432 237.053 469.732 237.42C470.032 237.78 470.182 238.313 470.182 239.02C470.182 239.733 470.032 240.273 469.732 240.64C469.432 241 469.016 241.18 468.482 241.18ZM468.482 240.6C468.809 240.6 469.049 240.473 469.202 240.22C469.362 239.967 469.442 239.567 469.442 239.02C469.442 238.48 469.362 238.083 469.202 237.83C469.049 237.577 468.809 237.45 468.482 237.45C468.156 237.45 467.912 237.577 467.752 237.83C467.592 238.083 467.512 238.48 467.512 239.02C467.512 239.567 467.592 239.967 467.752 240.22C467.912 240.473 468.156 240.6 468.482 240.6ZM473.282 244.07C472.749 244.07 472.332 243.89 472.032 243.53C471.732 243.163 471.582 242.623 471.582 241.91C471.582 241.203 471.732 240.67 472.032 240.31C472.332 239.943 472.749 239.76 473.282 239.76C473.822 239.76 474.239 239.94 474.532 240.3C474.832 240.66 474.982 241.197 474.982 241.91C474.982 242.623 474.832 243.163 474.532 243.53C474.239 243.89 473.822 244.07 473.282 244.07ZM473.282 243.49C473.616 243.49 473.859 243.367 474.012 243.12C474.172 242.867 474.252 242.463 474.252 241.91C474.252 241.37 474.172 240.973 474.012 240.72C473.852 240.467 473.609 240.34 473.282 240.34C472.956 240.34 472.712 240.467 472.552 240.72C472.399 240.973 472.322 241.37 472.322 241.91C472.322 242.457 472.399 242.857 472.552 243.11C472.712 243.363 472.956 243.49 473.282 243.49Z" fill="black"/>
<path d="M494.78 236.87C495.633 236.87 496.29 237.167 496.75 237.76C497.217 238.353 497.45 239.2 497.45 240.3C497.45 241.493 497.21 242.423 496.73 243.09C496.25 243.75 495.58 244.08 494.72 244.08C494.32 244.08 493.927 244.007 493.54 243.86C493.153 243.707 492.813 243.49 492.52 243.21L492.83 242.58C493.163 242.86 493.48 243.067 493.78 243.2C494.087 243.327 494.397 243.39 494.71 243.39C495.317 243.39 495.787 243.123 496.12 242.59C496.453 242.05 496.62 241.29 496.62 240.31V240.18C496.467 240.553 496.217 240.847 495.87 241.06C495.53 241.273 495.143 241.38 494.71 241.38C494.283 241.38 493.903 241.287 493.57 241.1C493.237 240.913 492.977 240.65 492.79 240.31C492.603 239.97 492.51 239.58 492.51 239.14C492.51 238.707 492.607 238.317 492.8 237.97C492.993 237.623 493.263 237.353 493.61 237.16C493.957 236.967 494.347 236.87 494.78 236.87ZM494.83 240.69C495.29 240.69 495.663 240.547 495.95 240.26C496.243 239.967 496.39 239.59 496.39 239.13C496.39 238.663 496.243 238.287 495.95 238C495.663 237.707 495.287 237.56 494.82 237.56C494.367 237.56 494.003 237.703 493.73 237.99C493.457 238.277 493.32 238.657 493.32 239.13C493.32 239.603 493.457 239.983 493.73 240.27C494.01 240.55 494.377 240.69 494.83 240.69ZM501.666 243.31H503.216V244H499.296V243.31H500.846V237.97L499.606 238.75L499.226 238.12L501.076 236.95H501.666V243.31ZM504.712 241.67V241H507.512V241.67H504.712ZM511.91 243.31H513.46V244H509.54V243.31H511.09V237.97L509.85 238.75L509.47 238.12L511.32 236.95H511.91V243.31ZM517.236 244.08C516.43 244.08 515.816 243.773 515.396 243.16C514.976 242.547 514.766 241.653 514.766 240.48C514.766 239.3 514.976 238.403 515.396 237.79C515.816 237.177 516.43 236.87 517.236 236.87C518.043 236.87 518.656 237.177 519.076 237.79C519.496 238.397 519.706 239.29 519.706 240.47C519.706 241.65 519.496 242.547 519.076 243.16C518.656 243.773 518.043 244.08 517.236 244.08ZM517.236 243.39C517.796 243.39 518.21 243.153 518.476 242.68C518.743 242.207 518.876 241.47 518.876 240.47C518.876 239.463 518.743 238.73 518.476 238.27C518.216 237.803 517.803 237.57 517.236 237.57C516.676 237.57 516.263 237.803 515.996 238.27C515.73 238.737 515.596 239.47 515.596 240.47C515.596 241.47 515.73 242.207 515.996 242.68C516.263 243.153 516.676 243.39 517.236 243.39ZM523.232 244.08C522.426 244.08 521.812 243.773 521.392 243.16C520.972 242.547 520.762 241.653 520.762 240.48C520.762 239.3 520.972 238.403 521.392 237.79C521.812 237.177 522.426 236.87 523.232 236.87C524.039 236.87 524.652 237.177 525.072 237.79C525.492 238.397 525.702 239.29 525.702 240.47C525.702 241.65 525.492 242.547 525.072 243.16C524.652 243.773 524.039 244.08 523.232 244.08ZM523.232 243.39C523.792 243.39 524.206 243.153 524.472 242.68C524.739 242.207 524.872 241.47 524.872 240.47C524.872 239.463 524.739 238.73 524.472 238.27C524.212 237.803 523.799 237.57 523.232 237.57C522.672 237.57 522.259 237.803 521.992 238.27C521.726 238.737 521.592 239.47 521.592 240.47C521.592 241.47 521.726 242.207 521.992 242.68C522.259 243.153 522.672 243.39 523.232 243.39ZM529.089 244.25L528.499 243.91L532.669 236.7L533.259 237.04L529.089 244.25ZM528.479 241.18C527.945 241.18 527.529 241 527.229 240.64C526.929 240.273 526.779 239.733 526.779 239.02C526.779 238.313 526.929 237.78 527.229 237.42C527.529 237.053 527.945 236.87 528.479 236.87C529.012 236.87 529.429 237.053 529.729 237.42C530.029 237.78 530.179 238.313 530.179 239.02C530.179 239.733 530.029 240.273 529.729 240.64C529.429 241 529.012 241.18 528.479 241.18ZM528.479 240.6C528.805 240.6 529.045 240.473 529.199 240.22C529.359 239.967 529.439 239.567 529.439 239.02C529.439 238.48 529.359 238.083 529.199 237.83C529.045 237.577 528.805 237.45 528.479 237.45C528.152 237.45 527.909 237.577 527.749 237.83C527.589 238.083 527.509 238.48 527.509 239.02C527.509 239.567 527.589 239.967 527.749 240.22C527.909 240.473 528.152 240.6 528.479 240.6ZM533.279 244.07C532.745 244.07 532.329 243.89 532.029 243.53C531.729 243.163 531.579 242.623 531.579 241.91C531.579 241.203 531.729 240.67 532.029 240.31C532.329 239.943 532.745 239.76 533.279 239.76C533.819 239.76 534.235 239.94 534.529 240.3C534.829 240.66 534.979 241.197 534.979 241.91C534.979 242.623 534.829 243.163 534.529 243.53C534.235 243.89 533.819 244.07 533.279 244.07ZM533.279 243.49C533.612 243.49 533.855 243.367 534.009 243.12C534.169 242.867 534.249 242.463 534.249 241.91C534.249 241.37 534.169 240.973 534.009 240.72C533.849 240.467 533.605 240.34 533.279 240.34C532.952 240.34 532.709 240.467 532.549 240.72C532.395 240.973 532.319 241.37 532.319 241.91C532.319 242.457 532.395 242.857 532.549 243.11C532.709 243.363 532.952 243.49 533.279 243.49Z" fill="black"/>
<rect opacity="0.5" x="13" y="212" width="30" height="11" fill="#31A4A1"/>
<rect opacity="0.5" x="64" y="180" width="30" height="43" fill="#31A4A1"/>
<rect opacity="0.5" x="118" y="154" width="30" height="69" fill="#31A4A1"/>
<rect opacity="0.5" x="172" y="129" width="30" height="94" fill="#31A4A1"/>
<rect opacity="0.5" x="230" y="31" width="30" height="192" fill="#31A4A1"/>
<rect opacity="0.5" x="280" y="58" width="30" height="165" fill="#31A4A1"/>
<rect x="334" y="97" width="30" height="126" fill="#31A4A1"/>
<rect opacity="0.5" x="388" y="170" width="30" height="53" fill="#31A4A1"/>
<rect opacity="0.5" x="442" y="189" width="30" height="34" fill="#31A4A1"/>
<rect opacity="0.5" x="499" y="199" width="30" height="24" fill="#31A4A1"/>
<line opacity="0.5" y1="222.5" x2="562" y2="222.5" stroke="black"/>
<path d="M378 28.8037C378 44.7115 351.416 89 349 89C347.132 89 320 44.7115 320 28.8037C320 12.8958 332.984 0 349 0C365.016 0 378 12.8958 378 28.8037Z" fill="#31A4A1"/>
<circle cx="349" cy="29" r="24" fill="white"/>
<path d="M336.99 18.95L334.13 22.75V26H332.84V22.75L329.99 18.95H331.44L333.48 21.72L335.53 18.95H336.99ZM340.081 26.09C339.394 26.09 338.797 25.9433 338.291 25.65C337.791 25.3567 337.404 24.9367 337.131 24.39C336.857 23.8433 336.721 23.2033 336.721 22.47C336.721 21.7367 336.854 21.1 337.121 20.56C337.394 20.0133 337.784 19.5933 338.291 19.3C338.797 19.0067 339.394 18.86 340.081 18.86C340.767 18.86 341.361 19.0067 341.861 19.3C342.367 19.5933 342.754 20.0133 343.021 20.56C343.294 21.1 343.431 21.7367 343.431 22.47C343.431 23.2033 343.294 23.8433 343.021 24.39C342.747 24.9367 342.357 25.3567 341.851 25.65C341.351 25.9433 340.761 26.09 340.081 26.09ZM340.081 25.06C340.727 25.06 341.231 24.8367 341.591 24.39C341.957 23.9433 342.141 23.3033 342.141 22.47C342.141 21.6367 341.957 21 341.591 20.56C341.231 20.1133 340.727 19.89 340.081 19.89C339.427 19.89 338.917 20.1133 338.551 20.56C338.191 21 338.011 21.6367 338.011 22.47C338.011 23.3033 338.191 23.9433 338.551 24.39C338.917 24.8367 339.427 25.06 340.081 25.06ZM347.644 26.09C346.677 26.09 345.944 25.84 345.444 25.34C344.944 24.84 344.694 24.11 344.694 23.15V18.95H345.954V23.22C345.954 23.8267 346.097 24.2867 346.384 24.6C346.67 24.9067 347.09 25.06 347.644 25.06C348.19 25.06 348.607 24.9033 348.894 24.59C349.18 24.2767 349.324 23.82 349.324 23.22V18.95H350.584V23.15C350.584 24.1033 350.334 24.8333 349.834 25.34C349.334 25.84 348.604 26.09 347.644 26.09ZM353.248 18.95V19.86C353.248 20.2133 353.188 20.5333 353.068 20.82C352.948 21.1 352.744 21.38 352.458 21.66L351.948 21.26C352.108 21.0867 352.231 20.9267 352.318 20.78C352.404 20.6333 352.461 20.4833 352.488 20.33H351.848V18.95H353.248ZM360.458 26H359.058L357.848 23.75C357.735 23.5367 357.595 23.3867 357.428 23.3C357.261 23.2133 357.051 23.17 356.798 23.17H355.818V26H354.548V18.95H357.668C358.468 18.95 359.075 19.13 359.488 19.49C359.908 19.8433 360.118 20.3567 360.118 21.03C360.118 21.57 359.965 22.0167 359.658 22.37C359.358 22.7167 358.931 22.9433 358.378 23.05C358.751 23.15 359.051 23.4133 359.278 23.84L360.458 26ZM357.488 22.18C357.975 22.18 358.331 22.09 358.558 21.91C358.785 21.7233 358.898 21.44 358.898 21.06C358.898 20.6733 358.785 20.3933 358.558 20.22C358.331 20.04 357.975 19.95 357.488 19.95H355.808V22.18H357.488ZM361.501 26V18.95H366.221V19.97H362.761V21.91H366.021V22.92H362.761V24.98H366.221V26H361.501ZM340.947 32.95H342.207V40H340.947V36.94H337.337V40H336.067V32.95H337.337V35.9H340.947V32.95ZM343.723 40V32.95H348.443V33.97H344.983V35.91H348.243V36.92H344.983V38.98H348.443V40H343.723ZM355.522 40H354.122L352.912 37.75C352.798 37.5367 352.658 37.3867 352.492 37.3C352.325 37.2133 352.115 37.17 351.862 37.17H350.882V40H349.612V32.95H352.732C353.532 32.95 354.138 33.13 354.552 33.49C354.972 33.8433 355.182 34.3567 355.182 35.03C355.182 35.57 355.028 36.0167 354.722 36.37C354.422 36.7167 353.995 36.9433 353.442 37.05C353.815 37.15 354.115 37.4133 354.342 37.84L355.522 40ZM352.552 36.18C353.038 36.18 353.395 36.09 353.622 35.91C353.848 35.7233 353.962 35.44 353.962 35.06C353.962 34.6733 353.848 34.3933 353.622 34.22C353.395 34.04 353.038 33.95 352.552 33.95H350.872V36.18H352.552ZM356.565 40V32.95H361.285V33.97H357.825V35.91H361.085V36.92H357.825V38.98H361.285V40H356.565Z" fill="black"/>
</svg>
