<svg width="261" height="47" viewBox="0 0 261 47" fill="none" xmlns="http://www.w3.org/2000/svg">
<path d="M18.2855 32.3974V43.2346C16.8738 42.3132 15.5213 41.3072 14.2364 40.2167C9.78988 36.4381 6.2141 31.7549 3.75417 26.4631C3.5851 26.108 3.75417 25.9221 4.12612 26.0489L16.1553 30.1488C16.8231 30.9349 17.5332 31.6788 18.2855 32.3974Z" fill="#211E1F"/>
<path d="M8.84271 13.9187C8.0481 10.3682 7.71841 6.74174 7.86212 3.11523C5.3092 4.23953 2.25753 5.86258 0.0596487 7.43491C-0.00797841 8.60148 -0.0164318 9.75959 0.0258351 10.9177C0.101916 13.2762 0.389331 15.6262 0.88808 17.9425C1.04869 18.6864 1.22622 19.4218 1.4291 20.1573C1.47982 20.3517 1.63198 20.5038 1.81795 20.5715L12.055 24.0543L18.2851 26.1761V17.1394L8.84271 13.9187Z" fill="#211E1F"/>
<path d="M43.0279 25.5669C43.1886 25.6176 43.2731 25.7951 43.2224 25.9558C43.2224 25.9642 43.2139 25.9727 43.2139 25.9811C40.7455 31.4674 37.0937 36.3281 32.5119 40.2251C31.1932 41.3409 29.8153 42.3722 28.3613 43.3106V32.4902C29.0883 31.797 29.7815 31.0701 30.4409 30.3092L28.3613 29.5992V20.5625L30.407 21.2557L35.2508 22.9041L43.0279 25.5669Z" fill="#211E1F"/>
<path d="M46.6795 7.4263C43.9068 5.44821 40.8889 3.83361 37.702 2.62478C28.4709 -0.874925 18.2677 -0.874925 9.0366 2.62478L8.78299 2.72622C8.63083 5.71871 8.81681 8.71966 9.32401 11.6699C12.3334 10.2244 15.8669 9.25223 19.0961 8.81265V43.7589C20.474 44.6043 21.9026 45.3735 23.3651 46.0498C24.8191 45.382 26.2308 44.6296 27.5918 43.7843L27.6425 43.7505V8.8042C31.2944 9.30295 34.8279 10.4357 38.0824 12.1517C37.9049 14.4003 37.4822 16.6236 36.8229 18.7792L44.8958 21.5265C45.2678 20.3515 45.5806 19.1511 45.8426 17.9339C46.5865 14.4849 46.8655 10.9514 46.6795 7.4263Z" fill="#39BEBA"/>
<path d="M65.392 30V16.44H61.216V14.328H73.936V16.44H69.784V30H65.392ZM77.4119 30C76.5799 30 76.0039 29.808 75.6839 29.424C75.3639 29.024 75.2039 28.432 75.2039 27.648V21.984C75.2039 21.2 75.3639 20.616 75.6839 20.232C76.0039 19.832 76.5799 19.632 77.4119 19.632L82.2359 19.608V21.168H79.6679C79.4119 21.184 79.1799 21.24 78.9719 21.336C78.7799 21.416 78.6679 21.6 78.6359 21.888C78.6199 22 78.6039 22.12 78.5879 22.248C78.5879 22.376 78.5879 22.496 78.5879 22.608C78.5719 22.768 78.5639 22.928 78.5639 23.088C78.5799 23.232 78.5879 23.376 78.5879 23.52C78.5879 23.616 78.5879 23.712 78.5879 23.808C78.5879 23.888 78.5879 23.968 78.5879 24.048L81.8519 24.024V25.584H78.5879C78.5879 25.68 78.5879 25.784 78.5879 25.896C78.5879 25.992 78.5799 26.088 78.5639 26.184C78.5639 26.28 78.5639 26.384 78.5639 26.496C78.5639 26.592 78.5639 26.696 78.5639 26.808C78.5639 27.032 78.5719 27.256 78.5879 27.48C78.6039 27.688 78.6439 27.88 78.7079 28.056C78.7559 28.184 78.8359 28.28 78.9479 28.344C79.0759 28.392 79.2039 28.424 79.3319 28.44C79.3959 28.456 79.4519 28.464 79.4999 28.464C79.5639 28.464 79.6199 28.464 79.6679 28.464L82.4039 28.44V30H77.4119ZM84.5922 30V19.608H89.1282C89.1762 19.624 89.2162 19.632 89.2482 19.632C89.2962 19.632 89.3442 19.632 89.3922 19.632C90.4002 19.664 91.3202 19.896 92.1522 20.328C92.9842 20.76 93.4002 21.568 93.4002 22.752C93.4002 23.44 93.2322 24 92.8962 24.432C92.5602 24.848 92.0802 25.152 91.4562 25.344L94.5042 30H90.5442L88.1922 25.104V24.888C88.8962 24.792 89.4082 24.536 89.7282 24.12C90.0642 23.704 90.1602 23.128 90.0162 22.392C89.8882 21.8 89.6082 21.432 89.1762 21.288C88.7602 21.128 88.2962 21.064 87.7842 21.096V30H84.5922ZM97.1309 26.664H99.7229L98.4749 22.152L97.1309 26.664ZM94.3709 30L97.0829 21.528C97.2589 20.968 97.5069 20.464 97.8269 20.016C98.1469 19.552 98.6429 19.312 99.3149 19.296C99.9709 19.28 100.451 19.488 100.755 19.92C101.075 20.336 101.315 20.824 101.475 21.384L104.283 30H100.731L100.155 28.104H96.6989L96.1469 30H94.3709ZM105.397 30V28.44H108.157C108.205 28.456 108.253 28.464 108.301 28.464C108.365 28.464 108.429 28.464 108.493 28.464C108.845 28.432 109.165 28.344 109.453 28.2C109.741 28.056 109.893 27.76 109.909 27.312C109.909 27.088 109.853 26.896 109.741 26.736C109.645 26.576 109.485 26.456 109.261 26.376C109.053 26.28 108.829 26.2 108.589 26.136C108.365 26.056 108.141 25.984 107.917 25.92C107.901 25.904 107.885 25.896 107.869 25.896C107.853 25.896 107.845 25.896 107.845 25.896C107.621 25.832 107.405 25.768 107.197 25.704C106.989 25.624 106.781 25.544 106.573 25.464C105.933 25.208 105.477 24.792 105.205 24.216C104.949 23.64 104.869 23.04 104.965 22.416C104.965 22.336 104.973 22.264 104.989 22.2C105.005 22.136 105.021 22.072 105.037 22.008C105.261 21.16 105.717 20.568 106.405 20.232C107.093 19.896 107.821 19.704 108.589 19.656C108.669 19.64 108.749 19.632 108.829 19.632C108.925 19.632 109.013 19.632 109.093 19.632L111.805 19.608V21.168C111.725 21.184 111.629 21.192 111.517 21.192C111.405 21.176 111.277 21.168 111.133 21.168C110.989 21.152 110.829 21.144 110.653 21.144C110.477 21.128 110.293 21.12 110.101 21.12C109.653 21.12 109.237 21.176 108.853 21.288C108.469 21.4 108.261 21.624 108.229 21.96C108.213 22.248 108.365 22.488 108.685 22.68C109.005 22.856 109.365 23.008 109.765 23.136C110.005 23.216 110.237 23.288 110.461 23.352C110.701 23.416 110.893 23.472 111.037 23.52C111.693 23.776 112.181 24.2 112.501 24.792C112.821 25.384 112.957 26.008 112.909 26.664C112.861 27.496 112.501 28.264 111.829 28.968C111.157 29.656 110.165 30 108.853 30H105.397ZM119.14 30.36C117.428 30.328 116.124 29.744 115.228 28.608C114.332 27.456 113.868 26.2 113.836 24.84C113.772 23.336 114.228 21.984 115.204 20.784C116.196 19.568 117.708 19.088 119.74 19.344C121.244 19.52 122.396 20.16 123.196 21.264C123.996 22.368 124.42 23.56 124.468 24.84C124.516 26.232 124.1 27.504 123.22 28.656C122.356 29.808 120.996 30.376 119.14 30.36ZM120.796 24.912C120.796 24.72 120.788 24.448 120.772 24.096C120.772 23.744 120.74 23.376 120.676 22.992C120.596 22.416 120.436 21.888 120.196 21.408C119.972 20.928 119.596 20.688 119.068 20.688C118.524 20.688 118.14 20.976 117.916 21.552C117.692 22.128 117.548 22.768 117.484 23.472C117.452 23.904 117.436 24.328 117.436 24.744C117.452 25.144 117.468 25.472 117.484 25.728C117.484 25.776 117.484 25.816 117.484 25.848C117.5 25.88 117.508 25.912 117.508 25.944C117.524 26.12 117.548 26.328 117.58 26.568C117.612 26.792 117.652 27.032 117.7 27.288C117.812 27.784 117.996 28.224 118.252 28.608C118.524 28.992 118.932 29.12 119.476 28.992C119.86 28.896 120.14 28.632 120.316 28.2C120.508 27.768 120.636 27.296 120.7 26.784C120.748 26.432 120.772 26.088 120.772 25.752C120.788 25.416 120.796 25.144 120.796 24.936V24.912ZM129.674 26.784C129.658 27.632 129.842 28.128 130.226 28.272C130.61 28.4 131.13 28.464 131.786 28.464C131.834 28.464 131.882 28.464 131.93 28.464C131.978 28.464 132.026 28.464 132.074 28.464V30H129.194C128.058 30 127.282 29.744 126.866 29.232C126.466 28.72 126.274 27.928 126.29 26.856V13.224H129.674V26.784ZM142.857 30V16.44H138.681V14.328H151.401V16.44H147.249V30H142.857ZM154.877 30C154.045 30 153.469 29.808 153.149 29.424C152.829 29.024 152.669 28.432 152.669 27.648V21.984C152.669 21.2 152.829 20.616 153.149 20.232C153.469 19.832 154.045 19.632 154.877 19.632L159.701 19.608V21.168H157.133C156.877 21.184 156.645 21.24 156.437 21.336C156.245 21.416 156.133 21.6 156.101 21.888C156.085 22 156.069 22.12 156.053 22.248C156.053 22.376 156.053 22.496 156.053 22.608C156.037 22.768 156.029 22.928 156.029 23.088C156.045 23.232 156.053 23.376 156.053 23.52C156.053 23.616 156.053 23.712 156.053 23.808C156.053 23.888 156.053 23.968 156.053 24.048L159.317 24.024V25.584H156.053C156.053 25.68 156.053 25.784 156.053 25.896C156.053 25.992 156.045 26.088 156.029 26.184C156.029 26.28 156.029 26.384 156.029 26.496C156.029 26.592 156.029 26.696 156.029 26.808C156.029 27.032 156.037 27.256 156.053 27.48C156.069 27.688 156.109 27.88 156.173 28.056C156.221 28.184 156.301 28.28 156.413 28.344C156.541 28.392 156.669 28.424 156.797 28.44C156.861 28.456 156.917 28.464 156.965 28.464C157.029 28.464 157.085 28.464 157.133 28.464L159.869 28.44V30H154.877ZM170.721 27.408C170.241 28.464 169.609 29.232 168.825 29.712C168.041 30.176 167.225 30.408 166.377 30.408C165.081 30.424 163.897 29.944 162.825 28.968C161.753 27.976 161.217 26.616 161.217 24.888C161.233 23.144 161.745 21.8 162.753 20.856C163.777 19.896 164.889 19.368 166.089 19.272C167.033 19.208 167.921 19.4 168.753 19.848C169.601 20.28 170.217 20.984 170.601 21.96L169.137 22.776C168.993 22.28 168.761 21.832 168.441 21.432C168.137 21.032 167.689 20.84 167.097 20.856C166.409 20.888 165.913 21.168 165.609 21.696C165.305 22.208 165.105 22.776 165.009 23.4C164.977 23.672 164.953 23.936 164.937 24.192C164.921 24.448 164.913 24.688 164.913 24.912C164.897 26.416 165.129 27.464 165.609 28.056C166.105 28.632 166.649 28.872 167.241 28.776C167.673 28.712 168.089 28.496 168.489 28.128C168.889 27.744 169.185 27.256 169.377 26.664L170.721 27.408ZM172.359 30V13.224H175.743V23.184H178.239V19.608H181.623V30H178.239V24.864H175.743V30H172.359ZM185.885 23.232V30H184.205V21.288C184.205 20.776 184.325 20.32 184.565 19.92C184.805 19.52 185.229 19.312 185.837 19.296C186.429 19.28 186.917 19.456 187.301 19.824C187.701 20.176 188.045 20.592 188.333 21.072L190.661 24.816V19.608H192.317V28.656C192.317 28.704 192.317 28.744 192.317 28.776C192.317 28.808 192.317 28.84 192.317 28.872C192.301 29.24 192.213 29.584 192.053 29.904C191.909 30.208 191.613 30.36 191.165 30.36C190.781 30.36 190.461 30.24 190.205 30C189.965 29.76 189.741 29.496 189.533 29.208C189.501 29.16 189.469 29.112 189.437 29.064C189.405 29 189.373 28.944 189.341 28.896L185.885 23.232ZM199.394 30.36C197.682 30.328 196.378 29.744 195.482 28.608C194.586 27.456 194.122 26.2 194.09 24.84C194.026 23.336 194.482 21.984 195.458 20.784C196.45 19.568 197.962 19.088 199.994 19.344C201.498 19.52 202.65 20.16 203.45 21.264C204.25 22.368 204.674 23.56 204.722 24.84C204.77 26.232 204.354 27.504 203.474 28.656C202.61 29.808 201.25 30.376 199.394 30.36ZM201.05 24.912C201.05 24.72 201.042 24.448 201.026 24.096C201.026 23.744 200.994 23.376 200.93 22.992C200.85 22.416 200.69 21.888 200.45 21.408C200.226 20.928 199.85 20.688 199.322 20.688C198.778 20.688 198.394 20.976 198.17 21.552C197.946 22.128 197.802 22.768 197.738 23.472C197.706 23.904 197.69 24.328 197.69 24.744C197.706 25.144 197.722 25.472 197.738 25.728C197.738 25.776 197.738 25.816 197.738 25.848C197.754 25.88 197.762 25.912 197.762 25.944C197.778 26.12 197.802 26.328 197.834 26.568C197.866 26.792 197.906 27.032 197.954 27.288C198.066 27.784 198.25 28.224 198.506 28.608C198.778 28.992 199.186 29.12 199.73 28.992C200.114 28.896 200.394 28.632 200.57 28.2C200.762 27.768 200.89 27.296 200.954 26.784C201.002 26.432 201.026 26.088 201.026 25.752C201.042 25.416 201.05 25.144 201.05 24.936V24.912ZM209.928 26.784C209.912 27.632 210.096 28.128 210.48 28.272C210.864 28.4 211.384 28.464 212.04 28.464C212.088 28.464 212.136 28.464 212.184 28.464C212.232 28.464 212.28 28.464 212.328 28.464V30H209.448C208.312 30 207.536 29.744 207.12 29.232C206.72 28.72 206.528 27.928 206.544 26.856V13.224H209.928V26.784ZM217.84 30.36C216.128 30.328 214.824 29.744 213.928 28.608C213.032 27.456 212.568 26.2 212.536 24.84C212.472 23.336 212.928 21.984 213.904 20.784C214.896 19.568 216.408 19.088 218.44 19.344C219.944 19.52 221.096 20.16 221.896 21.264C222.696 22.368 223.12 23.56 223.168 24.84C223.216 26.232 222.8 27.504 221.92 28.656C221.056 29.808 219.696 30.376 217.84 30.36ZM219.496 24.912C219.496 24.72 219.488 24.448 219.472 24.096C219.472 23.744 219.44 23.376 219.376 22.992C219.296 22.416 219.136 21.888 218.896 21.408C218.672 20.928 218.296 20.688 217.768 20.688C217.224 20.688 216.84 20.976 216.616 21.552C216.392 22.128 216.248 22.768 216.184 23.472C216.152 23.904 216.136 24.328 216.136 24.744C216.152 25.144 216.168 25.472 216.184 25.728C216.184 25.776 216.184 25.816 216.184 25.848C216.2 25.88 216.208 25.912 216.208 25.944C216.224 26.12 216.248 26.328 216.28 26.568C216.312 26.792 216.352 27.032 216.4 27.288C216.512 27.784 216.696 28.224 216.952 28.608C217.224 28.992 217.632 29.12 218.176 28.992C218.56 28.896 218.84 28.632 219.016 28.2C219.208 27.768 219.336 27.296 219.4 26.784C219.448 26.432 219.472 26.088 219.472 25.752C219.488 25.416 219.496 25.144 219.496 24.936V24.912ZM234.831 24.672V34.368H231.615V29.64C229.583 30.808 227.767 30.736 226.167 29.424C224.567 28.096 223.895 26.296 224.151 24.024C224.295 22.616 224.855 21.504 225.831 20.688C226.807 19.856 227.871 19.384 229.023 19.272C229.935 19.192 230.807 19.368 231.639 19.8C232.471 20.232 233.087 20.952 233.487 21.96L232.023 22.776C231.879 22.28 231.647 21.832 231.327 21.432C231.023 21.032 230.575 20.84 229.983 20.856C229.295 20.888 228.799 21.168 228.495 21.696C228.191 22.208 227.991 22.776 227.895 23.4C227.863 23.672 227.839 23.936 227.823 24.192C227.807 24.448 227.799 24.688 227.799 24.912C227.799 25.12 227.799 25.344 227.799 25.584C227.815 25.824 227.839 26.064 227.871 26.304C227.935 26.928 228.111 27.504 228.399 28.032C228.703 28.544 229.207 28.784 229.911 28.752C230.647 28.704 231.119 28.424 231.327 27.912C231.535 27.384 231.639 26.808 231.639 26.184C231.639 26.056 231.639 25.92 231.639 25.776C231.639 25.632 231.639 25.496 231.639 25.368C231.623 25.24 231.615 25.12 231.615 25.008C231.615 24.896 231.615 24.792 231.615 24.696L234.831 24.672ZM236.741 15.336C236.741 14.744 236.925 14.304 237.293 14.016C237.677 13.728 238.085 13.592 238.517 13.608C239.045 13.624 239.509 13.824 239.909 14.208C240.309 14.592 240.413 15.128 240.221 15.816C240.109 16.264 239.885 16.592 239.549 16.8C239.229 17.008 238.885 17.104 238.517 17.088C238.069 17.088 237.661 16.944 237.293 16.656C236.925 16.352 236.741 15.92 236.741 15.36V15.336ZM236.813 30V19.608H240.197V30H236.813ZM245.033 30C244.201 30 243.625 29.808 243.305 29.424C242.985 29.024 242.825 28.432 242.825 27.648V21.984C242.825 21.2 242.985 20.616 243.305 20.232C243.625 19.832 244.201 19.632 245.033 19.632L249.857 19.608V21.168H247.289C247.033 21.184 246.801 21.24 246.593 21.336C246.401 21.416 246.289 21.6 246.257 21.888C246.241 22 246.225 22.12 246.209 22.248C246.209 22.376 246.209 22.496 246.209 22.608C246.193 22.768 246.185 22.928 246.185 23.088C246.201 23.232 246.209 23.376 246.209 23.52C246.209 23.616 246.209 23.712 246.209 23.808C246.209 23.888 246.209 23.968 246.209 24.048L249.473 24.024V25.584H246.209C246.209 25.68 246.209 25.784 246.209 25.896C246.209 25.992 246.201 26.088 246.185 26.184C246.185 26.28 246.185 26.384 246.185 26.496C246.185 26.592 246.185 26.696 246.185 26.808C246.185 27.032 246.193 27.256 246.209 27.48C246.225 27.688 246.265 27.88 246.329 28.056C246.377 28.184 246.457 28.28 246.569 28.344C246.697 28.392 246.825 28.424 246.953 28.44C247.017 28.456 247.073 28.464 247.121 28.464C247.185 28.464 247.241 28.464 247.289 28.464L250.025 28.44V30H245.033ZM251.853 30V28.44H254.613C254.661 28.456 254.709 28.464 254.757 28.464C254.821 28.464 254.885 28.464 254.949 28.464C255.301 28.432 255.621 28.344 255.909 28.2C256.197 28.056 256.349 27.76 256.365 27.312C256.365 27.088 256.309 26.896 256.197 26.736C256.101 26.576 255.941 26.456 255.717 26.376C255.509 26.28 255.285 26.2 255.045 26.136C254.821 26.056 254.597 25.984 254.373 25.92C254.357 25.904 254.341 25.896 254.325 25.896C254.309 25.896 254.301 25.896 254.301 25.896C254.077 25.832 253.861 25.768 253.653 25.704C253.445 25.624 253.237 25.544 253.029 25.464C252.389 25.208 251.933 24.792 251.661 24.216C251.405 23.64 251.325 23.04 251.421 22.416C251.421 22.336 251.429 22.264 251.445 22.2C251.461 22.136 251.477 22.072 251.493 22.008C251.717 21.16 252.173 20.568 252.861 20.232C253.549 19.896 254.277 19.704 255.045 19.656C255.125 19.64 255.205 19.632 255.285 19.632C255.381 19.632 255.469 19.632 255.549 19.632L258.261 19.608V21.168C258.181 21.184 258.085 21.192 257.973 21.192C257.861 21.176 257.733 21.168 257.589 21.168C257.445 21.152 257.285 21.144 257.109 21.144C256.933 21.128 256.749 21.12 256.557 21.12C256.109 21.12 255.693 21.176 255.309 21.288C254.925 21.4 254.717 21.624 254.685 21.96C254.669 22.248 254.821 22.488 255.141 22.68C255.461 22.856 255.821 23.008 256.221 23.136C256.461 23.216 256.693 23.288 256.917 23.352C257.157 23.416 257.349 23.472 257.493 23.52C258.149 23.776 258.637 24.2 258.957 24.792C259.277 25.384 259.413 26.008 259.365 26.664C259.317 27.496 258.957 28.264 258.285 28.968C257.613 29.656 256.621 30 255.309 30H251.853Z" fill="black"/>
</svg>
