<svg width="20" height="20" viewBox="0 0 20 20" fill="none" xmlns="http://www.w3.org/2000/svg">
<path fill-rule="evenodd" clip-rule="evenodd" d="M10.7747 0C12.1839 0.00167284 12.7914 0.00888591 13.3544 0.0278998L13.4666 0.0318618C13.6721 0.0394207 13.8784 0.0486223 14.1229 0.0597752C15.1873 0.108323 15.9142 0.277388 16.5503 0.524614C17.2079 0.780136 17.7656 1.12208 18.3216 1.67802C18.8775 2.234 19.2195 2.79168 19.475 3.44929C19.7222 4.08537 19.8913 4.81232 19.9398 5.87673C19.951 6.12116 19.9602 6.32747 19.9677 6.53297L19.9717 6.6452C19.9907 7.20822 19.9979 7.81573 19.9996 9.22491L20 9.83314L20 9.99982C20 10.0564 20 10.1119 20 10.1665L19.9996 10.7747C19.9979 12.1839 19.9907 12.7914 19.9717 13.3544L19.9677 13.4666C19.9602 13.6721 19.951 13.8784 19.9398 14.1229C19.8913 15.1873 19.7222 15.9142 19.475 16.5503C19.2195 17.2079 18.8775 17.7656 18.3216 18.3216C17.7656 18.8775 17.2079 19.2195 16.5503 19.475C15.9142 19.7222 15.1873 19.8913 14.1229 19.9398C13.8784 19.951 13.6721 19.9602 13.4666 19.9677L13.3544 19.9717C12.7914 19.9907 12.1839 19.9979 10.7747 19.9996L10.1665 20L9.99982 20C9.94324 20 9.88769 20 9.83314 20L9.22491 19.9996C7.81573 19.9979 7.20822 19.9907 6.6452 19.9717L6.53297 19.9677C6.32747 19.9602 6.12116 19.951 5.87673 19.9398C4.81232 19.8913 4.08537 19.7222 3.44929 19.475C2.79168 19.2195 2.234 18.8775 1.67802 18.3216C1.12208 17.7656 0.780136 17.2079 0.524614 16.5503C0.277388 15.9142 0.108323 15.1873 0.0597752 14.1229C0.0486223 13.8784 0.0394207 13.6721 0.0318618 13.4666L0.0278998 13.3544C0.00888591 12.7914 0.00167284 12.1839 0 10.7747V9.22491C0.00167284 7.81573 0.00888591 7.20822 0.0278998 6.6452L0.0318618 6.53297C0.0394207 6.32747 0.0486223 6.12116 0.0597752 5.87673C0.108323 4.81232 0.277388 4.08537 0.524614 3.44929C0.780136 2.79168 1.12208 2.234 1.67802 1.67802C2.234 1.12208 2.79168 0.780136 3.44929 0.524614C4.08537 0.277388 4.81232 0.108323 5.87673 0.0597752C6.12116 0.0486223 6.32747 0.0394207 6.53297 0.0318618L6.6452 0.0278998C7.20822 0.00888591 7.81573 0.00167284 9.22491 0H10.7747ZM10.6323 1.80167H9.36731C7.90439 1.80291 7.29327 1.80926 6.72986 1.82794L6.61757 1.83184C6.59889 1.83252 6.58019 1.83321 6.56146 1.83392L6.4484 1.83834C6.29644 1.84446 6.13834 1.85156 5.95886 1.85974C4.98385 1.9042 4.45435 2.06712 4.10197 2.20407C3.63518 2.38548 3.30205 2.60218 2.95214 2.95214C2.60218 3.30205 2.38548 3.63518 2.20407 4.10197C2.06712 4.45435 1.9042 4.98385 1.85974 5.95886C1.85156 6.13834 1.84446 6.29644 1.83834 6.4484L1.83392 6.56146C1.83321 6.58019 1.83252 6.59889 1.83184 6.61757L1.82794 6.72986C1.80926 7.29327 1.80291 7.90439 1.80167 9.36731V10.6323C1.80291 12.0952 1.80926 12.7063 1.82794 13.2697L1.83184 13.382C1.83252 13.4007 1.83321 13.4194 1.83392 13.4381L1.83834 13.5512C1.84446 13.7032 1.85156 13.8613 1.85974 14.0407C1.9042 15.0157 2.06712 15.5453 2.20407 15.8976C2.38548 16.3644 2.60222 16.6975 2.95214 17.0475C3.30205 17.3974 3.63518 17.6141 4.10197 17.7955C4.45435 17.9325 4.98385 18.0954 5.95886 18.1399C6.16076 18.1491 6.33559 18.1569 6.50507 18.1635L6.72978 18.1717C7.29314 18.1903 7.90424 18.1967 9.36727 18.1979H10.6324C12.0954 18.1967 12.7065 18.1903 13.2698 18.1717L13.4945 18.1635C13.664 18.1569 13.8388 18.1491 14.0407 18.1399C15.0157 18.0954 15.5453 17.9325 15.8976 17.7955C16.3644 17.6141 16.6975 17.3974 17.0475 17.0475C17.3974 16.6975 17.6141 16.3644 17.7955 15.8976C17.9325 15.5453 18.0954 15.0157 18.1399 14.0407C18.148 13.8613 18.1551 13.7032 18.1613 13.5512L18.1657 13.4381C18.1664 13.4194 18.1671 13.4007 18.1678 13.382L18.1717 13.2697C18.1903 12.7063 18.1967 12.0952 18.1979 10.6323V9.36731C18.1967 7.90439 18.1903 7.29327 18.1717 6.72986L18.1678 6.61757C18.1671 6.59889 18.1664 6.58019 18.1657 6.56146L18.1613 6.4484C18.1551 6.29644 18.148 6.13834 18.1399 5.95886C18.0954 4.98385 17.9325 4.45435 17.7955 4.10197C17.6141 3.63518 17.3974 3.30205 17.0475 2.95214C16.6975 2.60218 16.3644 2.38548 15.8976 2.20407C15.5453 2.06712 15.0157 1.9042 14.0407 1.85974C13.8613 1.85156 13.7032 1.84446 13.5512 1.83834L13.4381 1.83392C13.4194 1.83321 13.4007 1.83252 13.382 1.83184L13.2697 1.82794C12.7063 1.80926 12.0952 1.80291 10.6323 1.80167ZM9.99982 4.86456C12.8359 4.86456 15.135 7.16367 15.135 9.99982C15.135 12.8359 12.8359 15.135 9.99982 15.135C7.16367 15.135 4.86456 12.8359 4.86456 9.99982C4.86456 7.16367 7.16367 4.86456 9.99982 4.86456ZM9.99982 6.6664C8.1588 6.6664 6.6664 8.1588 6.6664 9.99982C6.6664 11.8408 8.1588 13.3332 9.99982 13.3332C11.8408 13.3332 13.3332 11.8408 13.3332 9.99982C13.3332 8.1588 11.8408 6.6664 9.99982 6.6664ZM15.3379 3.46163C16.0007 3.46163 16.538 3.99891 16.538 4.66168C16.538 5.32444 16.0007 5.86168 15.3379 5.86168C14.6752 5.86168 14.1379 5.32444 14.1379 4.66168C14.1379 3.99891 14.6752 3.46163 15.3379 3.46163Z" fill="#C4C4C4"/>
</svg>
