<svg width="366" height="346" viewBox="0 0 366 346" fill="none" xmlns="http://www.w3.org/2000/svg">
<path d="M342.665 148.524C342.665 148.524 293.203 27.8062 202.781 4.54367C112.358 -18.7188 74.4119 52.4598 60.5781 101.922C46.7442 151.383 -4.34056 216.688 0.296486 261.668C4.70168 304.329 42.1072 324.577 77.0396 333.233C121.478 344.207 172.022 345.057 216.615 335.86C227.196 333.634 237.645 330.822 247.915 327.437C268.859 320.558 289.493 315.303 310.669 309.584C351.089 298.841 367.087 255.485 362.527 213.983C359.899 190.644 351.398 169.777 342.665 148.524Z" fill="#00BBB8"/>
<path opacity="0.7" d="M342.665 148.524C342.665 148.524 293.203 27.8062 202.781 4.54367C112.358 -18.7188 74.4119 52.4598 60.5781 101.922C46.7442 151.383 -4.34056 216.688 0.296486 261.668C4.70168 304.329 42.1072 324.577 77.0396 333.233C121.478 344.207 172.022 345.057 216.615 335.86C227.196 333.634 237.645 330.822 247.915 327.437C268.859 320.558 289.493 315.303 310.669 309.584C351.089 298.841 367.087 255.485 362.527 213.983C359.899 190.644 351.398 169.777 342.665 148.524Z" fill="white"/>
<path d="M315.383 16.3682H172.021V214.865H315.383V16.3682Z" stroke="#1A2E35" stroke-linecap="round" stroke-linejoin="round"/>
<path d="M243.741 16.5227V215.529" stroke="#1A2E35" stroke-linecap="round" stroke-linejoin="round"/>
<path d="M315.538 116.065H171.944" stroke="#1A2E35" stroke-linecap="round" stroke-linejoin="round"/>
<path d="M315.538 66.2163H171.944" stroke="#1A2E35" stroke-linecap="round" stroke-linejoin="round"/>
<path d="M315.538 165.913H171.944" stroke="#1A2E35" stroke-linecap="round" stroke-linejoin="round"/>
<path d="M289.416 89.1697L275.428 102.617" stroke="#1A2E35" stroke-linecap="round" stroke-linejoin="round"/>
<path d="M310.205 69.2305L293.512 85.2283" stroke="#1A2E35" stroke-linecap="round" stroke-linejoin="round"/>
<path d="M274.423 96.2026L270.018 100.453" stroke="#1A2E35" stroke-linecap="round" stroke-linejoin="round"/>
<path d="M293.512 77.8862L277.437 93.2658" stroke="#1A2E35" stroke-linecap="round" stroke-linejoin="round"/>
<path d="M211.901 43.7267L197.912 57.1741" stroke="#1A2E35" stroke-linecap="round" stroke-linejoin="round"/>
<path d="M232.689 23.7874L215.996 39.7852" stroke="#1A2E35" stroke-linecap="round" stroke-linejoin="round"/>
<path d="M196.907 50.7595L192.425 55.0101" stroke="#1A2E35" stroke-linecap="round" stroke-linejoin="round"/>
<path d="M215.919 32.4432L199.921 47.8228" stroke="#1A2E35" stroke-linecap="round" stroke-linejoin="round"/>
<path d="M286.093 142.032L272.104 155.402" stroke="#1A2E35" stroke-linecap="round" stroke-linejoin="round"/>
<path d="M306.883 122.015L290.112 138.09" stroke="#1A2E35" stroke-linecap="round" stroke-linejoin="round"/>
<path d="M271.1 149.065L266.617 153.315" stroke="#1A2E35" stroke-linecap="round" stroke-linejoin="round"/>
<path d="M290.112 130.671L274.114 146.051" stroke="#1A2E35" stroke-linecap="round" stroke-linejoin="round"/>
<path d="M292.353 196.131L291.735 191.03C290.956 191.056 290.186 190.858 289.515 190.461C288.844 190.064 288.301 189.484 287.948 188.789C287.33 187.32 286.634 184.384 287.639 182.993C287.905 182.532 288.301 182.16 288.777 181.923C289.253 181.686 289.789 181.595 290.317 181.661C290.845 181.727 291.342 181.947 291.745 182.294C292.149 182.641 292.441 183.099 292.585 183.611C293.281 185.698 293.667 186.625 293.667 186.625C293.435 183.611 291.194 171.323 298.072 173.178C300.854 173.95 301.627 176.655 301.782 178.819C301.936 180.983 301.55 186.47 301.55 186.47C301.55 186.47 303.405 186.625 303.559 183.611C303.714 180.597 306.651 179.128 307.965 180.597C309.278 182.065 309.897 187.166 308.428 188.789C306.96 190.412 302.477 191.03 302.477 191.03L302.787 196.208L292.353 196.131Z" fill="#00BBB8" stroke="#1A2E35" stroke-linecap="round" stroke-linejoin="round"/>
<path d="M296.294 174.028C296.294 174.028 295.212 175.11 295.521 178.587C295.831 182.065 295.83 188.48 295.83 188.48" stroke="#1A2E35" stroke-width="0.5" stroke-linecap="round" stroke-linejoin="round"/>
<path d="M299.309 176.423C299.309 176.423 300.7 176.192 300.236 179.437C300.024 182.112 300.024 184.8 300.236 187.475" stroke="#1A2E35" stroke-width="0.5" stroke-linecap="round" stroke-linejoin="round"/>
<path d="M289.571 183.302C289.571 183.302 288.257 183.611 288.875 185.775C289.494 187.939 289.726 189.562 291.117 189.871C291.776 190.032 292.449 190.136 293.126 190.18L293.358 192.499" stroke="#1A2E35" stroke-width="0.5" stroke-linecap="round" stroke-linejoin="round"/>
<path d="M302.632 189.794C302.632 189.794 306.882 189.871 307.733 188.093C308.583 186.316 308.042 183.379 308.042 183.379" stroke="#1A2E35" stroke-width="0.5" stroke-linecap="round" stroke-linejoin="round"/>
<path d="M291.349 183.843C291.349 183.945 291.308 184.043 291.236 184.116C291.163 184.188 291.065 184.229 290.963 184.229C290.808 184.229 290.653 183.997 290.653 183.843C290.652 183.752 290.682 183.664 290.738 183.593C290.794 183.523 290.874 183.474 290.963 183.456C291.065 183.456 291.163 183.497 291.236 183.569C291.308 183.642 291.349 183.74 291.349 183.843Z" stroke="#1A2E35" stroke-width="0.5" stroke-linecap="round" stroke-linejoin="round"/>
<path d="M292.199 188.402C292.412 188.402 292.585 188.229 292.585 188.016C292.585 187.803 292.412 187.63 292.199 187.63C291.986 187.63 291.812 187.803 291.812 188.016C291.812 188.229 291.986 188.402 292.199 188.402Z" stroke="#1A2E35" stroke-width="0.5" stroke-linecap="round" stroke-linejoin="round"/>
<path d="M290.421 186.702C290.634 186.702 290.807 186.529 290.807 186.316C290.807 186.102 290.634 185.929 290.421 185.929C290.207 185.929 290.034 186.102 290.034 186.316C290.034 186.529 290.207 186.702 290.421 186.702Z" stroke="#1A2E35" stroke-width="0.5" stroke-linecap="round" stroke-linejoin="round"/>
<path d="M297.762 182.374C297.976 182.374 298.149 182.201 298.149 181.988C298.149 181.774 297.976 181.601 297.762 181.601C297.549 181.601 297.376 181.774 297.376 181.988C297.376 182.201 297.549 182.374 297.762 182.374Z" stroke="#1A2E35" stroke-width="0.5" stroke-linecap="round" stroke-linejoin="round"/>
<path d="M294.363 178.896C294.576 178.896 294.749 178.723 294.749 178.51C294.749 178.297 294.576 178.124 294.363 178.124C294.15 178.124 293.977 178.297 293.977 178.51C293.977 178.723 294.15 178.896 294.363 178.896Z" stroke="#1A2E35" stroke-width="0.5" stroke-linecap="round" stroke-linejoin="round"/>
<path d="M299.309 191.107C299.311 191.198 299.281 191.286 299.224 191.357C299.168 191.427 299.088 191.476 299 191.494C298.897 191.494 298.799 191.453 298.726 191.381C298.654 191.308 298.613 191.21 298.613 191.107C298.631 191.019 298.68 190.939 298.751 190.883C298.821 190.826 298.909 190.796 299 190.798C299.082 190.798 299.16 190.831 299.218 190.889C299.276 190.947 299.309 191.025 299.309 191.107V191.107Z" stroke="#1A2E35" stroke-width="0.5" stroke-linecap="round" stroke-linejoin="round"/>
<path d="M295.366 190.644C295.366 190.726 295.334 190.804 295.276 190.862C295.218 190.92 295.139 190.953 295.057 190.953C294.967 190.955 294.879 190.925 294.808 190.868C294.738 190.812 294.689 190.732 294.671 190.644C294.671 190.541 294.712 190.443 294.784 190.371C294.857 190.298 294.955 190.257 295.057 190.257C295.146 190.275 295.225 190.324 295.282 190.395C295.338 190.465 295.368 190.553 295.366 190.644V190.644Z" stroke="#1A2E35" stroke-width="0.5" stroke-linecap="round" stroke-linejoin="round"/>
<path d="M298.382 175.573C298.595 175.573 298.768 175.4 298.768 175.187C298.768 174.973 298.595 174.8 298.382 174.8C298.168 174.8 297.995 174.973 297.995 175.187C297.995 175.4 298.168 175.573 298.382 175.573Z" stroke="#1A2E35" stroke-width="0.5" stroke-linecap="round" stroke-linejoin="round"/>
<path d="M306.11 182.065C306.11 182.168 306.069 182.266 305.997 182.338C305.924 182.411 305.826 182.452 305.723 182.452C305.635 182.434 305.555 182.385 305.499 182.314C305.442 182.244 305.412 182.156 305.414 182.065C305.414 181.911 305.569 181.679 305.723 181.679C305.826 181.679 305.924 181.719 305.997 181.792C306.069 181.864 306.11 181.963 306.11 182.065Z" stroke="#1A2E35" stroke-width="0.5" stroke-linecap="round" stroke-linejoin="round"/>
<path d="M304.796 187.398C305.009 187.398 305.182 187.225 305.182 187.011C305.182 186.798 305.009 186.625 304.796 186.625C304.582 186.625 304.409 186.798 304.409 187.011C304.409 187.225 304.582 187.398 304.796 187.398Z" stroke="#1A2E35" stroke-width="0.5" stroke-linecap="round" stroke-linejoin="round"/>
<path d="M298.382 187.243C298.595 187.243 298.768 187.07 298.768 186.857C298.768 186.643 298.595 186.47 298.382 186.47C298.168 186.47 297.995 186.643 297.995 186.857C297.995 187.07 298.168 187.243 298.382 187.243Z" stroke="#1A2E35" stroke-width="0.5" stroke-linecap="round" stroke-linejoin="round"/>
<path d="M306.651 192.808H288.025L289.88 208.11H304.796L306.651 192.808Z" fill="white" stroke="#1A2E35" stroke-linecap="round" stroke-linejoin="round"/>
<path d="M29.3555 164.676L43.653 301.237" stroke="#1A2E35" stroke-width="2" stroke-miterlimit="10"/>
<path d="M41.3346 275.115L34.8428 268.314" stroke="#1A2E35" stroke-width="2" stroke-miterlimit="10"/>
<path d="M36.8516 270.324C36.8311 269.282 36.5937 268.256 36.1546 267.311C35.7155 266.366 35.0843 265.524 34.3012 264.836C32.6009 263.368 23.8678 259.736 23.0177 262.75C22.1676 265.764 31.0553 272.719 36.8516 270.324Z" fill="#00BBB8" stroke="#1A2E35" stroke-miterlimit="10"/>
<path d="M36.8516 270.324L28.5049 265.146" stroke="#1A2E35" stroke-width="0.5" stroke-miterlimit="10"/>
<path d="M42.9577 290.649L36.4658 283.848" stroke="#1A2E35" stroke-width="2" stroke-miterlimit="10"/>
<path d="M38.4756 285.858C38.4551 284.816 38.2177 283.79 37.7786 282.845C37.3395 281.901 36.7083 281.058 35.9252 280.37C34.225 278.902 25.4919 275.27 24.6417 278.284C23.7916 281.298 32.6793 288.253 38.4756 285.858Z" fill="#00BBB8" stroke="#1A2E35" stroke-miterlimit="10"/>
<path d="M38.4746 285.858L30.1279 280.68" stroke="#1A2E35" stroke-width="0.5" stroke-miterlimit="10"/>
<path d="M37.3923 237.246L30.9004 230.368" stroke="#1A2E35" stroke-width="2" stroke-miterlimit="10"/>
<path d="M32.9102 232.454C32.8848 231.406 32.6376 230.375 32.1846 229.429C31.7317 228.483 31.0834 227.644 30.2825 226.967C28.6595 225.499 19.9264 221.789 19.0763 224.881C18.2262 227.972 27.1139 234.773 32.9102 232.454Z" fill="#00BBB8" stroke="#1A2E35" stroke-miterlimit="10"/>
<path d="M32.9102 232.454L24.5635 227.276" stroke="#1A2E35" stroke-width="0.5" stroke-miterlimit="10"/>
<path d="M39.0163 252.78L32.5244 245.902" stroke="#1A2E35" stroke-width="2" stroke-miterlimit="10"/>
<path d="M34.5332 247.988C34.5079 246.94 34.2606 245.909 33.8077 244.963C33.3547 244.017 32.7065 243.178 31.9055 242.501C30.2826 241.033 21.5495 237.323 20.6994 240.415C19.8492 243.506 28.7369 250.307 34.5332 247.988Z" fill="#00BBB8" stroke="#1A2E35" stroke-miterlimit="10"/>
<path d="M34.5332 247.988L26.1865 242.81" stroke="#1A2E35" stroke-width="0.5" stroke-miterlimit="10"/>
<path d="M34.7653 211.974L28.2734 205.173" stroke="#1A2E35" stroke-width="2" stroke-miterlimit="10"/>
<path d="M30.2822 207.182C30.2569 206.134 30.0096 205.103 29.5567 204.157C29.1038 203.211 28.4555 202.372 27.6546 201.695C26.0316 200.227 17.2985 196.595 16.4484 199.609C15.5983 202.623 24.4859 209.578 30.2822 207.182Z" fill="#00BBB8" stroke="#1A2E35" stroke-miterlimit="10"/>
<path d="M30.2832 207.182L21.9365 202.004" stroke="#1A2E35" stroke-width="0.5" stroke-miterlimit="10"/>
<path d="M32.1374 186.625L25.6455 179.824" stroke="#1A2E35" stroke-width="2" stroke-miterlimit="10"/>
<path d="M27.578 181.833C27.5774 180.788 27.3489 179.756 26.9084 178.808C26.4679 177.861 25.8261 177.02 25.0276 176.346C23.4047 174.878 14.6716 171.245 13.8214 174.259C12.9713 177.274 21.859 184.229 27.578 181.833Z" fill="#00BBB8" stroke="#1A2E35" stroke-miterlimit="10"/>
<path d="M27.578 181.833L19.3086 176.655" stroke="#1A2E35" stroke-width="0.5" stroke-miterlimit="10"/>
<path d="M40.2529 265.918L45.1991 257.881" stroke="#1A2E35" stroke-width="2" stroke-miterlimit="10"/>
<path d="M43.6526 260.354C43.4584 259.32 43.4818 258.257 43.7213 257.232C43.9608 256.207 44.4112 255.244 45.0437 254.403C46.3575 252.626 54.1632 247.216 55.6316 250.075C57.1 252.935 49.758 261.436 43.6526 260.354Z" fill="#00BBB8" stroke="#1A2E35" stroke-miterlimit="10"/>
<path d="M43.6523 260.354L51.1489 253.167" stroke="#1A2E35" stroke-width="0.5" stroke-miterlimit="10"/>
<path d="M36.002 225.035L40.8709 216.998" stroke="#1A2E35" stroke-width="2" stroke-miterlimit="10"/>
<path d="M39.4026 219.471C39.2084 218.437 39.2318 217.373 39.4713 216.349C39.7108 215.324 40.1612 214.361 40.7937 213.52C42.1075 211.742 49.9132 206.332 51.3043 209.192C52.6955 212.051 45.508 220.553 39.4026 219.471Z" fill="#00BBB8" stroke="#1A2E35" stroke-miterlimit="10"/>
<path d="M39.4023 219.471L46.8989 212.283" stroke="#1A2E35" stroke-width="0.5" stroke-miterlimit="10"/>
<path d="M34.1465 207.105L39.0154 199.068" stroke="#1A2E35" stroke-width="2" stroke-miterlimit="10"/>
<path d="M37.5475 201.463C37.3289 200.443 37.3403 199.386 37.5809 198.37C37.8215 197.354 38.2853 196.404 38.9387 195.59C40.2525 193.812 47.9809 188.402 49.4493 191.262C50.9177 194.122 43.653 202.623 37.5475 201.463Z" fill="#00BBB8" stroke="#1A2E35" stroke-miterlimit="10"/>
<path d="M37.5479 201.463L45.0444 194.353" stroke="#1A2E35" stroke-width="0.5" stroke-miterlimit="10"/>
<path d="M31.3652 180.751L36.3114 172.714" stroke="#1A2E35" stroke-width="2" stroke-miterlimit="10"/>
<path d="M34.7652 175.11C34.5725 174.088 34.5968 173.037 34.8364 172.025C35.0761 171.013 35.5258 170.063 36.1563 169.236C37.4701 167.458 45.2758 162.049 46.7442 164.908C48.2126 167.768 40.8706 176.269 34.7652 175.11Z" fill="#00BBB8" stroke="#1A2E35" stroke-miterlimit="10"/>
<path d="M34.7646 175.11L42.2612 167.999" stroke="#1A2E35" stroke-width="0.5" stroke-miterlimit="10"/>
<path d="M29.278 163.903C29.0594 162.882 29.0708 161.826 29.3114 160.81C29.552 159.794 30.0158 158.844 30.6691 158.03C31.983 156.252 39.7114 150.842 41.1798 153.702C42.6482 156.561 35.3835 164.985 29.278 163.903Z" fill="#00BBB8" stroke="#1A2E35" stroke-miterlimit="10"/>
<path d="M29.2783 163.903L36.7749 156.793" stroke="#1A2E35" stroke-width="0.5" stroke-miterlimit="10"/>
<path d="M29.6649 164.213C28.6243 164.294 27.578 164.158 26.5932 163.812C25.6084 163.466 24.7067 162.918 23.9459 162.203C22.3229 160.735 17.7631 152.388 20.7772 151.306C23.7913 150.224 31.4424 158.262 29.6649 164.213Z" fill="#00BBB8" stroke="#1A2E35" stroke-miterlimit="10"/>
<path d="M29.6643 164.213L23.4043 156.02" stroke="#1A2E35" stroke-width="0.5" stroke-miterlimit="10"/>
<path d="M66.9927 183.456L52.7725 320.094" stroke="#1A2E35" stroke-width="2" stroke-miterlimit="10"/>
<path d="M55.9413 294.05L50.9951 286.012" stroke="#1A2E35" stroke-width="2" stroke-miterlimit="10"/>
<path d="M52.5409 288.408C52.7336 287.386 52.7093 286.335 52.4697 285.323C52.23 284.311 51.7803 283.361 51.1498 282.534C49.836 280.757 42.0303 275.347 40.5619 278.207C39.0935 281.066 46.4355 289.567 52.5409 288.408Z" fill="#00BBB8" stroke="#1A2E35" stroke-miterlimit="10"/>
<path d="M52.5398 288.408L45.4297 281.607" stroke="#1A2E35" stroke-width="0.5" stroke-miterlimit="10"/>
<path d="M59.8827 256.103L54.9365 248.066" stroke="#1A2E35" stroke-width="2" stroke-miterlimit="10"/>
<path d="M56.4823 250.539C56.6765 249.505 56.6531 248.441 56.4136 247.417C56.1741 246.392 55.7237 245.429 55.0912 244.588C53.7774 242.81 45.9717 237.401 44.5033 240.26C43.0349 243.12 50.3769 251.621 56.4823 250.539Z" fill="#00BBB8" stroke="#1A2E35" stroke-miterlimit="10"/>
<path d="M56.4822 250.539L49.3721 243.738" stroke="#1A2E35" stroke-width="0.5" stroke-miterlimit="10"/>
<path d="M58.2597 271.637L53.3135 263.6" stroke="#1A2E35" stroke-width="2" stroke-miterlimit="10"/>
<path d="M54.8593 266.073C55.0535 265.039 55.0301 263.976 54.7906 262.951C54.5511 261.926 54.1007 260.963 53.4682 260.122C52.1543 258.345 44.3486 252.935 42.8803 255.794C41.4119 258.654 48.7538 267.155 54.8593 266.073Z" fill="#00BBB8" stroke="#1A2E35" stroke-miterlimit="10"/>
<path d="M54.8592 266.073L47.749 259.272" stroke="#1A2E35" stroke-width="0.5" stroke-miterlimit="10"/>
<path d="M62.5097 230.909L57.5635 222.871" stroke="#1A2E35" stroke-width="2" stroke-miterlimit="10"/>
<path d="M59.1099 225.267C59.3026 224.245 59.2784 223.194 59.0387 222.182C58.799 221.17 58.3494 220.22 57.7188 219.393C56.405 217.616 48.5993 212.206 47.1309 215.065C45.6625 217.925 52.9272 226.426 59.1099 225.267Z" fill="#00BBB8" stroke="#1A2E35" stroke-miterlimit="10"/>
<path d="M59.1092 225.267L51.999 218.466" stroke="#1A2E35" stroke-width="0.5" stroke-miterlimit="10"/>
<path d="M65.1376 205.56L60.1914 197.522" stroke="#1A2E35" stroke-width="2" stroke-miterlimit="10"/>
<path d="M61.7369 199.918C61.9296 198.896 61.9053 197.845 61.6657 196.833C61.426 195.821 60.9763 194.871 60.3458 194.044C59.032 192.267 51.2263 186.857 49.7579 189.716C48.2895 192.576 55.5542 201.077 61.7369 199.918Z" fill="#00BBB8" stroke="#1A2E35" stroke-miterlimit="10"/>
<path d="M61.7371 199.918L54.627 193.117" stroke="#1A2E35" stroke-width="0.5" stroke-miterlimit="10"/>
<path d="M56.791 284.776L63.2056 277.975" stroke="#1A2E35" stroke-width="2" stroke-miterlimit="10"/>
<path d="M61.2735 279.984C61.2695 278.949 61.4963 277.927 61.9375 276.991C62.3787 276.055 63.0231 275.23 63.8239 274.574C65.5241 273.029 74.1799 269.396 75.0301 272.488C75.8802 275.579 66.9925 282.38 61.2735 279.984Z" fill="#00BBB8" stroke="#1A2E35" stroke-miterlimit="10"/>
<path d="M61.2734 279.984L70.0838 274.574" stroke="#1A2E35" stroke-width="0.5" stroke-miterlimit="10"/>
<path d="M61.042 243.892L67.4566 237.091" stroke="#1A2E35" stroke-width="2" stroke-miterlimit="10"/>
<path d="M65.5235 239.101C65.5195 238.066 65.7463 237.044 66.1875 236.108C66.6287 235.172 67.2731 234.346 68.0739 233.691C69.6968 232.145 78.4299 228.513 79.2801 231.604C80.1302 234.696 71.2425 241.497 65.5235 239.101Z" fill="#00BBB8" stroke="#1A2E35" stroke-miterlimit="10"/>
<path d="M65.5234 239.101L74.3338 233.691" stroke="#1A2E35" stroke-width="0.5" stroke-miterlimit="10"/>
<path d="M62.8965 225.963L69.3111 219.162" stroke="#1A2E35" stroke-width="2" stroke-miterlimit="10"/>
<path d="M67.3789 221.171C67.3795 220.126 67.6081 219.094 68.0485 218.146C68.489 217.198 69.1308 216.358 69.9293 215.684C71.6295 214.215 80.3626 210.506 81.1355 213.597C81.9083 216.688 73.0979 223.489 67.3789 221.171Z" fill="#00BBB8" stroke="#1A2E35" stroke-miterlimit="10"/>
<path d="M67.3789 221.171L76.1893 215.684" stroke="#1A2E35" stroke-width="0.5" stroke-miterlimit="10"/>
<path d="M65.6016 199.609L72.0934 192.808" stroke="#1A2E35" stroke-width="2" stroke-miterlimit="10"/>
<path d="M70.084 194.817C70.1045 193.775 70.3418 192.749 70.781 191.805C71.2201 190.86 71.8513 190.017 72.6344 189.33C74.3346 187.861 83.0677 184.229 83.9178 187.243C84.768 190.257 75.8803 197.213 70.084 194.817Z" fill="#00BBB8" stroke="#1A2E35" stroke-miterlimit="10"/>
<path d="M70.084 194.817L78.8944 189.407" stroke="#1A2E35" stroke-width="0.5" stroke-miterlimit="10"/>
<path d="M66.9922 182.683C67.0175 181.635 67.2648 180.604 67.7177 179.658C68.1706 178.712 68.8189 177.873 69.6198 177.196C71.2428 175.728 79.9759 172.095 80.826 175.11C81.6762 178.124 72.7885 185.079 66.9922 182.683Z" fill="#00BBB8" stroke="#1A2E35" stroke-miterlimit="10"/>
<path d="M66.9922 182.683L75.8026 177.274" stroke="#1A2E35" stroke-width="0.5" stroke-miterlimit="10"/>
<path d="M67.3797 183.07C66.3428 182.966 65.3415 182.635 64.4467 182.1C63.5519 181.566 62.7854 180.842 62.2016 179.978C60.8878 178.201 58.1829 169.081 61.2742 168.618C64.3656 168.154 70.3165 177.66 67.3797 183.07Z" fill="#00BBB8" stroke="#1A2E35" stroke-miterlimit="10"/>
<path d="M67.379 183.07L62.8965 173.796" stroke="#1A2E35" stroke-width="0.5" stroke-miterlimit="10"/>
<path d="M50.7627 127.889V300.619" stroke="#1A2E35" stroke-width="2" stroke-miterlimit="10"/>
<path d="M50.8401 274.651L45.1211 267.155" stroke="#1A2E35" stroke-width="2" stroke-miterlimit="10"/>
<path d="M46.8988 269.396C46.9853 268.355 46.851 267.308 46.5048 266.322C46.1585 265.337 45.608 264.435 44.8894 263.677C43.421 262.054 35.0743 257.494 33.9923 260.431C32.9103 263.368 40.9479 271.174 46.8988 269.396Z" fill="#00BBB8" stroke="#1A2E35" stroke-miterlimit="10"/>
<path d="M46.8983 269.396L39.1699 263.368" stroke="#1A2E35" stroke-width="0.5" stroke-miterlimit="10"/>
<path d="M50.8401 242.192L45.1211 234.696" stroke="#1A2E35" stroke-width="2" stroke-miterlimit="10"/>
<path d="M46.8988 236.937C46.9853 235.896 46.851 234.848 46.5048 233.863C46.1585 232.877 45.608 231.976 44.8894 231.218C43.421 229.595 35.0743 225.035 33.9923 227.972C32.9103 230.909 40.9479 238.637 46.8988 236.937Z" fill="#00BBB8" stroke="#1A2E35" stroke-miterlimit="10"/>
<path d="M46.8983 236.937L39.1699 230.909" stroke="#1A2E35" stroke-width="0.5" stroke-miterlimit="10"/>
<path d="M50.8401 204.014L45.1211 196.595" stroke="#1A2E35" stroke-width="2" stroke-miterlimit="10"/>
<path d="M46.8988 198.836C46.9853 197.795 46.851 196.747 46.5048 195.762C46.1585 194.776 45.608 193.875 44.8894 193.117C43.421 191.494 35.0743 186.934 33.9923 189.871C32.9103 192.808 40.9479 200.536 46.8988 198.836Z" fill="#00BBB8" stroke="#1A2E35" stroke-miterlimit="10"/>
<path d="M46.8983 198.836L39.1699 192.808" stroke="#1A2E35" stroke-width="0.5" stroke-miterlimit="10"/>
<path d="M50.8401 178.665L45.1211 171.245" stroke="#1A2E35" stroke-width="2" stroke-miterlimit="10"/>
<path d="M46.8988 173.487C46.9853 172.446 46.851 171.398 46.5048 170.413C46.1585 169.427 45.608 168.526 44.8894 167.768C43.421 166.067 35.0743 161.508 33.9923 164.522C32.9103 167.536 40.9479 175.187 46.8988 173.487Z" fill="#00BBB8" stroke="#1A2E35" stroke-miterlimit="10"/>
<path d="M46.8983 173.487L39.1699 167.458" stroke="#1A2E35" stroke-width="0.5" stroke-miterlimit="10"/>
<path d="M50.8401 153.161L45.1211 145.742" stroke="#1A2E35" stroke-width="2" stroke-miterlimit="10"/>
<path d="M46.8988 147.983C46.9853 146.942 46.851 145.894 46.5048 144.909C46.1585 143.923 45.608 143.022 44.8894 142.264C43.421 140.641 35.0743 136.081 33.9923 139.018C32.9103 141.955 40.9479 149.683 46.8988 147.983Z" fill="#00BBB8" stroke="#1A2E35" stroke-miterlimit="10"/>
<path d="M46.8983 147.983L39.1699 141.955" stroke="#1A2E35" stroke-width="0.5" stroke-miterlimit="10"/>
<path d="M50.7627 284.544L56.4817 277.047" stroke="#1A2E35" stroke-width="2" stroke-miterlimit="10"/>
<path d="M54.7046 279.289C54.6229 278.248 54.7595 277.202 55.1055 276.217C55.4515 275.232 55.9994 274.33 56.714 273.569C58.1824 271.947 66.5291 267.387 67.6884 270.324C68.8476 273.26 60.6555 281.066 54.7046 279.289Z" fill="#00BBB8" stroke="#1A2E35" stroke-miterlimit="10"/>
<path d="M54.7041 279.289L62.8962 272.951" stroke="#1A2E35" stroke-width="0.5" stroke-miterlimit="10"/>
<path d="M50.7627 232.918L56.4817 225.422" stroke="#1A2E35" stroke-width="2" stroke-miterlimit="10"/>
<path d="M54.7046 227.663C54.6229 226.622 54.7595 225.576 55.1055 224.591C55.4515 223.606 55.9994 222.705 56.714 221.944C58.1824 220.321 66.5291 215.761 67.6884 218.698C68.8476 221.635 60.6555 229.44 54.7046 227.663Z" fill="#00BBB8" stroke="#1A2E35" stroke-miterlimit="10"/>
<path d="M54.7041 227.663L62.8962 221.325" stroke="#1A2E35" stroke-width="0.5" stroke-miterlimit="10"/>
<path d="M50.7627 207.414L56.4817 199.995" stroke="#1A2E35" stroke-width="2" stroke-miterlimit="10"/>
<path d="M54.7052 202.236C54.6187 201.195 54.7529 200.148 55.0992 199.162C55.4454 198.177 55.9959 197.275 56.7146 196.517C58.183 194.817 66.5297 190.257 67.6889 193.271C68.8482 196.285 60.6561 203.937 54.7052 202.236Z" fill="#00BBB8" stroke="#1A2E35" stroke-miterlimit="10"/>
<path d="M54.7041 202.236L62.8962 195.899" stroke="#1A2E35" stroke-width="0.5" stroke-miterlimit="10"/>
<path d="M50.7627 173.718L56.4817 166.299" stroke="#1A2E35" stroke-width="2" stroke-miterlimit="10"/>
<path d="M54.7052 168.541C54.6187 167.5 54.7529 166.452 55.0992 165.466C55.4454 164.481 55.9959 163.58 56.7146 162.821C58.183 161.121 66.5297 156.561 67.6889 159.576C68.8482 162.59 60.6561 170.241 54.7052 168.541Z" fill="#00BBB8" stroke="#1A2E35" stroke-miterlimit="10"/>
<path d="M54.7041 168.54L62.8962 162.203" stroke="#1A2E35" stroke-width="0.5" stroke-miterlimit="10"/>
<path d="M50.7627 147.287L56.4817 139.791" stroke="#1A2E35" stroke-width="2" stroke-miterlimit="10"/>
<path d="M54.7052 142.032C54.6187 140.991 54.7529 139.943 55.0992 138.958C55.4454 137.972 55.9959 137.071 56.7146 136.313C58.183 134.69 66.5297 130.13 67.6889 133.067C68.8482 136.004 60.6561 143.81 54.7052 142.032Z" fill="#00BBB8" stroke="#1A2E35" stroke-miterlimit="10"/>
<path d="M54.7041 142.032L62.8962 135.695" stroke="#1A2E35" stroke-width="0.5" stroke-miterlimit="10"/>
<path d="M50.3765 130.285C50.2948 129.244 50.4314 128.198 50.7774 127.213C51.1234 126.228 51.6713 125.327 52.3859 124.566C53.8543 122.943 62.201 118.383 63.3602 121.32C64.5195 124.257 56.4047 132.062 50.3765 130.285Z" fill="#00BBB8" stroke="#1A2E35" stroke-miterlimit="10"/>
<path d="M50.377 130.285L58.5691 123.948" stroke="#1A2E35" stroke-width="0.5" stroke-miterlimit="10"/>
<path d="M50.8402 130.671C49.791 130.651 48.7582 130.406 47.8117 129.953C46.8651 129.499 46.0268 128.848 45.3531 128.044C43.8074 126.421 40.175 117.688 43.2664 116.837C46.3578 115.987 53.1588 124.875 50.8402 130.671Z" fill="#00BBB8" stroke="#1A2E35" stroke-miterlimit="10"/>
<path d="M50.8407 130.671L45.3535 121.861" stroke="#1A2E35" stroke-width="0.5" stroke-miterlimit="10"/>
<path d="M57.8731 345.366H39.5568L37.2383 299.151H60.1144L57.8731 345.366Z" fill="#1A2E35" stroke="#1A2E35" stroke-miterlimit="10"/>
<path d="M223.106 157.643H279.523L266.385 206.023H209.968L223.106 157.643Z" fill="#7E7E7E" stroke="#1A2E35" stroke-linecap="round" stroke-linejoin="round"/>
<path d="M224.729 159.421H276.973L264.762 204.246H212.596L224.729 159.421Z" fill="white" stroke="#1A2E35" stroke-linecap="round" stroke-linejoin="round"/>
<path d="M266.386 203.473H187.324V206.046H266.386V203.473Z" fill="#7E7E7E" stroke="#1A2E35" stroke-linecap="round" stroke-linejoin="round"/>
<path d="M266.385 203.473H230.062V206.046H266.385V203.473Z" fill="#595959" stroke="#1A2E35" stroke-linecap="round" stroke-linejoin="round"/>
<path d="M166.302 210.119H162.052V345.065H166.302V210.119Z" fill="white" stroke="#1A2E35" stroke-linecap="round" stroke-linejoin="round"/>
<path d="M158.342 345.135H161.975L161.975 210.189H158.342L158.342 345.135Z" fill="#A9A9A9" stroke="#1A2E35" stroke-linecap="round" stroke-linejoin="round"/>
<path d="M275.196 280.757H270.945V345.096H275.196V280.757Z" fill="white" stroke="#1A2E35" stroke-linecap="round" stroke-linejoin="round"/>
<path d="M267.236 345.057H270.868V280.718H267.236V345.057Z" fill="#A9A9A9" stroke="#1A2E35" stroke-linecap="round" stroke-linejoin="round"/>
<path d="M320.716 280.757H316.466V345.096H320.716V280.757Z" fill="white" stroke="#1A2E35" stroke-linecap="round" stroke-linejoin="round"/>
<path d="M312.756 345.057H316.389V280.718H312.756V345.057Z" fill="#A9A9A9" stroke="#1A2E35" stroke-linecap="round" stroke-linejoin="round"/>
<path d="M228.748 284.467H270.25V211.495H228.748V284.467Z" fill="#A9A9A9" stroke="#1A2E35" stroke-linecap="round" stroke-linejoin="round"/>
<path d="M324.89 211.433H270.25V284.405H324.89V211.433Z" fill="white" stroke="#1A2E35" stroke-linecap="round" stroke-linejoin="round"/>
<path d="M270.25 211.433H228.826V214.988H270.25H324.89V211.433H270.25Z" fill="#1A2E35" stroke="#1A2E35" stroke-linecap="round" stroke-linejoin="round"/>
<path d="M267.7 215.606H232.304V232.64H267.7V215.606Z" fill="white" stroke="#1A2E35" stroke-linecap="round" stroke-linejoin="round"/>
<path d="M254.716 222.562H245.364V225.777H254.716V222.562Z" fill="#1A2E35"/>
<path d="M267.7 239.101H232.304V256.134H267.7V239.101Z" fill="white" stroke="#1A2E35" stroke-linecap="round" stroke-linejoin="round"/>
<path d="M254.716 245.67H245.364V248.885H254.716V245.67Z" fill="#1A2E35"/>
<path d="M267.7 262.595H232.304V279.629H267.7V262.595Z" fill="white" stroke="#1A2E35" stroke-linecap="round" stroke-linejoin="round"/>
<path d="M254.716 268.855H245.364V272.07H254.716V268.855Z" fill="#1A2E35"/>
<path d="M330.531 208.264H152.546V212.507H330.531V208.264Z" fill="#A9A9A9" stroke="#1A2E35" stroke-linecap="round" stroke-linejoin="round"/>
<path d="M330.531 208.264H276.818V212.507H330.531V208.264Z" fill="white" stroke="#1A2E35" stroke-linecap="round" stroke-linejoin="round"/>
<path d="M167.616 251.466C167.616 251.466 172.949 255.099 180.832 277.82C183.382 285.317 198.066 326.045 198.839 328.828C199.612 331.61 201.157 335.01 203.476 335.01C205.795 335.01 214.296 324.191 213.291 322.954C212.286 321.717 207.34 316.462 207.34 316.462C207.34 316.462 204.481 283.539 203.94 274.265C203.399 264.991 205.563 253.862 200.617 246.366C195.67 238.869 174.108 246.597 174.108 246.597L167.616 251.466Z" fill="white" stroke="#1A2E35" stroke-linecap="round" stroke-linejoin="round"/>
<path d="M209.659 316.462C209.075 316.807 208.599 317.308 208.284 317.909C207.97 318.51 207.831 319.186 207.881 319.863C208.113 322.181 210.432 325.273 210.432 325.273C210.432 325.273 205.563 329.137 203.012 329.369C200.462 329.6 197.603 330.141 197.603 330.914C197.603 331.687 199.612 333.001 200.926 335.783C202.337 338.659 203.965 341.423 205.795 344.053C206.567 345.057 207.108 345.83 209.968 345.057C212.828 344.284 218.933 338.643 222.333 336.324C225.734 334.006 235.704 332.46 237.481 331.146C239.259 329.832 244.978 321.64 242.427 320.095C239.877 318.549 239.027 320.326 235.935 321.099C232.844 321.872 223.879 320.867 218.933 319.863C213.987 318.858 212.518 318.549 212.518 318.549L209.659 316.462Z" fill="#00BBB8" stroke="#1A2E35" stroke-linecap="round" stroke-linejoin="round"/>
<path d="M205.408 343.434L205.795 344.053C206.567 345.057 207.108 345.83 209.968 345.057C212.827 344.284 218.933 338.643 222.333 336.324C225.734 334.006 235.704 332.46 237.481 331.146C239.259 329.832 244.978 321.64 242.427 320.095L241.268 319.554C241.268 319.708 241.345 319.94 241.345 320.095C242.118 323.186 239.568 326.277 237.249 328.596C234.931 330.914 227.202 330.373 218.701 334.778C214.003 337.23 209.551 340.129 205.408 343.434Z" fill="white" stroke="#1A2E35" stroke-linecap="round" stroke-linejoin="round"/>
<path d="M205.176 290.727C204.635 283.926 204.094 277.588 203.94 274.265C203.399 264.991 205.563 253.862 200.617 246.366C195.67 238.869 174.108 246.597 174.108 246.597L167.616 251.466C167.616 251.466 172.949 255.099 180.832 277.82C181.759 280.68 184.541 288.408 187.633 296.987L205.176 290.727Z" fill="#1A2E35" stroke="#1A2E35" stroke-linecap="round" stroke-linejoin="round"/>
<path d="M192.579 119.31C193.243 121.088 193.558 122.978 193.507 124.875C193.275 127.503 190.879 128.662 190.647 127.966C190.447 126.793 190.369 125.601 190.415 124.411V123.484C189.844 124.428 189.141 125.287 188.328 126.034C186.706 127.734 185.778 127.271 185.083 127.271C184.387 127.271 184.155 124.875 185.314 123.252C186.474 121.629 190.183 117.919 192.579 119.31Z" fill="white" stroke="#1A2E35" stroke-linecap="round" stroke-linejoin="round"/>
<path d="M197.912 125.339C195.593 123.948 192.115 128.894 186.706 127.735C186.01 127.58 185.778 126.575 186.937 124.179C188.097 121.784 191.884 120.006 193.738 118.615C195.593 117.224 196.984 115.987 196.984 114.364C196.984 112.741 192.811 115.292 191.652 116.219C190.213 117.117 188.715 117.917 187.169 118.615H186.165C184.155 118.692 180.909 119.079 179.673 120.161C178.436 121.243 177.2 126.266 176.813 128.121L174.34 131.831C172.717 134.381 139.717 158.494 139.717 158.494L142.035 179.051L179.441 136.545C180.471 135.649 181.684 134.99 182.996 134.613C185.546 133.685 189.024 132.99 192.115 131.367C194.348 130.197 196.515 128.907 198.607 127.503C200.23 126.421 199.226 126.112 197.912 125.339Z" fill="white" stroke="#1A2E35" stroke-linecap="round" stroke-linejoin="round"/>
<path d="M158.651 144.505C149.455 151.461 139.717 158.571 139.717 158.571L142.035 179.128L165.066 153.006L158.651 144.505Z" fill="#00BBB8" stroke="#1A2E35" stroke-linecap="round" stroke-linejoin="round"/>
<path d="M147.136 222.33C147.136 222.33 163.597 221.557 187.555 225.422C211.513 229.286 220.478 233.382 219.783 238.019C216.846 256.799 172.948 318.781 172.948 318.781L173.721 327.514C173.721 327.514 172.176 329.6 166.766 329.832C161.356 330.064 154.632 322.336 154.632 322.336C154.632 322.336 160.66 316.076 162.979 308.656C165.297 301.237 184 252.935 184 252.935C184 252.935 159.501 258.345 132.452 253.476C105.402 248.607 147.136 222.33 147.136 222.33Z" fill="white" stroke="#1A2E35" stroke-linecap="round" stroke-linejoin="round"/>
<path d="M187.555 225.422C163.597 221.557 147.136 222.33 147.136 222.33C147.136 222.33 105.402 248.607 132.452 253.476C159.501 258.345 184 252.935 184 252.935C184 252.935 176.194 273.029 170.089 289.258L188.251 296.291C201.234 276.584 218.005 249.38 219.783 238.019C220.478 233.382 211.513 229.286 187.555 225.422Z" fill="#1A2E35" stroke="#1A2E35" stroke-linecap="round" stroke-linejoin="round"/>
<path d="M172.949 318.781C172.421 318.982 171.942 319.293 171.542 319.693C171.143 320.092 170.832 320.571 170.63 321.099C170.133 322.261 169.694 323.448 169.316 324.654C164.346 323.733 159.613 321.814 155.405 319.012C155.405 319.012 153.087 319.244 153.087 320.79C153.09 323.171 152.644 325.53 151.773 327.746L148.836 335.551C148.729 335.829 148.682 336.127 148.7 336.425C148.717 336.722 148.798 337.013 148.938 337.276C149.077 337.54 149.271 337.771 149.506 337.953C149.742 338.135 150.014 338.265 150.305 338.333C154.401 339.261 162.979 341.193 170.321 343.512C180.368 346.603 191.497 345.057 192.734 344.748C193.97 344.439 199.225 341.425 196.907 339.338C194.588 337.252 180.909 331.919 178.05 328.287C175.19 324.654 172.949 318.781 172.949 318.781Z" fill="#00BBB8" stroke="#1A2E35" stroke-linecap="round" stroke-linejoin="round"/>
<path d="M195.825 338.643C195.825 341.193 194.511 343.743 190.415 343.743C186.319 343.743 179.132 343.202 168.775 339.106C162.578 336.645 156.195 334.681 149.686 333.233L148.836 335.551C148.729 335.829 148.682 336.127 148.7 336.425C148.717 336.722 148.798 337.013 148.938 337.276C149.077 337.54 149.271 337.771 149.506 337.953C149.742 338.135 150.014 338.265 150.305 338.334C154.401 339.261 162.979 341.193 170.321 343.512C180.368 346.603 191.497 345.057 192.734 344.748C193.97 344.439 199.225 341.425 196.907 339.338L195.825 338.643Z" fill="white" stroke="#1A2E35" stroke-linecap="round" stroke-linejoin="round"/>
<path d="M95.0465 162.28C95.0465 162.28 92.2643 184.538 92.4961 188.712C92.728 192.885 95.8194 229.131 96.5149 237.091C97.2105 245.052 100.456 252.085 106.33 253.476C112.204 254.867 127.351 256.953 133.92 255.33C140.49 253.708 147.445 238.946 149.764 233.382C152.082 227.817 153.782 224.262 153.087 223.103C152.391 221.944 149.3 219.316 149.3 219.316C149.3 219.316 143.504 176.81 142.035 165.836C140.567 154.861 141.34 153.856 136.239 149.683C131.138 145.51 104.398 141.955 95.0465 162.28Z" fill="#00BBB8" stroke="#1A2E35" stroke-linecap="round" stroke-linejoin="round"/>
<path d="M132.453 239.796L129.902 241.651" stroke="#1A2E35" stroke-linecap="round" stroke-linejoin="round"/>
<path d="M147.909 221.016C147.909 221.016 142.963 230.754 134.693 237.942" stroke="#1A2E35" stroke-linecap="round" stroke-linejoin="round"/>
<path d="M144.277 221.557C144.277 221.557 136.317 228.977 128.356 233.614" stroke="#1A2E35" stroke-linecap="round" stroke-linejoin="round"/>
<path d="M150.692 92.4157C150.692 92.4157 153.088 97.2846 153.783 100.84C154.479 104.395 154.711 107.641 156.333 108.336C157.956 109.032 160.971 109.264 160.507 111.118C160.043 112.973 157.029 115.987 157.029 115.987C157.029 115.987 157.725 127.271 157.493 129.358C157.261 131.444 144.895 131.444 144.2 131.444C143.504 131.444 136.471 148.06 136.471 148.06L116.841 138.245L120.551 126.034C120.551 126.034 114.446 114.364 113.982 109.264C113.518 104.163 125.497 94.7343 132.221 92.6476C138.945 90.5609 150.692 92.4157 150.692 92.4157Z" fill="white" stroke="#1A2E35" stroke-linecap="round" stroke-linejoin="round"/>
<path d="M144.199 131.444L137.939 129.667L140.258 138.786L144.199 131.444Z" fill="#1A2E35" stroke="#1A2E35" stroke-linecap="round" stroke-linejoin="round"/>
<path d="M153.01 105.631C153.319 106.945 153.164 108.104 152.701 108.259C152.237 108.413 151.541 107.409 151.232 106.095C150.923 104.781 151.078 103.622 151.541 103.467C152.005 103.313 152.701 104.317 153.01 105.631Z" fill="#1A2E35"/>
<path d="M149.068 118.151C149.068 118.151 151.851 120.238 154.478 119.311" stroke="#1A2E35" stroke-linecap="round" stroke-linejoin="round"/>
<path d="M149.533 87.9332C149.533 87.9332 152.778 93.8068 150.46 97.5164C148.141 101.226 142.5 102.926 139.486 106.404C136.472 109.882 134.849 115.987 133.612 116.451C132.376 116.915 128.975 109.959 126.888 110.423C124.802 110.887 121.247 115.755 124.338 120.933C125.168 122.384 126.394 123.568 127.872 124.348C129.35 125.128 131.019 125.472 132.685 125.339C132.685 125.339 124.338 129.821 122.638 129.821C120.937 129.821 116.146 127.039 113.75 124.411C111.354 121.784 103.008 114.132 102.544 107.872C102.08 101.612 110.504 93.5749 110.504 93.5749C110.504 93.5749 100.457 92.8793 103.008 89.1697C105.558 85.4601 114.755 83.0643 114.755 83.0643C114.755 83.0643 113.054 77.1907 115.45 76.0314C117.846 74.8722 131.989 79.5865 131.989 79.5865C131.989 79.5865 128.048 74.4085 133.612 74.1766C139.177 73.9447 148.837 80.9776 149.533 87.9332Z" fill="#1A2E35" stroke="#1A2E35" stroke-linecap="round" stroke-linejoin="round"/>
<path d="M130.906 113.36L160.738 101.303" stroke="#1A2E35" stroke-linecap="round" stroke-linejoin="round"/>
<path d="M153.01 99.6031C153.651 99.3561 154.332 99.2253 155.019 99.2167C155.712 99.2062 156.4 99.3351 157.043 99.5955C157.685 99.8559 158.268 100.243 158.758 100.733C159.249 101.223 159.635 101.806 159.896 102.449C160.156 103.091 160.285 103.779 160.274 104.472C160.268 105.394 160.023 106.299 159.562 107.099C159.102 107.898 158.442 108.564 157.647 109.032" stroke="#1A2E35" stroke-linecap="round" stroke-linejoin="round"/>
<path d="M142.036 154.552C142.036 154.552 141.804 147.828 139.949 145.973C138.094 144.119 124.337 136.39 118 134.69C111.663 132.99 105.171 135.386 100.92 136.854C96.6698 138.322 93.8876 142.187 92.2646 150.842C90.6416 159.498 90.4098 164.908 93.8876 165.372C97.3653 165.835 102.312 155.325 113.286 153.161C124.26 150.997 134.384 152.929 136.703 154.088C139.021 155.248 142.036 154.552 142.036 154.552Z" fill="#00BBB8" stroke="#1A2E35" stroke-linecap="round" stroke-linejoin="round"/>
<path d="M106.562 147.442L103.007 148.756" stroke="#1A2E35" stroke-linecap="round" stroke-linejoin="round"/>
<path d="M142.035 154.552C142.035 154.552 127.351 146.437 121.941 144.737C119.159 143.887 114.135 145.046 109.962 146.283" stroke="#1A2E35" stroke-linecap="round" stroke-linejoin="round"/>
<path d="M211.436 192.576C211.436 192.576 210.741 197.445 209.813 197.986C208.886 198.527 208.963 193.503 208.963 193.503C208.963 193.503 207.881 196.363 207.186 197.058C206.49 197.754 206.877 194.121 206.877 194.121L207.649 190.644L211.436 192.576Z" fill="white" stroke="#1A2E35" stroke-linecap="round" stroke-linejoin="round"/>
<path d="M201.544 187.784H208.731C208.731 187.784 210.663 188.093 210.895 189.175C211.127 190.257 212.286 192.653 212.286 192.653L201.157 189.407L201.544 187.784Z" fill="white" stroke="#1A2E35" stroke-linecap="round" stroke-linejoin="round"/>
<path d="M204.172 190.025C204.172 190.025 214.142 188.712 214.451 189.484C214.76 190.257 215.378 195.59 215.533 197.367C215.563 197.429 215.569 197.5 215.547 197.565C215.525 197.631 215.478 197.684 215.417 197.715C215.355 197.746 215.284 197.751 215.219 197.729C215.154 197.708 215.1 197.661 215.069 197.599L212.287 192.73L204.713 193.271C204.713 193.271 202.549 191.417 204.172 190.025Z" fill="white" stroke="#1A2E35" stroke-linecap="round" stroke-linejoin="round"/>
<path d="M121.091 159.73C121.091 159.73 114.831 164.367 116.995 175.728C119.159 187.089 134.307 218.157 135.698 220.862C137.089 223.567 142.962 223.876 145.667 223.026C148.372 222.176 196.597 203.009 196.597 203.009C196.597 203.009 201.698 201.695 202.548 200.613C203.398 199.531 208.499 193.812 208.499 193.812C208.499 193.812 216.614 194.894 218.469 194.353C220.324 193.812 216.614 193.271 214.682 192.73C212.75 192.189 205.176 189.175 201.544 187.784C201.036 187.579 200.479 187.529 199.943 187.639C199.407 187.749 198.915 188.014 198.53 188.403C195.979 191.03 190.569 196.517 189.565 197.367C188.56 198.218 149.995 204.941 149.995 204.941C149.995 204.941 141.108 162.976 137.552 159.498C133.997 156.02 127.815 156.793 127.815 156.793" fill="#00BBB8"/>
<path d="M121.091 159.73C121.091 159.73 114.831 164.367 116.995 175.728C119.159 187.089 134.307 218.157 135.698 220.862C137.089 223.567 142.962 223.876 145.667 223.026C148.372 222.176 196.597 203.009 196.597 203.009C196.597 203.009 201.698 201.695 202.548 200.613C203.398 199.531 208.499 193.812 208.499 193.812C208.499 193.812 216.614 194.894 218.469 194.353C220.324 193.812 216.614 193.271 214.682 192.73C212.75 192.189 205.176 189.175 201.544 187.784C201.036 187.579 200.479 187.529 199.943 187.639C199.407 187.749 198.915 188.014 198.53 188.403C195.979 191.03 190.569 196.517 189.565 197.367C188.56 198.218 149.995 204.941 149.995 204.941C149.995 204.941 141.108 162.976 137.552 159.498C133.997 156.02 127.815 156.793 127.815 156.793" stroke="#1A2E35" stroke-linecap="round" stroke-linejoin="round"/>
<path d="M171.403 213.056L196.598 203.009C196.598 203.009 201.699 201.695 202.549 200.613C203.399 199.531 208.5 193.812 208.5 193.812C208.5 193.812 216.614 194.894 218.469 194.353C220.324 193.812 216.614 193.271 214.682 192.73C212.75 192.189 205.176 189.175 201.544 187.784C201.037 187.579 200.48 187.529 199.944 187.639C199.408 187.749 198.916 188.014 198.53 188.402C195.98 191.03 190.57 196.517 189.565 197.367C188.56 198.218 178.204 199.918 168.08 201.773L171.403 213.056Z" fill="white" stroke="#1A2E35" stroke-linecap="round" stroke-linejoin="round"/>
<path d="M86.8542 266.305L75.0298 344.594C74.9888 344.758 75.0146 344.931 75.1016 345.076C75.1885 345.221 75.3295 345.325 75.4935 345.366C75.6575 345.407 75.831 345.382 75.9759 345.295C76.1209 345.208 76.2253 345.067 76.2663 344.903L94.0417 267.619L86.8542 266.305Z" fill="#9C9C9C" stroke="#1A2E35" stroke-linecap="round" stroke-linejoin="round"/>
<path d="M104.398 266.768L109.576 344.439C109.576 344.603 109.642 344.76 109.758 344.876C109.874 344.992 110.031 345.057 110.195 345.057C110.359 345.057 110.516 344.992 110.632 344.876C110.748 344.76 110.813 344.603 110.813 344.439L111.74 266.15L104.398 266.768Z" fill="#9C9C9C" stroke="#1A2E35" stroke-linecap="round" stroke-linejoin="round"/>
<path d="M121.71 268.005L135.776 344.284C135.806 344.448 135.901 344.593 136.039 344.688C136.176 344.782 136.346 344.818 136.51 344.787C136.674 344.756 136.819 344.661 136.913 344.524C137.007 344.386 137.043 344.217 137.012 344.053L128.82 266.305L121.71 268.005Z" fill="#9C9C9C" stroke="#1A2E35" stroke-linecap="round" stroke-linejoin="round"/>
<path d="M148.914 267.309L160.429 344.13C160.45 344.294 160.535 344.443 160.665 344.544C160.796 344.646 160.961 344.691 161.125 344.671C161.289 344.65 161.438 344.566 161.539 344.435C161.641 344.305 161.686 344.139 161.666 343.975L156.101 265.996L148.914 267.309Z" fill="#9C9C9C" stroke="#1A2E35" stroke-linecap="round" stroke-linejoin="round"/>
<path d="M137.94 251.698C137.94 251.698 124.415 247.216 118.078 230.986C111.74 214.756 101.384 186.779 94.1968 183.147C87.0094 179.515 72.9437 186.316 72.0936 212.438C71.2435 238.56 73.2529 258.113 79.1265 264.527C85 270.942 93.0376 277.356 123.41 277.897C150.537 278.361 161.666 268.005 165.453 264.527C169.24 261.049 175.345 253.476 170.399 253.476C165.453 253.476 144.2 253.476 137.94 251.698Z" fill="white" stroke="#1A2E35" stroke-linecap="round" stroke-linejoin="round"/>
<path d="M200.385 91.1791C200.385 91.1791 195.13 84.9964 187.788 83.8371C180.446 82.6778 179.982 93.343 189.333 98.0574C191.964 99.2724 194.882 99.7275 197.757 99.3712C197.757 99.3712 190.261 108.182 195.13 109.65C205.949 112.819 203.631 96.1253 203.631 96.1253L200.385 91.1791Z" fill="white" stroke="#1A2E35" stroke-linecap="round" stroke-linejoin="round"/>
<path d="M202.162 90.7927C202.162 90.7927 199.071 83.2189 201.39 76.186C203.708 69.1532 212.905 73.9448 212.828 84.3782C212.768 87.0953 212.024 89.7535 210.664 92.1066C210.664 92.1066 222.488 89.6335 221.02 94.5024C217.697 105.477 205.177 95.8935 205.177 95.8935L202.162 90.7927Z" fill="white" stroke="#1A2E35" stroke-linecap="round" stroke-linejoin="round"/>
<path d="M206.258 100.144C206.12 100.135 205.987 100.096 205.866 100.029C205.746 99.9624 205.642 99.8696 205.562 99.7577L198.298 87.3922C198.242 87.3125 198.204 87.222 198.185 87.1266C198.167 87.0313 198.169 86.9331 198.191 86.8384C198.213 86.7438 198.254 86.6548 198.312 86.5771C198.371 86.4994 198.445 86.4349 198.529 86.3875C198.708 86.2906 198.915 86.2608 199.113 86.3033C199.312 86.3458 199.488 86.4579 199.611 86.6194L206.953 98.9848C207.038 99.1604 207.053 99.3615 206.996 99.5478C206.939 99.7341 206.813 99.8919 206.644 99.9895L206.258 100.144Z" fill="#1A2E35"/>
<path d="M199.534 88.4742C199.534 88.4742 196.907 82.9098 192.192 82.3688" stroke="#1A2E35" stroke-linecap="round" stroke-linejoin="round"/>
<path d="M199.611 86.6194C199.611 86.6194 198.066 82.0596 199.225 79.1228" stroke="#1A2E35" stroke-linecap="round" stroke-linejoin="round"/>
<path d="M194.897 91.8747C194.665 93.1885 192.579 93.9613 190.415 93.4976C188.251 93.0339 186.551 91.5655 186.86 90.2517C187.169 88.9379 189.178 88.0877 191.419 88.5515C193.661 89.0152 195.206 90.4836 194.897 91.8747Z" fill="#00BBB8" stroke="#1A2E35" stroke-linecap="round" stroke-linejoin="round"/>
<path d="M200.385 101.458C201.235 101.922 201.158 103.39 200.308 104.704C199.458 106.018 198.144 106.636 197.371 106.095C196.598 105.554 196.598 104.086 197.448 102.849C198.299 101.612 199.612 100.917 200.385 101.458Z" fill="#00BBB8" stroke="#1A2E35" stroke-linecap="round" stroke-linejoin="round"/>
<path d="M216.537 94.966C216.537 95.8934 215.301 96.6663 213.755 96.7435C212.209 96.8208 210.973 95.9707 210.973 95.0433C210.973 94.1159 212.209 93.343 213.678 93.2658C215.146 93.1885 216.537 94.0386 216.537 94.966Z" fill="#00BBB8" stroke="#1A2E35" stroke-linecap="round" stroke-linejoin="round"/>
<path d="M206.954 86.9284C205.64 87.083 204.249 85.3827 204.017 83.0642C203.785 80.7457 204.713 78.8909 206.104 78.7363C207.495 78.5818 208.809 80.282 209.04 82.5232C209.272 84.7645 208.345 86.7739 206.954 86.9284Z" fill="#00BBB8" stroke="#1A2E35" stroke-linecap="round" stroke-linejoin="round"/>
<path d="M5.01074 345.366H365" stroke="#1A2E35" stroke-linecap="round" stroke-linejoin="round"/>
</svg>
