<svg width="442" height="439" viewBox="0 0 442 439" fill="none" xmlns="http://www.w3.org/2000/svg">
<path d="M303.719 4.05884C270.51 12.1304 239.953 29.6573 205.014 36.8064C148.283 48.3373 84.2866 44.9933 42.0837 91.8085C10.3739 127.093 -7.61421 178.866 3.10947 226.028C31.0141 348.6 207.205 370.509 302.104 318.39C351.226 291.407 386.971 241.133 411.762 192.012C434.594 146.926 458.808 87.6574 424.446 41.88C408.073 20.0867 382.359 6.1344 355.492 1.63737C336.927 -1.47596 319.977 0.138357 303.719 4.05884Z" fill="#39BBB8"/>
<path opacity="0.8" d="M303.719 4.05884C270.51 12.1304 239.953 29.6573 205.014 36.8064C148.283 48.3373 84.2866 44.9933 42.0837 91.8085C10.3739 127.093 -7.61421 178.866 3.10947 226.028C31.0141 348.6 207.205 370.509 302.104 318.39C351.226 291.407 386.971 241.133 411.762 192.012C434.594 146.926 458.808 87.6574 424.446 41.88C408.073 20.0867 382.359 6.1344 355.492 1.63737C336.927 -1.47596 319.977 0.138357 303.719 4.05884Z" fill="white"/>
<path d="M365.178 300.978H355.838V353.558H365.178V300.978Z" fill="#39BBB8"/>
<path d="M365.638 354.135H355.261V300.401H365.638V354.135ZM356.414 352.982H364.485V301.554H356.414V352.982Z" fill="#263238"/>
<path d="M377.284 327.383H367.944V353.489H377.284V327.383Z" fill="#39BBB8"/>
<path d="M377.861 354.135H367.368V326.807H377.861V354.135ZM368.521 352.982H376.708V327.96H368.521V352.982Z" fill="#263238"/>
<path d="M389.046 310.203H379.706V353.478H389.046V310.203Z" fill="#39BBB8"/>
<path d="M389.623 354.135H379.13V309.626H389.623V354.135ZM380.283 352.982H388.47V310.779H380.283V352.982Z" fill="#263238"/>
<path d="M399.655 357.825H355.492C355.339 357.825 355.192 357.764 355.084 357.656C354.976 357.548 354.915 357.401 354.915 357.248C354.915 357.095 354.976 356.949 355.084 356.841C355.192 356.732 355.339 356.672 355.492 356.672H399.655C399.808 356.672 399.954 356.732 400.062 356.841C400.171 356.949 400.231 357.095 400.231 357.248C400.231 357.401 400.171 357.548 400.062 357.656C399.954 357.764 399.808 357.825 399.655 357.825Z" fill="#263238"/>
<path d="M396.311 360.708C396.158 360.708 396.011 360.647 395.903 360.539C395.795 360.431 395.734 360.284 395.734 360.131V315.968C395.734 315.815 395.795 315.668 395.903 315.56C396.011 315.452 396.158 315.391 396.311 315.391C396.464 315.391 396.61 315.452 396.719 315.56C396.827 315.668 396.887 315.815 396.887 315.968V360.131C396.887 360.284 396.827 360.431 396.719 360.539C396.61 360.647 396.464 360.708 396.311 360.708Z" fill="#263238"/>
<path d="M57.0733 17.4344C57.0733 18.0501 56.8907 18.6521 56.5486 19.164C56.2065 19.676 55.7203 20.0751 55.1514 20.3107C54.5825 20.5464 53.9566 20.608 53.3526 20.4879C52.7487 20.3677 52.194 20.0712 51.7586 19.6358C51.3231 19.2004 51.0266 18.6457 50.9065 18.0418C50.7864 17.4378 50.848 16.8118 51.0837 16.243C51.3193 15.6741 51.7184 15.1878 52.2303 14.8457C52.7423 14.5036 53.3443 14.321 53.96 14.321C54.3689 14.321 54.7737 14.4016 55.1514 14.558C55.5292 14.7145 55.8724 14.9438 56.1615 15.2329C56.4506 15.522 56.6799 15.8652 56.8363 16.243C56.9928 16.6207 57.0733 17.0255 57.0733 17.4344Z" fill="#263238"/>
<path d="M91.5502 25.3906C91.5502 26.5081 91.2189 27.6005 90.598 28.5296C89.9772 29.4588 89.0947 30.183 88.0623 30.6106C87.0299 31.0383 85.8938 31.1501 84.7978 30.9321C83.7018 30.7141 82.6951 30.176 81.9049 29.3858C81.1147 28.5956 80.5766 27.5889 80.3586 26.4929C80.1406 25.3969 80.2524 24.2608 80.6801 23.2284C81.1077 22.196 81.8319 21.3135 82.7611 20.6927C83.6902 20.0719 84.7826 19.7405 85.9001 19.7405C86.6421 19.7405 87.3768 19.8866 88.0623 20.1706C88.7478 20.4545 89.3707 20.8707 89.8953 21.3954C90.42 21.92 90.8362 22.5429 91.1201 23.2284C91.4041 23.9139 91.5502 24.6486 91.5502 25.3906Z" fill="#263238"/>
<path d="M39.4313 42.5716C39.4313 43.4154 39.181 44.2403 38.7122 44.9419C38.2434 45.6435 37.5771 46.1903 36.7975 46.5132C36.018 46.8362 35.1601 46.9206 34.3325 46.756C33.5049 46.5914 32.7447 46.1851 32.148 45.5884C31.5514 44.9917 31.145 44.2315 30.9804 43.4039C30.8158 42.5763 30.9003 41.7185 31.2232 40.9389C31.5461 40.1593 32.093 39.493 32.7946 39.0242C33.4962 38.5554 34.321 38.3052 35.1649 38.3052C36.2964 38.3052 37.3816 38.7547 38.1817 39.5548C38.9818 40.3549 39.4313 41.4401 39.4313 42.5716Z" fill="#263238"/>
<path d="M35.6256 42.9174L34.7031 42.2255L53.729 16.8577L87.0531 24.8139L86.7072 25.967L54.1902 18.1261L35.6256 42.9174Z" fill="#263238"/>
<path d="M392.622 280.453C392.636 282.122 392.829 283.784 393.198 285.411L388.24 289.217L393.198 297.98L399.079 295.674C401.483 297.93 404.358 299.623 407.497 300.632L408.304 306.743H418.451L419.374 300.517C422.505 299.549 425.38 297.894 427.791 295.674L433.556 297.98L438.63 289.217L433.787 285.411C434.593 282.194 434.593 278.828 433.787 275.61L438.745 271.805L433.672 263.042L427.906 265.348C425.502 263.092 422.627 261.398 419.489 260.389L418.682 254.278H408.534L407.612 260.505C404.481 261.473 401.605 263.127 399.195 265.348L393.429 263.042L388.356 271.805L393.198 275.61C392.837 277.2 392.643 278.823 392.622 280.453ZM410.956 269.614C413.135 269.098 415.419 269.241 417.517 270.026C419.615 270.81 421.432 272.2 422.739 274.019C424.045 275.839 424.781 278.005 424.854 280.244C424.927 282.482 424.333 284.692 423.147 286.592C421.961 288.492 420.238 289.997 418.195 290.916C416.153 291.835 413.883 292.126 411.675 291.752C409.466 291.378 407.419 290.357 405.792 288.817C404.165 287.278 403.033 285.29 402.538 283.105C402.194 281.393 402.194 279.629 402.538 277.916C403.013 275.878 404.056 274.017 405.546 272.547C407.036 271.078 408.912 270.061 410.956 269.614Z" fill="#263238"/>
<path d="M352.609 226.488C352.611 227.422 352.727 228.351 352.955 229.256L350.188 231.447L352.955 236.29L356.184 235.021C357.572 236.292 359.227 237.237 361.026 237.789L361.488 241.248H367.138L367.599 237.789C369.419 237.285 371.084 236.334 372.442 235.021L375.671 236.405L378.553 231.447L375.786 229.371C376.25 227.555 376.25 225.652 375.786 223.836L378.553 221.646L375.786 216.687L372.442 218.071C371.174 216.702 369.529 215.739 367.714 215.304L367.253 211.729H361.603L361.026 215.188C359.274 215.768 357.663 216.711 356.299 217.956L353.07 216.687L350.188 221.53L352.955 223.721C352.727 224.626 352.611 225.555 352.609 226.488ZM363.217 220.262C364.869 219.941 366.58 220.289 367.975 221.229C369.37 222.17 370.334 223.626 370.655 225.278C370.976 226.929 370.628 228.64 369.687 230.035C368.746 231.43 367.29 232.394 365.639 232.715C363.99 233.024 362.286 232.679 360.887 231.754C359.488 230.828 358.504 229.395 358.144 227.757C358.028 226.915 358.028 226.062 358.144 225.22C358.413 223.989 359.037 222.863 359.939 221.982C360.84 221.101 361.98 220.503 363.217 220.262Z" fill="white"/>
<path d="M76.5609 158.918C77.0242 159.979 77.6043 160.984 78.2905 161.916L76.0996 165.721L81.6344 170.218L84.8631 167.105C87.0289 167.935 89.3577 168.25 91.6663 168.027L93.8571 171.833L100.43 169.18L99.3919 164.914C101.238 163.486 102.704 161.625 103.658 159.495H108.04L108.963 152.461L104.811 151.308C104.465 149.007 103.554 146.828 102.159 144.966L104.35 141.16L98.8154 136.663L95.7021 139.777C93.5201 138.854 91.1403 138.497 88.7836 138.739L86.708 134.934L80.0201 137.586L81.1732 141.852C79.3461 143.3 77.8847 145.156 76.9068 147.272H72.5251L71.4873 154.306L75.7537 155.574C75.9002 156.715 76.1709 157.836 76.5609 158.918ZM85.6702 146.926C87.3987 145.72 89.5351 145.249 91.6105 145.616C93.6859 145.984 95.5307 147.16 96.7398 148.886C97.6701 150.599 97.9389 152.594 97.4954 154.493C97.0518 156.391 95.9268 158.061 94.3337 159.184C92.7407 160.308 90.7905 160.808 88.8534 160.588C86.9163 160.369 85.1271 159.447 83.8253 157.996C83.0548 157.036 82.5747 155.875 82.4416 154.652C82.2085 153.191 82.3871 151.694 82.9574 150.33C83.5277 148.965 84.4672 147.786 85.6702 146.926Z" fill="#39BBB8"/>
<path d="M81.4038 127.439C81.5251 127.89 81.7199 128.319 81.9803 128.707L81.1731 130.321L83.364 132.051L84.7477 130.783C85.6322 131.112 86.5716 131.268 87.5151 131.244L88.3223 132.743L91.0897 131.705L90.6284 129.975C91.3909 129.366 91.9861 128.572 92.3581 127.669H94.203L94.5489 124.902L92.8193 124.325C92.7186 123.399 92.3589 122.52 91.7815 121.788L92.704 120.174L90.3978 118.445L89.1294 119.713C88.2577 119.338 87.3082 119.18 86.362 119.252L85.4395 117.753L82.7875 118.79L83.1334 120.52C82.434 121.144 81.8487 121.886 81.4038 122.711H79.6741L79.2129 125.594L80.9425 126.055C81.0435 126.532 81.1982 126.996 81.4038 127.439ZM85.0936 122.48C85.8194 122.031 86.6894 121.876 87.5254 122.048C88.3615 122.219 89.1004 122.704 89.5906 123.403C89.8254 123.759 89.9877 124.157 90.0683 124.576C90.149 124.994 90.1464 125.425 90.0608 125.842C89.9751 126.26 89.8081 126.657 89.5691 127.01C89.3302 127.363 89.024 127.665 88.6682 127.9C88.3123 128.135 87.9137 128.297 87.4952 128.378C87.0766 128.458 86.6462 128.456 86.2286 128.37C85.811 128.284 85.4144 128.117 85.0614 127.878C84.7084 127.639 84.4059 127.333 84.1712 126.977C83.9686 126.614 83.8135 126.227 83.7099 125.824C83.5954 125.193 83.665 124.542 83.9103 123.949C84.1557 123.356 84.5665 122.846 85.0936 122.48Z" fill="#39BBB8"/>
<path d="M66.6438 91.5781H374.863C375.781 91.5781 376.661 91.9426 377.309 92.5913C377.958 93.24 378.322 94.1199 378.322 95.0374V247.706C378.322 248.623 377.958 249.503 377.309 250.152C376.661 250.801 375.781 251.165 374.863 251.165H63.1846V95.0374C63.1846 94.1199 63.549 93.24 64.1978 92.5913C64.8465 91.9426 65.7264 91.5781 66.6438 91.5781Z" fill="#39BBB8"/>
<path opacity="0.2" d="M66.6438 91.5781H374.863C375.781 91.5781 376.661 91.9426 377.309 92.5913C377.958 93.24 378.322 94.1199 378.322 95.0374V247.706C378.322 248.623 377.958 249.503 377.309 250.152C376.661 250.801 375.781 251.165 374.863 251.165H63.1846V95.0374C63.1846 94.1199 63.549 93.24 64.1978 92.5913C64.8465 91.9426 65.7264 91.5781 66.6438 91.5781Z" fill="black"/>
<path d="M380.745 259.698H60.8791C59.1971 259.698 57.584 259.03 56.3946 257.84C55.2053 256.651 54.5371 255.038 54.5371 253.356V49.3752C54.5371 47.6932 55.2053 46.0801 56.3946 44.8907C57.584 43.7014 59.1971 43.0332 60.8791 43.0332H381.898C383.274 43.0332 384.594 43.5799 385.567 44.553C386.54 45.5261 387.087 46.8459 387.087 48.2221V253.356C387.087 255.038 386.418 256.651 385.229 257.84C384.04 259.03 382.427 259.698 380.745 259.698ZM60.8791 44.1863C59.5029 44.1863 58.1831 44.733 57.21 45.7061C56.2369 46.6792 55.6902 47.999 55.6902 49.3752V253.356C55.6902 254.732 56.2369 256.052 57.21 257.025C58.1831 257.998 59.5029 258.545 60.8791 258.545H380.745C382.121 258.545 383.441 257.998 384.414 257.025C385.387 256.052 385.934 254.732 385.934 253.356V48.2221C385.934 47.1517 385.508 46.1252 384.751 45.3683C383.995 44.6115 382.968 44.1863 381.898 44.1863H60.8791Z" fill="#263238"/>
<path d="M67.2207 52.3733H238.684C239.908 52.3733 241.081 52.8592 241.946 53.7242C242.811 54.5892 243.297 55.7624 243.297 56.9856V58.5999C243.297 59.5174 242.932 60.3973 242.283 61.046C241.635 61.6947 240.755 62.0592 239.837 62.0592H67.2207C65.9975 62.0592 64.8243 61.5733 63.9593 60.7083C63.0943 59.8433 62.6084 58.6701 62.6084 57.4469V56.9856C62.6084 55.7624 63.0943 54.5892 63.9593 53.7242C64.8243 52.8592 65.9975 52.3733 67.2207 52.3733Z" fill="#39BBB8"/>
<path d="M239.838 62.6356H67.2211C65.8449 62.6356 64.5251 62.0889 63.552 61.1158C62.5789 60.1427 62.0322 58.8229 62.0322 57.4467V56.9855C62.0322 55.6093 62.5789 54.2895 63.552 53.3164C64.5251 52.3433 65.8449 51.7966 67.2211 51.7966H238.685C240.061 51.7966 241.381 52.3433 242.354 53.3164C243.327 54.2895 243.874 55.6093 243.874 56.9855V58.5998C243.89 59.1341 243.796 59.6661 243.599 60.1629C243.402 60.6598 243.105 61.1111 242.727 61.4891C242.349 61.8671 241.898 62.1638 241.401 62.3609C240.904 62.5581 240.372 62.6516 239.838 62.6356ZM67.2211 52.9497C66.1507 52.9497 65.1242 53.3749 64.3674 54.1318C63.6105 54.8886 63.1853 55.9152 63.1853 56.9855V57.4467C63.1853 58.5171 63.6105 59.5436 64.3674 60.3005C65.1242 61.0573 66.1507 61.4825 67.2211 61.4825H239.838C240.602 61.4825 241.336 61.1788 241.876 60.6382C242.417 60.0976 242.721 59.3644 242.721 58.5998V56.9855C242.721 55.9152 242.295 54.8886 241.538 54.1318C240.782 53.3749 239.755 52.9497 238.685 52.9497H67.2211Z" fill="#263238"/>
<path d="M71.948 75.6657C71.9254 76.3673 71.6967 77.0468 71.2904 77.6192C70.8841 78.1917 70.3182 78.6319 69.6634 78.8848C69.0086 79.1378 68.2937 79.1923 67.6081 79.0416C66.9225 78.891 66.2964 78.5418 65.808 78.0376C65.3195 77.5334 64.9903 76.8965 64.8615 76.2064C64.7327 75.5164 64.8099 74.8036 65.0835 74.1572C65.3571 73.5107 65.815 72.9591 66.4001 72.5712C66.9851 72.1832 67.6715 71.9762 68.3735 71.9758C68.8528 71.9756 69.3272 72.0717 69.7686 72.2585C70.21 72.4453 70.6093 72.719 70.9427 73.0632C71.2762 73.4075 71.5371 73.8153 71.7098 74.2623C71.8825 74.7094 71.9635 75.1867 71.948 75.6657Z" fill="white"/>
<path d="M68.3734 79.8165C67.5202 79.8392 66.6797 79.6056 65.9607 79.1457C65.2417 78.6858 64.6772 78.0208 64.3401 77.2367C64.0029 76.4526 63.9088 75.5854 64.0697 74.7472C64.2306 73.909 64.6392 73.1383 65.2428 72.5348C65.8463 71.9312 66.617 71.5226 67.4552 71.3617C68.2934 71.2008 69.1606 71.2949 69.9447 71.632C70.7288 71.9692 71.3938 72.5337 71.8537 73.2527C72.3136 73.9717 72.5472 74.8121 72.5245 75.6654C72.5245 76.7663 72.0871 77.8221 71.3086 78.6006C70.5302 79.3791 69.4743 79.8165 68.3734 79.8165ZM68.3734 72.552C67.6645 72.6904 67.0258 73.0708 66.5667 73.6283C66.1075 74.1857 65.8564 74.8855 65.8564 75.6077C65.8564 76.3299 66.1075 77.0297 66.5667 77.5871C67.0258 78.1446 67.6645 78.525 68.3734 78.6634C69.0822 78.525 69.7209 78.1446 70.1801 77.5871C70.6392 77.0297 70.8903 76.3299 70.8903 75.6077C70.8903 74.8855 70.6392 74.1857 70.1801 73.6283C69.7209 73.0708 69.0822 72.6904 68.3734 72.552Z" fill="#263238"/>
<path d="M80.7113 79.2399C82.6855 79.2399 84.2858 77.6396 84.2858 75.6654C84.2858 73.6912 82.6855 72.0908 80.7113 72.0908C78.7371 72.0908 77.1367 73.6912 77.1367 75.6654C77.1367 77.6396 78.7371 79.2399 80.7113 79.2399Z" fill="white"/>
<path d="M80.7115 79.8167C80.1005 79.9182 79.4747 79.8854 78.8776 79.7206C78.2805 79.5559 77.7264 79.2631 77.2539 78.8625C76.7814 78.462 76.4017 77.9634 76.1414 77.4014C75.881 76.8394 75.7461 76.2274 75.7461 75.608C75.7461 74.9885 75.881 74.3766 76.1414 73.8145C76.4017 73.2525 76.7814 72.7539 77.2539 72.3534C77.7264 71.9529 78.2805 71.6601 78.8776 71.4953C79.4747 71.3305 80.1005 71.2977 80.7115 71.3992C81.7082 71.5647 82.6138 72.0786 83.2671 72.8493C83.9204 73.6201 84.2789 74.5976 84.2789 75.608C84.2789 76.6183 83.9204 77.5959 83.2671 78.3666C82.6138 79.1373 81.7082 79.6512 80.7115 79.8167ZM80.7115 72.5523C80.2606 72.4643 79.7959 72.4772 79.3505 72.59C78.9052 72.7028 78.4903 72.9128 78.1357 73.2049C77.7812 73.497 77.4956 73.8639 77.2995 74.2794C77.1035 74.6948 77.0018 75.1486 77.0018 75.608C77.0018 76.0674 77.1035 76.5211 77.2995 76.9365C77.4956 77.352 77.7812 77.719 78.1357 78.011C78.4903 78.3031 78.9052 78.5131 79.3505 78.6259C79.7959 78.7388 80.2606 78.7516 80.7115 78.6636C81.4204 78.5253 82.0591 78.1448 82.5182 77.5874C82.9774 77.0299 83.2285 76.3302 83.2285 75.608C83.2285 74.8858 82.9774 74.186 82.5182 73.6286C82.0591 73.0711 81.4204 72.6906 80.7115 72.5523Z" fill="#263238"/>
<path d="M96.6239 75.6654C96.6239 76.3952 96.4075 77.1086 96.002 77.7154C95.5966 78.3222 95.0203 78.7951 94.3461 79.0744C93.6718 79.3537 92.9299 79.4268 92.2142 79.2844C91.4984 79.142 90.8409 78.7906 90.3249 78.2746C89.8088 77.7585 89.4574 77.101 89.315 76.3853C89.1727 75.6695 89.2457 74.9276 89.525 74.2534C89.8043 73.5791 90.2772 73.0029 90.884 72.5974C91.4908 72.192 92.2042 71.9756 92.934 71.9756C93.4229 71.9595 93.9099 72.044 94.3648 72.2237C94.8198 72.4035 95.233 72.6747 95.5788 73.0206C95.9247 73.3665 96.1959 73.7797 96.3757 74.2346C96.5555 74.6895 96.6399 75.1765 96.6239 75.6654Z" fill="white"/>
<path d="M92.9336 79.8167C91.9369 79.6512 91.0313 79.1373 90.378 78.3666C89.7248 77.5959 89.3662 76.6183 89.3662 75.608C89.3662 74.5976 89.7248 73.6201 90.378 72.8493C91.0313 72.0786 91.9369 71.5647 92.9336 71.3992C93.5446 71.2977 94.1705 71.3305 94.7676 71.4953C95.3647 71.6601 95.9187 71.9529 96.3912 72.3534C96.8638 72.7539 97.2434 73.2525 97.5038 73.8145C97.7642 74.3766 97.899 74.9885 97.899 75.608C97.899 76.2274 97.7642 76.8394 97.5038 77.4014C97.2434 77.9634 96.8638 78.462 96.3912 78.8625C95.9187 79.2631 95.3647 79.5559 94.7676 79.7206C94.1705 79.8854 93.5446 79.9182 92.9336 79.8167ZM92.9336 72.5523C92.3178 72.5523 91.7159 72.7349 91.2039 73.077C90.6919 73.4191 90.2929 73.9053 90.0573 74.4742C89.8216 75.0431 89.76 75.6691 89.8801 76.273C90.0002 76.8769 90.2967 77.4317 90.7321 77.8671C91.1676 78.3025 91.7223 78.599 92.3262 78.7191C92.9301 78.8393 93.5561 78.7776 94.125 78.542C94.6939 78.3063 95.1801 77.9073 95.5222 77.3953C95.8643 76.8833 96.0469 76.2814 96.0469 75.6656C96.0469 74.8399 95.7189 74.048 95.1351 73.4642C94.5512 72.8803 93.7593 72.5523 92.9336 72.5523Z" fill="#263238"/>
<path d="M220.811 438.08C319.137 438.08 398.847 430.388 398.847 420.899C398.847 411.41 319.137 403.718 220.811 403.718C122.484 403.718 42.7744 411.41 42.7744 420.899C42.7744 430.388 122.484 438.08 220.811 438.08Z" fill="#39BBB8"/>
<path opacity="0.7" d="M220.811 438.08C319.137 438.08 398.847 430.388 398.847 420.899C398.847 411.41 319.137 403.718 220.811 403.718C122.484 403.718 42.7744 411.41 42.7744 420.899C42.7744 430.388 122.484 438.08 220.811 438.08Z" fill="white"/>
<path d="M226.692 406.255C226.692 406.255 219.082 415.595 217.698 422.974C216.315 430.354 218.621 429.893 220.581 430.008C222.541 430.123 227.5 424.012 228.768 421.706C230.036 419.4 232.804 405.448 232.804 405.448L226.692 406.255Z" fill="white"/>
<path d="M298.299 404.871L302.45 402.104C302.45 402.104 309.023 407.869 314.442 409.599C319.862 411.328 330.47 408.446 332.431 415.018C332.431 415.018 322.745 418.362 316.979 417.901C311.214 417.44 297.607 417.786 297.607 417.786L298.299 404.871Z" fill="white"/>
<path d="M258.172 202.736C258.172 202.736 250.101 264.195 247.679 281.376C245.258 298.557 235.802 343.527 233.957 353.674C232.113 363.821 225.655 407.408 225.655 407.408L232.574 410.637L283.655 257.276C283.655 257.276 290.92 313.778 290.574 330.958C290.228 348.139 297.262 406.716 297.262 406.716L304.18 403.603C304.18 403.603 312.944 357.825 311.56 341.106C310.176 324.386 315.365 270.191 313.636 250.589C311.906 230.986 309.484 201.698 309.484 201.698C309.484 201.698 290.574 213.229 258.172 202.736Z" fill="#263238"/>
<path d="M220.005 430.47H219.428C218.757 430.451 218.114 430.199 217.608 429.757C217.103 429.315 216.768 428.711 216.661 428.048C215.162 422.167 223.81 407.293 227.615 404.64C227.738 404.549 227.891 404.509 228.043 404.531C228.194 404.553 228.331 404.633 228.422 404.756C228.468 404.816 228.501 404.885 228.52 404.959C228.538 405.032 228.543 405.108 228.532 405.183C228.521 405.258 228.496 405.33 228.457 405.395C228.419 405.461 228.368 405.518 228.307 405.563C224.733 407.984 216.43 422.513 217.699 427.817C217.8 428.235 218.035 428.608 218.368 428.879C218.701 429.149 219.114 429.303 219.544 429.316H220.005C227.961 429.316 231.766 408.561 231.882 408.33C231.997 408.1 232.228 407.754 232.458 407.869C232.689 407.984 233.035 408.215 232.919 408.446C232.804 408.676 228.884 430.47 220.005 430.47Z" fill="#263238"/>
<path d="M284.116 255.085L283.77 254.855C283.54 254.739 283.54 254.393 283.655 254.163L300.375 233.638C300.48 233.536 300.614 233.469 300.759 233.449C300.904 233.428 301.052 233.454 301.182 233.522C301.287 233.63 301.347 233.775 301.347 233.926C301.347 234.077 301.287 234.222 301.182 234.33L284.577 254.855L284.116 255.085Z" fill="white"/>
<path d="M285.961 257.507L285.385 257.276C285.329 257.135 285.322 256.979 285.364 256.834C285.405 256.688 285.494 256.56 285.615 256.469C288.162 254.977 290.556 253.239 292.764 251.28C292.875 251.197 293.013 251.156 293.151 251.166C293.29 251.176 293.42 251.236 293.518 251.334C293.616 251.432 293.676 251.562 293.685 251.7C293.695 251.839 293.655 251.976 293.572 252.087C291.315 254.122 288.84 255.901 286.192 257.391L285.961 257.507Z" fill="white"/>
<path d="M316.98 418.477L308.216 418.247C303.95 418.016 298.53 417.785 297.838 418.247C297.757 418.312 297.655 418.348 297.55 418.348C297.445 418.348 297.344 418.312 297.262 418.247C297.121 418.087 297.039 417.883 297.031 417.67L297.262 399.912C297.26 399.841 297.274 399.77 297.304 399.705C297.334 399.64 297.379 399.582 297.435 399.538C297.491 399.493 297.556 399.462 297.626 399.447C297.696 399.432 297.769 399.433 297.838 399.451C297.991 399.451 298.138 399.512 298.246 399.62C298.354 399.728 298.415 399.875 298.415 400.028L298.184 416.978C301.527 416.789 304.879 416.827 308.216 417.093L316.98 417.324C322.006 417.108 326.976 416.176 331.739 414.557C331.278 412.827 329.433 411.674 327.703 411.213C326.145 410.921 324.559 410.805 322.976 410.867H321.131C317.527 410.733 313.987 409.879 310.719 408.354C307.451 406.829 304.522 404.664 302.105 401.988C301.99 401.757 301.99 401.411 302.22 401.296C302.328 401.191 302.473 401.131 302.624 401.131C302.775 401.131 302.919 401.191 303.027 401.296C305.319 403.851 308.104 405.914 311.216 407.361C314.328 408.808 317.701 409.608 321.131 409.714H322.976C324.642 409.638 326.31 409.794 327.934 410.175C330.24 410.636 332.662 412.366 333.007 414.903C333.007 415.133 332.892 415.479 332.662 415.479C327.611 417.247 322.326 418.257 316.98 418.477Z" fill="#263238"/>
<path d="M258.287 220.723C257.768 220.718 257.256 220.6 256.788 220.377C256.72 220.34 256.66 220.289 256.611 220.228C256.563 220.167 256.527 220.097 256.505 220.022C256.484 219.947 256.477 219.868 256.486 219.791C256.495 219.713 256.519 219.638 256.557 219.57C256.595 219.502 256.646 219.442 256.707 219.394C256.768 219.345 256.838 219.309 256.913 219.288C256.988 219.266 257.066 219.26 257.144 219.269C257.221 219.278 257.296 219.302 257.364 219.34C258.633 219.916 260.132 219.109 261.054 218.071C261.893 216.749 262.406 215.248 262.553 213.69L264.052 206.425C264.052 206.194 264.398 205.964 264.629 205.964C264.859 205.964 265.205 206.425 265.09 206.656L263.706 213.92C263.471 215.655 262.839 217.312 261.861 218.763C261.444 219.33 260.908 219.799 260.29 220.138C259.673 220.476 258.989 220.676 258.287 220.723Z" fill="white"/>
<path d="M314.789 416.171C312.862 416.171 310.936 416.055 309.023 415.825L307.409 415.595C304.065 415.018 300.49 414.557 297.723 416.171L297.146 415.133C300.26 413.404 303.95 413.865 307.524 414.442L309.139 414.672C316.397 415.593 323.77 414.681 330.586 412.02L331.047 413.058C325.875 415.119 320.357 416.176 314.789 416.171Z" fill="#263238"/>
<path d="M221.62 430.008C220.244 429.375 219.139 428.271 218.507 426.895C218.2 425.769 218.122 424.592 218.276 423.435C218.752 417.216 221.358 411.352 225.656 406.831L226.463 407.638C222.324 411.953 219.834 417.586 219.429 423.551C219.28 424.593 219.358 425.655 219.66 426.664C220.19 427.679 221.042 428.49 222.081 428.97L221.62 430.008Z" fill="#263238"/>
<path d="M345.345 138.393L381.437 79.8166L341.886 64.3652L309.369 112.564L345.345 138.393Z" fill="white"/>
<path d="M370.943 117.753C370.943 117.753 374.056 113.832 374.056 109.912C374.056 105.991 371.635 105.415 372.326 103.109C373.018 100.802 372.442 99.5341 370.02 97.1126C367.599 94.6911 362.064 93.1921 361.718 94.4605C361.372 95.7289 366.676 97.9198 366.1 100.111C366.1 100.111 356.76 100.457 356.299 102.878V104.492C356.299 104.492 354.454 105.415 354.915 106.337C355.376 107.26 364.831 107.26 364.831 107.26C364.831 107.26 363.332 113.486 365.408 115.331L370.943 117.753Z" fill="white"/>
<path d="M352.84 85.0054C362.757 98.0352 353.763 114.409 340.387 122.942C327.011 131.475 314.097 127.67 307.409 117.061C300.721 106.453 306.14 91.1167 319.401 82.6992C332.661 74.2817 345.345 75.0889 352.84 85.0054Z" fill="white"/>
<path d="M363.565 114.409L346.96 152.461L316.634 126.17C316.634 126.17 305.68 120.751 304.296 111.526L282.734 108.644C282.734 108.644 280.197 118.791 275.7 120.982L270.972 112.564L270.165 122.942C270.165 122.942 259.095 118.445 255.982 115.793C255.982 115.793 231.191 126.978 227.27 139.2C223.35 151.423 236.495 180.942 236.495 180.942C236.495 180.942 241.453 193.856 245.72 194.664C249.986 195.471 258.288 187.63 258.288 187.63L255.982 202.274C255.982 202.274 288.499 215.189 309.946 201.006L309.6 153.153C309.6 153.153 336.928 166.99 345.115 169.988C353.302 172.986 356.416 171.717 356.416 171.717C356.416 171.717 370.483 134.819 372.905 117.753L363.565 114.409ZM254.022 171.487L249.871 155.689L257.02 169.065L254.022 171.487Z" fill="#39BBB8"/>
<path d="M312.482 121.789C312.482 121.789 329.202 128.707 345.229 111.642C361.257 94.576 351.11 83.8523 351.11 83.8523C351.11 83.8523 365.293 93.6535 353.07 110.95C340.848 128.246 327.472 128.361 319.746 127.093C312.021 125.825 312.482 121.789 312.482 121.789Z" fill="#39BBB8"/>
<path opacity="0.2" d="M267.051 179.904C266.82 179.904 267.051 180.365 267.282 180.365C271.515 180.444 275.749 180.29 279.966 179.904L268.55 184.516C268.15 184.589 267.785 184.792 267.512 185.093C267.291 185.362 267.133 185.677 267.051 186.015C265.321 192.127 261.747 204.465 261.977 204.465L255.981 202.274L258.288 187.63L267.051 179.904Z" fill="black"/>
<path opacity="0.2" d="M249.063 152.922L251.139 134.127C251.139 134.127 258.057 139.431 255.981 145.888C253.906 152.345 261.286 165.952 261.286 165.952L257.019 169.065L248.371 151.423L249.063 152.922Z" fill="black"/>
<path opacity="0.2" d="M309.716 140.238C309.716 140.238 311.446 149.001 312.137 149.693C312.829 150.385 311.446 142.314 312.714 141.968C313.982 141.622 317.096 152.345 317.096 152.345C317.096 152.345 329.434 159.61 333.585 158.918C337.736 158.226 344.308 150.962 344.308 150.962L346.73 153.153C346.73 153.153 344.308 159.956 341.195 161.339C341.195 161.339 346.384 168.258 358.145 166.99C358.145 166.99 357.338 173.332 352.726 172.294C341.772 169.988 309.601 153.153 309.601 153.153L309.716 140.238Z" fill="black"/>
<path opacity="0.2" d="M234.418 128.015C229.229 147.503 231.189 154.19 237.416 170.564C237.416 170.564 246.064 166.528 252.982 170.334L253.674 172.063L242.374 179.097C242.374 179.097 243.527 188.206 251.137 192.127C251.137 192.127 248.024 195.01 245.718 194.664C243.412 194.318 233.726 173.562 231.65 169.411C229.575 165.26 219.543 144.274 234.418 128.015Z" fill="black"/>
<path d="M309.369 119.944C307.225 117.805 305.641 115.172 304.756 112.276C303.872 109.38 303.713 106.311 304.295 103.339C306.255 93.077 316.402 83.1605 324.589 79.7012C332.776 76.242 346.498 74.9736 351.11 83.8523C351.11 83.8523 341.424 76.5879 324.589 85.8126C307.754 95.0373 306.832 112.564 309.369 119.944Z" fill="#39BBB8"/>
<path d="M346.844 153.614H346.498L310.637 121.443C310.558 121.414 310.489 121.365 310.436 121.3C310.383 121.235 310.349 121.157 310.337 121.074C310.325 120.991 310.336 120.906 310.368 120.829C310.401 120.752 310.454 120.685 310.522 120.636C310.614 120.513 310.75 120.432 310.902 120.411C311.053 120.389 311.207 120.429 311.329 120.52L347.305 152.807C347.411 152.914 347.47 153.059 347.47 153.21C347.47 153.361 347.411 153.506 347.305 153.614H346.844Z" fill="#263238"/>
<path d="M353.878 172.985C344.653 172.985 313.52 155.92 309.715 153.844C309.606 153.744 309.527 153.615 309.486 153.473C309.445 153.331 309.445 153.18 309.484 153.037C309.575 152.916 309.703 152.827 309.849 152.785C309.994 152.744 310.15 152.751 310.291 152.807C326.319 161.685 351.572 174.139 355.146 171.717C358.721 169.296 368.637 132.973 372.096 118.791L363.91 115.101L345.345 158.572C345.274 158.684 345.166 158.769 345.04 158.811C344.914 158.853 344.777 158.85 344.653 158.803C344.577 158.794 344.504 158.766 344.441 158.722C344.378 158.678 344.327 158.619 344.292 158.55C344.258 158.482 344.241 158.406 344.244 158.329C344.247 158.252 344.268 158.177 344.307 158.111L363.102 114.178C363.102 113.948 363.218 113.832 363.333 113.832C363.448 113.832 363.679 113.717 363.794 113.832L373.019 117.868C373.25 117.983 373.48 118.329 373.365 118.56C372.904 120.635 361.027 168.95 355.723 172.64C355.148 172.912 354.512 173.031 353.878 172.985Z" fill="#263238"/>
<path d="M286.654 209.193C271.202 209.193 256.097 202.966 255.751 202.851C255.648 202.801 255.567 202.714 255.524 202.607C255.482 202.501 255.48 202.382 255.52 202.274L257.711 187.515C257.827 187.169 258.057 186.938 258.403 187.054C258.749 187.169 258.864 187.399 258.864 187.63L256.674 201.928C260.709 203.543 292.88 215.65 309.369 200.775L309.139 138.855C309.139 138.702 309.2 138.555 309.308 138.447C309.416 138.339 309.562 138.278 309.715 138.278C309.868 138.278 310.015 138.339 310.123 138.447C310.231 138.555 310.292 138.702 310.292 138.855V201.006C310.297 201.068 310.29 201.131 310.27 201.191C310.25 201.25 310.218 201.305 310.177 201.352C303.95 207.348 295.187 209.193 286.654 209.193Z" fill="#263238"/>
<path d="M303.488 110.95H303.372L282.271 108.413C282.118 108.413 281.971 108.352 281.863 108.244C281.755 108.136 281.694 107.989 281.694 107.836C281.722 107.674 281.807 107.526 281.934 107.42C282.06 107.314 282.221 107.258 282.386 107.26L303.603 109.797C303.735 109.859 303.848 109.957 303.929 110.079C304.011 110.2 304.057 110.342 304.064 110.488C304.064 110.719 303.718 110.95 303.488 110.95Z" fill="#263238"/>
<path d="M246.295 195.586C243.989 195.586 242.029 192.127 240.876 190.051C240.683 189.849 240.527 189.615 240.414 189.359C237.762 184.862 235.687 180.25 233.496 175.522C228.422 163.991 224.041 151.884 226.808 140.699C229.575 129.514 238.223 124.671 247.448 119.713L255.059 115.331C255.11 115.288 255.169 115.257 255.234 115.239C255.298 115.222 255.365 115.218 255.431 115.229C255.497 115.24 255.559 115.265 255.615 115.303C255.67 115.34 255.716 115.389 255.75 115.447C255.796 115.507 255.829 115.576 255.848 115.649C255.866 115.723 255.871 115.799 255.86 115.874C255.849 115.949 255.824 116.021 255.785 116.086C255.747 116.151 255.696 116.208 255.635 116.254C253.098 117.868 250.446 119.252 247.909 120.635C239.031 125.478 230.613 130.091 227.961 140.93C225.309 151.769 229.575 163.761 234.534 175.061C236.585 179.759 238.894 184.34 241.452 188.783L241.798 189.475C242.836 191.204 244.681 194.433 246.295 194.433H246.41C251.253 194.317 278.812 169.411 289.536 159.379L284.577 151.769L245.373 178.059C245.312 178.104 245.243 178.137 245.17 178.156C245.096 178.175 245.02 178.179 244.945 178.169C244.87 178.158 244.798 178.132 244.733 178.094C244.668 178.055 244.611 178.004 244.565 177.944C244.51 177.802 244.503 177.647 244.544 177.501C244.586 177.355 244.674 177.227 244.796 177.137L284.462 150.5H284.808L285.269 150.731V150.962L290.689 159.264C290.919 159.494 290.804 159.725 290.689 159.956C290.574 160.186 252.752 195.471 246.41 195.701L246.295 195.586Z" fill="#263238"/>
<path d="M283.079 76.8183H282.733C282.631 76.7133 282.564 76.5786 282.544 76.4335C282.523 76.2885 282.549 76.1406 282.618 76.0112C283.655 74.7428 285.961 71.0529 284.924 69.208C284.831 68.9732 284.691 68.7599 284.512 68.5814C284.334 68.4029 284.121 68.263 283.886 68.1702C283.625 68.1364 283.36 68.1719 283.117 68.2731C282.874 68.3743 282.662 68.5376 282.502 68.7467C282.373 68.8155 282.225 68.8413 282.08 68.8206C281.935 68.7999 281.8 68.7336 281.695 68.6314C281.589 68.5236 281.53 68.3787 281.53 68.2278C281.53 68.0769 281.589 67.932 281.695 67.8243C282.346 67.3049 283.172 67.057 284.001 67.1324C284.445 67.1936 284.864 67.377 285.21 67.662C285.556 67.947 285.816 68.3225 285.961 68.7467C287.46 71.3988 284.001 76.1265 283.54 76.703L283.079 76.8183Z" fill="#263238"/>
<path d="M321.13 124.095C315.134 124.095 310.176 122.019 307.063 118.099C303.949 114.178 302.681 107.951 304.411 101.494C306.59 94.7218 310.722 88.7445 316.287 84.3133C321.755 79.777 328.469 77.0032 335.544 76.357C342.116 76.011 347.651 78.0866 351.11 82.353C354.57 86.6194 355.492 92.5002 353.762 98.9574C352.033 105.415 347.766 111.295 341.886 116.138C336.429 120.694 329.71 123.47 322.629 124.095H321.13ZM337.043 77.5101H335.544C328.717 78.1485 322.244 80.8423 316.979 85.2357C311.329 89.8481 307.178 95.7288 305.564 101.84C303.949 107.951 304.756 113.371 307.985 117.407C311.214 121.443 316.403 123.287 322.629 122.942C329.475 122.377 335.969 119.674 341.194 115.216C346.844 110.604 350.995 104.723 352.609 98.6115C354.224 92.5002 353.532 87.0807 350.303 83.0449C347.075 79.0091 342.693 77.5101 337.043 77.5101Z" fill="#263238"/>
<path d="M324.821 128.131C319.056 128.131 313.982 126.17 310.754 122.135C307.525 118.099 306.372 111.987 308.101 105.645C310.182 98.8249 314.332 92.8204 319.978 88.4645C332.086 78.6633 347.768 77.7408 354.801 86.5043C358.261 90.7707 359.183 96.6514 357.453 102.993C355.332 109.794 351.189 115.787 345.577 120.174C339.004 125.478 331.509 128.131 324.821 128.131ZM340.734 81.546C334.276 81.546 327.012 84.1981 320.67 89.387C315.173 93.5451 311.168 99.3698 309.255 105.991C307.525 111.987 308.332 117.522 311.561 121.443C318.249 129.745 333.239 128.707 344.885 119.252C350.307 115.022 354.293 109.224 356.3 102.647C358.03 96.6514 357.107 91.1166 353.879 87.1961C350.65 83.2756 346.153 81.546 340.734 81.546Z" fill="#263238"/>
<path d="M315.941 125.94L304.065 139.431H303.949L288.613 156.843L285.846 150.385L284.577 151.077H284.116C284.647 150.252 284.928 149.291 284.923 148.31C285.731 148.079 284.923 147.272 284.923 147.041V145.542L293.802 137.24L294.379 136.779L310.291 120.751H311.329C312.01 120.963 312.639 121.317 313.174 121.789C314.363 122.721 315.279 123.955 315.826 125.363C315.775 125.458 315.759 125.567 315.78 125.672C315.801 125.778 315.858 125.872 315.941 125.94Z" fill="#263238"/>
<path d="M321.937 112.103C321.254 112.128 320.577 111.969 319.977 111.642C319.159 111.252 318.461 110.651 317.954 109.901C317.447 109.151 317.15 108.279 317.094 107.375C316.949 106.096 317.067 104.802 317.44 103.57C317.901 101.61 318.478 99.4189 319.17 97.228C319.217 96.89 319.339 96.5667 319.527 96.2816C319.715 95.9964 319.963 95.7565 320.255 95.579C320.546 95.4016 320.874 95.2911 321.213 95.2556C321.553 95.22 321.896 95.2603 322.218 95.3734C322.54 95.4866 322.833 95.6698 323.076 95.9099C323.318 96.15 323.505 96.441 323.621 96.7618C323.738 97.0826 323.782 97.4253 323.75 97.7652C323.718 98.105 323.611 98.4335 323.436 98.727C322.744 100.687 322.168 102.763 321.707 104.608C321.527 105.324 321.449 106.061 321.476 106.799C321.476 107.26 321.707 107.606 321.822 107.606C321.937 107.606 322.283 107.721 323.897 106.683C331.508 101.379 339.003 95.729 346.037 89.8483C346.256 89.659 346.511 89.5148 346.786 89.4239C347.062 89.3331 347.352 89.2974 347.641 89.3188C347.93 89.3402 348.212 89.4183 348.471 89.5488C348.73 89.6792 348.961 89.8593 349.15 90.0789C349.339 90.2984 349.483 90.5531 349.574 90.8284C349.665 91.1037 349.701 91.3942 349.679 91.6833C349.658 91.9724 349.58 92.2545 349.45 92.5134C349.319 92.7722 349.139 93.0029 348.919 93.1922C341.655 99.1882 334.16 104.954 326.434 110.258C325.157 111.314 323.588 111.957 321.937 112.103Z" fill="#39BBB8"/>
<path d="M321.937 112.679C321.171 112.668 320.419 112.47 319.746 112.103C318.858 111.674 318.096 111.025 317.53 110.218C316.965 109.41 316.616 108.471 316.517 107.491C316.382 106.097 316.499 104.691 316.863 103.339C317.324 101.495 317.901 99.3037 318.708 96.9975C318.808 96.6583 318.985 96.3466 319.225 96.0867C319.465 95.8268 319.762 95.6255 320.092 95.4985C320.401 95.3089 320.753 95.1991 321.115 95.179C321.477 95.1589 321.839 95.229 322.167 95.3832C322.524 95.4758 322.855 95.6486 323.135 95.8884C323.414 96.1282 323.636 96.4286 323.782 96.7669C323.971 97.0763 324.081 97.4279 324.101 97.7901C324.121 98.1524 324.051 98.514 323.897 98.8425C323.205 100.803 322.744 102.878 322.283 104.723C322.048 105.388 321.969 106.098 322.052 106.799V107.029L323.666 106.222C331.161 100.918 338.656 95.2679 345.69 89.3872C346.245 88.9388 346.937 88.6945 347.651 88.6953C348.413 88.7779 349.114 89.1493 349.611 89.7331C349.847 90.0195 350.02 90.3522 350.119 90.7097C350.219 91.0672 350.242 91.4416 350.187 91.8086C350.179 92.1651 350.092 92.5153 349.932 92.8342C349.773 93.1532 349.545 93.4329 349.265 93.6536C342 99.6496 334.505 105.415 326.78 110.719C325.406 111.856 323.715 112.541 321.937 112.679ZM321.36 96.3057H320.553C320.166 96.5407 319.878 96.9101 319.746 97.3434C319.054 99.419 318.477 101.725 318.016 103.57C317.655 104.725 317.538 105.942 317.67 107.145C317.702 107.951 317.955 108.733 318.403 109.404C318.851 110.076 319.475 110.611 320.207 110.95C320.717 111.291 321.325 111.453 321.937 111.411C323.502 111.281 324.99 110.678 326.203 109.681C333.814 104.377 341.309 98.6118 348.458 92.6158C348.631 92.503 348.774 92.3494 348.875 92.1685C348.975 91.9876 349.03 91.7849 349.034 91.578C349.098 91.3552 349.099 91.1191 349.038 90.8955C348.977 90.6719 348.856 90.4693 348.688 90.3096C348.386 89.985 347.976 89.7804 347.535 89.7331C347.322 89.73 347.11 89.7692 346.913 89.8484C346.715 89.9275 346.534 90.0451 346.382 90.1943C339.348 96.075 331.853 101.725 324.243 107.029C322.975 107.952 322.052 108.298 321.591 108.067C321.385 107.924 321.215 107.735 321.095 107.515C320.975 107.294 320.908 107.049 320.899 106.799C320.866 105.939 320.983 105.081 321.245 104.262C321.665 102.271 322.204 100.308 322.859 98.3812C322.927 98.173 322.952 97.9532 322.932 97.7352C322.912 97.5171 322.848 97.3054 322.744 97.1128C322.671 96.9113 322.548 96.7316 322.387 96.5904C322.225 96.4493 322.031 96.3513 321.821 96.3057H321.36Z" fill="#263238"/>
<path d="M334.275 131.129H333.929L329.317 127.9C329.194 127.808 329.113 127.672 329.092 127.52C329.07 127.369 329.109 127.215 329.201 127.093C329.293 126.971 329.43 126.89 329.581 126.868C329.732 126.846 329.886 126.886 330.008 126.978L334.505 130.206C334.851 130.322 334.851 130.667 334.736 131.013L334.275 131.129Z" fill="#263238"/>
<path d="M345.345 138.97H344.999L338.887 134.588C338.542 134.473 338.542 134.011 338.657 133.781C338.762 133.679 338.897 133.612 339.042 133.592C339.187 133.571 339.335 133.597 339.464 133.665L345.229 137.701L363.679 107.721C363.771 107.599 363.907 107.518 364.058 107.496C364.21 107.475 364.364 107.514 364.486 107.606C364.598 107.677 364.682 107.785 364.725 107.911C364.767 108.037 364.764 108.173 364.717 108.298L345.806 138.854C345.806 138.97 345.575 139.085 345.46 139.085L345.345 138.97Z" fill="#263238"/>
<path d="M371.406 96.6513H371.06C370.937 96.5596 370.857 96.423 370.835 96.2716C370.813 96.1202 370.853 95.9665 370.945 95.8441L380.515 80.1622L342.117 65.0568L333.7 77.1642C333.595 77.2664 333.46 77.3326 333.315 77.3534C333.17 77.3741 333.022 77.3482 332.893 77.2795C332.77 77.1877 332.69 77.0512 332.668 76.8998C332.646 76.7484 332.686 76.5947 332.777 76.4723L341.426 64.019C341.656 63.7884 341.887 63.6731 342.117 63.7884L381.553 79.355C381.645 79.355 381.733 79.3915 381.797 79.4564C381.862 79.5212 381.899 79.6092 381.899 79.701C381.956 79.7644 381.987 79.8465 381.987 79.9316C381.987 80.0167 381.956 80.0988 381.899 80.1622L371.867 96.4207C371.813 96.4923 371.744 96.5504 371.664 96.5904C371.584 96.6305 371.495 96.6513 371.406 96.6513Z" fill="#263238"/>
<path d="M253.79 172.063C253.559 172.063 253.329 171.948 253.329 171.717C253.329 171.487 245.718 143.121 244.911 140.123C244.911 139.777 245.026 139.431 245.372 139.431C245.718 139.431 245.949 139.546 246.064 139.777C248.947 151.769 253.559 169.988 254.251 171.141C254.291 171.208 254.317 171.283 254.327 171.361C254.338 171.439 254.332 171.519 254.31 171.594C254.289 171.67 254.252 171.74 254.202 171.801C254.152 171.862 254.09 171.912 254.021 171.948L253.79 172.063Z" fill="#263238"/>
<path d="M256.904 168.95L256.443 168.719L248.256 153.499C248.18 153.361 248.161 153.199 248.204 153.047C248.248 152.896 248.349 152.768 248.487 152.691C248.625 152.615 248.787 152.596 248.938 152.64C249.09 152.683 249.218 152.784 249.294 152.922L257.366 168.143C257.433 168.2 257.482 168.276 257.508 168.36C257.534 168.445 257.534 168.535 257.51 168.62C257.486 168.706 257.437 168.782 257.371 168.84C257.304 168.899 257.223 168.937 257.135 168.95H256.904Z" fill="#263238"/>
<path d="M240.299 172.986C240.069 172.986 239.838 172.755 239.723 172.409C239.723 172.256 239.783 172.11 239.892 172.002C240 171.894 240.146 171.833 240.299 171.833C243.528 171.372 246.756 170.91 249.87 170.219C250.216 170.219 250.562 170.334 250.562 170.68C250.562 171.026 250.446 171.256 250.1 171.372C246.987 172.063 243.643 172.525 240.415 172.986H240.299Z" fill="#263238"/>
<path d="M249.178 155.228H248.832C248.656 155.08 248.534 154.877 248.486 154.652C248.602 154.421 248.602 154.306 248.717 154.19L250.331 139.316C250.358 139.183 250.431 139.065 250.536 138.981C250.641 138.896 250.773 138.852 250.908 138.854C251.254 138.854 251.484 139.2 251.369 139.431L249.87 154.421H249.755C249.806 154.515 249.822 154.625 249.801 154.73C249.78 154.835 249.723 154.93 249.639 154.998L249.178 155.228Z" fill="#263238"/>
<path d="M305.103 138.278C304.987 140.238 303.027 144.274 303.027 144.274V144.85C302.912 145.312 302.797 146.004 302.566 146.926C302.054 148.763 301.011 150.407 299.568 151.654L298.53 152.461H298.415L290.228 158.226L289.075 156.497C289.075 156.497 285.962 152 285.154 150.385L285.731 149.693C285.78 148.758 285.662 147.821 285.385 146.926C285.27 146.58 285.27 146.234 285.154 146.004C285.081 145.816 285.053 145.614 285.073 145.413C285.093 145.213 285.16 145.02 285.27 144.85C285.27 144.735 285.5 144.62 285.731 144.389L293.226 137.24C293.765 136.867 294.346 136.558 294.956 136.318C295.359 136.025 295.842 135.864 296.339 135.856C296.57 135.856 296.685 135.972 296.801 136.318V136.779C296.202 138.727 295.43 140.618 294.494 142.429C294.494 142.66 294.725 142.66 294.84 142.198C296.468 141.095 298.162 140.094 299.914 139.2H300.029C302.22 138.047 304.411 137.24 304.872 137.701C304.903 137.701 304.932 137.714 304.954 137.735C304.975 137.757 304.987 137.786 304.987 137.817V138.393L305.103 138.278Z" fill="white"/>
<path d="M290.343 159.149L289.882 158.918C289.836 158.858 289.803 158.789 289.785 158.715C289.766 158.642 289.762 158.566 289.772 158.491C289.783 158.416 289.808 158.344 289.847 158.278C289.886 158.213 289.937 158.156 289.997 158.111C292.303 156.497 295.993 153.96 298.069 152.346H298.184C301.182 150.27 301.528 149.002 301.874 147.272V146.926C301.989 146.58 301.989 146.119 302.105 145.773C302.128 145.528 302.207 145.291 302.335 145.081C302.592 144.218 302.9 143.371 303.258 142.544C303.949 141.39 304.345 140.083 304.411 138.739V138.509C304.295 138.393 303.373 138.393 300.26 140.123C300.26 140.238 300.144 140.238 300.029 140.238C297.377 141.852 294.379 143.928 294.379 143.928C294.251 143.982 294.114 144.01 293.975 144.01C293.837 144.01 293.699 143.982 293.572 143.928C293.456 143.697 293.341 143.352 293.572 143.121L293.918 142.429C295.763 139.431 296.224 138.047 296.108 137.355C295.993 136.664 295.993 137.01 295.993 136.894H295.071C294.033 137.01 291.957 139.2 290.228 141.045C289.249 142.14 288.209 143.18 287.114 144.159C286.744 144.443 286.431 144.795 286.192 145.196C285.956 145.577 285.836 146.017 285.846 146.465V147.387C285.961 147.733 285.961 148.079 286.077 148.425C286.23 149.027 286.27 149.653 286.192 150.27C286.192 150.385 286.192 150.501 285.731 151.308C285.722 151.384 285.695 151.457 285.651 151.52C285.606 151.583 285.547 151.634 285.479 151.669C285.41 151.703 285.334 151.72 285.257 151.717C285.18 151.714 285.105 151.693 285.039 151.654C284.959 151.629 284.886 151.587 284.824 151.531C284.762 151.476 284.712 151.407 284.679 151.33C284.647 151.253 284.631 151.17 284.633 151.087C284.635 151.003 284.656 150.921 284.693 150.847H284.808C284.873 150.559 284.991 150.285 285.154 150.039C285.117 149.534 285.04 149.033 284.924 148.54C284.924 148.194 284.808 147.849 284.808 147.503C284.719 147.125 284.68 146.737 284.693 146.35C284.792 145.76 284.947 145.181 285.154 144.62H285.269C285.478 144.07 285.838 143.59 286.307 143.236L289.421 140.123C291.611 137.817 293.456 135.856 294.84 135.626H295.301C295.738 135.566 296.182 135.647 296.57 135.856C296.792 136.011 296.971 136.218 297.092 136.46C297.213 136.702 297.271 136.97 297.262 137.24C297.377 138.163 296.8 139.546 295.763 141.507L299.568 139.085H299.683C303.834 136.779 304.872 137.01 305.333 137.586V137.932C305.375 137.979 305.407 138.034 305.426 138.093C305.446 138.153 305.454 138.215 305.448 138.278C305.443 138.34 305.451 138.403 305.47 138.463C305.49 138.522 305.522 138.577 305.564 138.624C305.475 140.161 305.042 141.659 304.295 143.006C303.938 143.793 303.63 144.601 303.373 145.427C303.28 145.604 303.24 145.804 303.258 146.004C303.126 146.375 303.049 146.763 303.027 147.157V147.503C302.681 149.463 302.105 150.962 298.991 153.268L298.645 153.499L290.689 159.149H290.343Z" fill="#263238"/>
<path d="M338.197 159.264L337.62 159.033C337.565 158.892 337.557 158.737 337.599 158.591C337.641 158.445 337.729 158.317 337.851 158.226C339.802 156.999 341.619 155.569 343.27 153.96C343.381 153.877 343.518 153.836 343.657 153.846C343.795 153.856 343.926 153.915 344.024 154.013C344.122 154.111 344.181 154.242 344.191 154.38C344.201 154.519 344.161 154.656 344.077 154.767C342.348 156.416 340.454 157.884 338.427 159.149L338.197 159.264Z" fill="#263238"/>
<path d="M364.486 115.331C364.36 115.306 364.242 115.251 364.142 115.17C364.042 115.09 363.962 114.987 363.91 114.87C363.431 112.546 363.47 110.144 364.025 107.836C361.369 108.067 358.694 107.951 356.069 107.49C355.803 107.475 355.544 107.406 355.306 107.287C355.068 107.168 354.857 107.002 354.685 106.798C354.48 106.499 354.39 106.136 354.432 105.775C354.475 105.415 354.646 105.082 354.916 104.838C355.311 104.495 355.787 104.257 356.299 104.146C358.505 103.397 360.786 102.895 363.103 102.647C363.972 102.418 364.886 102.418 365.755 102.647C367.369 103.109 368.407 104.723 369.099 106.222C369.138 106.365 369.137 106.516 369.096 106.658C369.056 106.8 368.977 106.929 368.868 107.029C368.714 107.074 368.55 107.064 368.402 107.001C368.255 106.938 368.135 106.825 368.061 106.683C367.484 105.415 366.677 104.031 365.409 103.685C364.689 103.509 363.938 103.509 363.218 103.685C360.997 104.045 358.802 104.545 356.645 105.184L355.723 105.645C355.607 105.761 355.492 105.991 355.607 106.107C355.723 106.222 356.069 106.337 356.184 106.337C358.991 106.913 361.873 107.03 364.717 106.683C364.947 106.683 365.063 106.683 365.178 106.914C365.293 107.144 365.409 107.26 365.293 107.375C364.592 109.736 364.513 112.239 365.063 114.639C365.178 114.87 364.947 115.216 364.602 115.216L364.486 115.331Z" fill="#263238"/>
<path d="M356.531 104.723C356.3 104.723 356.07 104.723 355.954 104.492C355.79 104.398 355.651 104.264 355.551 104.103C355.45 103.943 355.391 103.759 355.378 103.57C355.419 103.059 355.621 102.575 355.954 102.186C356.693 101.552 357.558 101.08 358.491 100.803C361.187 99.821 364.105 99.6211 366.909 100.226C367.255 100.226 367.485 100.572 367.37 100.803C367.255 101.033 367.024 101.379 366.678 101.264C364.059 100.771 361.356 100.97 358.837 101.84C358.091 102.04 357.414 102.439 356.877 102.993C356.646 103.224 356.531 103.339 356.531 103.57H356.646C356.707 103.553 356.77 103.548 356.833 103.556C356.895 103.565 356.955 103.586 357.009 103.618C357.063 103.651 357.11 103.694 357.147 103.745C357.184 103.796 357.209 103.854 357.223 103.916C357.267 103.991 357.289 104.076 357.287 104.163C357.285 104.25 357.258 104.335 357.21 104.407C357.162 104.479 357.094 104.536 357.015 104.572C356.935 104.607 356.848 104.62 356.762 104.608L356.531 104.723Z" fill="#263238"/>
<path d="M371.29 118.214H370.944C370.842 118.109 370.776 117.975 370.755 117.83C370.734 117.685 370.76 117.537 370.829 117.407C372.16 115.813 373.025 113.882 373.33 111.827C373.635 109.773 373.368 107.674 372.558 105.761L372.328 105.3C372.067 104.669 371.874 104.012 371.751 103.34C371.693 102.765 371.693 102.185 371.751 101.61C371.866 101.039 371.866 100.451 371.751 99.8804C371.349 98.9216 370.611 98.1426 369.676 97.6895C367.801 96.1988 365.58 95.2071 363.218 94.8068C363.068 94.7427 362.904 94.7195 362.742 94.7398C362.58 94.76 362.426 94.823 362.296 94.9221C362.296 94.9221 362.181 95.2681 362.296 95.3834L364.948 96.8824C365.679 97.2429 366.253 97.858 366.562 98.612C366.752 99.0472 366.831 99.5225 366.793 99.9957V100.688C366.908 101.033 366.678 101.264 366.332 101.379C366.185 101.373 366.044 101.326 365.922 101.245C365.8 101.163 365.703 101.051 365.64 100.918V99.9957C365.668 99.6835 365.629 99.3689 365.525 99.0732C365.409 98.612 364.833 98.2661 364.256 97.9202L361.604 96.3058C361.444 96.1874 361.318 96.0295 361.237 95.8477C361.156 95.6658 361.124 95.4661 361.143 95.2681C361.096 95.0064 361.125 94.7368 361.228 94.4914C361.33 94.246 361.501 94.0352 361.719 93.8844C362.22 93.6399 362.785 93.5592 363.334 93.6537C365.875 94.0604 368.262 95.1349 370.252 96.7671C371.465 97.3637 372.411 98.3918 372.904 99.6498C373.02 100.337 373.02 101.038 372.904 101.725C372.787 102.218 372.787 102.732 372.904 103.224C372.965 103.785 373.121 104.331 373.366 104.839L373.596 105.3C374.477 107.4 374.771 109.701 374.446 111.955C374.121 114.209 373.19 116.333 371.751 118.099L371.29 118.214Z" fill="#263238"/>
<path d="M241.222 71.1683L245.719 65.7488L249.063 70.0152C246.571 70.9932 243.889 71.3876 241.222 71.1683Z" fill="white"/>
<path d="M259.671 106.568L255.981 115.793L270.164 122.942V112.795L275.814 121.558C278.58 117.516 280.899 113.186 282.733 108.644L278.467 103.686C278.467 103.686 273.278 111.988 270.049 111.757C266.82 111.527 259.671 106.568 259.671 106.568Z" fill="white"/>
<path d="M280.426 58.8302L281.695 67.0171C281.695 67.0171 285.961 67.1324 285.731 70.1304C285.5 73.1284 282.617 77.6255 282.617 77.6255C282.617 77.6255 284.693 90.4247 278.466 96.6513V102.993C278.466 102.993 274.546 111.065 270.279 112.795C270.279 112.795 263.361 110.258 260.132 107.144C260.132 107.144 255.289 90.0788 253.56 84.544C253.56 84.544 250.562 86.3889 248.601 84.6593C246.641 82.9296 243.297 78.7785 244.911 76.4724C246.526 74.1662 250.216 75.204 250.216 75.204L245.719 65.7487C245.719 65.7487 253.214 56.0628 263.13 56.4087C268.965 56.6038 274.762 57.4155 280.426 58.8302Z" fill="white"/>
<path d="M257.711 59.0608C259.929 62.6868 260.901 66.9386 260.478 71.1682C260.363 73.5897 259.671 75.8958 259.556 78.202C259.44 80.5082 260.478 85.8123 261.516 89.3869C262.554 92.9615 262.784 94.9217 264.975 96.0748C267.166 97.2279 267.281 96.3054 268.665 97.2279V97.5738C268.665 100.918 269.242 104.031 268.78 107.26C268.659 108.986 268.016 110.635 266.935 111.987L259.556 106.568C259.556 106.568 256.327 93.9992 253.098 84.7746C253.098 84.7746 247.91 86.043 245.719 81.8919C243.528 77.7408 243.758 76.0111 245.834 75.4346C247.593 75.1276 249.394 75.1668 251.138 75.5499L249.639 65.5181L255.635 59.4067L257.711 59.0608Z" fill="#39BBB8"/>
<path opacity="0.5" d="M257.711 59.0608C259.929 62.6868 260.901 66.9386 260.478 71.1682C260.363 73.5897 259.671 75.8958 259.556 78.202C259.44 80.5082 260.478 85.8123 261.516 89.3869C262.554 92.9615 262.784 94.9217 264.975 96.0748C267.166 97.2279 267.281 96.3054 268.665 97.2279V97.5738C268.665 100.918 269.242 104.031 268.78 107.26C268.659 108.986 268.016 110.635 266.935 111.987L259.556 106.568C259.556 106.568 256.327 93.9992 253.098 84.7746C253.098 84.7746 247.91 86.043 245.719 81.8919C243.528 77.7408 243.758 76.0111 245.834 75.4346C247.593 75.1276 249.394 75.1668 251.138 75.5499L249.639 65.5181L255.635 59.4067L257.711 59.0608Z" fill="white"/>
<path d="M250.215 77.9716L252.637 76.5879C252.637 76.5879 250.446 72.4368 252.983 70.4766C255.52 68.5163 257.711 66.0949 255.981 60.3295C255.981 60.3295 259.555 58.5998 265.206 59.9835C270.856 61.3672 285.154 62.9815 291.381 56.409C297.607 49.8364 298.184 47.2996 295.647 42.8026C293.11 38.3055 288.613 44.7628 281.118 41.6495C273.623 38.5362 267.973 35.7688 255.404 43.9557C242.836 52.1426 240.875 59.2917 243.412 64.2499C245.949 69.2082 248.255 73.5899 250.215 77.9716Z" fill="#263238"/>
<path d="M241.799 69.3232L243.298 65.7487C241.699 60.985 241.499 55.863 242.721 50.9892C245.258 41.3033 256.097 36.345 262.67 35.4226C269.242 34.5001 274.201 37.7287 279.159 40.1502L288.268 41.9951C288.268 41.9951 260.479 45.3391 241.799 69.3232Z" fill="white"/>
<path d="M273.969 98.4964C269.818 98.4964 262.784 96.7668 259.671 94.1147H259.556L252.983 84.6594C252.914 84.53 252.889 84.3821 252.909 84.237C252.93 84.0919 252.996 83.9572 253.098 83.8522C253.444 83.7369 253.79 83.7369 253.906 83.9675L260.478 93.4228C264.168 96.5361 273.393 98.0351 275.93 97.228C278.466 96.4208 281.58 94.23 282.272 84.4287C282.963 74.6275 280.542 61.5977 280.427 61.3671C280.311 61.1365 280.657 60.7905 280.888 60.7905C281.118 60.7905 281.58 60.9058 281.58 61.1365C281.58 61.3671 284.232 74.5122 283.425 84.5441C282.617 94.5759 279.158 97.3433 276.275 98.2658C275.527 98.4811 274.746 98.5592 273.969 98.4964Z" fill="#263238"/>
<path d="M250.445 85.6973C249.641 85.6997 248.848 85.5015 248.139 85.1207C246.223 83.8963 244.827 82.0073 244.219 79.8165C243.763 78.6686 243.763 77.3899 244.219 76.242C245.603 73.7052 249.638 75.4348 249.869 75.5501C249.981 75.6212 250.065 75.7289 250.108 75.8549C250.15 75.981 250.147 76.1177 250.1 76.242C250.091 76.3183 250.063 76.3913 250.019 76.4543C249.975 76.5173 249.916 76.5683 249.847 76.6027C249.779 76.6371 249.703 76.6537 249.626 76.6511C249.549 76.6485 249.474 76.6268 249.408 76.5879C249.292 76.5879 246.179 75.2042 245.257 76.8185C245.082 77.2388 244.992 77.6895 244.992 78.1446C244.992 78.5997 245.082 79.0503 245.257 79.4706C245.887 81.3693 247.097 83.0227 248.716 84.1983C249.3 84.4566 249.935 84.5803 250.574 84.5604C251.213 84.5404 251.839 84.3772 252.406 84.0829C252.473 84.0427 252.548 84.0167 252.626 84.0066C252.704 83.9964 252.783 84.0023 252.859 84.0239C252.935 84.0455 253.005 84.0824 253.066 84.1322C253.127 84.182 253.177 84.2437 253.213 84.3136C253.26 84.4378 253.263 84.5745 253.221 84.7006C253.179 84.8267 253.095 84.9343 252.982 85.0054C252.242 85.5212 251.345 85.7655 250.445 85.6973Z" fill="#263238"/>
<path d="M273.623 80.3928C273.497 80.3674 273.379 80.3122 273.279 80.232C273.179 80.1518 273.099 80.0488 273.047 79.9316C273.03 79.8558 273.029 79.7774 273.043 79.701C273.057 79.6247 273.087 79.5521 273.13 79.4875C273.173 79.4228 273.229 79.3676 273.294 79.325C273.359 79.2825 273.432 79.2535 273.508 79.2398C274.195 79.1238 274.812 78.7532 275.238 78.202C275.353 77.9714 275.584 77.6254 275.468 77.3948L275.238 77.0489L274.085 75.6652C273.787 75.2825 273.553 74.8541 273.393 74.3968C273.302 73.9804 273.264 73.5544 273.277 73.1284C273.182 71.8171 273.26 70.499 273.508 69.2079C273.535 69.0757 273.607 68.9572 273.713 68.8729C273.818 68.7886 273.95 68.744 274.085 68.7467C274.43 68.862 274.661 69.0926 274.546 69.4386C274.392 70.6236 274.354 71.8207 274.43 73.0131C274.412 73.363 274.451 73.7135 274.546 74.0509C274.651 74.4163 274.806 74.7655 275.007 75.0887L276.045 76.2417L276.506 76.9336C276.617 77.2632 276.644 77.6154 276.583 77.9579C276.523 78.3004 276.377 78.6223 276.16 78.8938C275.521 79.6249 274.678 80.1472 273.739 80.3928H273.623Z" fill="#263238"/>
<path d="M270.165 85.5817H268.666C267.411 85.5069 266.19 85.1523 265.091 84.544C264.969 84.4522 264.888 84.3156 264.866 84.1643C264.845 84.0129 264.884 83.8591 264.976 83.7368C265.01 83.6797 265.056 83.6307 265.112 83.5932C265.167 83.5557 265.229 83.5307 265.295 83.5197C265.361 83.5087 265.428 83.5122 265.492 83.5297C265.557 83.5473 265.616 83.5786 265.667 83.6215C266.646 84.102 267.699 84.4139 268.781 84.544H269.242C269.856 84.6797 270.495 84.6397 271.087 84.4287C271.211 84.3815 271.348 84.3787 271.474 84.4207C271.6 84.4627 271.708 84.547 271.779 84.6593C271.846 84.7167 271.896 84.7922 271.921 84.877C271.947 84.9617 271.947 85.052 271.923 85.137C271.899 85.2221 271.851 85.2984 271.784 85.3568C271.718 85.4152 271.636 85.4533 271.548 85.4664C271.103 85.617 270.628 85.6566 270.165 85.5817Z" fill="#263238"/>
<path d="M261.978 67.4784H261.632C261.571 67.433 261.52 67.376 261.482 67.3109C261.443 67.2457 261.418 67.1736 261.407 67.0987C261.396 67.0237 261.401 66.9474 261.419 66.8741C261.438 66.8007 261.471 66.7318 261.517 66.6712C261.996 65.7375 262.664 64.9131 263.477 64.2498C264.093 63.6918 264.831 63.2864 265.632 63.0661C266.433 62.8458 267.275 62.8167 268.089 62.9814C268.175 62.9692 268.263 62.9816 268.342 63.0172C268.422 63.0527 268.489 63.1099 268.537 63.1822C268.586 63.2545 268.612 63.339 268.615 63.4258C268.617 63.5127 268.595 63.5985 268.55 63.6732C268.55 63.9038 268.205 64.1344 267.859 64.1344C267.214 64.0011 266.547 64.0147 265.908 64.1744C265.27 64.3341 264.675 64.6358 264.169 65.0569C263.529 65.7758 262.95 66.5473 262.439 67.3631C262.375 67.414 262.3 67.4506 262.221 67.4705C262.141 67.4904 262.059 67.4931 261.978 67.4784Z" fill="#263238"/>
<path d="M280.311 66.7867C280.185 66.7612 280.067 66.7061 279.967 66.6259C279.867 66.5456 279.787 66.4427 279.735 66.3255C279.727 66.1124 279.645 65.9087 279.504 65.7489L278.812 65.403C278.21 65.0889 277.544 64.9154 276.865 64.8954C276.186 64.8754 275.511 65.0095 274.892 65.2877C274.754 65.3641 274.592 65.3828 274.44 65.3395C274.289 65.2963 274.161 65.1947 274.084 65.0571C274.008 64.9195 273.989 64.7571 274.033 64.6057C274.076 64.4544 274.177 64.3264 274.315 64.2499C275.098 63.899 275.949 63.7272 276.807 63.7472C277.665 63.7671 278.508 63.9783 279.273 64.3652C279.664 64.4635 280.021 64.6623 280.311 64.9418C280.615 65.2596 280.815 65.6614 280.888 66.0948C281.003 66.4408 280.772 66.6714 280.426 66.7867H280.311Z" fill="#263238"/>
<path d="M267.627 71.5143C267.742 72.4368 267.396 73.1286 267.05 73.1286C266.704 73.1286 266.128 72.5521 266.128 71.7449C266.128 70.9378 266.243 70.1306 266.704 70.1306C267.166 70.1306 267.512 70.7072 267.627 71.5143Z" fill="#263238"/>
<path d="M278.235 70.9377C278.235 71.8601 278.005 72.552 277.543 72.552C277.082 72.552 276.736 71.9754 276.621 71.1683C276.506 70.3611 276.852 69.554 277.313 69.554C277.774 69.554 278.12 70.1305 278.235 70.9377Z" fill="#263238"/>
<path d="M278.465 104.262C278.34 104.236 278.222 104.181 278.121 104.101C278.021 104.021 277.941 103.918 277.889 103.801C277.606 101.545 277.529 99.2675 277.658 96.9974C277.658 96.8445 277.719 96.6979 277.827 96.5898C277.935 96.4816 278.082 96.4209 278.235 96.4209C278.581 96.4209 278.811 96.7668 278.696 96.9974C278.658 99.232 278.774 101.467 279.042 103.685C279.157 104.031 278.927 104.262 278.581 104.262H278.465Z" fill="#263238"/>
<path d="M259.556 107.029C259.421 107.032 259.29 106.987 259.184 106.903C259.079 106.819 259.007 106.7 258.98 106.568C258.288 100.687 256.443 95.6137 254.598 90.1942C253.906 88.3493 253.214 86.3891 252.638 84.4288C252.599 84.3625 252.577 84.2876 252.574 84.2108C252.572 84.134 252.589 84.0577 252.623 83.989C252.657 83.9203 252.708 83.8612 252.771 83.8172C252.834 83.7732 252.907 83.7456 252.984 83.737C253.121 83.6986 253.268 83.7128 253.396 83.7767C253.524 83.8406 253.624 83.9497 253.675 84.0829C254.367 86.0431 254.944 88.0034 255.636 89.8483C257.596 95.2678 259.441 100.457 260.133 106.453C260.133 106.683 259.902 107.029 259.672 107.029H259.556Z" fill="#263238"/>
<path d="M241.221 71.7449H240.99C240.87 71.6771 240.773 71.5751 240.712 71.4518C240.65 71.3285 240.627 71.1897 240.644 71.053C244.334 55.3711 253.444 45.5699 268.664 41.1881C277.774 38.536 289.535 41.3034 289.996 41.4188C290.114 41.4712 290.217 41.5509 290.297 41.6512C290.377 41.7515 290.432 41.8694 290.458 41.9953C290.342 42.3412 290.227 42.5718 289.881 42.5718C280.217 43.5702 270.891 46.68 262.562 51.6814C254.233 56.6828 247.105 63.4534 241.682 71.5142C241.682 71.6296 241.452 71.7449 241.221 71.7449ZM277.658 41.1881C274.698 41.166 271.749 41.554 268.895 42.3412C255.289 46.2617 246.641 54.6792 242.605 68.1703C253.184 54.097 268.808 44.6733 286.191 41.88C283.369 41.4294 280.516 41.1981 277.658 41.1881Z" fill="#263238"/>
<path d="M242.375 72.2062H241.106C241.026 72.1815 240.953 72.1398 240.891 72.0839C240.829 72.028 240.78 71.9593 240.747 71.8825C240.714 71.8058 240.698 71.7228 240.7 71.6393C240.703 71.5558 240.723 71.4738 240.76 71.399C240.812 71.2659 240.912 71.1567 241.04 71.0928C241.167 71.0289 241.315 71.0147 241.452 71.0531C241.452 71.0531 243.528 71.6296 247.564 69.9C247.705 69.8447 247.86 69.8372 248.006 69.8789C248.152 69.9206 248.28 70.009 248.371 70.1306C248.408 70.2054 248.428 70.2874 248.431 70.3709C248.433 70.4544 248.417 70.5374 248.384 70.6141C248.351 70.6909 248.302 70.7596 248.24 70.8155C248.178 70.8714 248.105 70.9131 248.025 70.9378C246.252 71.7544 244.326 72.1866 242.375 72.2062Z" fill="#263238"/>
<path d="M242.605 65.2876C242.605 65.057 237.07 47.6454 250.677 39.2279C267.512 28.9655 279.388 39.9198 279.504 40.0351L278.697 40.8422C278.235 40.4963 267.281 30.4645 251.368 40.2657C238.339 48.222 243.643 64.7111 243.758 64.9417L242.605 65.2876Z" fill="#263238"/>
<path d="M270.164 123.519H269.933C269.472 123.288 257.71 118.33 255.404 115.562C255.289 115.332 255.174 115.101 255.289 114.986L259.094 106.338C259.209 106.107 259.325 105.992 259.555 105.992C259.786 105.992 259.901 105.992 260.017 106.107C262.932 108.951 266.493 111.048 270.394 112.218C270.505 112.266 270.598 112.348 270.66 112.451C270.722 112.554 270.75 112.675 270.74 112.795V122.942C270.74 123.032 270.719 123.12 270.679 123.2C270.639 123.28 270.581 123.35 270.51 123.403L270.164 123.519ZM256.442 115.101C258.748 117.292 267.05 120.982 269.587 122.135V113.141C265.95 111.988 262.607 110.06 259.786 107.491L256.442 115.101Z" fill="#263238"/>
<path d="M275.814 122.135L275.353 121.904L269.703 113.025C269.703 112.91 269.587 112.795 269.703 112.679C269.818 112.564 269.818 112.333 269.933 112.333C270.049 112.333 276.506 108.067 278.12 102.878C278.149 102.799 278.195 102.726 278.255 102.667C278.314 102.607 278.387 102.561 278.466 102.532C278.697 102.532 278.927 102.532 279.043 102.763L283.194 108.298C283.309 108.413 283.309 108.528 283.309 108.759C283.309 108.989 281.233 117.638 276.275 122.019L275.814 122.135ZM270.971 112.91L275.929 120.751C279.85 116.83 281.81 110.143 282.156 108.759L278.812 104.262C276.967 108.528 272.47 111.872 270.971 112.91Z" fill="#263238"/>
<path d="M258.748 54.1026C258.622 54.0771 258.504 54.022 258.403 53.9418C258.303 53.8616 258.224 53.7586 258.171 53.6414C258.163 53.4916 258.203 53.3432 258.286 53.2184C258.369 53.0936 258.491 52.9993 258.632 52.9495C262.773 51.8957 267.049 51.4681 271.316 51.6811L275.006 52.0271C277.753 52.4474 280.542 52.5249 283.308 52.2577C286.998 51.6811 291.149 49.4903 291.956 45.6851C291.944 45.5991 291.957 45.5113 291.992 45.432C292.028 45.3527 292.085 45.2851 292.157 45.2369C292.23 45.1887 292.314 45.1619 292.401 45.1596C292.488 45.1573 292.574 45.1796 292.648 45.2239C292.879 45.2239 293.109 45.5698 292.994 45.9157C292.072 50.2974 287.575 52.8342 283.539 53.4108C280.657 53.6809 277.754 53.6035 274.891 53.1801L271.201 52.8342C267.047 52.6206 262.886 53.0484 258.863 54.1026H258.748Z" fill="white"/>
<path d="M266.935 49.8365C266.704 49.8365 266.589 49.7212 266.473 49.4906C266.434 49.3478 266.435 49.197 266.475 49.0546C266.516 48.9123 266.595 48.7838 266.704 48.6834C270.163 46.8385 274.199 46.4925 278.004 46.3772H278.235C279.945 46.3249 281.646 46.093 283.308 45.6854C284.117 45.5189 284.883 45.1872 285.557 44.711C286.232 44.2348 286.801 43.6244 287.229 42.918C287.459 42.5721 287.805 42.4567 288.036 42.6874C288.267 42.918 288.382 43.1486 288.267 43.4945C287.143 45.1404 285.465 46.3273 283.539 46.8385C281.836 47.2382 280.098 47.4699 278.35 47.5303H278.004C274.314 47.6456 270.509 47.9915 267.28 49.7212L266.935 49.8365Z" fill="white"/>
<path d="M67.3344 276.763C63.7599 278.262 76.905 299.94 81.2868 300.978C85.6685 302.016 99.2749 268.346 95.585 266.501C91.8951 264.656 82.4399 292.906 80.5949 292.906C78.75 292.906 71.0243 275.379 67.3344 276.763Z" fill="#263238"/>
<path d="M212.047 300.286L209.856 315.507C209.856 315.507 210.778 323.694 195.442 327.268C188.985 328.767 179.414 327.729 170.536 326C163.123 324.568 155.807 322.681 148.627 320.35L151.048 315.391L154.623 307.55V306.628L154.277 304.091L149.434 305.705L111.498 318.274L107.577 309.741L139.518 290.254V284.95L133.406 284.719C133.406 281.721 135.366 276.763 135.366 276.763L138.941 275.841C138.941 275.841 135.712 241.248 136.865 235.944C138.019 230.64 149.088 224.067 149.088 224.067C150.821 228.696 154.298 232.463 158.774 234.56L161.657 227.526L164.309 233.176C171.227 230.063 177.108 218.878 177.108 218.878C177.108 218.878 192.905 223.029 204.436 240.671C215.967 258.314 212.047 300.286 212.047 300.286Z" fill="#39BBB8"/>
<path opacity="0.2" d="M182.643 305.475C189.677 313.431 160.273 309.165 159.12 309.049C162.457 310.211 165.354 312.373 167.418 315.241C169.481 318.11 170.61 321.544 170.651 325.077C163.163 324.285 155.78 322.7 148.627 320.349L151.048 315.391L154.508 306.628L154.162 304.091L151.279 287.833C151.279 287.833 172.842 290.485 191.406 293.367L161.08 294.982C161.08 294.982 175.379 297.288 182.643 305.475Z" fill="black"/>
<path opacity="0.2" d="M148.051 273.188L174.918 268.461C174.11 259.928 174.918 251.049 178.838 243.323C179.789 241.446 181.035 239.733 182.528 238.25C183.105 237.558 185.641 238.019 185.295 241.479C184.373 248.512 184.142 247.475 183.105 254.508L180.798 268.691C180.798 268.691 195.558 264.886 197.633 277.339C197.645 277.496 197.616 277.653 197.55 277.796C197.484 277.938 197.383 278.061 197.256 278.154C197.129 278.246 196.98 278.305 196.825 278.324C196.669 278.343 196.51 278.321 196.365 278.262C192.906 276.648 184.258 272.958 181.144 273.765C181.144 273.765 168.46 273.534 164.194 274.572C159.928 275.61 148.512 275.725 148.512 275.725L148.051 273.188Z" fill="black"/>
<path opacity="0.2" d="M107.577 309.741L111.498 318.274L154.277 304.091L151.394 287.948L139.402 286.333V290.254L107.577 309.741Z" fill="black"/>
<path d="M108.961 312.624L106.886 310.548C106.886 310.548 100.198 309.511 96.7384 311.01C93.2792 312.509 82.6708 316.544 83.8239 317.121C84.9769 317.697 91.0883 317.813 91.0883 317.813C91.0883 317.813 77.8278 326 77.9431 327.037C78.0584 328.075 90.7424 327.037 92.7026 326.576C94.6629 326.115 110.691 317.121 110.691 317.121L108.961 312.624Z" fill="white"/>
<path d="M133.291 283.336L135.136 277.685C135.136 277.685 129.14 270.998 126.027 270.536C122.914 270.075 118.878 271.689 118.878 271.689C118.878 271.689 113.228 268.461 112.421 270.075C111.613 271.689 112.536 274.918 112.536 274.918C112.536 274.918 109.999 279.069 111.729 280.568C112.695 281.529 113.305 282.789 113.458 284.143C113.458 284.143 125.796 287.025 133.291 283.336Z" fill="white"/>
<path d="M112.304 270.651C113.688 268.922 114.841 274.918 115.994 276.763C116.562 277.737 117.261 278.629 118.069 279.415C119.684 280.798 121.875 280.914 123.95 280.914C127.116 280.975 130.282 280.743 133.405 280.222L134.097 282.528C134.097 282.528 126.948 286.333 113.457 284.142C113.174 282.795 112.582 281.532 111.727 280.452C110.459 278.953 112.304 275.494 112.304 275.494C112.304 275.494 110.92 272.15 112.304 270.651Z" fill="#39BBB8"/>
<path opacity="0.5" d="M112.304 270.651C113.688 268.922 114.841 274.918 115.994 276.763C116.562 277.737 117.261 278.629 118.069 279.415C119.684 280.798 121.875 280.914 123.95 280.914C127.116 280.975 130.282 280.743 133.405 280.222L134.097 282.528C134.097 282.528 126.948 286.333 113.457 284.142C113.174 282.795 112.582 281.532 111.727 280.452C110.459 278.953 112.304 275.494 112.304 275.494C112.304 275.494 110.92 272.15 112.304 270.651Z" fill="white"/>
<path d="M107.924 256.815C104.58 261.657 96.7392 262.119 90.6278 257.737C84.5165 253.355 82.7868 245.976 86.2461 241.133C89.7054 236.29 96.9698 235.828 103.081 240.095C109.192 244.361 111.383 251.856 107.924 256.815Z" fill="white"/>
<path d="M88.8968 239.864C88.8968 239.864 88.5509 251.626 107.346 255.085C107.346 255.085 108.038 259.928 101.465 259.121C94.8929 258.314 88.205 252.318 86.8213 248.858C85.4376 245.399 84.9763 241.017 88.8968 239.864Z" fill="#39BBB8"/>
<path opacity="0.4" d="M88.8968 239.864C88.8968 239.864 88.5509 251.626 107.346 255.085C107.346 255.085 108.038 259.928 101.465 259.121C94.8929 258.314 88.205 252.318 86.8213 248.858C85.4376 245.399 84.9763 241.017 88.8968 239.864Z" fill="white"/>
<path d="M101.582 259.697H100.774C97.3709 259.365 94.1513 257.996 91.5497 255.777C88.8216 253.739 86.8369 250.863 85.8996 247.59C85.3648 246.256 85.1961 244.803 85.4109 243.381C85.6257 241.96 86.2162 240.622 87.1214 239.505C88.0265 238.388 89.2135 237.533 90.5597 237.029C91.9058 236.524 93.3622 236.389 94.7784 236.636C98.1836 236.874 101.42 238.209 104.003 240.441C106.695 242.512 108.671 245.375 109.653 248.628C110.134 249.972 110.269 251.415 110.048 252.825C109.826 254.235 109.254 255.567 108.385 256.699C107.562 257.693 106.518 258.482 105.337 259.002C104.157 259.523 102.871 259.761 101.582 259.697ZM93.9712 237.673C92.8463 237.626 91.7251 237.83 90.6882 238.268C89.6513 238.707 88.7247 239.37 87.9752 240.21C87.2516 241.214 86.7796 242.377 86.599 243.601C86.4184 244.825 86.5345 246.074 86.9374 247.244C87.8767 250.3 89.7274 252.995 92.2416 254.97C94.7117 256.983 97.719 258.226 100.89 258.544C103.657 258.66 106.079 257.852 107.462 256.007C108.205 255.014 108.698 253.856 108.898 252.631C109.099 251.407 109.002 250.152 108.615 248.974C107.676 245.918 105.825 243.222 103.311 241.248C100.831 239.252 97.8288 238.011 94.663 237.673H93.9712Z" fill="#263238"/>
<path d="M99.852 261.658H99.0448C95.6396 261.419 92.4032 260.084 89.8202 257.852C87.1162 255.792 85.1375 252.925 84.17 249.665C83.6894 248.321 83.5537 246.878 83.7753 245.468C83.9969 244.058 84.5687 242.726 85.4384 241.594C88.7824 237.327 96.3927 237.673 102.273 242.401C108.154 247.129 110.114 254.508 106.655 258.775C105.821 259.748 104.772 260.515 103.592 261.015C102.412 261.515 101.132 261.735 99.852 261.658ZM86.2456 242.17C85.5131 243.17 85.0357 244.333 84.8548 245.559C84.6739 246.784 84.7951 248.036 85.2078 249.204C86.193 252.235 88.035 254.914 90.5111 256.92C92.9872 258.925 95.9913 260.17 99.1601 260.504C100.378 260.624 101.606 260.456 102.747 260.016C103.889 259.575 104.911 258.874 105.733 257.968C108.846 254.162 106.886 247.59 101.582 243.208C96.2774 238.826 89.3589 238.365 86.2456 242.17Z" fill="#263238"/>
<path d="M121.76 273.188L113.112 270.652L104.003 260.274V260.043C104.231 259.377 104.678 258.808 105.271 258.429C105.508 258.162 105.838 257.997 106.194 257.968H106.655L121.76 273.188Z" fill="#263238"/>
<path d="M111.497 318.851C111.377 318.86 111.257 318.832 111.154 318.77C111.05 318.708 110.969 318.615 110.921 318.505L107 309.972C106.953 309.848 106.95 309.711 106.992 309.585C107.034 309.459 107.119 309.351 107.231 309.28L138.826 289.908V286.449C138.826 286.296 138.886 286.149 138.994 286.041C139.103 285.933 139.249 285.872 139.402 285.872C139.555 285.872 139.702 285.933 139.81 286.041C139.918 286.149 139.979 286.296 139.979 286.449V290.254C139.979 290.485 139.863 290.6 139.633 290.715L108.269 309.972L111.843 317.582L154.046 303.63C154.113 303.591 154.188 303.569 154.264 303.567C154.341 303.564 154.417 303.581 154.486 303.615C154.555 303.649 154.614 303.7 154.658 303.763C154.702 303.826 154.729 303.899 154.738 303.976C154.777 304.042 154.799 304.117 154.801 304.194C154.804 304.271 154.787 304.347 154.753 304.416C154.719 304.484 154.668 304.543 154.605 304.587C154.542 304.631 154.469 304.659 154.392 304.668L111.613 318.851H111.497Z" fill="#263238"/>
<path d="M138.595 276.417C138.472 276.417 138.355 276.369 138.268 276.282C138.182 276.196 138.133 276.078 138.133 275.956L135.827 236.982V236.751C138.458 230.866 142.903 225.977 148.511 222.799C148.857 222.683 149.203 222.683 149.318 223.029C149.357 223.088 149.383 223.154 149.392 223.224C149.401 223.294 149.395 223.365 149.373 223.432C149.35 223.499 149.313 223.559 149.264 223.61C149.214 223.66 149.154 223.698 149.088 223.721C143.745 226.795 139.508 231.475 136.98 237.097L139.171 275.841C139.189 275.91 139.191 275.983 139.176 276.053C139.161 276.123 139.129 276.188 139.085 276.244C139.04 276.3 138.983 276.345 138.918 276.375C138.853 276.405 138.781 276.419 138.71 276.417H138.595Z" fill="#263238"/>
<path d="M208.472 324.04C208.126 324.04 207.895 323.694 208.011 323.463L211.585 300.286C211.585 299.94 212.738 262.465 207.088 247.705C201.438 232.946 184.142 222.683 177.223 219.57C177.144 219.545 177.07 219.504 177.008 219.448C176.946 219.392 176.897 219.323 176.864 219.246C176.831 219.17 176.815 219.087 176.818 219.003C176.82 218.92 176.84 218.838 176.878 218.763C176.968 218.641 177.096 218.553 177.242 218.511C177.388 218.47 177.543 218.477 177.685 218.532C184.719 221.761 201.899 230.87 208.241 247.359C214.583 263.849 212.738 298.787 212.623 300.401L209.049 323.578C209.049 323.924 208.818 324.04 208.472 324.04Z" fill="#263238"/>
<path d="M148.511 276.302C148.385 276.276 148.267 276.221 148.167 276.141C148.067 276.061 147.987 275.958 147.934 275.84L143.437 250.934C143.42 250.873 143.416 250.81 143.424 250.747C143.432 250.685 143.453 250.625 143.486 250.571C143.518 250.517 143.561 250.47 143.612 250.433C143.664 250.396 143.722 250.371 143.783 250.357C143.858 250.313 143.944 250.291 144.031 250.293C144.118 250.295 144.202 250.322 144.274 250.37C144.347 250.418 144.404 250.486 144.439 250.565C144.475 250.645 144.487 250.732 144.475 250.818L149.088 275.61C149.104 275.686 149.106 275.764 149.091 275.84C149.077 275.917 149.047 275.989 149.004 276.054C148.961 276.118 148.905 276.174 148.841 276.216C148.776 276.259 148.703 276.288 148.626 276.302H148.511Z" fill="#263238"/>
<path d="M166.269 316.544L165.923 316.314C163.506 313.966 160.463 312.364 157.159 311.701C156.813 311.701 156.583 311.355 156.698 311.125C156.813 310.894 157.044 310.548 157.275 310.664C160.881 311.247 164.199 312.987 166.73 315.622C166.835 315.73 166.895 315.874 166.895 316.025C166.895 316.176 166.835 316.321 166.73 316.429L166.269 316.544Z" fill="#263238"/>
<path d="M181.145 274.226C181.01 274.229 180.878 274.184 180.773 274.1C180.668 274.016 180.595 273.897 180.568 273.765C180.568 273.65 180.568 265.347 183.566 250.703C184.125 247.731 185.015 244.83 186.218 242.055C186.309 241.934 186.437 241.845 186.583 241.803C186.729 241.762 186.884 241.769 187.026 241.825C187.138 241.896 187.222 242.003 187.264 242.129C187.306 242.255 187.303 242.392 187.256 242.516C186.109 245.222 185.259 248.045 184.719 250.934C181.606 265.463 181.721 273.65 181.721 273.65C181.721 273.803 181.661 273.949 181.553 274.057C181.444 274.165 181.298 274.226 181.145 274.226Z" fill="#263238"/>
<path d="M196.018 293.829C185.525 293.829 142.515 286.91 133.175 285.411C133.058 285.359 132.955 285.279 132.875 285.179C132.794 285.078 132.739 284.96 132.714 284.835C132.714 278.723 135.251 276.532 135.366 276.417H135.712C140.67 275.84 145.282 275.61 149.549 275.264C153.815 274.918 158.428 274.803 163.501 274.226C172.841 273.073 184.603 271.689 194.404 276.532C194.484 276.557 194.557 276.599 194.619 276.655C194.681 276.71 194.73 276.779 194.763 276.856C194.796 276.933 194.812 277.016 194.81 277.099C194.807 277.183 194.787 277.265 194.75 277.339C194.649 277.448 194.521 277.527 194.379 277.568C194.236 277.609 194.085 277.609 193.943 277.57C184.487 272.842 172.841 274.226 163.617 275.379C158.543 275.956 154.046 276.186 149.664 276.417C145.282 276.648 140.901 276.994 136.058 277.57C135.597 278.031 133.982 279.992 133.867 284.373C158.428 288.409 195.211 293.944 197.632 292.675C200.054 291.407 204.205 270.19 206.857 257.045C206.857 256.699 207.203 256.469 207.434 256.584C207.664 256.699 208.01 256.93 207.895 257.16C206.742 262.926 200.976 291.753 198.209 293.713C197.488 293.857 196.75 293.896 196.018 293.829Z" fill="#263238"/>
<path d="M134.905 277.916H134.559C131.792 275.264 127.41 271.574 126.372 271.343C123.976 271.408 121.587 271.639 119.223 272.035C119.058 272.038 118.897 271.981 118.771 271.875C118.644 271.769 118.559 271.622 118.531 271.459C118.531 271.228 118.762 270.882 118.992 270.882C119.223 270.882 124.758 269.96 126.488 270.306C128.217 270.652 134.098 275.956 135.251 276.994C135.353 277.099 135.419 277.233 135.44 277.378C135.461 277.523 135.435 277.671 135.366 277.801L134.905 277.916Z" fill="#263238"/>
<path d="M121.645 285.642C118.908 285.686 116.172 285.532 113.458 285.181C113.305 285.181 113.158 285.12 113.05 285.012C112.942 284.904 112.881 284.757 112.881 284.604C112.866 284.053 112.735 283.512 112.497 283.015C112.258 282.519 111.918 282.078 111.498 281.721C109.653 280.338 111.267 276.302 111.844 274.918C111.498 274.243 111.308 273.499 111.288 272.741C111.268 271.982 111.419 271.229 111.728 270.537C111.798 270.289 111.93 270.064 112.111 269.882C112.293 269.7 112.519 269.568 112.766 269.499C114.496 268.807 118.301 270.882 121.76 272.843L122.452 273.304C122.683 273.304 122.798 273.304 122.798 273.535C122.798 273.765 123.028 273.996 122.798 274.226C122.567 274.457 122.337 274.457 121.184 273.881C120.03 273.304 114.726 270.075 113.112 270.652L112.766 270.882C111.959 273.419 112.881 274.457 112.881 274.457C112.974 274.544 113.035 274.658 113.056 274.783C113.077 274.908 113.056 275.037 112.997 275.149C112.074 276.994 111.267 280.107 112.074 280.799C112.63 281.175 113.094 281.67 113.433 282.249C113.772 282.828 113.978 283.475 114.034 284.143C116.456 284.374 128.217 285.181 132.83 282.875C132.972 282.835 133.123 282.836 133.266 282.877C133.408 282.917 133.536 282.996 133.637 283.105C133.674 283.18 133.694 283.262 133.697 283.345C133.699 283.429 133.683 283.512 133.65 283.589C133.618 283.665 133.568 283.734 133.506 283.79C133.444 283.846 133.371 283.888 133.291 283.912C130.639 285.296 125.796 285.642 121.645 285.642Z" fill="#263238"/>
<path d="M182.066 248.858C181.931 248.861 181.799 248.816 181.694 248.732C181.589 248.648 181.516 248.529 181.489 248.397C181.143 245.718 181.143 243.005 181.489 240.326C181.516 240.193 181.589 240.075 181.694 239.991C181.799 239.906 181.931 239.862 182.066 239.864C182.219 239.864 182.365 239.925 182.473 240.033C182.582 240.141 182.642 240.288 182.642 240.441C182.296 243.043 182.296 245.68 182.642 248.282C182.642 248.435 182.582 248.581 182.473 248.69C182.365 248.798 182.219 248.858 182.066 248.858Z" fill="#263238"/>
<path d="M148.166 295.097H147.935L138.826 291.522C138.683 291.449 138.571 291.328 138.508 291.181C138.445 291.033 138.435 290.869 138.48 290.715C138.57 290.594 138.698 290.505 138.844 290.463C138.99 290.422 139.146 290.429 139.287 290.484L148.281 294.059C148.361 294.084 148.434 294.125 148.496 294.181C148.558 294.237 148.607 294.306 148.64 294.383C148.673 294.459 148.689 294.542 148.687 294.626C148.684 294.709 148.664 294.791 148.627 294.866C148.511 294.982 148.396 295.097 148.166 295.097Z" fill="#263238"/>
<path d="M185.525 272.497C185.393 272.47 185.274 272.397 185.19 272.292C185.105 272.187 185.061 272.055 185.064 271.92C185.046 271.851 185.044 271.778 185.059 271.708C185.074 271.638 185.105 271.572 185.15 271.516C185.195 271.461 185.252 271.416 185.317 271.386C185.382 271.356 185.453 271.341 185.525 271.344C187.832 271.251 190.119 270.863 192.328 270.191C192.403 270.153 192.485 270.133 192.568 270.131C192.652 270.128 192.735 270.144 192.811 270.177C192.888 270.21 192.957 270.259 193.013 270.321C193.069 270.383 193.11 270.457 193.135 270.536C193.144 270.686 193.103 270.835 193.02 270.959C192.937 271.084 192.815 271.179 192.674 271.228C190.39 271.939 188.028 272.365 185.64 272.497H185.525Z" fill="#263238"/>
<path d="M149.088 320.58H148.857C148.626 320.465 148.396 320.119 148.511 319.888L154.046 306.282L150.702 287.833C150.671 287.68 150.703 287.521 150.789 287.391C150.876 287.261 151.01 287.171 151.163 287.141C151.316 287.11 151.475 287.142 151.605 287.228C151.734 287.315 151.824 287.449 151.855 287.602L155.199 306.167V306.859L149.78 320.234C149.728 320.368 149.628 320.477 149.5 320.541C149.372 320.604 149.225 320.619 149.088 320.58Z" fill="#263238"/>
<path d="M171.226 308.127H171.111C167.468 307.363 163.763 306.939 160.042 306.858C158.267 306.839 156.494 306.955 154.737 307.204C154.663 307.249 154.577 307.271 154.49 307.269C154.403 307.266 154.319 307.239 154.246 307.191C154.174 307.143 154.117 307.075 154.081 306.996C154.046 306.917 154.033 306.829 154.046 306.743C154.052 306.597 154.099 306.455 154.18 306.333C154.261 306.211 154.374 306.114 154.507 306.051C156.341 305.807 158.191 305.691 160.042 305.705C163.839 305.779 167.622 306.204 171.342 306.974C171.572 307.089 171.803 307.435 171.688 307.666C171.688 307.726 171.676 307.786 171.653 307.842C171.629 307.898 171.595 307.949 171.553 307.992C171.51 308.035 171.459 308.068 171.403 308.092C171.347 308.115 171.287 308.127 171.226 308.127Z" fill="#263238"/>
<path d="M81.4016 328.536C80.2756 328.597 79.1471 328.481 78.0576 328.19C77.9113 328.183 77.7696 328.137 77.6477 328.056C77.5258 327.974 77.4284 327.862 77.3658 327.729C77.2504 327.268 76.9045 326.461 88.8966 318.62C86.7057 318.735 84.169 318.62 83.4771 317.813C83.3555 317.722 83.2671 317.594 83.2254 317.448C83.1837 317.302 83.1911 317.147 83.2465 317.005C83.5924 315.968 85.668 315.045 90.3956 313.2C92.4812 312.527 94.4907 311.638 96.3916 310.548C100.082 307.896 108.153 310.779 108.499 310.894C108.845 311.009 108.96 311.355 108.845 311.586C108.836 311.662 108.809 311.735 108.765 311.798C108.721 311.861 108.662 311.912 108.593 311.947C108.524 311.981 108.448 311.998 108.371 311.995C108.294 311.992 108.219 311.971 108.153 311.932C108.038 311.932 100.312 309.164 97.0835 311.471C95.1065 312.601 93.0204 313.528 90.8568 314.238C88.5507 315.16 84.9761 316.544 84.3996 317.236C83.823 317.928 87.9741 317.582 91.0875 317.236C91.2077 317.226 91.3279 317.254 91.4314 317.316C91.5348 317.378 91.6162 317.471 91.664 317.582C91.7032 317.64 91.7284 317.707 91.7378 317.777C91.7472 317.847 91.7406 317.918 91.7183 317.984C91.696 318.051 91.6588 318.112 91.6094 318.162C91.56 318.212 91.4998 318.25 91.4334 318.274C86.0139 321.848 80.2485 325.884 78.7495 327.268C81.2862 327.614 91.2028 327.153 93.9702 325.192C98.9284 321.733 109.998 316.89 110.459 316.659C110.534 316.622 110.616 316.602 110.7 316.6C110.783 316.597 110.866 316.613 110.943 316.646C111.02 316.679 111.088 316.728 111.144 316.79C111.2 316.852 111.242 316.926 111.266 317.005C111.305 317.072 111.327 317.147 111.33 317.223C111.332 317.3 111.316 317.376 111.281 317.445C111.247 317.514 111.196 317.573 111.133 317.617C111.07 317.661 110.997 317.689 110.921 317.697C110.805 317.813 99.505 322.771 94.662 326.115C92.2405 327.729 85.668 328.536 81.4016 328.536Z" fill="#263238"/>
<path d="M84.5156 328.421C84.2849 328.421 84.1696 328.306 84.0543 328.075C83.939 327.845 83.939 327.499 84.2849 327.383L93.0484 321.964C93.1707 321.872 93.3245 321.833 93.4758 321.854C93.6272 321.876 93.7638 321.957 93.8555 322.079C93.8958 322.147 93.9217 322.222 93.9319 322.3C93.942 322.378 93.9361 322.457 93.9145 322.533C93.8929 322.608 93.8561 322.679 93.8063 322.739C93.7565 322.8 93.6948 322.85 93.6249 322.886L84.8615 328.306L84.5156 328.421Z" fill="#263238"/>
<path opacity="0.2" d="M136.404 236.981C136.404 236.981 142.4 244.361 144.13 252.779C145.86 261.196 148.512 275.725 148.512 275.725L139.172 276.417L136.404 236.981Z" fill="black"/>
<path d="M180.106 404.525C180.106 404.525 164.539 420.322 162.579 423.55C160.619 426.779 158.313 428.509 162.002 430.238C165.692 431.968 176.992 430.815 179.76 429.777C182.527 428.739 194.058 414.441 194.058 414.441L192.674 402.795L180.106 404.525Z" fill="white"/>
<path d="M168.345 432.199C162.925 432.199 159.812 430.7 159.236 427.932C158.659 425.165 176.301 407.869 178.377 406.024L178.607 405.793H178.953L180.337 406.254C184.658 407.604 189.206 408.075 193.713 407.638H194.289V408.215C194.343 409.761 194.497 411.301 194.75 412.827V413.058C194.405 413.75 186.794 429.431 176.878 431.161C174.066 431.739 171.213 432.086 168.345 432.199ZM178.953 407.062C170.766 414.326 159.812 425.396 160.389 427.702C160.965 430.008 167.076 431.853 176.762 430.239C186.448 428.624 192.906 414.441 193.713 412.827C193.465 411.533 193.311 410.223 193.251 408.907C186.218 409.252 182.874 408.33 179.991 407.408L178.953 407.062Z" fill="#263238"/>
<path d="M172.266 429.085C168.184 428.982 164.172 427.999 160.505 426.203H160.39L160.736 425.049H160.966C164.425 426.664 171.113 429.085 177.34 427.01C183.567 424.934 193.022 408.791 193.137 408.56L194.06 409.137C193.598 409.829 183.682 426.202 177.686 428.163C175.936 428.743 174.109 429.054 172.266 429.085Z" fill="#263238"/>
<path d="M174.456 382.501C174.456 382.501 134.559 414.672 118.186 414.672C118.186 414.672 109.307 411.559 106.078 398.875C102.85 386.191 115.072 367.741 115.072 367.741L147.935 323.809L150.126 320.811C150.126 320.811 184.027 333.149 206.512 316.198C206.512 316.198 208.818 343.988 203.168 355.403C197.518 366.819 174.456 382.501 174.456 382.501Z" fill="#263238"/>
<path d="M118.993 413.749H117.956C111.383 412.02 106.079 402.103 105.156 395.761C104.234 389.419 111.498 370.278 120.146 359.208C128.795 348.139 148.512 323.002 148.628 322.771L149.55 323.463C149.435 323.693 129.948 348.715 121.069 359.9C112.19 371.085 105.502 389.996 106.309 395.531C107.117 401.065 112.19 411.097 118.186 412.712H119.109C126.719 412.712 157.852 395.761 169.614 383.769L170.421 384.576C159.005 396.222 127.642 413.749 118.993 413.749Z" fill="#263238"/>
<path d="M135.368 384H134.906C134.815 383.878 134.775 383.724 134.797 383.573C134.818 383.421 134.899 383.285 135.022 383.193L174.227 348.485C172.66 343.495 170.241 338.813 167.077 334.648C167.032 334.587 166.999 334.519 166.98 334.445C166.961 334.372 166.957 334.296 166.968 334.221C166.979 334.146 167.004 334.074 167.043 334.008C167.081 333.943 167.132 333.886 167.193 333.841C167.315 333.749 167.469 333.71 167.62 333.731C167.772 333.753 167.908 333.834 168 333.956C171.281 338.353 173.814 343.262 175.495 348.485C175.513 348.61 175.502 348.738 175.462 348.859C175.422 348.979 175.354 349.088 175.264 349.177L135.713 384H135.368Z" fill="white"/>
<path d="M195.558 396.453C197.633 388.382 211.932 342.95 212.047 334.763C212.162 326.576 205.705 306.282 197.633 300.747C189.562 295.212 178.953 302.016 176.762 307.089C172.957 316.314 177.685 407.062 177.685 407.062L176.762 407.869C182.564 409.31 188.565 409.778 194.52 409.252C194.158 404.958 194.509 400.633 195.558 396.453Z" fill="#263238"/>
<path d="M176.763 370.047C176.61 370.047 176.463 369.987 176.355 369.879C176.247 369.77 176.186 369.624 176.186 369.471C175.955 367.28 171.343 315.737 176.186 305.475C176.199 305.387 176.237 305.305 176.296 305.239C176.354 305.172 176.43 305.124 176.515 305.1C176.601 305.075 176.691 305.076 176.776 305.102C176.86 305.127 176.936 305.177 176.993 305.244C177.105 305.315 177.19 305.423 177.232 305.549C177.274 305.675 177.271 305.812 177.224 305.936C172.496 315.852 177.339 368.894 177.339 369.356C177.332 369.502 177.286 369.644 177.204 369.765C177.123 369.887 177.01 369.985 176.878 370.047H176.763Z" fill="white"/>
<path d="M212.508 336.954C212.355 336.954 212.209 336.893 212.101 336.785C211.992 336.677 211.932 336.53 211.932 336.377C211.83 332.751 211.288 329.15 210.317 325.654V325.077C210.317 324.731 210.433 324.385 210.779 324.385C211.125 324.385 211.355 324.501 211.47 324.731V325.308C212.446 328.96 212.988 332.714 213.085 336.493C213.058 336.625 212.985 336.743 212.88 336.828C212.775 336.912 212.643 336.957 212.508 336.954Z" fill="white"/>
<path d="M209.51 321.157C209.279 321.157 209.048 321.041 209.048 320.811C207.267 315.441 204.95 310.264 202.13 305.36C202.085 305.299 202.051 305.23 202.033 305.157C202.014 305.083 202.01 305.007 202.02 304.932C202.031 304.857 202.057 304.785 202.095 304.72C202.134 304.655 202.185 304.598 202.245 304.552C202.313 304.512 202.388 304.486 202.466 304.476C202.544 304.466 202.623 304.472 202.699 304.493C202.774 304.515 202.845 304.552 202.905 304.602C202.966 304.651 203.016 304.713 203.052 304.783C205.967 309.735 208.326 314.995 210.086 320.465C210.202 320.696 209.971 321.041 209.74 321.157H209.51Z" fill="white"/>
<path d="M171.919 215.65L176.993 218.878C176.993 218.878 170.882 229.256 164.194 233.176L161.542 228.103L158.659 234.56L152.317 229.025L148.858 223.491L149.78 219.455C149.78 219.455 144.13 214.035 140.325 202.735C136.52 191.435 136.289 185.208 136.289 185.208C136.289 185.208 153.701 175.407 157.621 177.944C161.542 180.481 167.076 187.168 167.076 187.168L173.188 186.131C173.188 186.131 177.108 197.546 171.573 199.852L171.919 215.65Z" fill="white"/>
<path d="M157.621 182.095C154.622 181.287 151.394 182.902 148.972 184.977C146.551 187.053 144.821 189.82 142.284 191.781C144.474 198.792 147.133 205.649 150.241 212.305C150.931 214.143 152.082 215.771 153.585 217.033C156.122 218.993 159.927 218.647 162.694 217.148C165.424 215.752 167.822 213.786 169.728 211.383C169.728 211.383 165 227.757 161.541 227.526L155.084 222.683C152.61 221.265 150.257 219.645 148.05 217.84C145.628 215.765 140.67 202.965 139.286 199.506L135.712 185.669L154.392 178.059L157.621 182.095Z" fill="#39BBB8"/>
<path opacity="0.5" d="M157.621 182.095C154.622 181.287 151.394 182.902 148.972 184.977C146.551 187.053 144.821 189.82 142.284 191.781C144.474 198.792 147.133 205.649 150.241 212.305C150.931 214.143 152.082 215.771 153.585 217.033C156.122 218.993 159.927 218.647 162.694 217.148C165.424 215.752 167.822 213.786 169.728 211.383C169.728 211.383 165 227.757 161.541 227.526L155.084 222.683C152.61 221.265 150.257 219.645 148.05 217.84C145.628 215.765 140.67 202.965 139.286 199.506L135.712 185.669L154.392 178.059L157.621 182.095Z" fill="white"/>
<path d="M169.729 200.659L167.999 200.429C167.848 200.358 167.723 200.243 167.64 200.098C167.558 199.954 167.522 199.787 167.538 199.622C167.611 199.48 167.732 199.367 167.879 199.304C168.027 199.241 168.191 199.231 168.345 199.276C169.358 199.643 170.475 199.602 171.458 199.16C172.707 198.336 173.578 197.051 173.88 195.586C174.571 193.049 174.226 189.475 173.072 187.976C172.929 187.77 172.74 187.6 172.52 187.48C172.3 187.36 172.055 187.293 171.804 187.284C169.959 187.399 168.46 191.665 168.114 193.164C167.768 194.663 167.768 193.626 167.422 193.51C167.076 193.395 166.961 193.164 167.076 192.819C167.192 192.473 168.691 186.246 171.689 186.131C172.136 186.131 172.578 186.235 172.978 186.435C173.378 186.635 173.726 186.926 173.995 187.284C175.379 189.129 175.84 192.934 175.033 195.817C174.226 198.699 173.418 199.391 172.035 200.083C171.341 200.502 170.538 200.703 169.729 200.659Z" fill="#263238"/>
<path d="M153.815 211.498H153.354C153.191 211.471 153.043 211.386 152.938 211.259C152.832 211.132 152.775 210.972 152.777 210.806C152.804 210.674 152.877 210.556 152.982 210.471C153.088 210.387 153.219 210.342 153.354 210.345C157.736 210.46 159.004 207.924 159.004 207.808C159.095 207.687 159.223 207.598 159.369 207.557C159.515 207.515 159.67 207.522 159.811 207.578C159.933 207.668 160.021 207.797 160.063 207.942C160.105 208.088 160.097 208.244 160.042 208.385C160.042 208.5 158.543 211.498 153.815 211.498Z" fill="#263238"/>
<path d="M151.509 207.232C150.407 207.211 149.331 206.892 148.396 206.309C147.98 206.134 147.649 205.803 147.473 205.387C147.244 204.754 147.244 204.06 147.473 203.427C147.917 201.853 148.073 200.213 147.935 198.584C147.923 197.809 147.741 197.046 147.402 196.348C147.064 195.651 146.576 195.037 145.974 194.548C145.869 194.44 145.81 194.295 145.81 194.144C145.81 193.994 145.869 193.849 145.974 193.741C146.02 193.68 146.077 193.629 146.142 193.591C146.207 193.552 146.279 193.527 146.354 193.516C146.429 193.505 146.505 193.51 146.579 193.528C146.652 193.547 146.721 193.58 146.782 193.626C147.469 194.239 148.027 194.983 148.423 195.814C148.819 196.646 149.045 197.548 149.088 198.469C149.244 200.257 149.049 202.059 148.511 203.773C148.454 204.155 148.454 204.544 148.511 204.926C148.626 205.156 148.857 205.272 148.972 205.387C150.005 206.027 151.248 206.234 152.432 205.964C152.578 205.97 152.72 206.017 152.842 206.098C152.963 206.179 153.061 206.292 153.124 206.425C153.168 206.5 153.19 206.585 153.188 206.672C153.185 206.759 153.159 206.843 153.11 206.916C153.062 206.988 152.995 207.045 152.915 207.081C152.836 207.116 152.748 207.129 152.662 207.117L151.509 207.232Z" fill="#263238"/>
<path d="M158.427 191.55H158.082C157.062 190.862 155.905 190.403 154.691 190.204C153.477 190.005 152.234 190.071 151.048 190.397C150.973 190.441 150.887 190.464 150.8 190.461C150.713 190.459 150.629 190.432 150.557 190.384C150.484 190.336 150.427 190.268 150.392 190.189C150.356 190.11 150.344 190.022 150.356 189.936C150.241 189.705 150.471 189.359 150.702 189.244C152.052 188.918 153.455 188.872 154.824 189.11C156.192 189.348 157.497 189.865 158.658 190.628C158.728 190.664 158.79 190.714 158.839 190.775C158.889 190.836 158.926 190.906 158.948 190.981C158.969 191.057 158.975 191.136 158.965 191.214C158.955 191.292 158.929 191.367 158.889 191.435L158.427 191.55Z" fill="#263238"/>
<path d="M138.25 195.47H138.019C137.673 195.355 137.673 195.009 137.789 194.663C138.109 194.087 138.556 193.591 139.095 193.212C139.634 192.833 140.252 192.58 140.902 192.472C141.523 192.306 142.172 192.271 142.808 192.37C143.443 192.47 144.051 192.701 144.592 193.049C144.714 193.141 144.795 193.277 144.817 193.429C144.838 193.58 144.799 193.734 144.707 193.856C144.636 193.968 144.528 194.053 144.402 194.095C144.276 194.137 144.14 194.134 144.015 194.087C143.597 193.804 143.127 193.608 142.632 193.509C142.137 193.41 141.627 193.41 141.133 193.51C140.649 193.623 140.195 193.834 139.797 194.132C139.4 194.43 139.07 194.807 138.826 195.24C138.762 195.329 138.674 195.398 138.572 195.439C138.47 195.48 138.358 195.491 138.25 195.47Z" fill="#263238"/>
<path d="M153.701 196.624C153.932 197.431 154.623 198.008 155.085 197.892C155.546 197.777 155.661 196.854 155.431 196.047C155.2 195.24 154.508 194.664 153.932 194.779C153.355 194.894 153.355 195.817 153.701 196.624Z" fill="#263238"/>
<path d="M143.668 199.391C144.014 200.313 144.591 200.89 145.052 200.659C145.513 200.429 145.744 199.737 145.398 198.814C145.052 197.892 144.476 197.431 144.014 197.546C143.755 197.768 143.58 198.072 143.517 198.408C143.454 198.743 143.507 199.09 143.668 199.391Z" fill="#263238"/>
<path d="M155.199 222.222C152.201 222.222 148.281 220.608 143.668 211.96C139.056 203.312 135.597 187.284 135.597 187.168C135.597 187.053 135.712 186.592 136.058 186.477C136.404 186.361 136.634 186.592 136.634 186.938C136.634 187.284 139.748 202.158 144.591 211.383C149.434 220.608 153.354 221.415 156.122 221.069C158.889 220.723 167.191 215.534 169.497 211.037L171.342 200.083C171.458 199.737 171.688 199.506 172.034 199.622C172.38 199.737 172.495 199.968 172.495 200.198L170.65 211.268H170.535C168.229 216.111 159.581 221.761 156.237 222.107L155.199 222.222Z" fill="#263238"/>
<path d="M171.572 216.341C171.42 216.341 171.273 216.281 171.165 216.172C171.057 216.064 170.996 215.918 170.996 215.765C170.506 210.423 170.661 205.042 171.457 199.737C171.52 199.604 171.617 199.492 171.739 199.41C171.861 199.329 172.003 199.283 172.149 199.276C172.225 199.289 172.298 199.318 172.363 199.361C172.428 199.403 172.484 199.459 172.527 199.523C172.57 199.588 172.6 199.661 172.614 199.737C172.628 199.813 172.627 199.892 172.61 199.967C171.815 205.156 171.66 210.423 172.149 215.649C172.142 215.796 172.096 215.937 172.014 216.059C171.933 216.181 171.82 216.279 171.688 216.341H171.572Z" fill="#263238"/>
<path d="M163.963 233.983L160.734 227.411L161.196 227.065C165.462 223.952 171.343 215.419 171.458 215.304L171.689 214.842L177.685 218.647V219.109C173.995 228.564 165.001 233.407 164.655 233.638L163.963 233.983ZM162.233 227.757L164.424 232.369C166.385 231.216 173.188 226.604 176.301 219.109L172.035 216.341C170.766 218.186 166.039 224.643 162.233 227.757Z" fill="#263238"/>
<path d="M159.005 235.367L158.428 235.137C158.082 234.906 150.933 230.64 148.396 224.182L148.742 218.993H149.895L149.55 223.952C151.51 228.91 156.699 232.6 158.428 233.753L160.734 227.872C159.581 227.411 156.929 225.912 153.816 221.761L154.623 221.069C158.544 226.143 161.657 226.95 161.657 226.95L162.233 227.18L159.005 235.367Z" fill="#263238"/>
<path d="M167.883 192.472C167.537 193.51 165.923 193.395 164.885 193.741C164.885 191.319 164.885 189.013 163.271 187.053C161.656 185.093 159.465 186.592 158.197 185.669C156.929 184.747 157.39 183.133 156.583 182.441C155.776 181.749 151.163 181.979 149.78 182.325C148.14 183.067 146.593 183.995 145.167 185.093C141.477 187.399 135.712 189.244 131.446 187.399C127.179 185.554 126.603 176.791 132.022 175.292C135.481 174.254 139.632 174.83 142.746 173.101C145.859 171.371 161.656 158.572 170.65 169.065C173.232 172.016 174.969 175.609 175.679 179.465C176.389 183.32 176.046 187.296 174.686 190.974C174.686 190.974 171.688 180.25 167.883 192.472Z" fill="#263238"/>
<path d="M130.984 186.938C130.849 186.94 130.717 186.896 130.612 186.811C130.507 186.727 130.434 186.609 130.407 186.476C130.407 186.324 130.468 186.177 130.576 186.069C130.684 185.961 130.831 185.9 130.984 185.9C135.02 185.554 138.594 183.133 141.938 180.596L145.513 178.174C147.725 176.876 150.039 175.758 152.431 174.83C154.351 174.111 156.378 173.722 158.427 173.677C160.921 173.707 163.352 174.465 165.421 175.858C167.49 177.251 169.107 179.219 170.073 181.518C170.121 181.642 170.123 181.779 170.081 181.905C170.039 182.031 169.955 182.139 169.843 182.21C169.701 182.265 169.546 182.273 169.4 182.231C169.254 182.189 169.126 182.101 169.036 181.979C168.158 179.883 166.686 178.088 164.801 176.818C162.916 175.548 160.7 174.857 158.427 174.83C156.49 174.877 154.577 175.268 152.777 175.983C150.422 176.776 148.175 177.861 146.089 179.212L142.63 181.518C139.055 184.055 135.365 186.707 130.984 186.938Z" fill="white"/>
<path d="M136.75 179.327C136.081 179.324 135.419 179.207 134.79 178.981C134.444 178.981 134.328 178.635 134.444 178.29C134.559 177.944 134.79 177.828 135.135 177.944C138.249 178.751 141.593 176.906 144.591 175.292C147.589 173.677 153.239 170.91 158.197 170.679C163.155 170.449 168.575 172.87 170.766 176.906C170.804 176.974 170.828 177.049 170.837 177.126C170.846 177.204 170.839 177.282 170.818 177.357C170.796 177.432 170.76 177.502 170.712 177.563C170.663 177.624 170.603 177.675 170.535 177.713C170.467 177.751 170.392 177.775 170.315 177.784C170.237 177.793 170.159 177.786 170.084 177.765C170.009 177.743 169.939 177.707 169.878 177.659C169.817 177.611 169.766 177.551 169.728 177.482C167.768 173.793 163.271 171.602 158.197 171.832C153.124 172.063 148.972 174.254 145.167 176.329C141.362 178.405 139.633 179.327 136.75 179.327Z" fill="white"/>
</svg>
