<svg width="139" height="43" viewBox="0 0 139 43" fill="none" xmlns="http://www.w3.org/2000/svg">
<path d="M9.73836 35.3036V41.0751C8.98653 40.5844 8.26621 40.0487 7.5819 39.4679C5.21385 37.4555 3.30951 34.9614 1.99943 32.1432C1.90939 31.9541 1.99943 31.8551 2.19752 31.9226L8.60386 34.1061C8.95951 34.5247 9.33768 34.9209 9.73836 35.3036Z" fill="#211E1F"/>
<path d="M4.70934 25.4625C4.28615 23.5717 4.11057 21.6403 4.18711 19.709C2.8275 20.3077 1.20229 21.1721 0.0317669 22.0095C-0.00424904 22.6308 -0.00875103 23.2476 0.0137589 23.8643C0.0542769 25.1204 0.207345 26.3719 0.472962 27.6055C0.5585 28.0017 0.653042 28.3933 0.76109 28.785C0.788102 28.8885 0.869138 28.9696 0.968182 29.0056L6.4201 30.8604L9.73806 31.9904V27.1778L4.70934 25.4625Z" fill="#211E1F"/>
<path d="M22.9155 31.6662C23.001 31.6932 23.0461 31.7877 23.0191 31.8732C23.0191 31.8778 23.0146 31.8823 23.0146 31.8868C21.7 34.8085 19.7551 37.3972 17.315 39.4726C16.6127 40.0669 15.8789 40.6161 15.1046 41.1158V35.3533C15.4917 34.9841 15.8609 34.597 16.212 34.1918L15.1046 33.8136V29.001L16.194 29.3701L18.7737 30.248L22.9155 31.6662Z" fill="#211E1F"/>
<path d="M24.8602 22.0048C23.3836 20.9513 21.7764 20.0915 20.0791 19.4477C15.1629 17.5838 9.72902 17.5838 4.81284 19.4477L4.67778 19.5017C4.59675 21.0954 4.69579 22.6936 4.96591 24.2648C6.56862 23.495 8.45045 22.9772 10.1702 22.7431V41.3544C10.904 41.8046 11.6649 42.2143 12.4437 42.5744C13.2181 42.2188 13.9699 41.8181 14.6947 41.3679L14.7217 41.3499V22.7386C16.6666 23.0042 18.5484 23.6075 20.2817 24.5214C20.1872 25.719 19.9621 26.903 19.6109 28.051L23.9103 29.5141C24.1084 28.8884 24.275 28.2491 24.4145 27.6008C24.8107 25.764 24.9593 23.8821 24.8602 22.0048Z" fill="#39BEBA"/>
<path d="M34.6826 32.8428V26.0628H32.5946V25.0068H38.9546V26.0628H36.8786V32.8428H34.6826ZM40.6925 32.8428C40.2765 32.8428 39.9885 32.7468 39.8285 32.5548C39.6685 32.3548 39.5885 32.0588 39.5885 31.6668V28.8348C39.5885 28.4428 39.6685 28.1508 39.8285 27.9588C39.9885 27.7588 40.2765 27.6588 40.6925 27.6588L43.1045 27.6468V28.4268H41.8205C41.6925 28.4348 41.5765 28.4628 41.4725 28.5108C41.3765 28.5508 41.3205 28.6428 41.3045 28.7868C41.2965 28.8428 41.2885 28.9028 41.2805 28.9668C41.2805 29.0308 41.2805 29.0908 41.2805 29.1468C41.2725 29.2268 41.2685 29.3068 41.2685 29.3868C41.2765 29.4588 41.2805 29.5308 41.2805 29.6028C41.2805 29.6508 41.2805 29.6988 41.2805 29.7468C41.2805 29.7868 41.2805 29.8268 41.2805 29.8668L42.9125 29.8548V30.6348H41.2805C41.2805 30.6828 41.2805 30.7348 41.2805 30.7908C41.2805 30.8388 41.2765 30.8868 41.2685 30.9348C41.2685 30.9828 41.2685 31.0348 41.2685 31.0908C41.2685 31.1388 41.2685 31.1908 41.2685 31.2468C41.2685 31.3588 41.2725 31.4708 41.2805 31.5828C41.2885 31.6868 41.3085 31.7828 41.3405 31.8708C41.3645 31.9348 41.4045 31.9828 41.4605 32.0148C41.5245 32.0388 41.5885 32.0548 41.6525 32.0628C41.6845 32.0708 41.7125 32.0748 41.7365 32.0748C41.7685 32.0748 41.7965 32.0748 41.8205 32.0748L43.1885 32.0628V32.8428H40.6925ZM44.2827 32.8428V27.6468H46.5507C46.5747 27.6548 46.5947 27.6588 46.6107 27.6588C46.6347 27.6588 46.6587 27.6588 46.6827 27.6588C47.1867 27.6748 47.6467 27.7908 48.0627 28.0068C48.4787 28.2228 48.6867 28.6268 48.6867 29.2188C48.6867 29.5628 48.6027 29.8428 48.4347 30.0588C48.2667 30.2668 48.0267 30.4188 47.7147 30.5148L49.2387 32.8428H47.2587L46.0827 30.3948V30.2868C46.4347 30.2388 46.6907 30.1108 46.8507 29.9028C47.0187 29.6948 47.0667 29.4068 46.9947 29.0388C46.9307 28.7428 46.7907 28.5588 46.5747 28.4868C46.3667 28.4068 46.1347 28.3748 45.8787 28.3908V32.8428H44.2827ZM50.552 31.1748H51.848L51.224 28.9188L50.552 31.1748ZM49.172 32.8428L50.528 28.6068C50.616 28.3268 50.74 28.0748 50.9 27.8508C51.06 27.6188 51.308 27.4988 51.644 27.4908C51.972 27.4828 52.212 27.5868 52.364 27.8028C52.524 28.0108 52.644 28.2548 52.724 28.5348L54.128 32.8428H52.352L52.064 31.8948H50.336L50.06 32.8428H49.172ZM54.6852 32.8428V32.0628H56.0652C56.0892 32.0708 56.1132 32.0748 56.1372 32.0748C56.1692 32.0748 56.2012 32.0748 56.2332 32.0748C56.4092 32.0588 56.5692 32.0148 56.7132 31.9428C56.8572 31.8708 56.9332 31.7228 56.9412 31.4988C56.9412 31.3868 56.9132 31.2908 56.8572 31.2108C56.8092 31.1308 56.7292 31.0708 56.6172 31.0308C56.5132 30.9828 56.4012 30.9428 56.2812 30.9108C56.1692 30.8708 56.0572 30.8348 55.9452 30.8028C55.9372 30.7948 55.9292 30.7908 55.9212 30.7908C55.9132 30.7908 55.9092 30.7908 55.9092 30.7908C55.7972 30.7588 55.6892 30.7268 55.5852 30.6948C55.4812 30.6548 55.3772 30.6148 55.2732 30.5748C54.9532 30.4468 54.7252 30.2388 54.5892 29.9508C54.4612 29.6628 54.4212 29.3628 54.4692 29.0508C54.4692 29.0108 54.4732 28.9748 54.4812 28.9428C54.4892 28.9108 54.4972 28.8788 54.5052 28.8468C54.6172 28.4228 54.8452 28.1268 55.1892 27.9588C55.5332 27.7908 55.8972 27.6948 56.2812 27.6708C56.3212 27.6628 56.3612 27.6588 56.4012 27.6588C56.4492 27.6588 56.4932 27.6588 56.5332 27.6588L57.8892 27.6468V28.4268C57.8492 28.4348 57.8012 28.4388 57.7452 28.4388C57.6892 28.4308 57.6252 28.4268 57.5532 28.4268C57.4812 28.4188 57.4012 28.4148 57.3132 28.4148C57.2252 28.4068 57.1332 28.4028 57.0372 28.4028C56.8132 28.4028 56.6052 28.4308 56.4132 28.4868C56.2212 28.5428 56.1172 28.6548 56.1012 28.8228C56.0932 28.9668 56.1692 29.0868 56.3292 29.1828C56.4892 29.2708 56.6692 29.3468 56.8692 29.4108C56.9892 29.4508 57.1052 29.4868 57.2172 29.5188C57.3372 29.5508 57.4332 29.5788 57.5052 29.6028C57.8332 29.7308 58.0772 29.9428 58.2372 30.2388C58.3972 30.5348 58.4652 30.8468 58.4412 31.1748C58.4172 31.5908 58.2372 31.9748 57.9012 32.3268C57.5652 32.6708 57.0692 32.8428 56.4132 32.8428H54.6852ZM61.5567 33.0228C60.7007 33.0068 60.0487 32.7148 59.6007 32.1468C59.1527 31.5708 58.9207 30.9428 58.9047 30.2628C58.8727 29.5108 59.1007 28.8348 59.5887 28.2348C60.0847 27.6268 60.8407 27.3868 61.8567 27.5148C62.6087 27.6028 63.1847 27.9228 63.5847 28.4748C63.9847 29.0268 64.1967 29.6228 64.2207 30.2628C64.2447 30.9588 64.0367 31.5948 63.5967 32.1708C63.1647 32.7468 62.4847 33.0308 61.5567 33.0228ZM62.3847 30.2988C62.3847 30.2028 62.3807 30.0668 62.3727 29.8908C62.3727 29.7148 62.3567 29.5308 62.3247 29.3388C62.2847 29.0508 62.2047 28.7868 62.0847 28.5468C61.9727 28.3068 61.7847 28.1868 61.5207 28.1868C61.2487 28.1868 61.0567 28.3308 60.9447 28.6188C60.8327 28.9068 60.7607 29.2268 60.7287 29.5788C60.7127 29.7948 60.7047 30.0068 60.7047 30.2148C60.7127 30.4148 60.7207 30.5788 60.7287 30.7068C60.7287 30.7308 60.7287 30.7508 60.7287 30.7668C60.7367 30.7828 60.7407 30.7988 60.7407 30.8148C60.7487 30.9028 60.7607 31.0068 60.7767 31.1268C60.7927 31.2388 60.8127 31.3588 60.8367 31.4868C60.8927 31.7348 60.9847 31.9548 61.1127 32.1468C61.2487 32.3388 61.4527 32.4028 61.7247 32.3388C61.9167 32.2908 62.0567 32.1588 62.1447 31.9428C62.2407 31.7268 62.3047 31.4908 62.3367 31.2348C62.3607 31.0588 62.3727 30.8868 62.3727 30.7188C62.3807 30.5508 62.3847 30.4148 62.3847 30.3108V30.2988ZM66.8238 31.2348C66.8158 31.6588 66.9078 31.9068 67.0998 31.9788C67.2918 32.0428 67.5518 32.0748 67.8798 32.0748C67.9038 32.0748 67.9278 32.0748 67.9518 32.0748C67.9758 32.0748 67.9998 32.0748 68.0238 32.0748V32.8428H66.5838C66.0158 32.8428 65.6278 32.7148 65.4198 32.4588C65.2198 32.2028 65.1238 31.8068 65.1318 31.2708V24.4548H66.8238V31.2348ZM73.4149 32.8428V26.0628H71.3269V25.0068H77.6869V26.0628H75.6109V32.8428H73.4149ZM79.4249 32.8428C79.0089 32.8428 78.7209 32.7468 78.5609 32.5548C78.4009 32.3548 78.3209 32.0588 78.3209 31.6668V28.8348C78.3209 28.4428 78.4009 28.1508 78.5609 27.9588C78.7209 27.7588 79.0089 27.6588 79.4249 27.6588L81.8369 27.6468V28.4268H80.5529C80.4249 28.4348 80.3089 28.4628 80.2049 28.5108C80.1089 28.5508 80.0529 28.6428 80.0369 28.7868C80.0289 28.8428 80.0209 28.9028 80.0129 28.9668C80.0129 29.0308 80.0129 29.0908 80.0129 29.1468C80.0049 29.2268 80.0009 29.3068 80.0009 29.3868C80.0089 29.4588 80.0129 29.5308 80.0129 29.6028C80.0129 29.6508 80.0129 29.6988 80.0129 29.7468C80.0129 29.7868 80.0129 29.8268 80.0129 29.8668L81.6449 29.8548V30.6348H80.0129C80.0129 30.6828 80.0129 30.7348 80.0129 30.7908C80.0129 30.8388 80.0089 30.8868 80.0009 30.9348C80.0009 30.9828 80.0009 31.0348 80.0009 31.0908C80.0009 31.1388 80.0009 31.1908 80.0009 31.2468C80.0009 31.3588 80.0049 31.4708 80.0129 31.5828C80.0209 31.6868 80.0409 31.7828 80.0729 31.8708C80.0969 31.9348 80.1369 31.9828 80.1929 32.0148C80.2569 32.0388 80.3209 32.0548 80.3849 32.0628C80.4169 32.0708 80.4449 32.0748 80.4689 32.0748C80.5009 32.0748 80.5289 32.0748 80.5529 32.0748L81.9209 32.0628V32.8428H79.4249ZM87.347 31.5468C87.107 32.0748 86.791 32.4588 86.399 32.6988C86.007 32.9308 85.599 33.0468 85.175 33.0468C84.527 33.0548 83.935 32.8148 83.399 32.3268C82.863 31.8308 82.595 31.1508 82.595 30.2868C82.603 29.4148 82.859 28.7428 83.363 28.2708C83.875 27.7908 84.431 27.5268 85.031 27.4788C85.503 27.4468 85.947 27.5428 86.363 27.7668C86.787 27.9828 87.095 28.3348 87.287 28.8228L86.555 29.2308C86.483 28.9828 86.367 28.7588 86.207 28.5588C86.055 28.3588 85.831 28.2628 85.535 28.2708C85.191 28.2868 84.943 28.4268 84.791 28.6908C84.639 28.9468 84.539 29.2308 84.491 29.5428C84.475 29.6788 84.463 29.8108 84.455 29.9388C84.447 30.0668 84.443 30.1868 84.443 30.2988C84.435 31.0508 84.551 31.5748 84.791 31.8708C85.039 32.1588 85.311 32.2788 85.607 32.2308C85.823 32.1988 86.031 32.0908 86.231 31.9068C86.431 31.7148 86.579 31.4708 86.675 31.1748L87.347 31.5468ZM88.1662 32.8428V24.4548H89.8582V29.4348H91.1062V27.6468H92.7982V32.8428H91.1062V30.2748H89.8582V32.8428H88.1662ZM94.9289 29.4588V32.8428H94.0889V28.4868C94.0889 28.2308 94.1489 28.0028 94.2689 27.8028C94.3889 27.6028 94.6009 27.4988 94.9049 27.4908C95.2009 27.4828 95.4449 27.5708 95.6369 27.7548C95.8369 27.9308 96.0089 28.1388 96.1529 28.3788L97.3169 30.2508V27.6468H98.1449V32.1708C98.1449 32.1948 98.1449 32.2148 98.1449 32.2308C98.1449 32.2468 98.1449 32.2628 98.1449 32.2788C98.1369 32.4628 98.0929 32.6348 98.0129 32.7948C97.9409 32.9468 97.7929 33.0228 97.5689 33.0228C97.3769 33.0228 97.2169 32.9628 97.0889 32.8428C96.9689 32.7228 96.8569 32.5908 96.7529 32.4468C96.7369 32.4228 96.7209 32.3988 96.7049 32.3748C96.6889 32.3428 96.6729 32.3148 96.6569 32.2908L94.9289 29.4588ZM101.684 33.0228C100.828 33.0068 100.176 32.7148 99.7276 32.1468C99.2796 31.5708 99.0476 30.9428 99.0316 30.2628C98.9996 29.5108 99.2276 28.8348 99.7156 28.2348C100.212 27.6268 100.968 27.3868 101.984 27.5148C102.736 27.6028 103.312 27.9228 103.712 28.4748C104.112 29.0268 104.324 29.6228 104.348 30.2628C104.372 30.9588 104.164 31.5948 103.724 32.1708C103.292 32.7468 102.612 33.0308 101.684 33.0228ZM102.512 30.2988C102.512 30.2028 102.508 30.0668 102.5 29.8908C102.5 29.7148 102.484 29.5308 102.452 29.3388C102.412 29.0508 102.332 28.7868 102.212 28.5468C102.1 28.3068 101.912 28.1868 101.648 28.1868C101.376 28.1868 101.184 28.3308 101.072 28.6188C100.96 28.9068 100.888 29.2268 100.856 29.5788C100.84 29.7948 100.832 30.0068 100.832 30.2148C100.84 30.4148 100.848 30.5788 100.856 30.7068C100.856 30.7308 100.856 30.7508 100.856 30.7668C100.864 30.7828 100.868 30.7988 100.868 30.8148C100.876 30.9028 100.888 31.0068 100.904 31.1268C100.92 31.2388 100.94 31.3588 100.964 31.4868C101.02 31.7348 101.112 31.9548 101.24 32.1468C101.376 32.3388 101.58 32.4028 101.852 32.3388C102.044 32.2908 102.184 32.1588 102.272 31.9428C102.368 31.7268 102.432 31.4908 102.464 31.2348C102.488 31.0588 102.5 30.8868 102.5 30.7188C102.508 30.5508 102.512 30.4148 102.512 30.3108V30.2988ZM106.951 31.2348C106.943 31.6588 107.035 31.9068 107.227 31.9788C107.419 32.0428 107.679 32.0748 108.007 32.0748C108.031 32.0748 108.055 32.0748 108.079 32.0748C108.103 32.0748 108.127 32.0748 108.151 32.0748V32.8428H106.711C106.143 32.8428 105.755 32.7148 105.547 32.4588C105.347 32.2028 105.251 31.8068 105.259 31.2708V24.4548H106.951V31.2348ZM110.907 33.0228C110.051 33.0068 109.399 32.7148 108.951 32.1468C108.503 31.5708 108.271 30.9428 108.255 30.2628C108.223 29.5108 108.451 28.8348 108.939 28.2348C109.435 27.6268 110.191 27.3868 111.207 27.5148C111.959 27.6028 112.535 27.9228 112.935 28.4748C113.335 29.0268 113.547 29.6228 113.571 30.2628C113.595 30.9588 113.387 31.5948 112.947 32.1708C112.515 32.7468 111.835 33.0308 110.907 33.0228ZM111.735 30.2988C111.735 30.2028 111.731 30.0668 111.723 29.8908C111.723 29.7148 111.707 29.5308 111.675 29.3388C111.635 29.0508 111.555 28.7868 111.435 28.5468C111.323 28.3068 111.135 28.1868 110.871 28.1868C110.599 28.1868 110.407 28.3308 110.295 28.6188C110.183 28.9068 110.111 29.2268 110.079 29.5788C110.063 29.7948 110.055 30.0068 110.055 30.2148C110.063 30.4148 110.071 30.5788 110.079 30.7068C110.079 30.7308 110.079 30.7508 110.079 30.7668C110.087 30.7828 110.091 30.7988 110.091 30.8148C110.099 30.9028 110.111 31.0068 110.127 31.1268C110.143 31.2388 110.163 31.3588 110.187 31.4868C110.243 31.7348 110.335 31.9548 110.463 32.1468C110.599 32.3388 110.803 32.4028 111.075 32.3388C111.267 32.2908 111.407 32.1588 111.495 31.9428C111.591 31.7268 111.655 31.4908 111.687 31.2348C111.711 31.0588 111.723 30.8868 111.723 30.7188C111.731 30.5508 111.735 30.4148 111.735 30.3108V30.2988ZM119.402 30.1788V35.0268H117.794V32.6628C116.778 33.2468 115.87 33.2108 115.07 32.5548C114.27 31.8908 113.934 30.9908 114.062 29.8548C114.134 29.1508 114.414 28.5948 114.902 28.1868C115.39 27.7708 115.922 27.5348 116.498 27.4788C116.954 27.4388 117.39 27.5268 117.806 27.7428C118.222 27.9588 118.53 28.3188 118.73 28.8228L117.998 29.2308C117.926 28.9828 117.81 28.7588 117.65 28.5588C117.498 28.3588 117.274 28.2628 116.978 28.2708C116.634 28.2868 116.386 28.4268 116.234 28.6908C116.082 28.9468 115.982 29.2308 115.934 29.5428C115.918 29.6788 115.906 29.8108 115.898 29.9388C115.89 30.0668 115.886 30.1868 115.886 30.2988C115.886 30.4028 115.886 30.5148 115.886 30.6348C115.894 30.7548 115.906 30.8748 115.922 30.9948C115.954 31.3068 116.042 31.5948 116.186 31.8588C116.338 32.1148 116.59 32.2348 116.942 32.2188C117.31 32.1948 117.546 32.0548 117.65 31.7988C117.754 31.5348 117.806 31.2468 117.806 30.9348C117.806 30.8708 117.806 30.8028 117.806 30.7308C117.806 30.6588 117.806 30.5908 117.806 30.5268C117.798 30.4628 117.794 30.4028 117.794 30.3468C117.794 30.2908 117.794 30.2388 117.794 30.1908L119.402 30.1788ZM120.357 25.5108C120.357 25.2148 120.449 24.9948 120.633 24.8508C120.825 24.7068 121.029 24.6388 121.245 24.6468C121.509 24.6548 121.741 24.7548 121.941 24.9468C122.141 25.1388 122.193 25.4068 122.097 25.7508C122.041 25.9748 121.929 26.1388 121.761 26.2428C121.601 26.3468 121.429 26.3948 121.245 26.3868C121.021 26.3868 120.817 26.3148 120.633 26.1708C120.449 26.0188 120.357 25.8028 120.357 25.5228V25.5108ZM120.393 32.8428V27.6468H122.085V32.8428H120.393ZM124.503 32.8428C124.087 32.8428 123.799 32.7468 123.639 32.5548C123.479 32.3548 123.399 32.0588 123.399 31.6668V28.8348C123.399 28.4428 123.479 28.1508 123.639 27.9588C123.799 27.7588 124.087 27.6588 124.503 27.6588L126.915 27.6468V28.4268H125.631C125.503 28.4348 125.387 28.4628 125.283 28.5108C125.187 28.5508 125.131 28.6428 125.115 28.7868C125.107 28.8428 125.099 28.9028 125.091 28.9668C125.091 29.0308 125.091 29.0908 125.091 29.1468C125.083 29.2268 125.079 29.3068 125.079 29.3868C125.087 29.4588 125.091 29.5308 125.091 29.6028C125.091 29.6508 125.091 29.6988 125.091 29.7468C125.091 29.7868 125.091 29.8268 125.091 29.8668L126.723 29.8548V30.6348H125.091C125.091 30.6828 125.091 30.7348 125.091 30.7908C125.091 30.8388 125.087 30.8868 125.079 30.9348C125.079 30.9828 125.079 31.0348 125.079 31.0908C125.079 31.1388 125.079 31.1908 125.079 31.2468C125.079 31.3588 125.083 31.4708 125.091 31.5828C125.099 31.6868 125.119 31.7828 125.151 31.8708C125.175 31.9348 125.215 31.9828 125.271 32.0148C125.335 32.0388 125.399 32.0548 125.463 32.0628C125.495 32.0708 125.523 32.0748 125.547 32.0748C125.579 32.0748 125.607 32.0748 125.631 32.0748L126.999 32.0628V32.8428H124.503ZM127.913 32.8428V32.0628H129.293C129.317 32.0708 129.341 32.0748 129.365 32.0748C129.397 32.0748 129.429 32.0748 129.461 32.0748C129.637 32.0588 129.797 32.0148 129.941 31.9428C130.085 31.8708 130.161 31.7228 130.169 31.4988C130.169 31.3868 130.141 31.2908 130.085 31.2108C130.037 31.1308 129.957 31.0708 129.845 31.0308C129.741 30.9828 129.629 30.9428 129.509 30.9108C129.397 30.8708 129.285 30.8348 129.173 30.8028C129.165 30.7948 129.157 30.7908 129.149 30.7908C129.141 30.7908 129.137 30.7908 129.137 30.7908C129.025 30.7588 128.917 30.7268 128.813 30.6948C128.709 30.6548 128.605 30.6148 128.501 30.5748C128.181 30.4468 127.953 30.2388 127.817 29.9508C127.689 29.6628 127.649 29.3628 127.697 29.0508C127.697 29.0108 127.701 28.9748 127.709 28.9428C127.717 28.9108 127.725 28.8788 127.733 28.8468C127.845 28.4228 128.073 28.1268 128.417 27.9588C128.761 27.7908 129.125 27.6948 129.509 27.6708C129.549 27.6628 129.589 27.6588 129.629 27.6588C129.677 27.6588 129.721 27.6588 129.761 27.6588L131.117 27.6468V28.4268C131.077 28.4348 131.029 28.4388 130.973 28.4388C130.917 28.4308 130.853 28.4268 130.781 28.4268C130.709 28.4188 130.629 28.4148 130.541 28.4148C130.453 28.4068 130.361 28.4028 130.265 28.4028C130.041 28.4028 129.833 28.4308 129.641 28.4868C129.449 28.5428 129.345 28.6548 129.329 28.8228C129.321 28.9668 129.397 29.0868 129.557 29.1828C129.717 29.2708 129.897 29.3468 130.097 29.4108C130.217 29.4508 130.333 29.4868 130.445 29.5188C130.565 29.5508 130.661 29.5788 130.733 29.6028C131.061 29.7308 131.305 29.9428 131.465 30.2388C131.625 30.5348 131.693 30.8468 131.669 31.1748C131.645 31.5908 131.465 31.9748 131.129 32.3268C130.793 32.6708 130.297 32.8428 129.641 32.8428H127.913Z" fill="black"/>
<path d="M4.312 11.088C3.564 11.088 2.91133 10.9267 2.354 10.604C1.804 10.2813 1.37867 9.823 1.078 9.229C0.784667 8.62767 0.638 7.92367 0.638 7.117C0.638 6.31033 0.784667 5.61 1.078 5.016C1.37867 4.41467 1.804 3.95633 2.354 3.641C2.91133 3.31833 3.564 3.157 4.312 3.157C4.84 3.157 5.33133 3.24133 5.786 3.41C6.24067 3.57133 6.62567 3.806 6.941 4.114L6.545 4.95C6.18567 4.64933 5.82633 4.433 5.467 4.301C5.115 4.169 4.73367 4.103 4.323 4.103C3.51633 4.103 2.893 4.36333 2.453 4.884C2.02033 5.40467 1.804 6.149 1.804 7.117C1.804 8.085 2.02033 8.833 2.453 9.361C2.893 9.88167 3.51633 10.142 4.323 10.142C4.73367 10.142 5.115 10.076 5.467 9.944C5.82633 9.812 6.18567 9.59567 6.545 9.295L6.941 10.131C6.62567 10.439 6.24067 10.6773 5.786 10.846C5.33133 11.0073 4.84 11.088 4.312 11.088ZM11.4813 6.435L10.8103 6.501C10.2823 6.55233 9.901 6.71367 9.66634 6.985C9.439 7.25633 9.32534 7.601 9.32534 8.019V11H8.21434V5.632H9.29234V6.567C9.57834 5.93633 10.1613 5.588 11.0413 5.522L11.4043 5.5L11.4813 6.435ZM14.4544 5.5C15.1731 5.5 15.7048 5.67967 16.0494 6.039C16.4014 6.39833 16.5774 6.94467 16.5774 7.678V11H15.5104V10.109C15.3711 10.4243 15.1621 10.6663 14.8834 10.835C14.6121 10.9963 14.2931 11.077 13.9264 11.077C13.5744 11.077 13.2518 11.0073 12.9584 10.868C12.6651 10.7213 12.4341 10.5197 12.2654 10.263C12.1041 10.0063 12.0234 9.72033 12.0234 9.405C12.0234 9.01633 12.1224 8.712 12.3204 8.492C12.5258 8.26467 12.8594 8.10333 13.3214 8.008C13.7908 7.91267 14.4324 7.865 15.2464 7.865H15.4994V7.546C15.4994 7.13533 15.4114 6.83833 15.2354 6.655C15.0668 6.47167 14.7881 6.38 14.3994 6.38C13.7908 6.38 13.1821 6.567 12.5734 6.941L12.2434 6.16C12.5294 5.962 12.8741 5.80433 13.2774 5.687C13.6881 5.56233 14.0804 5.5 14.4544 5.5ZM14.1244 10.252C14.5278 10.252 14.8578 10.1163 15.1144 9.845C15.3711 9.56633 15.4994 9.21067 15.4994 8.778V8.492H15.3014C14.7294 8.492 14.2894 8.51767 13.9814 8.569C13.6734 8.62033 13.4534 8.70833 13.3214 8.833C13.1894 8.95033 13.1234 9.12267 13.1234 9.35C13.1234 9.60667 13.2151 9.823 13.3984 9.999C13.5891 10.1677 13.8311 10.252 14.1244 10.252ZM19.5491 5.632H21.0231V6.49H19.5491V11H18.4381V6.49H17.3931V5.632H18.4381V5.533C18.4381 4.79233 18.6251 4.235 18.9991 3.861C19.3805 3.487 19.9598 3.278 20.7371 3.234L21.2321 3.212L21.2981 4.048L20.7921 4.081C20.3521 4.103 20.0331 4.21667 19.8351 4.422C19.6445 4.62733 19.5491 4.939 19.5491 5.357V5.632ZM24.1186 10.219C24.2873 10.219 24.4523 10.208 24.6136 10.186L24.5586 11.033C24.3753 11.0623 24.1846 11.077 23.9866 11.077C23.29 11.077 22.7693 10.9083 22.4246 10.571C22.0873 10.2263 21.9186 9.73133 21.9186 9.086V6.49H20.8736V5.632H21.9186V4.015H23.0296V5.632H24.5036V6.49H23.0296V9.042C23.0296 9.82667 23.3926 10.219 24.1186 10.219ZM30.0535 8.503H26.2585C26.3392 9.63967 26.9039 10.208 27.9525 10.208C28.5685 10.208 29.1259 10.0063 29.6245 9.603L29.9655 10.384C29.7162 10.5967 29.4082 10.7653 29.0415 10.89C28.6749 11.0147 28.3009 11.077 27.9195 11.077C27.0615 11.077 26.3832 10.8313 25.8845 10.34C25.3932 9.84867 25.1475 9.17033 25.1475 8.305C25.1475 7.755 25.2539 7.26733 25.4665 6.842C25.6865 6.41667 25.9909 6.08667 26.3795 5.852C26.7755 5.61733 27.2229 5.5 27.7215 5.5C28.4475 5.5 29.0159 5.73467 29.4265 6.204C29.8445 6.67333 30.0535 7.32233 30.0535 8.151V8.503ZM27.7435 6.314C27.3182 6.314 26.9772 6.44967 26.7205 6.721C26.4712 6.985 26.3209 7.36633 26.2695 7.865H29.0965C29.0745 7.36633 28.9462 6.985 28.7115 6.721C28.4842 6.44967 28.1615 6.314 27.7435 6.314ZM36.2278 3.245V11H35.1278V10.076C34.9665 10.3987 34.7318 10.648 34.4238 10.824C34.1158 10.9927 33.7601 11.077 33.3568 11.077C32.8948 11.077 32.4805 10.9597 32.1138 10.725C31.7545 10.4903 31.4721 10.1603 31.2668 9.735C31.0688 9.30967 30.9698 8.822 30.9698 8.272C30.9698 7.71467 31.0688 7.227 31.2668 6.809C31.4721 6.391 31.7545 6.06833 32.1138 5.841C32.4731 5.61367 32.8875 5.5 33.3568 5.5C33.7601 5.5 34.1121 5.588 34.4128 5.764C34.7208 5.93267 34.9555 6.17467 35.1168 6.49V3.245H36.2278ZM33.6208 10.197C34.1048 10.197 34.4751 10.032 34.7318 9.702C34.9958 9.372 35.1278 8.90267 35.1278 8.294C35.1278 7.68533 34.9958 7.216 34.7318 6.886C34.4751 6.556 34.1048 6.391 33.6208 6.391C33.1368 6.391 32.7591 6.556 32.4878 6.886C32.2238 7.20867 32.0918 7.67067 32.0918 8.272C32.0918 8.87333 32.2275 9.34633 32.4988 9.691C32.7701 10.0283 33.1441 10.197 33.6208 10.197ZM50.6432 3.245H51.7432L49.0152 11H48.0802L45.9902 4.994L43.8782 11H42.9432L40.2262 3.245H41.3702L43.4492 9.394L45.5942 3.245L46.4302 3.256L48.5312 9.427L50.6432 3.245ZM52.8374 11V5.632H53.9484V11H52.8374ZM52.7604 3.234H54.0364V4.389H52.7604V3.234ZM58.0424 10.219C58.2111 10.219 58.3761 10.208 58.5374 10.186L58.4824 11.033C58.2991 11.0623 58.1084 11.077 57.9104 11.077C57.2138 11.077 56.6931 10.9083 56.3484 10.571C56.0111 10.2263 55.8424 9.73133 55.8424 9.086V6.49H54.7974V5.632H55.8424V4.015H56.9534V5.632H58.4274V6.49H56.9534V9.042C56.9534 9.82667 57.3164 10.219 58.0424 10.219ZM62.2724 5.5C63.5557 5.5 64.1974 6.22233 64.1974 7.667V11H63.0864V7.722C63.0864 7.26733 62.9947 6.93367 62.8114 6.721C62.6354 6.50833 62.3567 6.402 61.9754 6.402C61.528 6.402 61.1687 6.54133 60.8974 6.82C60.626 7.09867 60.4904 7.47267 60.4904 7.942V11H59.3794V3.245H60.4904V6.446C60.6737 6.138 60.9194 5.90333 61.2274 5.742C61.5354 5.58067 61.8837 5.5 62.2724 5.5ZM68.7497 11V3.245H69.8827V10.054H73.6447V11H68.7497ZM76.9438 11.077C76.4158 11.077 75.9501 10.9633 75.5468 10.736C75.1508 10.5087 74.8428 10.186 74.6228 9.768C74.4101 9.34267 74.3038 8.85133 74.3038 8.294C74.3038 7.72933 74.4101 7.238 74.6228 6.82C74.8428 6.39467 75.1508 6.06833 75.5468 5.841C75.9501 5.61367 76.4158 5.5 76.9438 5.5C77.4718 5.5 77.9338 5.61367 78.3298 5.841C78.7331 6.06833 79.0411 6.39467 79.2538 6.82C79.4738 7.238 79.5838 7.72933 79.5838 8.294C79.5838 8.85133 79.4738 9.34267 79.2538 9.768C79.0411 10.186 78.7331 10.5087 78.3298 10.736C77.9338 10.9633 77.4718 11.077 76.9438 11.077ZM76.9438 10.197C77.4351 10.197 77.8091 10.0357 78.0658 9.713C78.3298 9.39033 78.4618 8.91733 78.4618 8.294C78.4618 7.678 78.3298 7.20867 78.0658 6.886C77.8018 6.556 77.4278 6.391 76.9438 6.391C76.4598 6.391 76.0858 6.556 75.8218 6.886C75.5578 7.20867 75.4258 7.678 75.4258 8.294C75.4258 8.91733 75.5541 9.39033 75.8108 9.713C76.0748 10.0357 76.4525 10.197 76.9438 10.197ZM84.5516 5.643H85.6626L83.3306 11H82.3296L80.0196 5.643H81.1856L82.8576 9.746L84.5516 5.643ZM90.9832 8.503H87.1882C87.2689 9.63967 87.8336 10.208 88.8822 10.208C89.4982 10.208 90.0556 10.0063 90.5542 9.603L90.8952 10.384C90.6459 10.5967 90.3379 10.7653 89.9712 10.89C89.6046 11.0147 89.2306 11.077 88.8492 11.077C87.9912 11.077 87.3129 10.8313 86.8142 10.34C86.3229 9.84867 86.0772 9.17033 86.0772 8.305C86.0772 7.755 86.1836 7.26733 86.3962 6.842C86.6162 6.41667 86.9206 6.08667 87.3092 5.852C87.7052 5.61733 88.1526 5.5 88.6512 5.5C89.3772 5.5 89.9456 5.73467 90.3562 6.204C90.7742 6.67333 90.9832 7.32233 90.9832 8.151V8.503ZM88.6732 6.314C88.2479 6.314 87.9069 6.44967 87.6502 6.721C87.4009 6.985 87.2506 7.36633 87.1992 7.865H90.0262C90.0042 7.36633 89.8759 6.985 89.6412 6.721C89.4139 6.44967 89.0912 6.314 88.6732 6.314ZM99.8049 7.007C100.252 7.13167 100.597 7.35533 100.839 7.678C101.088 8.00067 101.213 8.404 101.213 8.888C101.213 9.55533 100.982 10.076 100.52 10.45C100.065 10.8167 99.4272 11 98.6059 11H95.2399V3.245H98.4849C99.2842 3.245 99.9076 3.42467 100.355 3.784C100.81 4.136 101.037 4.631 101.037 5.269C101.037 5.67967 100.927 6.03533 100.707 6.336C100.494 6.63667 100.194 6.86033 99.8049 7.007ZM96.3509 6.6H98.3089C99.3942 6.6 99.9369 6.18933 99.9369 5.368C99.9369 4.95733 99.8012 4.653 99.5299 4.455C99.2659 4.257 98.8589 4.158 98.3089 4.158H96.3509V6.6ZM98.4849 10.087C99.0496 10.087 99.4639 9.98433 99.7279 9.779C99.9919 9.57367 100.124 9.25467 100.124 8.822C100.124 8.382 99.9882 8.05567 99.7169 7.843C99.4529 7.623 99.0422 7.513 98.4849 7.513H96.3509V10.087H98.4849ZM106.369 5.643H107.48L104.279 12.98H103.157L104.092 10.868L101.837 5.643H103.003L104.675 9.746L106.369 5.643Z" fill="black"/>
</svg>
