<svg width="261" height="80" viewBox="0 0 261 80" fill="none" xmlns="http://www.w3.org/2000/svg">
<path d="M18.2857 65.3974V76.2346C16.8739 75.3132 15.5214 74.3072 14.2365 73.2167C9.79 69.4381 6.21422 64.7549 3.75429 59.4631C3.58522 59.108 3.75429 58.9221 4.12624 59.0489L16.1554 63.1488C16.8232 63.9349 17.5333 64.6788 18.2857 65.3974Z" fill="#211E1F"/>
<path d="M8.84271 46.9187C8.0481 43.3682 7.71841 39.7417 7.86212 36.1152C5.3092 37.2395 2.25753 38.8626 0.0596487 40.4349C-0.00797841 41.6015 -0.0164318 42.7596 0.0258351 43.9177C0.101916 46.2762 0.389331 48.6262 0.88808 50.9425C1.04869 51.6864 1.22622 52.4218 1.4291 53.1573C1.47982 53.3517 1.63198 53.5038 1.81795 53.5715L12.055 57.0543L18.2851 59.1761V50.1394L8.84271 46.9187Z" fill="#211E1F"/>
<path d="M43.0284 58.5669C43.1891 58.6176 43.2736 58.7951 43.2229 58.9558C43.2229 58.9642 43.2144 58.9727 43.2144 58.9811C40.746 64.4674 37.0942 69.3281 32.5124 73.2251C31.1937 74.3409 29.8158 75.3722 28.3618 76.3106V65.4902C29.0888 64.797 29.782 64.0701 30.4413 63.3092L28.3618 62.5992V53.5625L30.4075 54.2557L35.2513 55.9041L43.0284 58.5669Z" fill="#211E1F"/>
<path d="M46.68 40.4263C43.9073 38.4482 40.8894 36.8336 37.7025 35.6248C28.4714 32.1251 18.2682 32.1251 9.03708 35.6248L8.78348 35.7262C8.63132 38.7187 8.8173 41.7197 9.3245 44.6699C12.3339 43.2244 15.8674 42.2522 19.0966 41.8127V76.7589C20.4745 77.6043 21.9031 78.3735 23.3656 79.0498C24.8195 78.382 26.2313 77.6296 27.5923 76.7843L27.643 76.7505V41.8042C31.2948 42.3029 34.8284 43.4357 38.0829 45.1517C37.9054 47.4003 37.4827 49.6236 36.8234 51.7792L44.8963 54.5265C45.2683 53.3515 45.5811 52.1511 45.8431 50.9339C46.587 47.4849 46.866 43.9514 46.68 40.4263Z" fill="#39BEBA"/>
<path d="M65.392 63V49.44H61.216V47.328H73.936V49.44H69.784V63H65.392ZM77.4119 63C76.5799 63 76.0039 62.808 75.6839 62.424C75.3639 62.024 75.2039 61.432 75.2039 60.648V54.984C75.2039 54.2 75.3639 53.616 75.6839 53.232C76.0039 52.832 76.5799 52.632 77.4119 52.632L82.2359 52.608V54.168H79.6679C79.4119 54.184 79.1799 54.24 78.9719 54.336C78.7799 54.416 78.6679 54.6 78.6359 54.888C78.6199 55 78.6039 55.12 78.5879 55.248C78.5879 55.376 78.5879 55.496 78.5879 55.608C78.5719 55.768 78.5639 55.928 78.5639 56.088C78.5799 56.232 78.5879 56.376 78.5879 56.52C78.5879 56.616 78.5879 56.712 78.5879 56.808C78.5879 56.888 78.5879 56.968 78.5879 57.048L81.8519 57.024V58.584H78.5879C78.5879 58.68 78.5879 58.784 78.5879 58.896C78.5879 58.992 78.5799 59.088 78.5639 59.184C78.5639 59.28 78.5639 59.384 78.5639 59.496C78.5639 59.592 78.5639 59.696 78.5639 59.808C78.5639 60.032 78.5719 60.256 78.5879 60.48C78.6039 60.688 78.6439 60.88 78.7079 61.056C78.7559 61.184 78.8359 61.28 78.9479 61.344C79.0759 61.392 79.2039 61.424 79.3319 61.44C79.3959 61.456 79.4519 61.464 79.4999 61.464C79.5639 61.464 79.6199 61.464 79.6679 61.464L82.4039 61.44V63H77.4119ZM84.5922 63V52.608H89.1282C89.1762 52.624 89.2162 52.632 89.2482 52.632C89.2962 52.632 89.3442 52.632 89.3922 52.632C90.4002 52.664 91.3202 52.896 92.1522 53.328C92.9842 53.76 93.4002 54.568 93.4002 55.752C93.4002 56.44 93.2322 57 92.8962 57.432C92.5602 57.848 92.0802 58.152 91.4562 58.344L94.5042 63H90.5442L88.1922 58.104V57.888C88.8962 57.792 89.4082 57.536 89.7282 57.12C90.0642 56.704 90.1602 56.128 90.0162 55.392C89.8882 54.8 89.6082 54.432 89.1762 54.288C88.7602 54.128 88.2962 54.064 87.7842 54.096V63H84.5922ZM97.1309 59.664H99.7229L98.4749 55.152L97.1309 59.664ZM94.3709 63L97.0829 54.528C97.2589 53.968 97.5069 53.464 97.8269 53.016C98.1469 52.552 98.6429 52.312 99.3149 52.296C99.9709 52.28 100.451 52.488 100.755 52.92C101.075 53.336 101.315 53.824 101.475 54.384L104.283 63H100.731L100.155 61.104H96.6989L96.1469 63H94.3709ZM105.397 63V61.44H108.157C108.205 61.456 108.253 61.464 108.301 61.464C108.365 61.464 108.429 61.464 108.493 61.464C108.845 61.432 109.165 61.344 109.453 61.2C109.741 61.056 109.893 60.76 109.909 60.312C109.909 60.088 109.853 59.896 109.741 59.736C109.645 59.576 109.485 59.456 109.261 59.376C109.053 59.28 108.829 59.2 108.589 59.136C108.365 59.056 108.141 58.984 107.917 58.92C107.901 58.904 107.885 58.896 107.869 58.896C107.853 58.896 107.845 58.896 107.845 58.896C107.621 58.832 107.405 58.768 107.197 58.704C106.989 58.624 106.781 58.544 106.573 58.464C105.933 58.208 105.477 57.792 105.205 57.216C104.949 56.64 104.869 56.04 104.965 55.416C104.965 55.336 104.973 55.264 104.989 55.2C105.005 55.136 105.021 55.072 105.037 55.008C105.261 54.16 105.717 53.568 106.405 53.232C107.093 52.896 107.821 52.704 108.589 52.656C108.669 52.64 108.749 52.632 108.829 52.632C108.925 52.632 109.013 52.632 109.093 52.632L111.805 52.608V54.168C111.725 54.184 111.629 54.192 111.517 54.192C111.405 54.176 111.277 54.168 111.133 54.168C110.989 54.152 110.829 54.144 110.653 54.144C110.477 54.128 110.293 54.12 110.101 54.12C109.653 54.12 109.237 54.176 108.853 54.288C108.469 54.4 108.261 54.624 108.229 54.96C108.213 55.248 108.365 55.488 108.685 55.68C109.005 55.856 109.365 56.008 109.765 56.136C110.005 56.216 110.237 56.288 110.461 56.352C110.701 56.416 110.893 56.472 111.037 56.52C111.693 56.776 112.181 57.2 112.501 57.792C112.821 58.384 112.957 59.008 112.909 59.664C112.861 60.496 112.501 61.264 111.829 61.968C111.157 62.656 110.165 63 108.853 63H105.397ZM119.14 63.36C117.428 63.328 116.124 62.744 115.228 61.608C114.332 60.456 113.868 59.2 113.836 57.84C113.772 56.336 114.228 54.984 115.204 53.784C116.196 52.568 117.708 52.088 119.74 52.344C121.244 52.52 122.396 53.16 123.196 54.264C123.996 55.368 124.42 56.56 124.468 57.84C124.516 59.232 124.1 60.504 123.22 61.656C122.356 62.808 120.996 63.376 119.14 63.36ZM120.796 57.912C120.796 57.72 120.788 57.448 120.772 57.096C120.772 56.744 120.74 56.376 120.676 55.992C120.596 55.416 120.436 54.888 120.196 54.408C119.972 53.928 119.596 53.688 119.068 53.688C118.524 53.688 118.14 53.976 117.916 54.552C117.692 55.128 117.548 55.768 117.484 56.472C117.452 56.904 117.436 57.328 117.436 57.744C117.452 58.144 117.468 58.472 117.484 58.728C117.484 58.776 117.484 58.816 117.484 58.848C117.5 58.88 117.508 58.912 117.508 58.944C117.524 59.12 117.548 59.328 117.58 59.568C117.612 59.792 117.652 60.032 117.7 60.288C117.812 60.784 117.996 61.224 118.252 61.608C118.524 61.992 118.932 62.12 119.476 61.992C119.86 61.896 120.14 61.632 120.316 61.2C120.508 60.768 120.636 60.296 120.7 59.784C120.748 59.432 120.772 59.088 120.772 58.752C120.788 58.416 120.796 58.144 120.796 57.936V57.912ZM129.674 59.784C129.658 60.632 129.842 61.128 130.226 61.272C130.61 61.4 131.13 61.464 131.786 61.464C131.834 61.464 131.882 61.464 131.93 61.464C131.978 61.464 132.026 61.464 132.074 61.464V63H129.194C128.058 63 127.282 62.744 126.866 62.232C126.466 61.72 126.274 60.928 126.29 59.856V46.224H129.674V59.784ZM142.857 63V49.44H138.681V47.328H151.401V49.44H147.249V63H142.857ZM154.877 63C154.045 63 153.469 62.808 153.149 62.424C152.829 62.024 152.669 61.432 152.669 60.648V54.984C152.669 54.2 152.829 53.616 153.149 53.232C153.469 52.832 154.045 52.632 154.877 52.632L159.701 52.608V54.168H157.133C156.877 54.184 156.645 54.24 156.437 54.336C156.245 54.416 156.133 54.6 156.101 54.888C156.085 55 156.069 55.12 156.053 55.248C156.053 55.376 156.053 55.496 156.053 55.608C156.037 55.768 156.029 55.928 156.029 56.088C156.045 56.232 156.053 56.376 156.053 56.52C156.053 56.616 156.053 56.712 156.053 56.808C156.053 56.888 156.053 56.968 156.053 57.048L159.317 57.024V58.584H156.053C156.053 58.68 156.053 58.784 156.053 58.896C156.053 58.992 156.045 59.088 156.029 59.184C156.029 59.28 156.029 59.384 156.029 59.496C156.029 59.592 156.029 59.696 156.029 59.808C156.029 60.032 156.037 60.256 156.053 60.48C156.069 60.688 156.109 60.88 156.173 61.056C156.221 61.184 156.301 61.28 156.413 61.344C156.541 61.392 156.669 61.424 156.797 61.44C156.861 61.456 156.917 61.464 156.965 61.464C157.029 61.464 157.085 61.464 157.133 61.464L159.869 61.44V63H154.877ZM170.721 60.408C170.241 61.464 169.609 62.232 168.825 62.712C168.041 63.176 167.225 63.408 166.377 63.408C165.081 63.424 163.897 62.944 162.825 61.968C161.753 60.976 161.217 59.616 161.217 57.888C161.233 56.144 161.745 54.8 162.753 53.856C163.777 52.896 164.889 52.368 166.089 52.272C167.033 52.208 167.921 52.4 168.753 52.848C169.601 53.28 170.217 53.984 170.601 54.96L169.137 55.776C168.993 55.28 168.761 54.832 168.441 54.432C168.137 54.032 167.689 53.84 167.097 53.856C166.409 53.888 165.913 54.168 165.609 54.696C165.305 55.208 165.105 55.776 165.009 56.4C164.977 56.672 164.953 56.936 164.937 57.192C164.921 57.448 164.913 57.688 164.913 57.912C164.897 59.416 165.129 60.464 165.609 61.056C166.105 61.632 166.649 61.872 167.241 61.776C167.673 61.712 168.089 61.496 168.489 61.128C168.889 60.744 169.185 60.256 169.377 59.664L170.721 60.408ZM172.359 63V46.224H175.743V56.184H178.239V52.608H181.623V63H178.239V57.864H175.743V63H172.359ZM185.885 56.232V63H184.205V54.288C184.205 53.776 184.325 53.32 184.565 52.92C184.805 52.52 185.229 52.312 185.837 52.296C186.429 52.28 186.917 52.456 187.301 52.824C187.701 53.176 188.045 53.592 188.333 54.072L190.661 57.816V52.608H192.317V61.656C192.317 61.704 192.317 61.744 192.317 61.776C192.317 61.808 192.317 61.84 192.317 61.872C192.301 62.24 192.213 62.584 192.053 62.904C191.909 63.208 191.613 63.36 191.165 63.36C190.781 63.36 190.461 63.24 190.205 63C189.965 62.76 189.741 62.496 189.533 62.208C189.501 62.16 189.469 62.112 189.437 62.064C189.405 62 189.373 61.944 189.341 61.896L185.885 56.232ZM199.394 63.36C197.682 63.328 196.378 62.744 195.482 61.608C194.586 60.456 194.122 59.2 194.09 57.84C194.026 56.336 194.482 54.984 195.458 53.784C196.45 52.568 197.962 52.088 199.994 52.344C201.498 52.52 202.65 53.16 203.45 54.264C204.25 55.368 204.674 56.56 204.722 57.84C204.77 59.232 204.354 60.504 203.474 61.656C202.61 62.808 201.25 63.376 199.394 63.36ZM201.05 57.912C201.05 57.72 201.042 57.448 201.026 57.096C201.026 56.744 200.994 56.376 200.93 55.992C200.85 55.416 200.69 54.888 200.45 54.408C200.226 53.928 199.85 53.688 199.322 53.688C198.778 53.688 198.394 53.976 198.17 54.552C197.946 55.128 197.802 55.768 197.738 56.472C197.706 56.904 197.69 57.328 197.69 57.744C197.706 58.144 197.722 58.472 197.738 58.728C197.738 58.776 197.738 58.816 197.738 58.848C197.754 58.88 197.762 58.912 197.762 58.944C197.778 59.12 197.802 59.328 197.834 59.568C197.866 59.792 197.906 60.032 197.954 60.288C198.066 60.784 198.25 61.224 198.506 61.608C198.778 61.992 199.186 62.12 199.73 61.992C200.114 61.896 200.394 61.632 200.57 61.2C200.762 60.768 200.89 60.296 200.954 59.784C201.002 59.432 201.026 59.088 201.026 58.752C201.042 58.416 201.05 58.144 201.05 57.936V57.912ZM209.928 59.784C209.912 60.632 210.096 61.128 210.48 61.272C210.864 61.4 211.384 61.464 212.04 61.464C212.088 61.464 212.136 61.464 212.184 61.464C212.232 61.464 212.28 61.464 212.328 61.464V63H209.448C208.312 63 207.536 62.744 207.12 62.232C206.72 61.72 206.528 60.928 206.544 59.856V46.224H209.928V59.784ZM217.84 63.36C216.128 63.328 214.824 62.744 213.928 61.608C213.032 60.456 212.568 59.2 212.536 57.84C212.472 56.336 212.928 54.984 213.904 53.784C214.896 52.568 216.408 52.088 218.44 52.344C219.944 52.52 221.096 53.16 221.896 54.264C222.696 55.368 223.12 56.56 223.168 57.84C223.216 59.232 222.8 60.504 221.92 61.656C221.056 62.808 219.696 63.376 217.84 63.36ZM219.496 57.912C219.496 57.72 219.488 57.448 219.472 57.096C219.472 56.744 219.44 56.376 219.376 55.992C219.296 55.416 219.136 54.888 218.896 54.408C218.672 53.928 218.296 53.688 217.768 53.688C217.224 53.688 216.84 53.976 216.616 54.552C216.392 55.128 216.248 55.768 216.184 56.472C216.152 56.904 216.136 57.328 216.136 57.744C216.152 58.144 216.168 58.472 216.184 58.728C216.184 58.776 216.184 58.816 216.184 58.848C216.2 58.88 216.208 58.912 216.208 58.944C216.224 59.12 216.248 59.328 216.28 59.568C216.312 59.792 216.352 60.032 216.4 60.288C216.512 60.784 216.696 61.224 216.952 61.608C217.224 61.992 217.632 62.12 218.176 61.992C218.56 61.896 218.84 61.632 219.016 61.2C219.208 60.768 219.336 60.296 219.4 59.784C219.448 59.432 219.472 59.088 219.472 58.752C219.488 58.416 219.496 58.144 219.496 57.936V57.912ZM234.831 57.672V67.368H231.615V62.64C229.583 63.808 227.767 63.736 226.167 62.424C224.567 61.096 223.895 59.296 224.151 57.024C224.295 55.616 224.855 54.504 225.831 53.688C226.807 52.856 227.871 52.384 229.023 52.272C229.935 52.192 230.807 52.368 231.639 52.8C232.471 53.232 233.087 53.952 233.487 54.96L232.023 55.776C231.879 55.28 231.647 54.832 231.327 54.432C231.023 54.032 230.575 53.84 229.983 53.856C229.295 53.888 228.799 54.168 228.495 54.696C228.191 55.208 227.991 55.776 227.895 56.4C227.863 56.672 227.839 56.936 227.823 57.192C227.807 57.448 227.799 57.688 227.799 57.912C227.799 58.12 227.799 58.344 227.799 58.584C227.815 58.824 227.839 59.064 227.871 59.304C227.935 59.928 228.111 60.504 228.399 61.032C228.703 61.544 229.207 61.784 229.911 61.752C230.647 61.704 231.119 61.424 231.327 60.912C231.535 60.384 231.639 59.808 231.639 59.184C231.639 59.056 231.639 58.92 231.639 58.776C231.639 58.632 231.639 58.496 231.639 58.368C231.623 58.24 231.615 58.12 231.615 58.008C231.615 57.896 231.615 57.792 231.615 57.696L234.831 57.672ZM236.741 48.336C236.741 47.744 236.925 47.304 237.293 47.016C237.677 46.728 238.085 46.592 238.517 46.608C239.045 46.624 239.509 46.824 239.909 47.208C240.309 47.592 240.413 48.128 240.221 48.816C240.109 49.264 239.885 49.592 239.549 49.8C239.229 50.008 238.885 50.104 238.517 50.088C238.069 50.088 237.661 49.944 237.293 49.656C236.925 49.352 236.741 48.92 236.741 48.36V48.336ZM236.813 63V52.608H240.197V63H236.813ZM245.033 63C244.201 63 243.625 62.808 243.305 62.424C242.985 62.024 242.825 61.432 242.825 60.648V54.984C242.825 54.2 242.985 53.616 243.305 53.232C243.625 52.832 244.201 52.632 245.033 52.632L249.857 52.608V54.168H247.289C247.033 54.184 246.801 54.24 246.593 54.336C246.401 54.416 246.289 54.6 246.257 54.888C246.241 55 246.225 55.12 246.209 55.248C246.209 55.376 246.209 55.496 246.209 55.608C246.193 55.768 246.185 55.928 246.185 56.088C246.201 56.232 246.209 56.376 246.209 56.52C246.209 56.616 246.209 56.712 246.209 56.808C246.209 56.888 246.209 56.968 246.209 57.048L249.473 57.024V58.584H246.209C246.209 58.68 246.209 58.784 246.209 58.896C246.209 58.992 246.201 59.088 246.185 59.184C246.185 59.28 246.185 59.384 246.185 59.496C246.185 59.592 246.185 59.696 246.185 59.808C246.185 60.032 246.193 60.256 246.209 60.48C246.225 60.688 246.265 60.88 246.329 61.056C246.377 61.184 246.457 61.28 246.569 61.344C246.697 61.392 246.825 61.424 246.953 61.44C247.017 61.456 247.073 61.464 247.121 61.464C247.185 61.464 247.241 61.464 247.289 61.464L250.025 61.44V63H245.033ZM251.853 63V61.44H254.613C254.661 61.456 254.709 61.464 254.757 61.464C254.821 61.464 254.885 61.464 254.949 61.464C255.301 61.432 255.621 61.344 255.909 61.2C256.197 61.056 256.349 60.76 256.365 60.312C256.365 60.088 256.309 59.896 256.197 59.736C256.101 59.576 255.941 59.456 255.717 59.376C255.509 59.28 255.285 59.2 255.045 59.136C254.821 59.056 254.597 58.984 254.373 58.92C254.357 58.904 254.341 58.896 254.325 58.896C254.309 58.896 254.301 58.896 254.301 58.896C254.077 58.832 253.861 58.768 253.653 58.704C253.445 58.624 253.237 58.544 253.029 58.464C252.389 58.208 251.933 57.792 251.661 57.216C251.405 56.64 251.325 56.04 251.421 55.416C251.421 55.336 251.429 55.264 251.445 55.2C251.461 55.136 251.477 55.072 251.493 55.008C251.717 54.16 252.173 53.568 252.861 53.232C253.549 52.896 254.277 52.704 255.045 52.656C255.125 52.64 255.205 52.632 255.285 52.632C255.381 52.632 255.469 52.632 255.549 52.632L258.261 52.608V54.168C258.181 54.184 258.085 54.192 257.973 54.192C257.861 54.176 257.733 54.168 257.589 54.168C257.445 54.152 257.285 54.144 257.109 54.144C256.933 54.128 256.749 54.12 256.557 54.12C256.109 54.12 255.693 54.176 255.309 54.288C254.925 54.4 254.717 54.624 254.685 54.96C254.669 55.248 254.821 55.488 255.141 55.68C255.461 55.856 255.821 56.008 256.221 56.136C256.461 56.216 256.693 56.288 256.917 56.352C257.157 56.416 257.349 56.472 257.493 56.52C258.149 56.776 258.637 57.2 258.957 57.792C259.277 58.384 259.413 59.008 259.365 59.664C259.317 60.496 258.957 61.264 258.285 61.968C257.613 62.656 256.621 63 255.309 63H251.853Z" fill="black"/>
<path d="M1.312 4.72H5.984C7.17867 4.72 8.10667 5.01333 8.768 5.6C9.42933 6.18667 9.76 7.01867 9.76 8.096C9.76 9.16267 9.42933 9.99467 8.768 10.592C8.10667 11.1893 7.17867 11.488 5.984 11.488H2.96V16H1.312V4.72ZM5.808 10.16C7.38667 10.16 8.176 9.472 8.176 8.096C8.176 6.73067 7.38667 6.048 5.808 6.048H2.96V10.16H5.808ZM14.6839 16.112C13.9159 16.112 13.2385 15.9467 12.6519 15.616C12.0759 15.2853 11.6279 14.816 11.3079 14.208C10.9985 13.5893 10.8439 12.8747 10.8439 12.064C10.8439 11.2427 10.9985 10.528 11.3079 9.92C11.6279 9.30133 12.0759 8.82667 12.6519 8.496C13.2385 8.16533 13.9159 8 14.6839 8C15.4519 8 16.1239 8.16533 16.6999 8.496C17.2865 8.82667 17.7345 9.30133 18.0439 9.92C18.3639 10.528 18.5239 11.2427 18.5239 12.064C18.5239 12.8747 18.3639 13.5893 18.0439 14.208C17.7345 14.816 17.2865 15.2853 16.6999 15.616C16.1239 15.9467 15.4519 16.112 14.6839 16.112ZM14.6839 14.832C15.3985 14.832 15.9425 14.5973 16.3159 14.128C16.6999 13.6587 16.8919 12.9707 16.8919 12.064C16.8919 11.168 16.6999 10.4853 16.3159 10.016C15.9319 9.536 15.3879 9.296 14.6839 9.296C13.9799 9.296 13.4359 9.536 13.0519 10.016C12.6679 10.4853 12.4759 11.168 12.4759 12.064C12.4759 12.9707 12.6625 13.6587 13.0359 14.128C13.4199 14.5973 13.9692 14.832 14.6839 14.832ZM30.7898 8.192H32.3898L29.3978 16H27.9418L25.8778 10.416L23.8138 16H22.3418L19.3658 8.192H21.0458L23.1578 14.064L25.2858 8.192H26.5498L28.6778 14.096L30.7898 8.192ZM40.3549 12.368H34.8349C34.9522 14.0213 35.7735 14.848 37.2989 14.848C38.1949 14.848 39.0055 14.5547 39.7309 13.968L40.2269 15.104C39.8642 15.4133 39.4162 15.6587 38.8829 15.84C38.3495 16.0213 37.8055 16.112 37.2509 16.112C36.0029 16.112 35.0162 15.7547 34.2909 15.04C33.5762 14.3253 33.2189 13.3387 33.2189 12.08C33.2189 11.28 33.3735 10.5707 33.6829 9.952C34.0029 9.33333 34.4455 8.85333 35.0109 8.512C35.5869 8.17067 36.2375 8 36.9629 8C38.0189 8 38.8455 8.34133 39.4429 9.024C40.0509 9.70667 40.3549 10.6507 40.3549 11.856V12.368ZM36.9949 9.184C36.3762 9.184 35.8802 9.38133 35.5069 9.776C35.1442 10.16 34.9255 10.7147 34.8509 11.44H38.9629C38.9309 10.7147 38.7442 10.16 38.4029 9.776C38.0722 9.38133 37.6029 9.184 36.9949 9.184ZM46.8876 9.36L45.9116 9.456C45.1436 9.53067 44.589 9.76533 44.2476 10.16C43.917 10.5547 43.7516 11.056 43.7516 11.664V16H42.1356V8.192H43.7036V9.552C44.1196 8.63467 44.9676 8.128 46.2476 8.032L46.7756 8L46.8876 9.36ZM54.5268 12.368H49.0068C49.1241 14.0213 49.9454 14.848 51.4708 14.848C52.3668 14.848 53.1774 14.5547 53.9028 13.968L54.3988 15.104C54.0361 15.4133 53.5881 15.6587 53.0548 15.84C52.5214 16.0213 51.9774 16.112 51.4227 16.112C50.1748 16.112 49.1881 15.7547 48.4628 15.04C47.7481 14.3253 47.3908 13.3387 47.3908 12.08C47.3908 11.28 47.5454 10.5707 47.8548 9.952C48.1748 9.33333 48.6174 8.85333 49.1828 8.512C49.7588 8.17067 50.4094 8 51.1348 8C52.1908 8 53.0174 8.34133 53.6148 9.024C54.2228 9.70667 54.5268 10.6507 54.5268 11.856V12.368ZM51.1668 9.184C50.5481 9.184 50.0521 9.38133 49.6788 9.776C49.3161 10.16 49.0974 10.7147 49.0228 11.44H53.1348C53.1028 10.7147 52.9161 10.16 52.5748 9.776C52.2441 9.38133 51.7748 9.184 51.1668 9.184ZM63.5075 4.72V16H61.9075V14.656C61.6728 15.1253 61.3315 15.488 60.8835 15.744C60.4355 15.9893 59.9182 16.112 59.3315 16.112C58.6595 16.112 58.0568 15.9413 57.5235 15.6C57.0008 15.2587 56.5902 14.7787 56.2915 14.16C56.0035 13.5413 55.8595 12.832 55.8595 12.032C55.8595 11.2213 56.0035 10.512 56.2915 9.904C56.5902 9.296 57.0008 8.82667 57.5235 8.496C58.0462 8.16533 58.6488 8 59.3315 8C59.9182 8 60.4302 8.128 60.8675 8.384C61.3155 8.62933 61.6568 8.98133 61.8915 9.44V4.72H63.5075ZM59.7155 14.832C60.4195 14.832 60.9582 14.592 61.3315 14.112C61.7155 13.632 61.9075 12.9493 61.9075 12.064C61.9075 11.1787 61.7155 10.496 61.3315 10.016C60.9582 9.536 60.4195 9.296 59.7155 9.296C59.0115 9.296 58.4622 9.536 58.0675 10.016C57.6835 10.4853 57.4915 11.1573 57.4915 12.032C57.4915 12.9067 57.6888 13.5947 58.0835 14.096C58.4782 14.5867 59.0222 14.832 59.7155 14.832ZM76.8114 10.192C77.462 10.3733 77.9634 10.6987 78.3154 11.168C78.678 11.6373 78.8594 12.224 78.8594 12.928C78.8594 13.8987 78.5234 14.656 77.8514 15.2C77.19 15.7333 76.262 16 75.0674 16H70.1714V4.72H74.8914C76.054 4.72 76.9607 4.98133 77.6114 5.504C78.2727 6.016 78.6034 6.736 78.6034 7.664C78.6034 8.26133 78.4434 8.77867 78.1234 9.216C77.814 9.65333 77.3767 9.97867 76.8114 10.192ZM71.7874 9.6H74.6354C76.214 9.6 77.0034 9.00267 77.0034 7.808C77.0034 7.21067 76.806 6.768 76.4114 6.48C76.0274 6.192 75.4354 6.048 74.6354 6.048H71.7874V9.6ZM74.8914 14.672C75.7127 14.672 76.3154 14.5227 76.6994 14.224C77.0834 13.9253 77.2754 13.4613 77.2754 12.832C77.2754 12.192 77.078 11.7173 76.6834 11.408C76.2994 11.088 75.702 10.928 74.8914 10.928H71.7874V14.672H74.8914ZM86.3591 8.208H87.9751L83.3191 18.88H81.6871L83.0471 15.808L79.7671 8.208H81.4631L83.8951 14.176L86.3591 8.208Z" fill="black"/>
</svg>
