<svg width="1440" height="729" viewBox="0 0 1440 729" fill="none" xmlns="http://www.w3.org/2000/svg">
<mask id="mask0" style="mask-type:alpha" maskUnits="userSpaceOnUse" x="0" y="0" width="1440" height="729">
<rect width="1440" height="729" fill="#C4C4C4"/>
</mask>
<g mask="url(#mask0)">
<path opacity="0.08" d="M1031.5 717.129C1151.13 717.129 1248.1 620.337 1248.1 500.938C1248.1 381.539 1151.13 284.746 1031.5 284.746C911.871 284.746 814.895 381.539 814.895 500.938C814.895 620.337 911.871 717.129 1031.5 717.129Z" fill="#55BBB8"/>
<path opacity="0.11" d="M1022.8 709.621C1142.43 709.621 1239.41 612.829 1239.41 493.43C1239.41 374.031 1142.43 277.239 1022.8 277.239C903.175 277.239 806.198 374.031 806.198 493.43C806.198 612.829 903.175 709.621 1022.8 709.621Z" fill="#55BBB8"/>
<path opacity="0.31" d="M859.588 600.831L902.326 582.692L880.326 531.053L837.588 549.192L836.501 546.632C836.07 545.61 835.44 544.683 834.648 543.905C833.857 543.127 832.919 542.513 831.889 542.097C830.858 541.682 829.756 541.474 828.645 541.485C827.534 541.496 826.436 541.726 825.415 542.162L817.197 545.677L816.589 544.245C816.418 543.845 816.17 543.484 815.859 543.18C815.548 542.876 815.18 542.637 814.776 542.476C814.372 542.314 813.94 542.234 813.505 542.24C813.07 542.246 812.64 542.337 812.241 542.509L802.415 546.675C802.013 546.836 801.647 547.076 801.34 547.382C801.033 547.688 800.791 548.052 800.628 548.453C800.466 548.854 800.386 549.284 800.394 549.717C800.403 550.15 800.498 550.576 800.676 550.971L801.285 552.403L796.589 554.399L796.024 552.967C795.853 552.568 795.605 552.206 795.294 551.902C794.983 551.599 794.615 551.359 794.211 551.198C793.807 551.037 793.375 550.957 792.94 550.962C792.505 550.968 792.076 551.06 791.676 551.231L781.85 555.397C781.042 555.742 780.402 556.391 780.068 557.203C779.735 558.014 779.734 558.925 780.068 559.737L780.676 561.125L722.808 585.73C721.784 586.161 720.856 586.79 720.076 587.58C719.297 588.37 718.681 589.306 718.265 590.334C717.849 591.362 717.641 592.462 717.652 593.571C717.663 594.68 717.893 595.776 718.33 596.796L723.721 609.51L704.504 617.668L707.895 625.61C659.853 646.222 605.854 668.917 553.464 670.393C531.03 671.044 487.509 662.755 447.988 600.05C437.206 582.953 428.467 564.597 421.337 548.932C420.119 546.241 418.902 543.334 417.641 540.253C411.511 525.455 404.598 508.662 388.424 500.503C365.294 488.874 344.643 501.935 328.078 512.48L322.121 516.212C316.817 519.423 311.382 522.938 306.122 526.323C278.383 544.158 249.688 562.557 218.558 559.52C190.472 556.743 165.429 538.213 151.516 509.92C123.734 453.377 128.343 396.183 165.646 335.04C198.515 281.144 250.645 233.454 296.644 191.361L316.6 173.005C329.686 160.855 344.425 146.361 353.86 128.309C364.599 107.696 366.294 85.6086 358.555 67.6867C351.947 52.325 338.077 39.2199 317.339 28.7184C283.818 11.7946 248.079 4.63448 211.167 7.49852C179.168 9.972 145.299 20.0829 110.517 37.5709C48.3882 68.8149 -7.13234 117.59 -57.9138 165.671L-94 199.866L-82.7829 211.67L-46.6532 177.475C3.17178 130.262 57.6054 82.3974 117.865 52.1081C150.734 35.6181 182.559 26.0714 212.428 23.7281C246.34 21.1244 279.166 27.677 309.991 43.2556C327.208 51.9779 338.512 62.3491 343.599 74.1091C349.295 87.3444 347.729 104.789 339.382 120.802C331.034 136.814 317.556 149.832 305.469 161.072C299.078 167.017 292.513 173.005 285.6 179.341C238.819 222.171 185.776 270.73 151.69 326.578C132.778 357.562 121.908 387.07 118.474 416.752C114.561 450.513 120.734 484.274 136.864 517.123C139.95 523.356 143.572 529.309 147.69 534.915C164.864 558.175 189.646 573.016 216.95 575.706C253.731 579.351 286.253 558.435 314.948 539.992C320.382 536.521 325.513 533.223 330.599 530.098L336.817 526.193C354.599 514.954 367.251 508.097 381.076 515.041C391.815 520.465 397.25 533.657 402.554 546.458C403.815 549.539 405.119 552.707 406.467 555.701C413.858 571.844 422.902 590.807 434.206 608.729C452.988 638.585 493.552 688.401 553.899 686.709C609.376 685.104 664.94 661.801 714.287 640.581L717.678 648.609L736.895 640.451L742.46 653.512C743.341 655.568 745.002 657.193 747.079 658.03C749.157 658.868 751.482 658.85 753.547 657.982L811.458 633.377L812.067 634.809C812.238 635.209 812.486 635.571 812.797 635.874C813.108 636.178 813.476 636.417 813.88 636.579C814.284 636.74 814.716 636.82 815.151 636.814C815.586 636.808 816.015 636.717 816.415 636.545L826.241 632.379C826.643 632.218 827.009 631.978 827.316 631.672C827.623 631.367 827.865 631.002 828.028 630.601C828.19 630.2 828.27 629.77 828.261 629.337C828.253 628.905 828.157 628.478 827.98 628.083L827.371 626.651L832.023 624.655L832.632 626.087C832.802 626.486 833.05 626.848 833.361 627.152C833.672 627.456 834.041 627.695 834.444 627.856C834.848 628.018 835.28 628.098 835.715 628.092C836.15 628.086 836.58 627.995 836.98 627.823L846.805 623.657C847.614 623.312 848.254 622.664 848.588 621.852C848.921 621.04 848.921 620.129 848.588 619.317L847.979 617.929L856.197 614.414C857.216 613.979 858.14 613.347 858.915 612.555C859.691 611.764 860.301 610.827 860.713 609.799C861.125 608.771 861.33 607.672 861.316 606.566C861.302 605.459 861.069 604.365 860.631 603.348L859.588 600.831Z" fill="#55BBB8"/>
<path d="M835.066 610.162C835.227 610.564 835.468 610.929 835.774 611.235C836.08 611.542 836.445 611.783 836.847 611.945C837.249 612.108 837.68 612.187 838.114 612.179C838.547 612.17 838.975 612.075 839.37 611.898L849.239 607.732C850.04 607.379 850.671 606.727 850.996 605.916C851.321 605.105 851.315 604.199 850.979 603.392L850.37 602.004L858.587 598.489C859.611 598.058 860.539 597.429 861.319 596.639C862.098 595.849 862.714 594.913 863.13 593.885C863.546 592.856 863.755 591.756 863.744 590.647C863.732 589.539 863.502 588.443 863.065 587.423L838.892 530.706C838.46 529.684 837.83 528.758 837.039 527.98C836.247 527.202 835.309 526.587 834.279 526.172C833.249 525.756 832.147 525.548 831.036 525.56C829.925 525.571 828.827 525.801 827.805 526.237L819.588 529.751L818.979 528.32C818.813 527.916 818.568 527.55 818.258 527.243C817.948 526.936 817.579 526.695 817.174 526.533C816.768 526.371 816.334 526.292 815.897 526.301C815.461 526.31 815.03 526.406 814.632 526.584L804.806 530.75C804.403 530.91 804.037 531.151 803.73 531.457C803.423 531.762 803.181 532.126 803.019 532.528C802.856 532.929 802.777 533.359 802.785 533.792C802.793 534.224 802.889 534.651 803.067 535.046L803.675 536.478L799.023 538.474L798.415 537.042C798.244 536.642 797.996 536.28 797.685 535.977C797.374 535.673 797.006 535.434 796.602 535.273C796.198 535.111 795.766 535.031 795.331 535.037C794.896 535.043 794.466 535.134 794.067 535.306L784.241 539.472C783.841 539.642 783.478 539.89 783.174 540.2C782.87 540.511 782.63 540.878 782.468 541.281C782.307 541.684 782.227 542.115 782.232 542.55C782.238 542.984 782.33 543.413 782.502 543.811L783.111 545.243L725.199 569.805C724.175 570.236 723.247 570.864 722.467 571.654C721.688 572.445 721.072 573.381 720.656 574.409C720.24 575.437 720.031 576.537 720.042 577.646C720.054 578.755 720.284 579.851 720.721 580.87L744.851 637.587C745.287 638.611 745.921 639.538 746.716 640.317C747.512 641.095 748.454 641.71 749.487 642.125C750.521 642.54 751.627 642.748 752.741 642.736C753.855 642.724 754.956 642.494 755.981 642.057L813.849 617.452L814.458 618.884C814.628 619.284 814.876 619.646 815.187 619.949C815.498 620.253 815.866 620.492 816.27 620.653C816.674 620.815 817.106 620.895 817.541 620.889C817.976 620.883 818.406 620.792 818.805 620.62L828.631 616.454C829.437 616.118 830.076 615.478 830.41 614.673C830.744 613.868 830.745 612.964 830.414 612.158L829.805 610.726L834.457 608.73L835.066 610.162Z" fill="#E2F0FE"/>
<path d="M904.064 566.701L882.099 515.052L839.348 533.164L861.314 584.813L904.064 566.701Z" fill="#55BBB8"/>
<path d="M883.23 526.853L879.951 519.144L869.337 523.641L872.616 531.35L883.23 526.853Z" fill="white"/>
<path d="M888.7 539.699L885.422 531.99L874.808 536.486L878.087 544.195L888.7 539.699Z" fill="white"/>
<path d="M894.21 552.571L890.932 544.861L880.318 549.358L883.597 557.067L894.21 552.571Z" fill="white"/>
<path d="M899.638 565.418L896.359 557.708L885.746 562.205L889.024 569.914L899.638 565.418Z" fill="white"/>
<path d="M833.81 608.633L803.078 536.373L798.424 538.345L829.155 610.605L833.81 608.633Z" fill="#55BBB8"/>
<path d="M738.194 624.823L725.046 593.906L704.351 602.674L717.5 633.591L738.194 624.823Z" fill="#55BBB8"/>
<path d="M148.082 520.031C143.945 514.438 140.321 508.483 137.256 502.239C121.126 469.39 114.952 435.629 118.865 401.868C122.3 372.186 133.169 342.678 152.082 311.694C186.168 255.845 239.21 207.287 285.992 164.457C292.905 158.121 299.47 152.133 305.861 146.188C317.948 134.992 331.556 121.67 339.773 105.918C347.991 90.1653 349.686 72.4603 343.991 59.225C338.904 47.4651 327.6 37.0938 310.383 28.3715C279.557 12.7929 246.732 6.24035 212.82 8.84402C182.951 11.1873 151.125 20.7341 118.257 37.224C57.997 67.5134 3.56337 115.378 -46.2616 162.591L-82.3913 196.829L-93.6084 184.982L-57.5222 150.787C-6.74075 102.706 48.7798 53.9309 110.909 22.6869C145.691 5.19888 179.559 -4.91203 211.559 -7.38552C248.471 -10.2496 284.209 -3.08946 317.73 13.8344C338.469 24.3359 352.338 37.441 358.947 52.8026C366.686 70.7246 364.99 92.8558 354.251 113.425C344.817 131.52 330.078 145.971 316.991 158.121C310.557 164.11 303.992 170.098 297.035 176.477C251.036 218.57 198.907 266.304 166.038 320.156C128.735 381.299 124.126 438.493 151.908 495.079C165.821 523.329 190.864 541.859 218.95 544.636C250.08 547.717 278.775 529.274 306.513 511.439C311.774 508.054 317.209 504.539 322.513 501.328L328.469 497.596C345.034 487.095 365.686 473.99 388.816 485.619C404.989 493.777 411.902 510.571 418.032 525.369C419.293 528.45 420.511 531.357 421.728 534.091C428.858 549.756 437.597 568.069 448.423 585.21C487.901 647.871 531.421 656.16 553.856 655.552C607.637 653.99 663.158 630.123 712.156 609.077L719.243 606.039L725.678 621.01L718.591 624.048C668.288 645.658 611.246 670.176 554.29 671.825C493.944 673.517 453.38 623.701 434.597 593.845C423.293 575.923 414.25 556.96 406.859 540.817C405.511 537.823 404.207 534.655 402.946 531.574C397.642 518.816 392.207 505.581 381.468 500.156C367.642 493.213 354.99 500.07 337.208 511.352L331.034 515.214C325.904 518.339 320.774 521.637 315.339 525.108C286.644 543.551 254.123 564.467 217.341 560.822C190.038 558.132 165.255 543.291 148.082 520.031Z" fill="#55BBB8"/>
<path opacity="0.31" d="M2054.91 715.436C2028.69 715.566 1994.56 697.992 1977.26 658.416C1955.95 609.597 1967.04 557.046 1977.74 506.232C1978.56 502.326 1979.39 498.464 1980.17 494.602L1980.78 491.651C1993 432.851 2005.6 372.012 2005.78 310.783C2005.91 273.42 1998.47 235.276 1984.78 203.425C1968.43 165.281 1943.61 137.161 1913 122.104C1884.26 108 1852 106.612 1826.7 118.458C1804.17 128.96 1788.87 148.401 1782.52 174.654C1772 218.049 1780.61 263.353 1788.87 307.224C1789.96 312.822 1791 318.42 1792 323.931C1792.57 326.926 1793.13 329.963 1793.65 333.001C1805.26 396.183 1818.44 467.784 1776.22 520.508C1763.26 536.651 1748.78 545.026 1731.96 546.198C1687.92 549.235 1637.61 501.588 1597.22 463.314C1581.44 448.387 1567.88 435.542 1556.31 427.167C1483.4 374.356 1418.18 357.258 1357.18 375.05L1352.18 364.288L1329.36 374.79L1324.75 364.765C1323.89 362.941 1322.34 361.529 1320.45 360.838C1318.55 360.147 1316.45 360.233 1314.62 361.077L1256.27 387.982L1255.14 385.508C1254.7 384.569 1253.9 383.843 1252.93 383.485C1251.95 383.128 1250.87 383.169 1249.93 383.599L1192.32 410.113C1191.85 410.324 1191.42 410.626 1191.06 411.003C1190.71 411.38 1190.43 411.823 1190.25 412.308C1190.07 412.792 1189.98 413.308 1190 413.825C1190.02 414.342 1190.14 414.85 1190.36 415.32L1191.54 417.794L1166.23 429.467C1164.4 430.307 1162.98 431.84 1162.27 433.728C1161.57 435.616 1161.65 437.704 1162.49 439.534L1170.1 455.937L1112.23 482.755C1110.14 483.87 1108.55 485.743 1107.79 487.99C1107.03 490.237 1107.16 492.688 1108.16 494.841C1109.15 496.994 1110.94 498.686 1113.14 499.569C1115.35 500.452 1117.81 500.461 1120.02 499.592L1177.88 472.818L1185.58 489.438C1186.43 491.259 1187.97 492.673 1189.86 493.371C1191.74 494.07 1193.83 493.998 1195.67 493.17L1220.97 481.497L1222.1 483.97C1222.54 484.909 1223.34 485.636 1224.32 485.993C1225.29 486.35 1226.37 486.309 1227.32 485.879L1284.93 459.322C1285.4 459.111 1285.83 458.809 1286.18 458.432C1286.54 458.055 1286.81 457.611 1286.99 457.127C1287.18 456.642 1287.26 456.127 1287.24 455.609C1287.22 455.092 1287.1 454.584 1286.88 454.115L1285.71 451.685L1344.1 424.78C1345.92 423.931 1347.34 422.397 1348.04 420.513C1348.74 418.628 1348.67 416.544 1347.84 414.713L1344.36 407.249L1343.18 404.688L1366.01 394.187L1360.45 382.123C1418.7 365.633 1481.4 382.47 1551.75 433.416C1562.92 441.487 1576.31 454.202 1591.87 468.912C1633.4 508.228 1685.05 557.177 1732.48 553.922C1751.35 552.62 1768.09 542.987 1782.26 525.325C1826.7 469.867 1813.17 396.4 1801.26 331.612C1800.74 328.574 1800.17 325.537 1799.61 322.543C1798.61 317.032 1797.57 311.434 1796.48 305.792C1788.35 262.745 1779.91 218.266 1790.04 176.477C1795.83 152.566 1809.65 134.948 1830 125.445C1853.17 114.596 1882.91 115.941 1909.56 129.047C1938.52 143.28 1962.08 170.054 1977.69 206.462C1990.95 237.403 1998.17 274.418 1998.04 310.783C1997.87 371.231 1985.34 431.68 1973.21 490.089L1972.61 493.04C1971.82 496.902 1971 500.764 1970.17 504.626C1959.21 556.656 1947.87 610.422 1970.17 661.497C1977.61 678.508 1989.6 693.956 2003.95 704.935C2019.65 716.955 2037.26 723.247 2054.95 723.161L2054.91 715.436Z" fill="#55BBB8"/>
<path d="M1325.71 349.534L1348.79 399.438C1349.22 400.34 1349.46 401.318 1349.5 402.313C1349.55 403.309 1349.39 404.304 1349.05 405.24C1348.7 406.176 1348.18 407.035 1347.5 407.767C1346.82 408.499 1346.01 409.09 1345.1 409.505L1196.67 477.895C1194.83 478.734 1192.74 478.813 1190.85 478.113C1188.96 477.413 1187.42 475.992 1186.58 474.163L1163.49 424.259C1163.07 423.357 1162.83 422.379 1162.79 421.384C1162.74 420.388 1162.9 419.393 1163.24 418.457C1163.58 417.521 1164.11 416.662 1164.79 415.93C1165.47 415.198 1166.28 414.607 1167.19 414.192L1315.62 345.802C1317.45 344.963 1319.55 344.884 1321.44 345.584C1323.33 346.284 1324.87 347.705 1325.71 349.534V349.534Z" fill="#E2F0FE"/>
<path d="M1256.1 370.233L1287.84 438.84C1288.06 439.31 1288.19 439.818 1288.21 440.337C1288.23 440.855 1288.15 441.373 1287.98 441.861C1287.8 442.348 1287.53 442.796 1287.17 443.179C1286.82 443.561 1286.4 443.871 1285.93 444.09L1228.32 470.604C1227.37 471.034 1226.3 471.075 1225.32 470.718C1224.34 470.36 1223.55 469.634 1223.1 468.695L1191.36 400.088C1191.15 399.621 1191.02 399.116 1191 398.601C1190.98 398.085 1191.06 397.571 1191.23 397.087C1191.41 396.603 1191.68 396.159 1192.03 395.78C1192.39 395.401 1192.81 395.096 1193.28 394.881L1250.89 368.324C1251.35 368.105 1251.86 367.981 1252.38 367.958C1252.89 367.936 1253.41 368.016 1253.89 368.193C1254.38 368.371 1254.82 368.642 1255.2 368.993C1255.58 369.343 1255.89 369.764 1256.1 370.233V370.233Z" fill="#55BBB8"/>
<path d="M1280.75 435.932C1280.91 436.268 1281 436.631 1281.02 437.002C1281.03 437.373 1280.98 437.743 1280.85 438.091C1280.72 438.439 1280.52 438.758 1280.26 439.028C1280.01 439.298 1279.7 439.514 1279.36 439.664L1229.32 462.75C1228.98 462.91 1228.61 463.001 1228.24 463.018C1227.86 463.034 1227.49 462.976 1227.14 462.847C1226.78 462.718 1226.46 462.52 1226.19 462.265C1225.91 462.01 1225.69 461.703 1225.54 461.361V461.361C1225.23 460.682 1225.2 459.908 1225.46 459.208C1225.72 458.509 1226.25 457.941 1226.93 457.629L1277.01 434.544C1277.69 434.234 1278.47 434.207 1279.17 434.467C1279.87 434.727 1280.44 435.254 1280.75 435.932V435.932Z" fill="#E2F0FE"/>
<path d="M1275.36 424.26C1275.67 424.939 1275.7 425.713 1275.44 426.413C1275.18 427.112 1274.65 427.68 1273.97 427.992L1223.93 451.078C1223.59 451.238 1223.22 451.329 1222.84 451.345C1222.47 451.362 1222.09 451.304 1221.74 451.175C1221.39 451.045 1221.07 450.847 1220.79 450.592C1220.52 450.337 1220.3 450.03 1220.14 449.689V449.689C1219.98 449.354 1219.89 448.99 1219.88 448.619C1219.86 448.248 1219.92 447.878 1220.05 447.53C1220.18 447.182 1220.38 446.863 1220.63 446.593C1220.89 446.323 1221.19 446.107 1221.53 445.957L1271.58 422.871C1271.92 422.711 1272.28 422.62 1272.66 422.604C1273.03 422.587 1273.41 422.645 1273.76 422.774C1274.11 422.903 1274.43 423.101 1274.71 423.356C1274.98 423.612 1275.2 423.919 1275.36 424.26V424.26Z" fill="#E2F0FE"/>
<path d="M1269.97 412.586C1270.27 413.267 1270.29 414.037 1270.03 414.733C1269.77 415.43 1269.25 415.998 1268.58 416.318L1218.49 439.404C1217.81 439.702 1217.04 439.724 1216.34 439.465C1215.65 439.205 1215.08 438.686 1214.76 438.016C1214.59 437.677 1214.5 437.31 1214.49 436.936C1214.47 436.562 1214.53 436.188 1214.66 435.837C1214.79 435.485 1214.99 435.163 1215.24 434.889C1215.5 434.615 1215.8 434.394 1216.15 434.24L1266.19 411.198C1266.53 411.038 1266.9 410.947 1267.27 410.93C1267.64 410.914 1268.02 410.972 1268.37 411.101C1268.72 411.23 1269.05 411.428 1269.32 411.683C1269.6 411.938 1269.82 412.245 1269.97 412.586V412.586Z" fill="#E2F0FE"/>
<path d="M1264.54 400.913C1264.85 401.587 1264.88 402.357 1264.63 403.056C1264.38 403.754 1263.86 404.325 1263.19 404.645L1213.1 427.688C1212.77 427.848 1212.41 427.941 1212.04 427.96C1211.67 427.979 1211.3 427.924 1210.95 427.799C1210.6 427.674 1210.28 427.48 1210.01 427.23C1209.74 426.98 1209.52 426.678 1209.36 426.342V426.342C1209.2 426.004 1209.11 425.637 1209.09 425.263C1209.08 424.889 1209.14 424.515 1209.27 424.164C1209.4 423.812 1209.59 423.49 1209.85 423.216C1210.1 422.942 1210.41 422.721 1210.75 422.567L1260.8 399.525C1261.13 399.365 1261.5 399.275 1261.87 399.259C1262.24 399.243 1262.61 399.301 1262.96 399.431C1263.31 399.56 1263.63 399.758 1263.9 400.013C1264.17 400.267 1264.39 400.574 1264.54 400.913Z" fill="#E2F0FE"/>
<path d="M1259.14 389.197C1259.3 389.535 1259.4 389.902 1259.41 390.276C1259.43 390.65 1259.37 391.024 1259.24 391.375C1259.11 391.727 1258.91 392.049 1258.66 392.323C1258.4 392.597 1258.1 392.818 1257.75 392.972L1207.71 416.015C1207.04 416.327 1206.26 416.361 1205.56 416.109C1204.86 415.857 1204.29 415.34 1203.97 414.669C1203.81 414.333 1203.72 413.969 1203.7 413.597C1203.68 413.225 1203.73 412.852 1203.86 412.501C1203.98 412.15 1204.18 411.827 1204.43 411.552C1204.68 411.276 1204.98 411.052 1205.32 410.894L1255.41 387.852C1256.08 387.539 1256.85 387.505 1257.55 387.757C1258.25 388.009 1258.82 388.526 1259.14 389.197V389.197Z" fill="#E2F0FE"/>
<path d="M1253.75 377.524C1253.91 377.863 1254 378.23 1254.02 378.604C1254.04 378.978 1253.98 379.351 1253.85 379.703C1253.72 380.054 1253.52 380.376 1253.27 380.65C1253.01 380.925 1252.7 381.145 1252.36 381.299L1202.32 404.342C1201.98 404.502 1201.61 404.593 1201.24 404.609C1200.86 404.626 1200.49 404.568 1200.14 404.439C1199.79 404.31 1199.46 404.112 1199.19 403.857C1198.91 403.602 1198.69 403.294 1198.54 402.953V402.953C1198.23 402.274 1198.2 401.5 1198.46 400.8C1198.72 400.101 1199.25 399.533 1199.93 399.221L1250.01 376.179C1250.35 376.018 1250.71 375.926 1251.08 375.907C1251.45 375.887 1251.82 375.942 1252.17 376.067C1252.52 376.193 1252.83 376.386 1253.11 376.636C1253.38 376.886 1253.6 377.188 1253.75 377.524V377.524Z" fill="#E2F0FE"/>
<path d="M1171.15 440.836L1178.93 457.63L1121.02 484.318C1118.78 485.338 1116.24 485.436 1113.93 484.591C1111.63 483.746 1109.75 482.025 1108.71 479.805V479.805C1107.68 477.572 1107.57 475.019 1108.42 472.709C1109.27 470.398 1111 468.518 1113.23 467.481L1171.15 440.836Z" fill="#55BBB8"/>
<path d="M1329.77 359.625L1343.61 389.523L1366.44 378.997L1352.59 349.098L1329.77 359.625Z" fill="#55BBB8"/>
<path d="M1350.4 362.205C1413.62 340.638 1481.31 356.868 1557.31 411.892C1568.83 420.267 1582.44 433.155 1598.18 448.039C1638.61 486.313 1688.87 533.961 1732.96 530.923C1749.78 529.795 1764.26 521.376 1777.17 505.233C1819.43 452.509 1806.26 380.908 1794.65 317.726C1794.09 314.688 1793.57 311.651 1793 308.656C1792 303.145 1790.96 297.547 1789.87 291.95C1781.57 248.121 1773 202.774 1783.52 159.379C1789.87 133.169 1805.13 113.728 1827.7 103.183C1853 91.3368 1885.26 92.7254 1914 106.829C1944.61 121.93 1969.43 150.006 1985.78 188.15C1999.43 220.045 2006.91 258.189 2006.78 295.508C2006.56 356.781 1993.95 417.577 1981.78 476.42L1981.17 479.37C1980.39 483.189 1979.56 487.095 1978.74 490.957C1968.04 541.772 1956.91 594.322 1978.26 643.185C1995.52 682.76 2029.69 700.292 2055.86 700.162V707.886C2038.21 707.972 2020.56 701.68 2004.91 689.703C1990.56 678.681 1978.56 663.276 1971.13 646.266C1948.82 595.147 1960.13 541.381 1971.13 489.351C1971.95 485.489 1972.74 481.627 1973.56 477.808L1974.17 474.857C1986.26 416.405 1998.82 355.956 1999 295.508C1999.13 259.187 1991.87 222.128 1978.61 191.188C1963 154.78 1939.48 128.005 1910.52 113.772C1883.87 100.667 1854.13 99.3214 1830.91 110.17C1810.57 119.673 1796.78 137.335 1791 161.202C1780.87 202.991 1789.31 247.47 1797.44 290.518C1798.54 296.159 1799.58 301.757 1800.57 307.311C1801.13 310.305 1801.65 313.3 1802.22 316.337C1814.13 381.125 1827.61 454.592 1783.17 510.05C1769.04 527.755 1752.31 537.345 1733.44 538.647C1686 541.902 1634.35 492.953 1592.83 453.681C1577.27 438.927 1563.83 426.212 1552.7 418.141C1478.92 364.679 1413.57 348.796 1352.92 369.539L1350.4 362.205Z" fill="#55BBB8"/>
<path d="M1009.85 585.644C1010.56 583.98 1011.58 582.463 1012.85 581.174C1014.15 579.914 1015.66 578.9 1017.32 578.18C1020.83 576.733 1024.77 576.733 1028.28 578.18C1029.94 578.9 1031.46 579.914 1032.76 581.174C1034.03 582.463 1035.05 583.98 1035.76 585.644C1036.99 589.029 1036.86 592.755 1035.42 596.053C1033.98 599.352 1031.32 601.972 1028 603.374C1024.68 604.775 1020.94 604.852 1017.56 603.588C1014.19 602.324 1011.43 599.816 1009.85 596.579C1008.4 593.078 1008.4 589.145 1009.85 585.644V585.644ZM1043.24 365.417C1043.24 357.432 1041.72 351.487 1038.67 347.495C1035.63 343.502 1030.32 341.506 1022.8 341.506C1015.28 341.506 1009.98 343.502 1006.93 347.495C1003.89 351.487 1002.33 357.432 1002.33 365.417V437.408L1012.93 544.549V544.289C1013.4 547.847 1014.61 550.277 1016.59 551.579C1018.38 552.86 1020.54 553.555 1022.75 553.571C1024.96 553.586 1027.12 552.921 1028.93 551.666C1030.85 550.407 1032.06 548.021 1032.54 544.549L1043.24 437.408V365.417Z" fill="#55BBB8"/>
</g>
</svg>
