<svg width="411" height="331" viewBox="0 0 411 331" fill="none" xmlns="http://www.w3.org/2000/svg">
<mask id="mask0_1660_1139" style="mask-type:alpha" maskUnits="userSpaceOnUse" x="-182" y="0" width="654" height="331">
<rect x="-182" width="653.827" height="331" fill="#C4C4C4"/>
</mask>
<g mask="url(#mask0_1660_1139)">
<path opacity="0.08" d="M286.803 325.611C341.119 325.611 385.151 281.662 385.151 227.45C385.151 173.237 341.119 129.289 286.803 129.289C232.486 129.289 188.454 173.237 188.454 227.45C188.454 281.662 232.486 325.611 286.803 325.611Z" fill="#55BBB8"/>
<path opacity="0.11" d="M282.854 322.201C337.17 322.201 381.202 278.253 381.202 224.04C381.202 169.828 337.17 125.879 282.854 125.879C228.537 125.879 184.505 169.828 184.505 224.04C184.505 278.253 228.537 322.201 282.854 322.201Z" fill="#55BBB8"/>
<path opacity="0.31" d="M208.747 272.806L228.152 264.57L218.163 241.123L198.758 249.359L198.265 248.197C198.069 247.733 197.783 247.312 197.423 246.959C197.064 246.605 196.638 246.326 196.17 246.138C195.703 245.949 195.202 245.855 194.698 245.86C194.193 245.865 193.695 245.969 193.231 246.167L189.5 247.763L189.223 247.113C189.146 246.932 189.033 246.767 188.892 246.629C188.751 246.491 188.584 246.383 188.4 246.31C188.217 246.236 188.021 246.2 187.823 246.203C187.626 246.205 187.431 246.247 187.249 246.325L182.788 248.216C182.605 248.289 182.439 248.399 182.3 248.537C182.16 248.676 182.05 248.841 181.977 249.024C181.903 249.206 181.867 249.401 181.87 249.597C181.874 249.794 181.918 249.988 181.998 250.167L182.275 250.817L180.143 251.723L179.886 251.073C179.809 250.892 179.696 250.728 179.555 250.59C179.414 250.452 179.246 250.343 179.063 250.27C178.88 250.197 178.684 250.16 178.486 250.163C178.288 250.166 178.093 250.207 177.912 250.285L173.451 252.177C173.083 252.333 172.793 252.628 172.641 252.996C172.49 253.365 172.49 253.778 172.641 254.147L172.918 254.777L146.643 265.949C146.178 266.145 145.756 266.43 145.402 266.789C145.048 267.148 144.769 267.573 144.58 268.04C144.391 268.506 144.296 269.006 144.301 269.509C144.306 270.013 144.411 270.51 144.609 270.973L147.057 276.746L138.332 280.451L139.872 284.056C118.058 293.415 93.5401 303.72 69.7525 304.39C59.5663 304.685 39.8059 300.922 21.8615 272.451C16.9659 264.688 12.998 256.354 9.7605 249.241C9.20776 248.019 8.65501 246.699 8.08253 245.3C5.2991 238.581 2.16031 230.956 -5.18324 227.252C-15.6853 221.972 -25.0621 227.902 -32.5834 232.69L-35.2878 234.385C-37.6962 235.843 -40.1638 237.439 -42.5524 238.976C-55.147 247.074 -68.1759 255.428 -82.3102 254.048C-95.0628 252.787 -106.433 244.374 -112.75 231.528C-125.365 205.855 -123.272 179.886 -106.335 152.124C-91.4107 127.653 -67.7416 105.999 -46.8559 86.8871L-37.7949 78.5527C-31.853 73.0358 -25.1609 66.455 -20.8771 58.2585C-16.0012 48.8995 -15.2313 38.8706 -18.7451 30.7332C-21.7457 23.7583 -28.043 17.808 -37.4593 13.0398C-52.6794 5.35559 -68.9063 2.10457 -85.6662 3.40498C-100.195 4.52806 -115.573 9.11889 -131.366 17.0592C-159.575 31.2455 -184.784 53.3918 -207.842 75.2229L-224.226 90.7489L-219.133 96.1082L-202.729 80.5821C-180.106 59.1451 -155.39 37.4126 -128.03 23.6598C-113.106 16.1726 -98.6556 11.8379 -85.0937 10.7739C-69.6959 9.59176 -54.7917 12.5669 -40.7955 19.6404C-32.9782 23.6007 -27.8456 28.3097 -25.5359 33.6493C-22.9499 39.6587 -23.6606 47.5794 -27.4508 54.8498C-31.241 62.1203 -37.3606 68.0312 -42.8485 73.1343C-45.7504 75.8337 -48.7313 78.5527 -51.8701 81.4294C-73.1111 100.876 -97.1948 122.924 -112.671 148.282C-121.259 162.35 -126.194 175.748 -127.753 189.225C-129.53 204.554 -126.727 219.883 -119.403 234.798C-118.002 237.628 -116.358 240.331 -114.488 242.877C-106.69 253.438 -95.4378 260.176 -83.0406 261.398C-66.34 263.053 -51.5739 253.556 -38.5451 245.182C-36.0775 243.606 -33.7481 242.108 -31.4384 240.69L-28.6155 238.916C-20.5415 233.813 -14.797 230.7 -8.51942 233.853C-3.64348 236.316 -1.17587 242.305 1.2325 248.118C1.80498 249.517 2.3972 250.955 3.00916 252.315C6.36508 259.644 10.4712 268.254 15.6037 276.392C24.1317 289.947 42.5498 312.567 69.95 311.798C95.1391 311.069 120.368 300.489 142.773 290.854L144.313 294.499L153.039 290.795L155.565 296.725C155.966 297.659 156.72 298.396 157.663 298.777C158.606 299.157 159.662 299.149 160.599 298.755L186.894 287.583L187.17 288.233C187.248 288.415 187.36 288.579 187.502 288.717C187.643 288.855 187.81 288.963 187.993 289.037C188.177 289.11 188.373 289.146 188.57 289.144C188.768 289.141 188.963 289.1 189.144 289.021L193.606 287.13C193.789 287.057 193.955 286.948 194.094 286.809C194.234 286.67 194.343 286.505 194.417 286.323C194.491 286.14 194.527 285.945 194.523 285.749C194.52 285.552 194.476 285.359 194.396 285.179L194.119 284.529L196.231 283.623L196.508 284.273C196.585 284.454 196.698 284.619 196.839 284.757C196.98 284.894 197.147 285.003 197.331 285.076C197.514 285.15 197.71 285.186 197.908 285.183C198.105 285.181 198.3 285.139 198.482 285.061L202.943 283.17C203.31 283.013 203.601 282.719 203.752 282.35C203.904 281.981 203.904 281.568 203.753 281.199L203.476 280.569L207.207 278.973C207.67 278.775 208.09 278.489 208.442 278.129C208.794 277.77 209.071 277.344 209.258 276.878C209.445 276.411 209.538 275.912 209.532 275.409C209.525 274.907 209.42 274.41 209.221 273.949L208.747 272.806Z" fill="#55BBB8"/>
<path d="M197.613 277.042C197.686 277.224 197.796 277.39 197.935 277.529C198.074 277.669 198.239 277.778 198.422 277.852C198.604 277.925 198.8 277.961 198.997 277.958C199.194 277.954 199.388 277.911 199.567 277.83L204.048 275.939C204.412 275.778 204.698 275.482 204.846 275.114C204.993 274.746 204.991 274.335 204.838 273.968L204.562 273.338L208.293 271.742C208.757 271.546 209.179 271.261 209.533 270.902C209.887 270.543 210.166 270.118 210.355 269.651C210.544 269.185 210.639 268.685 210.634 268.182C210.629 267.678 210.524 267.181 210.326 266.718L199.35 240.965C199.154 240.502 198.868 240.081 198.509 239.727C198.149 239.374 197.723 239.095 197.256 238.907C196.788 238.718 196.287 238.624 195.783 238.629C195.279 238.634 194.78 238.738 194.316 238.936L190.585 240.532L190.309 239.882C190.234 239.699 190.122 239.533 189.981 239.393C189.841 239.254 189.673 239.144 189.489 239.071C189.305 238.997 189.108 238.961 188.91 238.965C188.711 238.969 188.516 239.013 188.335 239.094L183.873 240.985C183.691 241.058 183.525 241.167 183.385 241.306C183.246 241.445 183.136 241.61 183.062 241.792C182.988 241.975 182.952 242.17 182.956 242.366C182.96 242.563 183.003 242.757 183.084 242.936L183.36 243.586L181.248 244.492L180.972 243.842C180.894 243.661 180.782 243.496 180.64 243.359C180.499 243.221 180.332 243.112 180.149 243.039C179.965 242.966 179.769 242.929 179.571 242.932C179.374 242.934 179.179 242.976 178.997 243.054L174.536 244.945C174.354 245.023 174.19 245.135 174.052 245.276C173.913 245.417 173.805 245.584 173.731 245.767C173.658 245.95 173.621 246.146 173.624 246.343C173.627 246.54 173.668 246.735 173.746 246.916L174.023 247.566L147.728 258.718C147.263 258.914 146.842 259.199 146.488 259.558C146.134 259.917 145.854 260.342 145.665 260.808C145.477 261.275 145.382 261.775 145.387 262.278C145.392 262.782 145.497 263.279 145.695 263.742L156.651 289.494C156.849 289.959 157.137 290.38 157.498 290.734C157.859 291.087 158.287 291.366 158.756 291.555C159.226 291.743 159.728 291.838 160.234 291.832C160.739 291.827 161.239 291.722 161.705 291.524L187.979 280.352L188.256 281.002C188.333 281.184 188.446 281.348 188.587 281.486C188.728 281.624 188.895 281.732 189.079 281.806C189.262 281.879 189.458 281.915 189.656 281.913C189.853 281.91 190.048 281.869 190.23 281.79L194.691 279.899C195.057 279.746 195.347 279.456 195.499 279.09C195.651 278.725 195.651 278.314 195.501 277.948L195.224 277.298L197.337 276.392L197.613 277.042Z" fill="#E2F0FE"/>
<path d="M228.941 257.309L218.968 233.858L199.557 242.082L209.53 265.533L228.941 257.309Z" fill="#55BBB8"/>
<path d="M219.482 239.216L217.993 235.716L213.174 237.758L214.662 241.258L219.482 239.216Z" fill="white"/>
<path d="M221.966 245.048L220.477 241.548L215.658 243.59L217.147 247.09L221.966 245.048Z" fill="white"/>
<path d="M224.467 250.893L222.978 247.393L218.159 249.434L219.648 252.935L224.467 250.893Z" fill="white"/>
<path d="M226.932 256.726L225.443 253.226L220.624 255.267L222.112 258.768L226.932 256.726Z" fill="white"/>
<path d="M197.042 276.348L183.089 243.539L180.975 244.434L194.929 277.243L197.042 276.348Z" fill="#55BBB8"/>
<path d="M153.629 283.699L147.659 269.661L138.262 273.642L144.232 287.68L153.629 283.699Z" fill="#55BBB8"/>
<path d="M-114.31 236.118C-116.188 233.579 -117.834 230.875 -119.225 228.04C-126.549 213.125 -129.352 197.796 -127.576 182.467C-126.016 168.99 -121.081 155.592 -112.494 141.524C-97.017 116.166 -72.9333 94.118 -51.6923 74.6711C-48.5536 71.7944 -45.5727 69.0754 -42.6708 66.376C-37.1829 61.2926 -31.0041 55.2438 -27.2731 48.0915C-23.5421 40.9393 -22.7722 32.9004 -25.3582 26.891C-27.6679 21.5514 -32.8005 16.8424 -40.6178 12.8821C-54.614 5.80863 -69.5182 2.83346 -84.916 4.01565C-98.4778 5.07962 -112.928 9.4143 -127.852 16.9015C-155.213 30.6543 -179.928 52.3868 -202.551 73.8238L-218.955 89.3696L-224.049 83.9906L-207.664 68.4646C-184.607 46.6335 -159.398 24.4872 -131.188 10.3009C-115.396 2.36058 -100.018 -2.23024 -85.4884 -3.35332C-68.7286 -4.65373 -52.5017 -1.40271 -37.2816 6.28151C-27.8653 11.0497 -21.568 17 -18.5674 23.9749C-15.0535 32.1123 -15.8234 42.1609 -20.6994 51.5002C-24.9831 59.7164 -31.6752 66.2775 -37.6172 71.7944C-40.5388 74.5134 -43.5197 77.2325 -46.6782 80.1288C-67.5639 99.2408 -91.233 120.914 -106.157 145.366C-123.095 173.128 -125.187 199.096 -112.573 224.789C-106.256 237.616 -94.885 246.029 -82.1325 247.29C-67.9982 248.689 -54.9693 240.315 -42.3747 232.217C-39.9861 230.68 -37.5185 229.084 -35.1101 227.626L-32.4056 225.932C-24.8844 221.164 -15.5076 215.213 -5.00552 220.494C2.33803 224.198 5.47679 231.823 8.26022 238.542C8.83272 239.941 9.38545 241.261 9.93819 242.502C13.1757 249.615 17.1436 257.93 22.059 265.713C39.9836 294.164 59.744 297.927 69.9303 297.651C94.3495 296.942 119.558 286.105 141.806 276.549L145.024 275.17L147.946 281.968L144.728 283.347C121.888 293.159 95.988 304.291 70.1277 305.04C42.7275 305.808 24.3095 283.189 15.7815 269.633C10.6489 261.496 6.5428 252.886 3.18687 245.556C2.57491 244.197 1.9827 242.758 1.4102 241.359C-0.998154 235.567 -3.46576 229.557 -8.34171 227.094C-14.6193 223.942 -20.3638 227.055 -28.4378 232.178L-31.241 233.931C-33.5704 235.35 -35.8997 236.847 -38.3673 238.424C-51.3962 246.798 -66.1623 256.294 -82.8629 254.639C-95.2601 253.418 -106.512 246.679 -114.31 236.118Z" fill="#55BBB8"/>
<path opacity="0.31" d="M751.478 324.842C739.574 324.901 724.078 316.921 716.221 298.952C706.548 276.786 711.582 252.925 716.438 229.853C716.813 228.08 717.188 226.326 717.544 224.572L717.82 223.233C723.367 196.535 729.092 168.911 729.171 141.11C729.23 124.146 725.854 106.827 719.636 92.3645C712.214 75.0454 700.942 62.2778 687.044 55.4408C673.996 49.0373 659.348 48.4068 647.859 53.7858C637.633 58.5539 630.685 67.3809 627.802 79.3013C623.025 99.0044 626.934 119.574 630.685 139.494C631.178 142.036 631.652 144.578 632.106 147.08C632.362 148.44 632.619 149.819 632.856 151.198C638.127 179.886 644.108 212.396 624.94 236.335C619.057 243.665 612.484 247.467 604.844 247.999C584.847 249.379 562.007 227.745 543.667 210.366C536.502 203.589 530.342 197.756 525.091 193.954C491.986 169.975 462.375 162.212 434.679 170.29L432.409 165.404L422.045 170.172L419.952 165.621C419.562 164.792 418.86 164.151 417.998 163.837C417.137 163.524 416.186 163.563 415.353 163.946L388.861 176.162L388.348 175.039C388.146 174.613 387.785 174.283 387.341 174.12C386.898 173.958 386.408 173.977 385.979 174.172L359.822 186.21C359.607 186.306 359.413 186.444 359.252 186.615C359.091 186.786 358.965 186.987 358.883 187.207C358.8 187.427 358.762 187.661 358.771 187.896C358.779 188.131 358.835 188.362 358.934 188.575L359.467 189.698L347.978 194.998C347.145 195.38 346.499 196.076 346.181 196.933C345.862 197.79 345.898 198.738 346.28 199.569L349.735 207.017L323.46 219.193C322.508 219.7 321.786 220.55 321.442 221.57C321.098 222.591 321.158 223.704 321.61 224.681C322.062 225.659 322.871 226.427 323.872 226.828C324.873 227.229 325.99 227.233 326.993 226.838L353.268 214.681L356.762 222.228C357.149 223.055 357.846 223.697 358.704 224.014C359.561 224.331 360.509 224.298 361.342 223.922L372.831 218.622L373.345 219.745C373.546 220.171 373.908 220.501 374.351 220.664C374.794 220.826 375.284 220.807 375.713 220.612L401.87 208.554C402.085 208.458 402.279 208.321 402.44 208.15C402.601 207.978 402.727 207.777 402.809 207.557C402.892 207.337 402.93 207.103 402.921 206.868C402.913 206.633 402.857 206.403 402.758 206.189L402.225 205.086L428.737 192.87C429.566 192.484 430.209 191.788 430.526 190.933C430.844 190.077 430.811 189.131 430.435 188.299L428.855 184.91L428.322 183.748L438.686 178.979L436.16 173.502C462.612 166.015 491.078 173.66 523.019 196.791C528.092 200.456 534.172 206.229 541.239 212.908C560.092 230.759 583.544 252.984 605.081 251.507C613.648 250.915 621.248 246.541 627.684 238.522C647.859 213.342 641.72 179.984 636.311 150.567C636.074 149.188 635.817 147.809 635.56 146.45C635.106 143.947 634.633 141.406 634.139 138.844C630.448 119.299 626.618 99.1029 631.217 80.1288C633.843 69.2724 640.121 61.2729 649.359 56.958C659.881 52.0322 673.384 52.643 685.485 58.5933C698.632 65.0559 709.332 77.2128 716.418 93.7437C722.439 107.792 725.716 124.599 725.657 141.11C725.578 168.556 719.893 196.003 714.385 222.523L714.109 223.863C713.753 225.617 713.378 227.37 713.003 229.124C708.029 252.748 702.876 277.16 713.003 300.351C716.379 308.074 721.827 315.089 728.342 320.073C735.468 325.531 743.463 328.388 751.498 328.349L751.478 324.842Z" fill="#55BBB8"/>
<path d="M420.387 158.705L430.87 181.363C431.062 181.773 431.171 182.217 431.191 182.669C431.211 183.121 431.141 183.573 430.985 183.998C430.829 184.423 430.59 184.813 430.282 185.145C429.975 185.478 429.604 185.746 429.192 185.935L361.797 216.987C360.964 217.368 360.014 217.404 359.155 217.086C358.296 216.768 357.599 216.123 357.217 215.292L346.734 192.634C346.542 192.224 346.433 191.78 346.413 191.328C346.393 190.876 346.463 190.424 346.619 189.999C346.775 189.574 347.014 189.184 347.322 188.852C347.63 188.519 348 188.251 348.412 188.062L415.807 157.01C416.64 156.629 417.59 156.594 418.449 156.911C419.308 157.229 420.005 157.874 420.387 158.705Z" fill="#E2F0FE"/>
<path d="M388.783 168.103L403.194 199.254C403.294 199.467 403.351 199.698 403.361 199.934C403.372 200.169 403.335 200.404 403.255 200.626C403.174 200.847 403.05 201.05 402.891 201.224C402.732 201.398 402.539 201.538 402.325 201.638L376.169 213.677C375.739 213.872 375.249 213.89 374.806 213.728C374.363 213.566 374.001 213.236 373.8 212.81L359.389 181.659C359.289 181.447 359.233 181.217 359.223 180.984C359.213 180.75 359.249 180.516 359.33 180.296C359.411 180.076 359.534 179.875 359.693 179.703C359.853 179.531 360.044 179.392 360.258 179.295L386.414 167.236C386.627 167.137 386.857 167.081 387.091 167.071C387.325 167.06 387.559 167.097 387.78 167.177C388 167.258 388.202 167.381 388.374 167.54C388.546 167.699 388.685 167.89 388.783 168.103Z" fill="#55BBB8"/>
<path d="M399.975 197.934C400.048 198.086 400.089 198.251 400.096 198.42C400.103 198.588 400.077 198.756 400.018 198.914C399.959 199.072 399.869 199.217 399.753 199.339C399.637 199.462 399.498 199.56 399.344 199.628L376.622 210.11C376.468 210.183 376.301 210.224 376.131 210.232C375.961 210.239 375.791 210.213 375.631 210.154C375.471 210.096 375.324 210.006 375.2 209.89C375.075 209.774 374.975 209.635 374.905 209.48C374.764 209.171 374.751 208.82 374.87 208.502C374.988 208.185 375.228 207.927 375.536 207.785L398.278 197.303C398.587 197.163 398.939 197.15 399.257 197.268C399.575 197.387 399.833 197.626 399.975 197.934Z" fill="#E2F0FE"/>
<path d="M397.527 192.634C397.667 192.942 397.68 193.294 397.561 193.611C397.443 193.929 397.203 194.187 396.895 194.328L374.173 204.81C374.019 204.883 373.852 204.924 373.682 204.932C373.512 204.939 373.342 204.913 373.182 204.854C373.022 204.796 372.876 204.706 372.751 204.59C372.626 204.474 372.526 204.335 372.456 204.18C372.383 204.027 372.342 203.862 372.335 203.694C372.328 203.525 372.354 203.357 372.413 203.199C372.472 203.041 372.562 202.897 372.678 202.774C372.794 202.651 372.933 202.553 373.087 202.485L395.809 192.003C395.963 191.93 396.13 191.889 396.3 191.882C396.47 191.874 396.64 191.9 396.8 191.959C396.96 192.018 397.107 192.108 397.231 192.223C397.356 192.339 397.456 192.479 397.527 192.634Z" fill="#E2F0FE"/>
<path d="M395.08 187.334C395.215 187.643 395.225 187.992 395.107 188.309C394.99 188.625 394.753 188.883 394.448 189.028L371.707 199.51C371.398 199.646 371.047 199.655 370.731 199.538C370.414 199.42 370.155 199.184 370.009 198.88C369.937 198.726 369.895 198.559 369.888 198.39C369.88 198.22 369.907 198.05 369.965 197.891C370.024 197.731 370.114 197.585 370.23 197.46C370.346 197.336 370.486 197.236 370.641 197.166L393.363 186.703C393.517 186.631 393.684 186.589 393.854 186.582C394.024 186.574 394.194 186.601 394.354 186.659C394.514 186.718 394.66 186.808 394.785 186.924C394.909 187.039 395.01 187.179 395.08 187.334Z" fill="#E2F0FE"/>
<path d="M392.612 182.034C392.754 182.339 392.769 182.689 392.655 183.006C392.54 183.324 392.305 183.583 392 183.728L369.259 194.19C369.107 194.263 368.943 194.305 368.775 194.314C368.607 194.323 368.439 194.298 368.281 194.241C368.123 194.184 367.978 194.096 367.854 193.983C367.731 193.869 367.631 193.732 367.561 193.58C367.488 193.426 367.447 193.259 367.439 193.089C367.432 192.92 367.458 192.75 367.517 192.59C367.576 192.431 367.666 192.285 367.782 192.16C367.898 192.036 368.037 191.935 368.193 191.865L390.914 181.403C391.067 181.331 391.232 181.29 391.401 181.282C391.57 181.275 391.738 181.302 391.897 181.36C392.055 181.419 392.2 181.509 392.323 181.625C392.445 181.74 392.544 181.879 392.612 182.034Z" fill="#E2F0FE"/>
<path d="M390.164 176.713C390.237 176.867 390.279 177.034 390.286 177.204C390.294 177.373 390.267 177.543 390.209 177.703C390.15 177.862 390.06 178.008 389.944 178.133C389.828 178.257 389.688 178.358 389.533 178.428L366.811 188.89C366.505 189.032 366.155 189.047 365.837 188.933C365.519 188.818 365.259 188.584 365.114 188.279C365.04 188.127 364.998 187.961 364.989 187.792C364.98 187.623 365.005 187.454 365.061 187.295C365.118 187.135 365.206 186.989 365.32 186.863C365.434 186.738 365.572 186.637 365.726 186.565L388.467 176.103C388.773 175.961 389.123 175.945 389.441 176.06C389.759 176.174 390.019 176.409 390.164 176.713Z" fill="#E2F0FE"/>
<path d="M387.716 171.413C387.789 171.567 387.831 171.734 387.838 171.904C387.846 172.073 387.819 172.243 387.761 172.403C387.702 172.562 387.612 172.708 387.496 172.833C387.38 172.957 387.24 173.057 387.085 173.127L364.363 183.59C364.209 183.663 364.042 183.704 363.872 183.711C363.702 183.719 363.532 183.693 363.372 183.634C363.212 183.575 363.066 183.485 362.941 183.37C362.816 183.254 362.716 183.114 362.646 182.959C362.505 182.651 362.492 182.3 362.611 181.982C362.729 181.664 362.969 181.406 363.277 181.265L386.019 170.803C386.17 170.73 386.334 170.688 386.502 170.679C386.67 170.67 386.838 170.695 386.996 170.752C387.154 170.809 387.299 170.897 387.423 171.01C387.547 171.124 387.646 171.261 387.716 171.413Z" fill="#E2F0FE"/>
<path d="M350.21 200.16L353.743 207.785L327.448 219.903C326.435 220.366 325.279 220.411 324.232 220.027C323.186 219.643 322.333 218.862 321.862 217.853C321.391 216.84 321.343 215.681 321.728 214.632C322.113 213.582 322.899 212.729 323.915 212.258L350.21 200.16Z" fill="#55BBB8"/>
<path d="M276.972 265.91C277.294 265.154 277.757 264.466 278.334 263.88C278.924 263.308 279.613 262.848 280.367 262.521C281.96 261.864 283.749 261.864 285.342 262.521C286.096 262.848 286.785 263.308 287.375 263.88C287.952 264.466 288.414 265.154 288.737 265.91C289.294 267.447 289.239 269.139 288.583 270.636C287.927 272.134 286.721 273.324 285.213 273.96C283.705 274.597 282.009 274.631 280.476 274.057C278.943 273.484 277.689 272.344 276.972 270.875C276.314 269.285 276.314 267.5 276.972 265.91ZM292.133 165.916C292.133 162.291 291.442 159.592 290.06 157.779C288.678 155.966 286.27 155.06 282.854 155.06C279.439 155.06 277.031 155.966 275.649 157.779C274.267 159.592 273.557 162.291 273.557 165.916V198.604L278.373 247.251V247.133C278.584 248.748 279.137 249.852 280.032 250.443C280.848 251.024 281.825 251.34 282.828 251.347C283.832 251.354 284.813 251.052 285.638 250.482C286.507 249.911 287.059 248.827 287.276 247.251L292.133 198.604V165.916Z" fill="#55BBB8"/>
</g>
</svg>
