<svg width="58" height="89" viewBox="0 0 58 89" fill="none" xmlns="http://www.w3.org/2000/svg">
<path d="M58 28.8037C58 44.7115 31.4159 89 29 89C27.1319 89 0 44.7115 0 28.8037C0 12.8958 12.9837 0 29 0C45.0163 0 58 12.8958 58 28.8037Z" fill="#31A4A1"/>
<circle cx="29" cy="29" r="24" fill="white"/>
<path d="M16.9901 18.95L14.1301 22.75V26H12.8401V22.75L9.99012 18.95H11.4401L13.4801 21.72L15.5301 18.95H16.9901ZM20.0807 26.09C19.394 26.09 18.7973 25.9433 18.2907 25.65C17.7907 25.3567 17.404 24.9367 17.1307 24.39C16.8573 23.8433 16.7207 23.2033 16.7207 22.47C16.7207 21.7367 16.854 21.1 17.1207 20.56C17.394 20.0133 17.784 19.5933 18.2907 19.3C18.7973 19.0067 19.394 18.86 20.0807 18.86C20.7673 18.86 21.3607 19.0067 21.8607 19.3C22.3673 19.5933 22.754 20.0133 23.0207 20.56C23.294 21.1 23.4307 21.7367 23.4307 22.47C23.4307 23.2033 23.294 23.8433 23.0207 24.39C22.7473 24.9367 22.3573 25.3567 21.8507 25.65C21.3507 25.9433 20.7607 26.09 20.0807 26.09ZM20.0807 25.06C20.7273 25.06 21.2307 24.8367 21.5907 24.39C21.9573 23.9433 22.1407 23.3033 22.1407 22.47C22.1407 21.6367 21.9573 21 21.5907 20.56C21.2307 20.1133 20.7273 19.89 20.0807 19.89C19.4273 19.89 18.9173 20.1133 18.5507 20.56C18.1907 21 18.0107 21.6367 18.0107 22.47C18.0107 23.3033 18.1907 23.9433 18.5507 24.39C18.9173 24.8367 19.4273 25.06 20.0807 25.06ZM27.6436 26.09C26.677 26.09 25.9436 25.84 25.4436 25.34C24.9436 24.84 24.6936 24.11 24.6936 23.15V18.95H25.9536V23.22C25.9536 23.8267 26.097 24.2867 26.3836 24.6C26.6703 24.9067 27.0903 25.06 27.6436 25.06C28.1903 25.06 28.607 24.9033 28.8936 24.59C29.1803 24.2767 29.3236 23.82 29.3236 23.22V18.95H30.5836V23.15C30.5836 24.1033 30.3336 24.8333 29.8336 25.34C29.3336 25.84 28.6036 26.09 27.6436 26.09ZM33.2476 18.95V19.86C33.2476 20.2133 33.1876 20.5333 33.0676 20.82C32.9476 21.1 32.7443 21.38 32.4576 21.66L31.9476 21.26C32.1076 21.0867 32.231 20.9267 32.3176 20.78C32.4043 20.6333 32.461 20.4833 32.4876 20.33H31.8476V18.95H33.2476ZM40.4581 26H39.0581L37.8481 23.75C37.7348 23.5367 37.5948 23.3867 37.4281 23.3C37.2614 23.2133 37.0514 23.17 36.7981 23.17H35.8181V26H34.5481V18.95H37.6681C38.4681 18.95 39.0748 19.13 39.4881 19.49C39.9081 19.8433 40.1181 20.3567 40.1181 21.03C40.1181 21.57 39.9648 22.0167 39.6581 22.37C39.3581 22.7167 38.9314 22.9433 38.3781 23.05C38.7514 23.15 39.0514 23.4133 39.2781 23.84L40.4581 26ZM37.4881 22.18C37.9748 22.18 38.3314 22.09 38.5581 21.91C38.7848 21.7233 38.8981 21.44 38.8981 21.06C38.8981 20.6733 38.7848 20.3933 38.5581 20.22C38.3314 20.04 37.9748 19.95 37.4881 19.95H35.8081V22.18H37.4881ZM41.5012 26V18.95H46.2212V19.97H42.7612V21.91H46.0212V22.92H42.7612V24.98H46.2212V26H41.5012ZM20.9466 32.95H22.2066V40H20.9466V36.94H17.3366V40H16.0666V32.95H17.3366V35.9H20.9466V32.95ZM23.7229 40V32.95H28.4429V33.97H24.9829V35.91H28.2429V36.92H24.9829V38.98H28.4429V40H23.7229ZM35.5216 40H34.1216L32.9116 37.75C32.7982 37.5367 32.6582 37.3867 32.4916 37.3C32.3249 37.2133 32.1149 37.17 31.8616 37.17H30.8816V40H29.6116V32.95H32.7316C33.5316 32.95 34.1382 33.13 34.5516 33.49C34.9716 33.8433 35.1816 34.3567 35.1816 35.03C35.1816 35.57 35.0282 36.0167 34.7216 36.37C34.4216 36.7167 33.9949 36.9433 33.4416 37.05C33.8149 37.15 34.1149 37.4133 34.3416 37.84L35.5216 40ZM32.5516 36.18C33.0382 36.18 33.3949 36.09 33.6216 35.91C33.8482 35.7233 33.9616 35.44 33.9616 35.06C33.9616 34.6733 33.8482 34.3933 33.6216 34.22C33.3949 34.04 33.0382 33.95 32.5516 33.95H30.8716V36.18H32.5516ZM36.5647 40V32.95H41.2847V33.97H37.8247V35.91H41.0847V36.92H37.8247V38.98H41.2847V40H36.5647Z" fill="black"/>
</svg>
