<svg id="Layer_1" data-name="Layer 1" xmlns="http://www.w3.org/2000/svg" viewBox="0 0 180.2 198.2"><defs><style>.cls-1{fill:#49a19c;}.cls-2{fill:#2c736d;}.cls-3{fill:none;}.cls-4{fill:#322d23;}.cls-5{fill:#515151;}</style></defs><title>Asset 6</title><path class="cls-1" d="M161.3,156.5A86.1,86.1,0,0,0,174,111.2h0A86.9,86.9,0,0,0,87.2,24.2H87a87,87,0,0,0,0,174h.1A86.6,86.6,0,0,0,140.2,180l40,18.2ZM87,176.3a65.2,65.2,0,0,1-65.1-65.1h0A65.1,65.1,0,0,1,86.9,46H87a65.2,65.2,0,0,1,65.1,65.1v.3a64.4,64.4,0,0,1-13.3,39.2,68,68,0,0,1-6.1,7A65.1,65.1,0,0,1,87,176.3Z"/><path class="cls-2" d="M21.9,111.2h0A65,65,0,0,1,86.9,46H87V24.2h0a87.1,87.1,0,0,0-87,87H0a87.2,87.2,0,0,0,87,87h0V176.3h0A65,65,0,0,1,21.9,111.2Z"/><rect class="cls-3" x="86.9" width="0.1" height="41.1"/><polygon class="cls-2" points="67.6 0 67.6 10.2 80.6 10.2 80.6 41.1 86.9 41.1 86.9 0 67.6 0"/><polygon class="cls-1" points="93.2 10.2 106.2 10.2 106.2 0 87 0 87 41.1 93.2 41.1 93.2 10.2"/><path class="cls-1" d="M124.8,95.5V75.7H87v35.5H99.4V95.5Z"/><path class="cls-2" d="M87,75.7H49.3V95.5H74.6v15.7H87Z"/><path class="cls-4" d="M74.6,111.2V156H87V111.2Z"/><path class="cls-5" d="M87,156H99.4V111.2H87Z"/></svg>