<svg width="534" height="563" viewBox="0 0 534 563" fill="none" xmlns="http://www.w3.org/2000/svg">
<path opacity="0.1" fill-rule="evenodd" clip-rule="evenodd" d="M245.559 70.9278L216.309 79.3563L225.525 111.337C247.006 106.752 269.12 105.668 291.006 108.158C317.556 111.179 343.251 119.4 366.624 132.35C389.996 145.301 410.59 162.729 427.227 183.639C443.865 204.548 456.221 228.53 463.59 254.215C474.077 290.148 474.352 328.291 464.386 364.372L533.947 445.942L432.148 430.927C405.621 467.31 367.739 493.829 324.475 506.304L324.25 506.368C272.335 521.328 216.603 515.052 169.315 488.921C122.027 462.79 87.0566 418.944 72.0966 367.028C57.1366 315.113 63.4126 259.381 89.544 212.093C113.249 169.197 151.53 136.436 197.19 119.554L187.96 87.5257L158.711 95.9543L152.097 73.0046L195.522 60.4914L211.212 114.94L211.212 114.94L195.522 60.4912L195.746 60.4265L238.946 47.9781L245.559 70.9278ZM121.371 352.829C132.619 391.641 158.796 424.41 194.164 443.954C229.532 463.498 271.205 468.224 310.051 457.094C348.527 446.031 381.107 420.275 400.75 385.39C404.258 379.039 407.327 372.455 409.937 365.685C422.054 334.787 423.639 300.754 414.446 268.864L414.251 268.189C403.003 229.377 376.826 196.608 341.458 177.064C306.09 157.52 264.417 152.795 225.571 163.924L225.346 163.989C206.119 169.561 188.179 178.866 172.548 191.372C156.917 203.878 143.903 219.34 134.248 236.875C124.593 254.411 118.487 273.676 116.277 293.572C114.068 313.467 115.798 333.603 121.371 352.829ZM329.875 206.241L342.713 250.79L285.564 267.259L295.743 302.583L324.789 403.381L296.891 411.42L296.889 411.421L268.991 419.46L239.945 318.661L239.945 318.661L229.766 283.337L172.842 299.741L160.005 255.191L244.827 230.749L329.875 206.241Z" fill="#31A4A1"/>
</svg>
