<svg width="269" height="468" viewBox="0 0 269 468" fill="none" xmlns="http://www.w3.org/2000/svg">
<path opacity="0.1" fill-rule="evenodd" clip-rule="evenodd" d="M181.559 23.9277L152.309 32.3563L161.525 64.3372C183.006 59.7516 205.12 58.6681 227.006 61.1582C253.556 64.1789 279.251 72.3994 302.624 85.3504C325.996 98.3014 346.59 115.729 363.227 136.639C379.865 157.548 392.221 181.53 399.59 207.215C410.077 243.148 410.352 281.291 400.386 317.372L469.947 398.942L368.148 383.927C341.621 420.31 303.739 446.829 260.475 459.303L260.25 459.368C208.335 474.328 152.603 468.052 105.315 441.921C58.0271 415.79 23.0566 371.943 8.09663 320.028C-6.86335 268.113 -0.587352 212.381 25.544 165.093C49.2486 122.197 87.5305 89.4362 133.19 72.5542L123.96 40.5256L94.7106 48.9542L88.0974 26.0046L131.522 13.4914L147.212 67.9397L147.212 67.9396L131.522 13.4911L131.746 13.4264L131.747 13.4262L174.946 0.978076L181.559 23.9277ZM57.3708 305.829C68.6193 344.641 94.796 377.41 130.164 396.954C165.532 416.498 207.205 421.224 246.051 410.094C284.527 399.031 317.107 373.275 336.75 338.39C340.258 332.039 343.327 325.455 345.937 318.685C358.054 287.787 359.639 253.754 350.446 221.864L350.251 221.189C339.003 182.377 312.826 149.608 277.458 130.064C242.09 110.52 200.417 105.795 161.571 116.924L161.346 116.989C142.119 122.561 124.179 131.866 108.548 144.372C92.9174 156.878 79.9031 172.34 70.2481 189.875C60.5931 207.411 54.4866 226.676 52.2771 246.571C50.0676 266.467 51.7984 286.603 57.3708 305.829ZM265.875 159.241L278.713 203.79L221.564 220.259L231.743 255.583L260.789 356.381L232.891 364.42L232.889 364.42L204.991 372.46L175.945 271.661L175.945 271.661L165.766 236.337L108.842 252.741L96.0046 208.191L180.827 183.749L265.875 159.241Z" fill="#31A4A1"/>
</svg>
